<svg width="50" height="50" viewBox="0 0 50 50" fill="none" xmlns="http://www.w3.org/2000/svg">
<g clip-path="url(#clip0_595_133)">
<path d="M25.1599 0.969727C11.6754 0.969727 0.659912 11.9852 0.659912 25.4697C0.659912 38.9542 11.6754 49.9697 25.1599 49.9697C38.6444 49.9697 49.6599 38.9542 49.6599 25.4697C49.6599 11.9852 38.6444 0.969727 25.1599 0.969727ZM48.1405 25.4697C48.1405 31.5472 45.7981 37.055 41.9364 41.17L37.1883 36.4219C37.5049 35.9154 37.6948 35.3457 37.6948 34.7126C37.6315 33.6997 36.7452 33.1932 36.0488 32.8767C35.7956 32.7501 35.479 32.6234 35.4157 32.4968C35.1625 32.1803 35.0992 31.8638 35.2891 31.5472C35.5423 31.0408 36.1754 30.6609 36.6819 30.6609C38.2012 30.7242 42.3162 30.9141 43.0126 27.4955C43.3292 25.8495 42.886 25.2165 42.3795 24.4568C42.1896 24.2035 42.063 23.9503 41.8731 23.6338C41.24 22.4942 40.417 20.9749 39.0242 20.0253C38.0113 19.3289 36.9984 19.0123 36.0488 18.6325C35.7323 18.5059 35.479 18.4426 35.1625 18.316C35.8589 15.9103 35.6056 13.5046 34.3395 10.909C33.833 9.83278 32.8201 8.56663 31.554 8.25009C30.8576 8.06017 30.1612 8.18678 29.5914 8.56663C27.1224 10.2126 28.7051 14.1377 29.908 15.9736C30.7943 17.3663 31.8072 18.2526 32.8201 18.8224C32.7568 18.8857 32.7568 18.8857 32.6935 18.949L32.5669 19.0756C32.1237 19.3922 31.8705 19.8353 31.6173 20.2152C31.554 20.3418 31.4273 20.4684 31.364 20.595C31.1741 20.4684 30.9209 20.1519 30.7943 19.9619C30.6043 19.7087 30.3511 19.3922 30.0979 19.139C26.9958 15.9736 23.6405 14.834 19.209 15.5304C18.4493 15.657 17.6896 15.847 16.9932 16.1002L9.45965 8.69324C13.5746 4.83149 19.0824 2.48911 25.1599 2.48911C37.8214 2.48911 48.1405 12.8082 48.1405 25.4697ZM24.7167 36.0421C24.7167 36.1687 24.7167 36.2953 24.7167 36.3586C24.7167 36.3586 24.5268 36.5485 23.5139 36.6118C16.4235 37.1816 12.2452 35.0291 10.979 30.1545C10.8524 29.7113 10.7891 29.2682 10.6625 28.9516C10.5359 28.3185 10.4093 27.8121 10.2193 27.3689C10.5359 25.533 10.7891 24.3935 11.4855 22.8741C12.4984 20.7849 14.3343 18.949 16.4868 17.8728L34.9093 36.2953C34.8459 36.2953 34.7193 36.3586 34.656 36.3586C33.2 36.6118 31.9971 36.6751 30.6043 36.4219C29.6547 36.232 29.3382 35.6622 28.9584 35.0291C28.7051 34.5227 28.3886 34.0795 27.8188 33.763C27.249 33.4464 26.616 33.4464 26.0462 33.6364C25.4131 33.8896 24.97 34.3961 24.7801 35.0291C24.6534 35.409 24.6534 35.7255 24.7167 36.0421ZM18.0062 17.303C18.4493 17.1764 18.8292 17.0498 19.2723 16.9865C23.1974 16.4167 26.1095 17.3663 28.895 20.1519C29.085 20.3418 29.3382 20.595 29.5281 20.8483C30.0979 21.5446 30.6043 22.1777 31.364 22.1144C31.8072 22.1144 32.187 21.8612 32.5036 21.418C32.6302 21.2914 32.6935 21.1015 32.8201 20.9749C33.01 20.6583 33.2 20.3418 33.4532 20.1519L33.5798 20.0253C33.833 19.8353 34.0229 19.7087 34.2762 19.5188C34.656 19.7087 35.0992 19.8353 35.479 19.9619C36.4286 20.2785 37.3149 20.595 38.1379 21.1648C39.2142 21.9245 39.9105 23.1906 40.4803 24.2036C40.6702 24.5834 40.9235 24.8999 41.1134 25.1532C41.5565 25.7862 41.7465 26.0395 41.5565 27.0524C41.24 28.5718 39.8472 29.1415 36.8085 29.0149C35.7322 28.9516 34.5294 29.7113 34.0229 30.6609C33.5165 31.6738 33.5798 32.6234 34.2129 33.3831C34.4661 33.763 34.9093 33.9529 35.3524 34.1428C35.6689 34.3327 36.1754 34.586 36.1754 34.7759C36.1754 34.9658 36.1754 35.1557 36.1121 35.2824L18.0062 17.303ZM31.1108 15.0873C30.0979 13.5046 28.9584 10.6558 30.3511 9.70616C30.4777 9.57955 30.6677 9.57955 30.7943 9.57955C30.8576 9.57955 30.9842 9.57955 31.0475 9.64286C31.6806 9.83278 32.4403 10.5925 32.8834 11.5421C33.9596 13.6945 34.2129 15.657 33.7064 17.6196C32.8201 17.1131 31.9338 16.3534 31.1108 15.0873ZM2.17929 25.4697C2.17929 19.3922 4.52167 13.8844 8.38342 9.76947L15.4105 16.7966C13.1315 17.9994 11.2323 19.9619 10.156 22.241C9.58627 23.5072 9.26973 24.5201 9.0165 25.7862C9.0165 25.7862 8.95319 25.7862 8.95319 25.7229C8.13019 25.1532 7.05397 25.1532 6.23097 25.7862C5.53459 26.2927 5.02813 27.3689 5.59789 28.6351C5.85112 29.2048 6.29428 29.648 6.92735 29.8379C7.56043 30.0278 8.25681 29.9645 8.82658 29.648C8.95319 29.5847 9.07981 29.4581 9.20642 29.3315C9.26973 29.648 9.39634 30.0278 9.45965 30.471C10.7891 35.5989 14.7775 38.1945 21.2981 38.1945C22.0578 38.1945 22.8175 38.1312 23.6405 38.0679C24.7801 37.9413 25.4764 37.688 25.8563 37.2449C26.2361 36.7384 26.2361 36.1687 26.1728 35.7888C26.1728 35.6622 26.1095 35.4723 26.1728 35.409C26.2361 35.2191 26.426 35.0291 26.616 34.9658C26.8059 34.9025 26.9958 34.9025 27.1224 35.0291C27.3124 35.0924 27.439 35.409 27.6289 35.7255C28.072 36.4852 28.7051 37.4981 30.2878 37.8147C31.9338 38.1312 33.4532 38.0046 34.8459 37.7514C35.2258 37.688 35.6689 37.5614 36.0488 37.3082L40.8602 42.1196C36.7452 46.1079 31.2374 48.4503 25.1599 48.4503C12.4984 48.4503 2.17929 38.1312 2.17929 25.4697ZM8.63665 27.5588C8.51004 28.002 8.1935 28.3185 8.06689 28.4452C7.87696 28.5718 7.68704 28.5718 7.43381 28.5085C7.24389 28.4452 7.05397 28.3185 6.99066 28.1286C6.80074 27.6855 6.86404 27.2423 7.18058 26.9891C7.3072 26.8625 7.49712 26.7992 7.68704 26.7992C7.81366 26.7992 7.94027 26.8625 8.06689 26.9258C8.32012 27.1157 8.51004 27.3056 8.63665 27.5588Z" fill="white"/>
</g>
<defs>
<clipPath id="clip0_595_133">
<rect width="49" height="49" fill="white" transform="translate(0.659912 0.969727)"/>
</clipPath>
</defs>
</svg>
