<svg width="51" height="34" viewBox="0 0 51 34" fill="none" xmlns="http://www.w3.org/2000/svg">
<g clip-path="url(#clip0_595_115)">
<mask id="mask0_595_115" style="mask-type:luminance" maskUnits="userSpaceOnUse" x="0" y="0" width="51" height="34">
<path d="M50.2248 0.969727H0.829956V33.0763H50.2248V0.969727Z" fill="white"/>
</mask>
<g mask="url(#mask0_595_115)">
<path d="M46.8857 25.2613H39.9969V24.2694C39.9969 24.2033 39.9126 24.1191 39.8465 24.1191H38.2822C38.216 24.1191 38.1318 24.2033 38.1318 24.2694V25.2613H4.16907C2.32805 25.2613 0.829956 26.7581 0.829956 28.5976C0.829956 30.4671 2.29797 31.9339 4.16907 31.9339H38.0716V32.9257C38.0716 32.9919 38.1558 33.076 38.222 33.076H39.7863C39.8465 33.076 39.9367 32.9919 39.9367 32.9257V31.9339H46.8255C48.6665 31.9339 50.1646 30.437 50.1646 28.5976C50.1646 26.7581 48.6906 25.2613 46.8857 25.2613ZM46.8857 30.972H39.9969V26.163H46.8857C48.2273 26.163 49.3223 27.257 49.3223 28.5976C49.3223 29.9261 48.2514 30.972 46.8857 30.972Z" fill="white"/>
<path d="M46.8856 13.7134H16.0515V12.7215C16.0515 12.6614 15.9613 12.5713 15.9011 12.5713H14.3368C14.2707 12.5713 14.1864 12.6614 14.1864 12.7215V13.7134H4.16907C2.32805 13.7134 0.829956 15.2102 0.829956 17.0497C0.829956 18.9192 2.29797 20.386 4.16907 20.386H14.1864V21.3178C14.1864 21.3779 14.2707 21.4681 14.3368 21.4681H15.9011C15.9613 21.4681 16.0515 21.3779 16.0515 21.3178V20.3259H46.8856C48.7267 20.3259 50.2248 18.8291 50.2248 16.9896C50.2248 15.1802 48.7267 13.7134 46.8856 13.7134ZM46.8856 19.4242H16.0515V14.6151H46.8856C48.2273 14.6151 49.3223 15.7092 49.3223 17.0497C49.3223 18.3782 48.2514 19.4242 46.8856 19.4242Z" fill="white"/>
<path d="M46.8856 2.11189H21.1053V1.12001C21.1053 1.0599 21.0151 0.969727 20.9549 0.969727H19.3906C19.3245 0.969727 19.2402 1.0599 19.2402 1.12001V2.11189H4.16907C2.32805 2.11189 0.829956 3.60871 0.829956 5.44818C0.829956 7.31771 2.29797 8.78448 4.16907 8.78448H19.2402V9.77635C19.2402 9.83646 19.3245 9.92663 19.3906 9.92663H20.9549C21.0151 9.92663 21.1053 9.83646 21.1053 9.77635V8.78448H46.8856C48.7267 8.78448 50.2248 7.28765 50.2248 5.44818C50.2248 3.60871 48.7267 2.11189 46.8856 2.11189ZM46.8856 7.82266H21.1053V3.01359H46.8856C48.2273 3.01359 49.3223 4.10765 49.3223 5.44818C49.3223 6.7827 48.2514 7.82266 46.8856 7.82266Z" fill="white"/>
</g>
</g>
<defs>
<clipPath id="clip0_595_115">
<rect width="50" height="33" fill="white" transform="translate(0.829956 0.969727)"/>
</clipPath>
</defs>
</svg>
