<svg width="49" height="50" viewBox="0 0 49 50" fill="none" xmlns="http://www.w3.org/2000/svg">
<g clip-path="url(#clip0_595_86)">
<mask id="mask0_595_86" style="mask-type:luminance" maskUnits="userSpaceOnUse" x="0" y="0" width="49" height="50">
<path d="M48.5783 0.969727H0.829956V49.5412H48.5783V0.969727Z" fill="white"/>
</mask>
<g mask="url(#mask0_595_86)">
<path d="M24.7101 49.5453C25.0384 49.5453 25.307 49.272 25.307 48.9381V43.0116C37.7693 42.6898 48.5783 32.4338 48.5783 20.757C48.5783 20.4777 48.3932 20.2348 48.1247 20.168C42.8485 18.8442 38.766 19.0264 35.6086 20.0222C35.1789 17.3505 33.0004 6.53592 25.0682 1.09523C24.8533 0.93128 24.5191 0.943425 24.3162 1.11952C16.4079 6.56628 14.2294 17.3566 13.8056 20.0222C9.63952 18.7228 5.07359 19.2146 1.28357 20.168C1.01498 20.2348 0.829956 20.4777 0.829956 20.757C0.829956 32.4338 11.645 42.7019 24.1132 43.0177V48.9381C24.1132 49.272 24.3818 49.5453 24.7101 49.5453ZM47.3786 21.2306C47.0861 32.0634 36.9635 41.4814 25.307 41.7972V39.0464C25.307 39.0282 25.307 39.0161 25.307 38.9979C25.307 38.4089 25.3965 28.6205 31.5441 23.538C35.3222 20.4109 40.6521 19.6336 47.3786 21.2306ZM24.7101 2.31575C32.135 7.66535 34.1464 18.401 34.4627 20.4291C31.174 21.765 29.0194 24.0238 27.6168 26.228C26.1067 28.6023 25.2115 31.3165 24.7101 33.6725C24.2087 31.3226 23.3135 28.6083 21.8034 26.2341C19.9293 23.2891 17.5479 21.4735 14.9575 20.4291C15.2739 18.401 17.2852 7.65928 24.7101 2.31575ZM2.02964 21.2306C8.75617 19.6336 14.0801 20.4048 17.8702 23.532C24.0237 28.6144 24.1192 38.4089 24.1132 38.9979C24.1132 39.01 24.1132 39.0282 24.1132 39.0404V41.8032C12.4507 41.4935 2.32209 32.0695 2.02964 21.2306Z" fill="white" stroke="white" stroke-width="0.5"/>
</g>
</g>
<defs>
<clipPath id="clip0_595_86">
<rect width="48" height="49" fill="white" transform="translate(0.829956 0.969727)"/>
</clipPath>
</defs>
</svg>
