<svg width="45" height="46" viewBox="0 0 45 46" fill="none" xmlns="http://www.w3.org/2000/svg">
<g clip-path="url(#clip0_595_125)">
<mask id="mask0_595_125" style="mask-type:luminance" maskUnits="userSpaceOnUse" x="0" y="0" width="45" height="46">
<path d="M44.4803 0.970703H0.480347V45.9707H44.4803V0.970703Z" fill="white"/>
</mask>
<g mask="url(#mask0_595_125)">
<path d="M44.4804 16.9027C44.4804 16.8468 44.4804 16.8468 44.4804 16.7909V16.735C44.4804 16.735 44.4804 16.6791 44.4804 16.6232C44.4256 16.5673 44.4256 16.4555 44.3709 16.3996L44.3162 16.3437C44.2615 16.2878 44.2067 16.2319 44.152 16.2319C44.0973 16.2319 44.0973 16.2319 44.0425 16.176H43.9878C43.9878 16.176 43.9331 16.176 43.8784 16.176C43.8237 16.176 40.5948 16.0642 36.4356 16.5114C36.4903 16.3996 36.4903 16.2878 36.545 16.176C37.6943 10.6418 35.7789 3.87787 29.8684 1.58595C26.5848 0.30023 21.9878 0.747436 18.6495 5.77849C15.3659 0.747436 10.7142 0.30023 7.43066 1.58595C1.57494 3.87787 -0.340489 10.6418 0.808765 16.176C2.66946 25.2319 10.7689 31.1574 15.4207 33.9524C15.6943 37.0828 17.0077 39.8779 19.142 42.1139C21.6047 44.6294 24.8336 45.971 28.3361 45.971C31.948 45.971 35.3411 44.5176 37.9132 41.8903C44.754 34.9586 44.5351 17.6294 44.4804 16.9027ZM43.1122 18.6356C43.0575 21.5425 42.6744 28.0828 40.8684 33.7288L28.7192 33.3375L43.1122 18.6356ZM20.346 23.8903C21.7142 22.4928 23.6296 21.263 26.0376 20.3127L26.4754 33.617L19.6893 40.6046C17.7739 38.3686 16.7341 35.5176 16.7341 32.5549C16.7888 29.3127 18.0475 26.2381 20.346 23.8903ZM35.1769 15.8965C35.1222 16.176 35.0674 16.4555 34.958 16.735C34.7391 16.735 34.5202 16.7909 34.356 16.8468C27.4057 17.7971 22.3709 19.8654 19.361 22.8841C16.8983 25.4555 15.4754 28.7536 15.3659 32.2754C11.0973 29.5922 3.81872 24.058 2.1222 15.8965C1.0824 10.9214 2.77892 4.88408 7.9232 2.87166C8.74409 2.53625 9.67444 2.36855 10.6047 2.36855C13.1221 2.36855 15.9679 3.71017 18.0475 7.45551C18.157 7.67911 18.3759 7.79091 18.6495 7.79091C18.9231 7.79091 19.142 7.67911 19.2515 7.45551C22.0973 2.31265 26.3659 1.75365 29.3759 2.92756C34.5202 4.88408 36.2167 10.9214 35.1769 15.8965ZM27.4057 19.8095C32.9331 17.9089 39.3908 17.6294 42.1818 17.5735L27.7888 32.2754L27.4057 19.8095ZM20.6744 41.5549L27.4605 34.6232L40.4306 35.0704C39.5003 37.5859 38.351 39.5425 36.9828 40.8841C32.4406 45.5238 25.3261 45.8033 20.6744 41.5549Z" fill="white"/>
</g>
</g>
<defs>
<clipPath id="clip0_595_125">
<rect width="44" height="45" fill="white" transform="translate(0.480347 0.970703)"/>
</clipPath>
</defs>
</svg>
