<svg width="252" height="189" xmlns="http://www.w3.org/2000/svg" xmlns:xlink="http://www.w3.org/1999/xlink" xml:space="preserve" overflow="hidden"><defs><clipPath id="clip0"><rect x="0" y="230" width="252" height="189"/></clipPath></defs><g clip-path="url(#clip0)" transform="matrix(1 0 0 1 0 -230)"><path d="M188.996 324.5 188.996 293C188.996 258.204 160.791 230 125.996 230L125.996 261.5C125.996 296.295 154.205 324.5 188.996 324.5 154.201 324.5 125.996 352.704 125.996 387.5L125.996 324.5 125.996 293C125.996 258.204 97.7912 230 62.9957 230L0 230 0 324.5 63.0004 324.5 63.0004 261.5C63.0004 296.295 91.2049 324.5 126 324.5L63.0004 324.5 63.0004 419 126 419C160.796 419 189 390.795 189 356L189 324.5 188.996 324.5Z" fill="#FFFFFF" fill-rule="evenodd"/><path d="M252 325C217.205 325 189 353.055 189 387.667L189 419C223.795 419 252 390.944 252 356.333L252 325Z" fill="#FFFFFF" fill-rule="evenodd"/></g></svg>