<svg width="2755" height="4353" xmlns="http://www.w3.org/2000/svg" xmlns:xlink="http://www.w3.org/1999/xlink" xml:space="preserve" overflow="hidden"><defs><clipPath id="clip0"><rect x="6167" y="929" width="2755" height="4353"/></clipPath></defs><g clip-path="url(#clip0)" transform="translate(-6167 -929)"><path d="M8768.6 929.074C8797.51 931.302 8837.78 983.864 8870.87 1078.85 8945.88 1294.1 8936.79 1729.07 8853.89 1889.37 8670.33 2244.45 8266.75 2441.91 7607.59 2499.19 6874.67 2562.87 6430.27 2702.98 6300.16 2911.32 6214.69 3048.25 6167 3029.52 6167 2859.07 6167 2410.75 6424.12 1988.5 6806.57 1808.91 6920.33 1755.44 7198.45 1674.11 7424.57 1628.1 8286.39 1452.85 8730.5 1245.67 8730.5 1018.95 8730.5 956.058 8746.11 927.341 8768.6 929.074Z" fill="#A191B8" fill-rule="evenodd"/><path d="M7363.96 2917.19C7730.77 2921.38 8100.98 2994.08 8274.13 3112.71 8551.57 3302.76 8603.38 3476.81 8613.39 4252.01 8620.35 4794.46 8638.88 4966.09 8700.64 5060.29 8743.74 5126.11 8779 5191.54 8779 5205.81 8779 5220.02 8570.1 5231.68 8314.71 5231.68 7860.34 5231.68 7847.52 5228.53 7713.74 5085.34 7584.64 4947.18 7573.47 4943.94 7512.96 5027.31 7181.73 5483.78 6303.85 5287.73 6262.45 4748.08 6228.97 4312.65 6377.37 4155.29 6952.27 4016.45 7455.5 3894.92 7618.16 3767.55 7618.16 3494.9 7618.16 3142.5 7298.16 2952.45 7171.72 3229.84 7124.47 3333.57 7128.92 3381.15 7196.97 3499.73 7307.83 3692.83 7302.85 3718.03 7136.9 3803.82 6824.63 3965.29 6508.01 3863.3 6411.23 3570.09 6312.8 3272.01 6498.43 3031.27 6884.7 2956.07 7031.2 2927.54 7197.23 2915.29 7363.96 2917.19ZM7593.98 4073.56 7364.23 4294.13C7124.37 4524.37 7090.75 4621.48 7199.48 4770.13 7284.13 4885.86 7481.37 4840.69 7563.79 4686.76 7596.83 4625.01 7617.19 4461.75 7608.92 4324.02L7593.98 4073.56Z" fill="#A191B8" fill-rule="evenodd"/></g></svg>