<svg width="8661" height="4353" xmlns="http://www.w3.org/2000/svg" xmlns:xlink="http://www.w3.org/1999/xlink" xml:space="preserve" overflow="hidden"><defs><clipPath id="clip0"><rect x="261" y="929" width="8661" height="4353"/></clipPath></defs><g clip-path="url(#clip0)" transform="translate(-261 -929)"><path d="M8768.6 929.074C8797.51 931.302 8837.78 983.864 8870.87 1078.85 8945.88 1294.1 8936.79 1729.07 8853.89 1889.37 8670.33 2244.45 8266.75 2441.91 7607.59 2499.19 6874.67 2562.87 6430.27 2702.98 6300.16 2911.32 6214.69 3048.25 6167 3029.52 6167 2859.07 6167 2410.75 6424.12 1988.5 6806.57 1808.91 6920.33 1755.44 7198.45 1674.11 7424.57 1628.1 8286.39 1452.85 8730.5 1245.67 8730.5 1018.95 8730.5 956.058 8746.11 927.341 8768.6 929.074Z" fill="#343A40" fill-rule="evenodd"/><path d="M7363.96 2917.19C7730.77 2921.38 8100.98 2994.08 8274.13 3112.71 8551.57 3302.76 8603.38 3476.81 8613.39 4252.01 8620.35 4794.46 8638.88 4966.09 8700.64 5060.29 8743.74 5126.11 8779 5191.54 8779 5205.81 8779 5220.02 8570.1 5231.68 8314.71 5231.68 7860.34 5231.68 7847.52 5228.53 7713.74 5085.34 7584.64 4947.18 7573.47 4943.94 7512.96 5027.31 7181.73 5483.78 6303.85 5287.73 6262.45 4748.08 6228.97 4312.65 6377.37 4155.29 6952.27 4016.45 7455.5 3894.92 7618.16 3767.55 7618.16 3494.9 7618.16 3142.5 7298.16 2952.45 7171.72 3229.84 7124.47 3333.57 7128.92 3381.15 7196.97 3499.73 7307.83 3692.83 7302.85 3718.03 7136.9 3803.82 6824.63 3965.29 6508.01 3863.3 6411.23 3570.09 6312.8 3272.01 6498.43 3031.27 6884.7 2956.07 7031.2 2927.54 7197.23 2915.29 7363.96 2917.19ZM7593.98 4073.56 7364.23 4294.13C7124.37 4524.37 7090.75 4621.48 7199.48 4770.13 7284.13 4885.86 7481.37 4840.69 7563.79 4686.76 7596.83 4625.01 7617.19 4461.75 7608.92 4324.02L7593.98 4073.56Z" fill="#343A40" fill-rule="evenodd"/><path d="M261 3007 700.992 3007C1176.87 3007 1349.01 3062.7 1511.62 3269.3 1563.18 3334.87 1731.54 3750.64 1885.69 4193.2 2116.83 4856.91 2186.53 5007.28 2283.55 5051.48 2453.66 5128.93 2564.27 5042.77 2557.94 4837.86 2549.76 4574.78 2072.14 3295.99 1924.53 3141.95L1795.19 3007 2309.38 3007C2783.23 3007 2834.26 3016.14 2959.28 3123.72L3095 3240.39 3095 4032.43C3095 4718.14 3083.15 4842.5 3006.59 4959.32 2857.47 5186.81 2647.46 5240.72 1980 5222.83 1180.89 5201.41 1235.69 5257.31 769.093 3989.01 643.774 3648.33 478.166 3288.06 401.118 3188.32L261 3007Z" fill="#343A40" fill-rule="evenodd"/><path d="M5274.31 3007C5700.01 3007 5745.24 3016.24 5854.68 3125.73 5970.71 3241.7 5973.42 3261.91 5973.71 4008.33 5973.95 4810.12 6019.27 5100.38 6156.67 5180.47 6215.63 5214.81 6095.69 5229.12 5739.96 5230.19 5253.32 5231.59 5236.92 5228.06 5101.31 5092.45 4962.5 4953.66 4961.83 4953.56 4875.3 5050.77 4746.7 5195.17 4508.5 5280 4231.42 5280 3944.47 5280 3761.27 5197.21 3585.13 4987.85 3460.97 4840.34 3458.46 4823.08 3458.46 4122.8 3458.46 3448.45 3407.77 3103.72 3308.62 3103.72 3284.64 3103.72 3265 3081.96 3265 3055.36 3265 2991.77 4161.2 2991.43 4279.98 3054.97 4421.5 3130.76 4468.31 3376.68 4450.22 3950.05 4431.94 4531.26 4478.61 4769.49 4626.32 4848.57 4699.35 4887.64 4750.67 4881.45 4840.09 4822.88 4956.6 4746.57 4957.76 4738.06 4957.76 3976.56 4957.76 3357.28 4943.64 3193.19 4885.22 3134.82 4845.31 3094.92 4812.67 3049.85 4812.67 3034.61 4812.67 3019.43 5020.39 3007 5274.31 3007Z" fill="#343A40" fill-rule="evenodd"/></g></svg>