<svg width="180" height="40" viewBox="0 0 180 40" fill="none" xmlns="http://www.w3.org/2000/svg">
<g id="g14">
<g id="g20">
<path id="path22" d="M179.175 28.4837C179.058 28.6685 178.99 28.8816 178.838 29.0471C178.33 29.6018 177.558 29.5365 177.016 28.8793C176.541 28.304 176.077 27.7194 175.608 27.1389C171.143 21.6117 166.678 16.0846 162.213 10.5571C160.842 8.85912 159.471 7.16051 158.099 5.46252C158.037 5.38515 157.97 5.31086 157.89 5.2163C157.816 5.34463 157.849 5.46703 157.849 5.58021C157.847 13.023 157.847 20.4659 157.847 27.9087C157.847 28.8611 157.184 29.3564 156.268 29.0924C155.834 28.9671 155.604 28.6673 155.538 28.2321C155.522 28.1226 155.518 28.0104 155.518 27.8995C155.517 19.3537 155.517 10.8076 155.518 2.2618C155.518 1.49017 155.904 1.00939 156.615 0.899679C157.064 0.830294 157.412 0.99649 157.695 1.34956C159.207 3.23421 160.726 5.11437 162.242 6.99575C166.569 12.3626 170.896 17.7294 175.223 23.0962C175.744 23.7423 176.265 24.3883 176.8 25.0514C176.876 24.9031 176.843 24.7809 176.843 24.6644C176.845 17.2328 176.845 9.80104 176.845 2.36946C176.845 1.38722 177.592 0.876143 178.522 1.20935C178.854 1.32827 179.014 1.59701 179.175 1.87414V28.4837Z" fill="#EA3D31"/>
</g>
<g id="g24">
<path id="path26" d="M179.174 38.9124C179.163 38.9108 179.151 38.9061 179.141 38.9084C178.386 39.0735 178.004 38.6662 177.638 38.062C176.79 36.6637 175.871 35.3091 174.98 33.9368C174.934 33.8649 174.908 33.7743 174.81 33.7358C174.734 33.8215 174.776 33.9247 174.775 34.016C174.772 35.5425 174.767 37.0691 174.779 38.5956C174.781 38.8494 174.71 38.9448 174.462 38.9028C174.241 38.8652 173.931 39.0567 173.937 38.5665C173.962 36.5945 173.952 34.622 173.941 32.6498C173.939 32.387 174.015 32.3348 174.271 32.3106C174.727 32.2674 174.985 32.4295 175.228 32.8217C176.155 34.315 177.126 35.7817 178.081 37.2581C178.134 37.3405 178.192 37.4204 178.253 37.5092C178.364 37.4103 178.312 37.2931 178.312 37.1934C178.316 35.6892 178.324 34.1846 178.307 32.6807C178.303 32.3794 178.386 32.2852 178.678 32.3174C178.84 32.3354 179.011 32.3526 179.174 32.2934V38.9124Z" fill="#254684"/>
</g>
<g id="g28">
<path id="path30" d="M39.143 5.16372V5.65434C39.143 13.0755 39.1434 20.4964 39.1426 27.9176C39.1426 28.8697 38.4285 29.3822 37.5251 29.0828C37.111 28.9454 36.8503 28.5973 36.8331 28.1578C36.8314 28.1132 36.8329 28.0686 36.8329 28.0242C36.8329 19.3998 36.8327 10.7753 36.8333 2.15069C36.8333 1.27979 37.5965 0.69442 38.417 0.93082C38.6393 0.994884 38.8125 1.1226 38.957 1.3021C42.0443 5.13609 45.1325 8.96947 48.2214 12.8022C51.4641 16.8256 54.7078 20.8485 57.9511 24.8712C58 24.9317 58.0522 24.9897 58.1169 25.0652C58.1928 24.9455 58.1587 24.8229 58.1587 24.7107C58.1607 17.2449 58.1621 9.77938 58.1566 2.31382C58.1562 1.86906 58.2432 1.48058 58.6699 1.27632C59.1268 1.05772 59.5981 1.06018 60.0435 1.32789C60.2992 1.48181 60.422 1.72906 60.4572 2.01949C60.4705 2.1294 60.4703 2.24157 60.4703 2.35271C60.4709 10.8992 60.4701 19.4456 60.4727 27.9921C60.4729 28.3961 60.4056 28.7666 60.1096 29.066C59.669 29.512 59.0799 29.5425 58.5748 29.1366C58.2675 28.8896 58.0543 28.5576 57.8099 28.2553C51.636 20.6151 45.4647 12.9729 39.2927 5.33136C39.2667 5.29922 39.2376 5.26954 39.143 5.16372Z" fill="#224483"/>
</g>
<g id="g32">
<path id="path34" d="M78.3467 27.3783C84.9424 27.5415 90.5949 21.8341 90.6803 15.2883C90.7685 8.53035 85.0521 2.85387 78.422 2.81866C71.7797 2.78325 66.0735 8.40304 65.9667 14.915C65.8529 21.8386 71.8779 27.5736 78.3467 27.3783ZM93.005 15.1009C93.1175 22.7981 87.2298 28.07 81.8157 29.2511C73.2736 31.1147 66.7923 26.0658 64.564 20.2483C62.6562 15.2675 63.5388 9.13087 67.9643 4.87074C70.1404 2.77568 72.6481 1.33231 75.6417 0.845997C80.4782 0.0604496 84.7866 1.19149 88.4229 4.55697C90.6137 6.5847 92.0716 9.04818 92.6916 11.9855C92.9084 13.0123 93.0121 14.0511 93.005 15.1009Z" fill="#224382"/>
</g>
<g id="g36">
<path id="path38" d="M131.218 4.20805C131.166 4.29954 131.137 4.34702 131.112 4.39635C128.697 9.10635 126.282 13.8166 123.867 18.5268C123.683 18.8847 123.685 18.8864 124.088 18.8864C128.846 18.8866 133.604 18.8866 138.362 18.8866C138.795 18.8866 138.792 18.8876 138.598 18.5108C136.644 14.7259 134.692 10.9407 132.74 7.15558C132.241 6.18829 131.741 5.2214 131.218 4.20805ZM119.683 18.8866C120.109 18.8866 120.456 18.8663 120.8 18.8931C121.066 18.914 121.193 18.8064 121.309 18.5796C123.272 14.7749 125.243 10.9744 127.211 7.17278C128.178 5.30654 129.142 3.43928 130.109 1.57284C130.155 1.48401 130.203 1.396 130.259 1.31311C130.83 0.464315 131.801 0.495426 132.302 1.38761C132.563 1.85284 132.796 2.33342 133.041 2.80806C137.01 10.5196 140.98 18.2314 144.95 25.9428C145.23 26.4866 145.509 27.0309 145.793 27.5724C146.147 28.246 146.006 28.8234 145.406 29.1341C144.79 29.4528 144.086 29.2252 143.76 28.5958C142.977 27.0851 142.197 25.5734 141.417 24.0614C140.958 23.1721 140.493 22.2858 140.049 21.3894C139.938 21.1671 139.81 21.0957 139.565 21.0963C136.612 21.1053 133.659 21.1022 130.707 21.1022C128.11 21.1022 125.514 21.1069 122.918 21.0948C122.653 21.0936 122.525 21.1847 122.41 21.4086C121.206 23.7403 119.992 26.0674 118.78 28.395C118.703 28.5426 118.625 28.6926 118.525 28.825C118.197 29.2624 117.64 29.3887 117.151 29.1488C116.638 28.8965 116.341 28.3518 116.467 27.8674C116.5 27.7405 116.566 27.6207 116.628 27.5032C117.69 25.4739 118.75 23.4427 119.824 21.4192C119.966 21.1513 119.938 21.0889 119.635 21.0965C119.224 21.1069 118.811 21.1302 118.4 21.0721C117.877 20.9978 117.56 20.6196 117.542 20.0477C117.523 19.4488 117.835 19.0055 118.363 18.9177C118.826 18.8405 119.297 18.9071 119.683 18.8866Z" fill="#EA3D31"/>
</g>
<g id="g40">
<path id="path42" d="M98.5328 11.4955C98.5328 14.136 98.5328 16.7766 98.5326 19.4171C98.5326 19.5816 98.4892 19.7364 98.7704 19.7317C101.163 19.6901 103.56 19.8213 105.949 19.5886C107.605 19.4273 109.232 19.1311 110.769 18.4602C112.738 17.6008 114.156 16.2266 114.761 14.1188C115.177 12.6726 115.202 11.1981 114.987 9.71748C114.601 7.06058 113.201 5.19128 110.676 4.20494C109.102 3.58989 107.453 3.34796 105.779 3.28472C103.485 3.19814 101.189 3.26978 98.8947 3.24276C98.6036 3.23928 98.524 3.30948 98.5254 3.60749C98.5381 6.23676 98.5328 8.86623 98.5328 11.4955ZM96.2032 15.2783C96.2032 11.1893 96.2032 7.10029 96.2032 3.01127C96.2034 2.88888 96.2021 2.76607 96.2071 2.64367C96.2492 1.58959 96.845 1.00954 97.9087 1.00647C99.8028 1.00115 101.697 1.01097 103.591 1.00299C104.995 0.997057 106.396 1.02858 107.791 1.20726C109.387 1.41193 110.942 1.76664 112.401 2.47543C114.727 3.60586 116.261 5.41478 116.955 7.89893C117.625 10.2977 117.626 12.7199 116.946 15.1166C116.102 18.0857 114.097 19.9437 111.219 20.9208C109.338 21.5594 107.39 21.8147 105.418 21.9309C103.237 22.0596 101.053 21.9815 98.8701 21.9913C98.5883 21.9925 98.5242 22.066 98.526 22.3409C98.5389 24.2126 98.534 26.0844 98.5322 27.9562C98.5311 28.8637 97.9576 29.3316 97.0708 29.1543C96.5867 29.0577 96.2738 28.7178 96.2161 28.2132C96.1995 28.07 96.2036 27.924 96.2036 27.7793C96.203 23.6123 96.2032 19.4453 96.2032 15.2783Z" fill="#EA3D31"/>
</g>
<g id="g44">
<path id="path46" d="M150.893 15.1461C150.893 19.4136 150.893 23.6813 150.892 27.9488C150.892 28.7345 150.461 29.1652 149.701 29.1521C149 29.1402 148.585 28.7302 148.563 28.0265C148.561 27.9486 148.563 27.8706 148.563 27.7926C148.563 19.3354 148.563 10.8784 148.564 2.42117C148.564 2.27687 148.562 2.13012 148.584 1.98827C148.687 1.34273 149.129 1.01381 149.824 1.05659C150.474 1.0965 150.854 1.47106 150.89 2.10944C150.896 2.20953 150.893 2.31003 150.893 2.41032C150.893 6.6555 150.893 10.9009 150.893 15.1461Z" fill="#EA3D31"/>
</g>
<g id="g48">
<path id="path50" d="M133.33 33.1021C133.33 33.0984 133.33 33.095 133.33 33.0913C133.007 33.0913 132.684 33.0964 132.361 33.089C132.212 33.0855 132.139 33.122 132.142 33.2906C132.15 33.8365 132.145 34.3826 132.145 34.9284C132.145 35.033 132.145 35.136 132.293 35.1323C133.016 35.1139 133.745 35.2062 134.461 35.0787C135.034 34.9767 135.285 34.5895 135.245 33.9818C135.211 33.4626 134.899 33.149 134.332 33.1066C134 33.0819 133.664 33.1021 133.33 33.1021ZM133.375 38.1425C133.375 38.1349 133.375 38.1273 133.375 38.1198C133.774 38.1198 134.176 38.1476 134.572 38.1122C135.003 38.0739 135.311 37.8316 135.453 37.4079C135.724 36.598 135.275 35.9592 134.37 35.9154C133.705 35.8831 133.038 35.9072 132.372 35.8962C132.201 35.8933 132.138 35.9426 132.141 36.1203C132.15 36.72 132.15 37.3201 132.141 37.9198C132.139 38.0976 132.205 38.1502 132.375 38.1453C132.708 38.1357 133.041 38.1425 133.375 38.1425ZM135.238 35.4137C136.192 35.8216 136.552 36.4604 136.378 37.3979C136.218 38.2544 135.491 38.875 134.541 38.9006C133.518 38.928 132.493 38.9039 131.47 38.911C131.292 38.9123 131.242 38.8515 131.243 38.6797C131.247 36.632 131.247 34.5842 131.243 32.5366C131.243 32.3755 131.298 32.3213 131.455 32.3246C132.511 32.3467 133.569 32.282 134.624 32.3622C135.394 32.4208 135.94 32.8635 136.099 33.5436C136.271 34.2794 135.996 34.9282 135.336 35.3415C135.308 35.3589 135.283 35.3802 135.238 35.4137Z" fill="#294987"/>
</g>
<g id="g52">
<path id="path54" d="M72.44 33.0907C72.0837 33.0907 71.7273 33.0974 71.3714 33.0876C71.2015 33.0829 71.1368 33.1326 71.1397 33.3123C71.1495 33.9022 71.1526 34.4925 71.1387 35.0824C71.1333 35.2991 71.2169 35.3448 71.4117 35.3399C71.8569 35.3284 72.3023 35.337 72.7476 35.336C73.0696 35.3352 73.3924 35.3495 73.7059 35.2459C74.2749 35.0576 74.5164 34.6266 74.4223 33.9542C74.3478 33.4221 73.9788 33.1044 73.4085 33.0919C73.0858 33.0849 72.7628 33.0907 72.44 33.0907ZM74.3023 35.738C74.8724 35.9113 75.0795 36.333 75.1434 36.8465C75.1857 37.1883 75.1913 37.5346 75.2279 37.8774C75.2645 38.2203 75.3288 38.5586 75.5609 38.9059C75.2355 38.9059 74.9551 38.9106 74.6751 38.9041C74.4939 38.9 74.47 38.7465 74.4563 38.6178C74.4129 38.2092 74.3865 37.7988 74.3474 37.3897C74.3347 37.2573 74.3089 37.1255 74.2802 36.9953C74.1353 36.3375 73.8613 36.1078 73.1967 36.1009C72.6062 36.0945 72.0153 36.1119 71.4256 36.0935C71.1763 36.0857 71.135 36.1799 71.1387 36.4011C71.1514 37.1361 71.136 37.8717 71.1481 38.6067C71.1518 38.8275 71.1078 38.9182 70.8603 38.9139C70.2618 38.9035 70.2616 38.9168 70.2616 38.3247C70.2616 36.4418 70.2672 34.5592 70.2553 32.6766C70.2536 32.4095 70.305 32.3141 70.5942 32.3201C71.5183 32.3397 72.4433 32.3276 73.368 32.3272C73.5915 32.3272 73.8124 32.3483 74.0291 32.4044C74.797 32.6033 75.2449 33.0956 75.3286 33.8312C75.4219 34.6517 75.117 35.2652 74.429 35.6434C74.3928 35.6635 74.3619 35.6931 74.3023 35.738Z" fill="#264785"/>
</g>
<g id="g56">
<path id="path58" d="M109.265 33.091C108.909 33.091 108.553 33.0982 108.198 33.0879C108.032 33.083 107.963 33.1221 107.967 33.3059C107.978 33.9058 107.979 34.5063 107.966 35.1062C107.962 35.3084 108.043 35.342 108.219 35.3394C108.797 35.3306 109.375 35.3383 109.953 35.3349C110.165 35.3334 110.374 35.3054 110.575 35.236C111.108 35.0522 111.345 34.5988 111.25 33.948C111.175 33.4328 110.809 33.1096 110.265 33.0934C109.932 33.0836 109.598 33.0916 109.265 33.091ZM111.118 35.7309C111.724 35.9288 111.926 36.3758 111.983 36.9158C112.021 37.2807 112.031 37.6487 112.072 38.0132C112.105 38.3119 112.192 38.5986 112.382 38.9073C112.07 38.9073 111.8 38.9112 111.53 38.906C111.268 38.9011 111.282 38.675 111.262 38.5163C111.218 38.1524 111.221 37.783 111.179 37.4187C111.151 37.1771 111.101 36.9334 111.023 36.7035C110.901 36.3447 110.637 36.1243 110.252 36.1147C109.551 36.0971 108.849 36.1087 108.147 36.0965C107.951 36.093 107.97 36.208 107.97 36.3331C107.971 37.0906 107.958 37.8485 107.977 38.6056C107.984 38.8653 107.901 38.9198 107.659 38.9136C107.089 38.8989 107.089 38.9114 107.089 38.3258C107.089 36.4319 107.093 34.538 107.083 32.6442C107.082 32.4043 107.129 32.3165 107.391 32.321C108.349 32.3376 109.307 32.3192 110.265 32.3296C111.708 32.3454 112.496 33.4207 112.054 34.7562C111.912 35.1873 111.716 35.3967 111.118 35.7309Z" fill="#264785"/>
</g>
<g id="g60">
<path id="path62" d="M57.6432 35.6354C57.6485 35.076 57.5503 34.5573 57.299 34.0731C56.896 33.2969 56.243 32.9091 55.3838 32.9158C54.5242 32.9224 53.8614 33.316 53.4889 34.1046C53.027 35.0823 53.0163 36.0836 53.4685 37.0683C53.843 37.8839 54.5033 38.298 55.401 38.2978C56.3143 38.2978 56.9641 37.8628 57.3522 37.04C57.5644 36.5906 57.649 36.1116 57.6432 35.6354ZM52.2627 35.5901C52.3014 34.3617 52.6583 33.2746 53.7638 32.5971C55.7371 31.3881 58.2024 32.6328 58.4937 34.9609C58.6113 35.9035 58.5113 36.8102 58.0121 37.633C57.3215 38.7712 56.2553 39.166 54.9841 39.0285C53.718 38.8915 52.9017 38.1551 52.4811 36.9696C52.3237 36.5259 52.2547 36.0642 52.2627 35.5901Z" fill="#254684"/>
</g>
<g id="g64">
<path id="path66" d="M167.579 35.683C167.581 36.1263 167.672 36.6698 167.941 37.1718C168.325 37.8898 168.929 38.2722 169.739 38.2988C170.556 38.3256 171.228 38.0208 171.638 37.2938C172.225 36.253 172.234 35.1678 171.734 34.096C171.372 33.3206 170.715 32.9293 169.867 32.9172C169.023 32.9052 168.366 33.2711 167.953 34.0253C167.692 34.5033 167.59 35.0233 167.579 35.683ZM172.961 35.6126C172.933 36.8145 172.596 37.8825 171.536 38.5773C169.594 39.8512 167.062 38.6449 166.742 36.3095C166.586 35.1726 166.742 34.0966 167.497 33.196C168.319 32.2156 169.422 31.9915 170.618 32.2571C171.809 32.5218 172.495 33.3423 172.819 34.4877C172.922 34.8531 172.98 35.2272 172.961 35.6126Z" fill="#254684"/>
</g>
<g id="g68">
<path id="path70" d="M100.821 33.0338C100.252 33.033 99.9314 33.5101 100.15 34.0353C100.258 34.2938 100.434 34.5081 100.608 34.7232C100.658 34.7852 100.704 34.8384 100.796 34.7768C101.103 34.5718 101.396 34.3542 101.517 33.9833C101.68 33.4817 101.349 33.0346 100.821 33.0338ZM100.58 38.3034C101.05 38.2985 101.531 38.0459 101.821 37.6824C101.927 37.5496 101.882 37.4726 101.796 37.3703C101.495 37.0131 101.201 36.6506 100.901 36.2929C100.387 35.6793 100.267 35.6772 99.7001 36.263C99.3427 36.6318 99.222 37.163 99.4003 37.5815C99.5875 38.0216 100.057 38.3089 100.58 38.3034ZM102.278 36.7661C102.411 36.5092 102.462 36.2878 102.468 36.0733C102.476 35.8074 102.596 35.773 102.821 35.7798C103.277 35.7933 103.283 35.7826 103.214 36.23C103.169 36.527 103.11 36.8263 102.962 37.0895C102.823 37.3339 102.887 37.5011 103.066 37.6945C103.412 38.0668 103.73 38.4637 104.059 38.8493C103.275 39.11 102.772 38.7686 102.411 38.0766C101.93 38.6905 101.334 38.9688 100.609 39.0077C99.1399 39.0863 98.1704 38.0021 98.5466 36.6785C98.7201 36.0688 99.1645 35.6811 99.6958 35.4005C99.9807 35.2501 99.9832 35.127 99.7787 34.9234C99.7165 34.8616 99.6725 34.7811 99.623 34.7073C99.1997 34.0748 99.1628 33.3996 99.5231 32.8981C99.8786 32.403 100.6 32.1975 101.305 32.3905C102.259 32.6523 102.64 33.5756 102.15 34.4414C101.952 34.7895 101.661 35.0468 101.329 35.2556C101.182 35.3477 101.155 35.4072 101.278 35.5493C101.61 35.9357 101.927 36.3365 102.278 36.7661Z" fill="#254684"/>
</g>
<g id="g72">
<path id="path74" d="M46.7761 39.0503C46.2452 39.0581 45.7368 38.9662 45.2564 38.7302C44.5185 38.3679 44.1575 37.7562 44.0676 36.9594C44.0494 36.7983 44.0803 36.6951 44.2731 36.7164C44.3392 36.7238 44.4078 36.7248 44.4735 36.7162C44.7625 36.6785 44.9219 36.7354 44.9612 37.0904C45.0136 37.5636 45.3342 37.8949 45.766 38.0841C46.4159 38.3686 47.0848 38.3817 47.7497 38.1346C48.1904 37.9709 48.4278 37.6344 48.4503 37.1685C48.4727 36.709 48.2107 36.4229 47.8146 36.2414C47.3449 36.026 46.8363 35.9501 46.3381 35.8371C45.9693 35.7536 45.6023 35.666 45.2543 35.5125C44.1094 35.0076 43.9012 33.5578 44.8575 32.7436C45.7159 32.013 47.4018 31.9573 48.3013 32.6307C48.7797 32.9886 48.9911 33.4883 49.055 34.0638C49.0629 34.1361 49.0842 34.2363 48.9645 34.2394C48.7422 34.2452 48.5193 34.2452 48.2968 34.2372C48.1863 34.2333 48.2105 34.1289 48.191 34.0589C47.8891 32.9639 46.3582 32.506 45.4864 33.2494C44.9707 33.6895 45.0744 34.4736 45.6938 34.764C46.1608 34.9832 46.6711 35.0563 47.1691 35.1695C47.56 35.2581 47.9473 35.3572 48.3132 35.5256C48.9172 35.8036 49.2893 36.2528 49.3335 36.9334C49.3808 37.6655 49.0957 38.2369 48.468 38.6207C47.9507 38.9369 47.3781 39.0569 46.7761 39.0503Z" fill="#264785"/>
</g>
<g id="g76">
<path id="path78" d="M118.829 35.6217C118.829 34.619 118.837 33.6163 118.824 32.6138C118.821 32.3739 118.898 32.3149 119.127 32.3178C119.728 32.3254 119.728 32.3149 119.728 32.9107C119.728 33.5569 119.735 34.2033 119.724 34.8492C119.72 35.0564 119.766 35.1397 119.996 35.1366C120.954 35.1239 121.912 35.1251 122.87 35.136C123.085 35.1384 123.155 35.0838 123.151 34.8603C123.137 34.1142 123.154 33.3676 123.141 32.6213C123.137 32.397 123.186 32.3129 123.43 32.317C124.03 32.3266 124.031 32.3137 124.031 32.9058C124.031 34.7884 124.026 36.6713 124.036 38.5539C124.038 38.8134 124.002 38.9272 123.701 38.9129C123.147 38.8867 123.146 38.9069 123.146 38.3455C123.146 37.6101 123.14 36.8749 123.15 36.1397C123.152 35.9569 123.11 35.8898 122.913 35.8916C121.932 35.9017 120.952 35.9037 119.972 35.8906C119.746 35.8875 119.723 35.9797 119.725 36.1653C119.732 36.9672 119.719 37.7695 119.734 38.5715C119.738 38.8226 119.687 38.9221 119.408 38.9122C118.83 38.8918 118.829 38.909 118.829 38.3287V35.6217Z" fill="#294987"/>
</g>
<g id="g80">
<path id="path82" d="M113.304 35.5924C113.304 34.5901 113.309 33.5878 113.3 32.5857C113.298 32.3882 113.341 32.3159 113.556 32.3174C114.892 32.3274 116.228 32.3278 117.565 32.3172C117.786 32.3153 117.817 32.3986 117.817 32.5894C117.814 33.0874 117.823 33.0873 117.33 33.0873C116.372 33.0873 115.414 33.0947 114.457 33.0818C114.232 33.079 114.178 33.15 114.184 33.3626C114.199 33.8522 114.206 34.3434 114.182 34.8322C114.169 35.0999 114.27 35.1386 114.504 35.1355C115.417 35.1231 116.331 35.1474 117.243 35.1212C117.568 35.112 117.606 35.2391 117.594 35.5062C117.584 35.7445 117.61 35.917 117.258 35.9055C116.334 35.8754 115.409 35.9023 114.485 35.8904C114.263 35.8875 114.174 35.9293 114.183 36.1759C114.202 36.732 114.2 37.2896 114.184 37.8459C114.177 38.0753 114.237 38.148 114.476 38.1447C115.489 38.1312 116.503 38.1557 117.515 38.1295C117.849 38.1207 117.866 38.2618 117.862 38.5195C117.858 38.7661 117.864 38.9204 117.521 38.9139C116.207 38.8893 114.893 38.8989 113.579 38.9089C113.36 38.9106 113.297 38.8514 113.299 38.6324C113.31 37.6193 113.304 36.6057 113.304 35.5924Z" fill="#294987"/>
</g>
<g id="g84">
<path id="path86" d="M64.7208 35.6057C64.7208 34.6038 64.728 33.6017 64.7153 32.6C64.7126 32.3751 64.7826 32.3175 64.9977 32.319C66.3224 32.3272 67.6473 32.3343 68.9719 32.3161C69.378 32.3106 69.2214 32.5785 69.2499 32.7652C69.2843 32.9911 69.2315 33.1021 68.956 33.0972C67.943 33.0791 66.9299 33.0967 65.9169 33.0849C65.6883 33.0822 65.6062 33.1375 65.6161 33.378C65.6349 33.8446 65.6369 34.3135 65.6157 34.7802C65.6034 35.05 65.6711 35.1441 65.9593 35.1382C66.872 35.1189 67.7852 35.1404 68.6979 35.1249C68.9478 35.1206 69.0233 35.1846 69.0131 35.438C68.9946 35.8973 69.0108 35.8979 68.5532 35.8979C67.6626 35.8981 66.7719 35.9041 65.8813 35.8936C65.6779 35.8912 65.612 35.9469 65.6169 36.1544C65.6304 36.7107 65.633 37.268 65.6163 37.8242C65.6089 38.0671 65.6703 38.1498 65.9278 38.1459C66.9295 38.1306 67.9322 38.1576 68.9332 38.1295C69.2665 38.1203 69.2937 38.2556 69.2783 38.5149C69.2652 38.7384 69.318 38.9255 68.9523 38.9177C67.6393 38.8895 66.3253 38.9007 65.0117 38.912C64.774 38.9141 64.713 38.8426 64.7157 38.6113C64.7276 37.6097 64.7208 36.6076 64.7208 35.6057Z" fill="#2D4D89"/>
</g>
<g id="g88">
<path id="path90" d="M158.77 35.5957C158.782 36.4042 158.915 37.1767 159.538 37.7624C160.126 38.3161 160.839 38.4258 161.589 38.1992C162.296 37.9851 162.658 37.4454 162.806 36.7405C162.83 36.624 162.774 36.43 162.953 36.412C163.194 36.3878 163.443 36.3956 163.683 36.431C163.775 36.4445 163.719 36.5866 163.706 36.6689C163.488 38.0353 162.631 38.8859 161.326 39.0357C159.843 39.2062 158.644 38.557 158.166 37.2452C157.682 35.9154 157.713 34.59 158.52 33.3781C159.422 32.0239 161.593 31.7382 162.85 32.7724C163.271 33.1181 163.516 33.5692 163.642 34.093C163.679 34.2445 163.657 34.3315 163.476 34.3124C163.41 34.3055 163.341 34.303 163.276 34.3128C162.956 34.3613 162.776 34.2764 162.646 33.9278C162.376 33.2041 161.746 32.9341 161.024 32.9157C160.21 32.8948 159.551 33.2192 159.141 33.9544C158.858 34.4629 158.751 35.0153 158.77 35.5957Z" fill="#254684"/>
</g>
<g id="g92">
<path id="path94" d="M83.2335 34.2794C83.2335 34.602 83.2423 34.9249 83.23 35.2471C83.2233 35.4229 83.2828 35.4776 83.4564 35.4727C84.0565 35.4563 84.6582 35.4724 85.2571 35.4389C85.9479 35.4002 86.3268 34.9765 86.3364 34.2888C86.346 33.5927 85.9588 33.1441 85.2569 33.1062C84.6468 33.0732 84.0336 33.0974 83.422 33.0886C83.2781 33.0865 83.2269 33.132 83.2308 33.2783C83.2394 33.6117 83.2335 33.9456 83.2335 34.2794ZM82.3513 35.6155C82.3513 34.6136 82.3501 33.6117 82.3532 32.6098C82.3536 32.4903 82.2936 32.3239 82.5206 32.3276C83.5552 32.3442 84.5923 32.2707 85.6239 32.3614C86.5413 32.4418 87.0634 32.9809 87.1983 33.8938C87.4109 35.3327 86.6479 36.2134 85.1884 36.214C84.6318 36.2142 84.0747 36.2265 83.5188 36.2083C83.2775 36.2003 83.2237 36.2813 83.2282 36.5083C83.2423 37.2093 83.2245 37.911 83.2384 38.6122C83.2429 38.8381 83.1913 38.9186 82.9488 38.9139C82.3515 38.9024 82.3513 38.9153 82.3513 38.3205C82.3513 37.4189 82.3513 36.5171 82.3513 35.6155Z" fill="#264785"/>
</g>
<g id="g96">
<path id="path98" d="M127.667 33.2314C127.643 33.2312 127.619 33.231 127.595 33.2306C127.259 34.1549 126.926 35.0798 126.587 36.0025C126.533 36.1494 126.588 36.1724 126.717 36.1717C127.37 36.1687 128.023 36.1703 128.713 36.1703C128.356 35.1678 128.012 34.1995 127.667 33.2314ZM130.674 38.8804C129.73 38.9609 129.73 38.9611 129.429 38.1268C129.312 37.8026 129.188 37.4804 129.082 37.1528C129.026 36.9806 128.942 36.9098 128.749 36.9131C127.991 36.9258 127.234 36.9241 126.476 36.9139C126.299 36.9114 126.219 36.9786 126.164 37.1347C125.99 37.6268 125.794 38.1119 125.63 38.6072C125.556 38.8319 125.451 38.9371 125.205 38.9066C125.02 38.8837 124.83 38.9021 124.598 38.9021C124.817 38.3325 125.021 37.7961 125.229 37.2608C125.833 35.7075 126.441 34.1559 127.038 32.6002C127.117 32.3961 127.213 32.3105 127.447 32.3157C128.131 32.3306 128.13 32.3181 128.376 32.9487C129.102 34.8121 129.83 36.6748 130.556 38.5382C130.596 38.6406 130.627 38.746 130.674 38.8804Z" fill="#254684"/>
</g>
<g id="g100">
<path id="path102" d="M79.7959 36.161C79.4386 35.1564 79.0898 34.176 78.7175 33.1291C78.337 34.1826 77.9833 35.1618 77.6225 36.161H79.7959ZM81.7661 38.8754C81.7234 38.8885 81.7131 38.8938 81.7027 38.8944C80.8039 38.9487 80.8058 38.9479 80.5029 38.103C80.3645 37.7171 80.3189 37.2102 80.0448 36.9854C79.7671 36.7578 79.2564 36.9308 78.8479 36.9214C78.4475 36.9121 78.0457 36.9373 77.6466 36.9128C77.3975 36.8974 77.294 36.9957 77.2199 37.2165C77.0608 37.6897 76.868 38.1517 76.7096 38.6251C76.6398 38.8334 76.5465 38.917 76.3115 38.9104C75.6789 38.8928 75.6793 38.9071 75.9144 38.3037C76.656 36.4011 77.4014 34.5002 78.1319 32.5935C78.2152 32.3763 78.32 32.3151 78.5415 32.3184C79.2251 32.3288 79.2247 32.3196 79.4713 32.9549C80.2026 34.8376 80.9345 36.72 81.6658 38.6026C81.6976 38.6842 81.7264 38.7669 81.7661 38.8754Z" fill="#254684"/>
</g>
<g id="g104">
<path id="path106" d="M155.651 36.1626C155.292 35.1583 154.946 34.1918 154.567 33.1346C154.18 34.209 153.831 35.1746 153.475 36.1626H155.651ZM151.535 38.9047C151.774 38.2914 151.999 37.7155 152.222 37.1391C152.806 35.6384 153.393 34.1394 153.965 32.6348C154.053 32.4035 154.16 32.3108 154.418 32.3184C155.071 32.3374 155.072 32.3229 155.305 32.9189C156.035 34.7909 156.765 36.6633 157.494 38.5358C157.638 38.9036 157.636 38.9042 157.241 38.9047C156.649 38.9055 156.649 38.9057 156.445 38.3412C156.302 37.9441 156.152 37.5491 156.021 37.1481C155.963 36.9719 155.872 36.9132 155.684 36.916C154.939 36.9277 154.192 36.9289 153.447 36.9156C153.242 36.9119 153.157 36.9864 153.094 37.1711C152.929 37.6541 152.729 38.1259 152.57 38.6109C152.495 38.8379 152.389 38.9382 152.145 38.9092C151.96 38.8871 151.771 38.9047 151.535 38.9047Z" fill="#254684"/>
</g>
<g id="g108">
<path id="path110" d="M92.7783 33.1338C92.4169 34.1295 92.0812 35.0516 91.7478 35.9742C91.715 36.0649 91.6577 36.1738 91.8405 36.1732C92.5024 36.1716 93.1643 36.1726 93.8606 36.1726C93.4986 35.1557 93.1506 34.1786 92.7783 33.1338ZM92.7959 32.3425C93.185 32.2289 93.3346 32.4246 93.4648 32.768C94.2006 34.7081 94.9579 36.6405 95.7209 38.5704C95.8339 38.8563 95.7868 38.9214 95.4817 38.9113C94.8625 38.8909 94.8621 38.9064 94.6441 38.3076C94.5037 37.9219 94.3525 37.5396 94.2264 37.1493C94.1679 36.9682 94.0753 36.9141 93.8901 36.9166C93.1334 36.9266 92.3765 36.9264 91.62 36.9166C91.4432 36.9143 91.3695 36.9788 91.3139 37.1395C91.1503 37.6112 90.9501 38.0707 90.8018 38.5468C90.7148 38.8258 90.5858 38.9279 90.2868 38.9126C89.7399 38.8847 89.7376 38.9044 89.9337 38.4011C90.6626 36.5293 91.4002 34.6606 92.1145 32.7831C92.2466 32.4362 92.3909 32.2096 92.7959 32.3425Z" fill="#254684"/>
</g>
<g id="g112">
<path id="path114" d="M36.9263 35.6092C36.9263 34.6072 36.9322 33.6049 36.9216 32.6028C36.9191 32.3844 36.9791 32.3166 37.202 32.3185C38.4603 32.3285 39.7187 32.3285 40.9768 32.3183C41.2005 32.3166 41.2564 32.3864 41.2523 32.6017C41.2433 33.0901 41.2548 33.0903 40.7543 33.0903C39.8634 33.0903 38.9726 33.0968 38.0819 33.0854C37.8731 33.0825 37.8164 33.1437 37.8224 33.348C37.8367 33.8374 37.8398 34.3282 37.8215 34.8174C37.8127 35.0591 37.8703 35.1438 38.13 35.1379C38.9313 35.1199 39.7338 35.1479 40.5347 35.124C40.9046 35.1127 40.8053 35.3458 40.817 35.538C40.8295 35.7474 40.8471 35.9173 40.5231 35.9068C39.7111 35.8809 38.8975 35.9048 38.085 35.8937C37.8815 35.8909 37.8189 35.9437 37.822 36.1529C37.8342 36.9656 37.8179 37.7788 37.8326 38.5914C37.8369 38.8337 37.7829 38.9201 37.5227 38.9137C36.9267 38.899 36.9263 38.9137 36.9263 38.3151V35.6092Z" fill="#2D4D89"/>
</g>
<g id="g116">
<path id="path118" d="M60.9961 36.0052C60.9961 35.1255 60.9898 34.2458 61.0006 33.3663C61.0033 33.1524 60.9491 33.0764 60.7245 33.083C60.1795 33.0986 59.6332 33.0791 59.0879 33.0926C58.8855 33.0975 58.7965 33.0447 58.8258 32.8341C58.838 32.7467 58.8362 32.6552 58.8262 32.5672C58.8051 32.3836 58.8681 32.3163 59.0636 32.3171C60.6558 32.3241 62.2481 32.3236 63.8403 32.3175C64.0298 32.3167 64.0865 32.3758 64.0894 32.565C64.0972 33.0881 64.1062 33.0879 63.5861 33.0879C63.1184 33.0879 62.6503 33.1018 62.1835 33.0822C61.9432 33.0721 61.8904 33.1514 61.8916 33.3808C61.9012 35.0956 61.8895 36.8106 61.9039 38.5251C61.9063 38.8256 61.8355 38.9601 61.523 38.9064C61.4472 38.8935 61.366 38.8954 61.2896 38.9064C61.0541 38.9404 60.9877 38.8434 60.991 38.6107C61.0037 37.7422 60.9961 36.8736 60.9961 36.0052Z" fill="#2D4D89"/>
</g>
<g id="g120">
<path id="path122" d="M149.49 36.0118C149.49 36.8804 149.481 37.749 149.495 38.6173C149.499 38.8512 149.435 38.9184 149.2 38.9139C148.608 38.9024 148.608 38.9145 148.608 38.3154C148.608 36.6784 148.603 35.0414 148.613 33.4046C148.615 33.1625 148.564 33.0742 148.304 33.0847C147.771 33.1062 147.235 33.0816 146.701 33.0957C146.484 33.1017 146.411 33.0403 146.419 32.8168C146.44 32.2353 146.362 32.3311 146.888 32.3294C148.38 32.3247 149.872 32.3403 151.364 32.3192C151.75 32.3137 151.65 32.5431 151.668 32.7492C151.688 32.9846 151.652 33.1158 151.354 33.099C150.844 33.0704 150.33 33.1035 149.818 33.0859C149.569 33.0771 149.476 33.1301 149.482 33.4062C149.502 34.2743 149.49 35.1431 149.49 36.0118Z" fill="#264785"/>
</g>
<g id="g124">
<path id="path126" d="M139.782 35.58C139.782 34.6008 139.79 33.6216 139.777 32.6429C139.774 32.4038 139.821 32.3121 140.084 32.3193C140.664 32.3346 140.664 32.3191 140.664 32.8938C140.664 34.5404 140.67 36.187 140.659 37.8337C140.657 38.0785 140.712 38.1538 140.968 38.1493C141.924 38.1329 142.882 38.1575 143.838 38.1345C144.158 38.127 144.144 38.2919 144.131 38.5032C144.118 38.6956 144.216 38.9199 143.848 38.9139C142.591 38.8937 141.334 38.9004 140.077 38.9113C139.847 38.9133 139.774 38.8546 139.777 38.6174C139.79 37.605 139.782 36.5925 139.782 35.58Z" fill="#264785"/>
</g>
<g id="g128">
<path id="path130" d="M51.2483 35.6164C51.2483 36.6068 51.2416 37.5974 51.2532 38.5879C51.2559 38.8237 51.2123 38.9207 50.9464 38.9137C50.348 38.8975 50.3476 38.9131 50.3476 38.3187C50.3476 36.4377 50.3527 34.557 50.3418 32.676C50.3404 32.412 50.3895 32.3047 50.6818 32.3158C51.2477 32.3369 51.2483 32.3195 51.2483 32.8786C51.2483 33.7911 51.2483 34.7037 51.2483 35.6164Z" fill="#2D4D89"/>
</g>
<g id="g132">
<path id="path134" d="M144.836 35.6072C144.836 34.6167 144.844 33.6259 144.83 32.6357C144.826 32.3862 144.893 32.3115 145.146 32.3174C145.736 32.3309 145.737 32.3176 145.737 32.9208C145.737 34.8128 145.732 36.7049 145.742 38.5967C145.744 38.8456 145.68 38.9199 145.428 38.9137C144.836 38.8996 144.836 38.9133 144.836 38.3116V35.6072Z" fill="#2D4D89"/>
</g>
<g id="g136">
<path id="path138" d="M43.0511 35.6067C43.0511 36.6086 43.0446 37.6105 43.0562 38.6122C43.0587 38.8375 43.0098 38.9188 42.7668 38.9139C42.1708 38.9022 42.1706 38.9153 42.1706 38.3199C42.1706 36.4387 42.1761 34.5575 42.1645 32.6764C42.1628 32.406 42.224 32.3114 42.5087 32.3227C43.0505 32.3442 43.0511 32.3272 43.0511 32.8683V35.6067Z" fill="#224382"/>
</g>
<g id="g140">
<path id="path142" d="M138.392 35.6458C138.392 36.6364 138.384 37.6272 138.397 38.6177C138.4 38.8514 138.337 38.9185 138.102 38.9138C137.511 38.9024 137.511 38.9144 137.511 38.315C137.511 36.4225 137.516 34.5303 137.505 32.6381C137.503 32.3847 137.572 32.3177 137.821 32.3239C138.391 32.3378 138.392 32.3247 138.392 32.9074V35.6458Z" fill="#224382"/>
</g>
<g id="g144">
<path id="path146" d="M88.2462 35.6077C88.2462 34.6058 88.2534 33.6039 88.2407 32.6022C88.2378 32.3781 88.3058 32.3233 88.5205 32.3243C89.1267 32.3278 89.1267 32.3181 89.1267 32.9086C89.1267 34.8009 89.121 36.6933 89.1333 38.5855C89.1349 38.8541 89.0573 38.9216 88.7984 38.9134C88.2466 38.896 88.2462 38.9099 88.2462 38.3461V35.6077Z" fill="#224382"/>
</g>
<g id="g148">
<path id="path150" d="M165.669 35.6424C165.669 36.622 165.659 37.6016 165.675 38.581C165.679 38.8397 165.616 38.9228 165.348 38.9134C164.789 38.8933 164.788 38.9093 164.788 38.3487C164.788 36.4454 164.793 34.5419 164.782 32.6384C164.781 32.3885 164.844 32.3158 165.096 32.3222C165.668 32.3367 165.669 32.3228 165.669 32.9041V35.6424Z" fill="#224382"/>
</g>
<g id="g152">
<path id="path154" d="M1.20746 33.4314C0.953248 33.4224 0.754508 33.2092 0.763514 32.9552C0.772519 32.7009 0.985792 32.5022 1.23979 32.5112C1.494 32.52 1.69274 32.7333 1.68374 32.9875C1.67494 33.2417 1.46166 33.4404 1.20746 33.4314ZM1.92587 32.9341C1.92218 32.9259 1.88084 32.9191 1.81473 32.9136C1.81227 32.888 1.80818 32.863 1.80245 32.8385C1.85648 32.8178 1.88985 32.8051 1.89312 32.8039C1.914 32.7959 1.88166 32.6889 1.8573 32.6661C1.85075 32.6602 1.80982 32.6698 1.74678 32.6903C1.73532 32.6688 1.72263 32.6483 1.70871 32.6287C1.75067 32.589 1.77686 32.5644 1.77932 32.562C1.79569 32.5468 1.72508 32.46 1.69397 32.4484C1.68558 32.4453 1.6514 32.4699 1.60084 32.5126C1.58119 32.4965 1.56073 32.4815 1.53903 32.468C1.56257 32.4154 1.57731 32.3827 1.57874 32.3794C1.58795 32.3591 1.48929 32.3063 1.45593 32.3076C1.44713 32.308 1.42503 32.3438 1.39494 32.4027C1.37181 32.3958 1.34848 32.3902 1.32433 32.3859C1.32617 32.3282 1.32719 32.2924 1.32719 32.2889C1.32801 32.2666 1.21667 32.2554 1.18658 32.2691C1.17839 32.2728 1.17164 32.3143 1.16611 32.3802C1.13521 32.3833 1.10491 32.3882 1.07544 32.3958C1.05661 32.3503 1.04494 32.3217 1.0429 32.3166C1.0298 32.2818 0.901875 32.3221 0.908015 32.3595C0.909038 32.3653 0.9205 32.3982 0.939535 32.4498C0.914564 32.4635 0.890617 32.4785 0.868103 32.4952C0.833308 32.4602 0.811408 32.4381 0.807928 32.4343C0.782548 32.407 0.679392 32.493 0.69945 32.5253C0.702315 32.5302 0.725648 32.5562 0.762695 32.597C0.744274 32.6197 0.726877 32.6436 0.711731 32.669C0.666292 32.6502 0.637842 32.6383 0.63293 32.6361C0.599159 32.6209 0.537142 32.7398 0.568048 32.7619C0.572551 32.7652 0.604071 32.7804 0.654012 32.8035C0.646234 32.8303 0.63948 32.8579 0.635591 32.8862C0.586264 32.886 0.555153 32.8858 0.550036 32.8856C0.512785 32.8843 0.50071 33.018 0.537551 33.0266C0.543077 33.028 0.578077 33.0301 0.63293 33.0325C0.636 33.0622 0.640913 33.0913 0.648281 33.1195C0.602638 33.1383 0.573984 33.1502 0.569071 33.1521C0.534276 33.1651 0.574598 33.2931 0.612053 33.2869C0.61758 33.2859 0.650532 33.2744 0.702315 33.2554C0.715824 33.2804 0.730765 33.3043 0.747753 33.3268C0.712754 33.3616 0.690649 33.3835 0.68676 33.387C0.659538 33.4124 0.745297 33.5156 0.777636 33.4955C0.782548 33.4926 0.808747 33.4693 0.849273 33.4323C0.872196 33.4507 0.895939 33.4681 0.921523 33.4832C0.902693 33.5287 0.890617 33.5571 0.888571 33.562C0.87322 33.5958 0.992137 33.6578 1.01424 33.6271C1.01772 33.6224 1.03266 33.5909 1.056 33.5409C1.08281 33.5489 1.11023 33.5555 1.13848 33.5596C1.13828 33.6087 1.13828 33.6398 1.13807 33.6449C1.13664 33.6822 1.27029 33.6942 1.27909 33.6574C1.28032 33.6519 1.28237 33.6169 1.28482 33.562C1.30918 33.5594 1.33313 33.5555 1.35646 33.5501C1.37713 33.604 1.38982 33.6375 1.39125 33.6408C1.39903 33.6617 1.50608 33.6294 1.5288 33.6048C1.53473 33.5982 1.52511 33.5575 1.50465 33.4945C1.52614 33.483 1.5466 33.4701 1.56625 33.4562C1.60596 33.4984 1.63052 33.5244 1.63298 33.527C1.64812 33.5434 1.73491 33.4728 1.74657 33.4415C1.74964 33.4331 1.72508 33.3991 1.6823 33.3485C1.69847 33.3289 1.71341 33.3082 1.72692 33.2867C1.77953 33.3103 1.81227 33.3248 1.81555 33.3262C1.83581 33.3354 1.88862 33.2368 1.88739 33.2036C1.88698 33.1946 1.85116 33.1727 1.79222 33.1424C1.79917 33.1195 1.80491 33.096 1.809 33.072C1.86672 33.0737 1.90254 33.0747 1.90602 33.0749C1.92832 33.0757 1.93979 32.9644 1.92587 32.9341Z" fill="white"/>
</g>
<g id="g156">
<path id="path158" d="M23.819 3.81724C23.819 5.92459 22.1108 7.63281 20.0034 7.63281C17.8961 7.63281 16.1879 5.92459 16.1879 3.81724C16.1879 1.7099 17.8961 0.00167274 20.0034 0.00167274C22.1108 0.00167274 23.819 1.7099 23.819 3.81724Z" fill="#204281"/>
</g>
<g id="g160">
<path id="path162" d="M17.8889 6.99142C17.8889 6.99142 16.0423 7.06735 15.4232 8.56067C15.4232 8.56067 13.3836 13.2954 13.857 21.8183C13.857 21.8183 10.6518 24.2769 7.77445 30.3413C7.77445 30.3413 7.10065 29.8312 0.799702 32.0348C0.799702 32.0348 -0.457007 33.856 0.180354 37.043C0.180354 37.043 2.03799 35.1307 2.05621 32.8725C2.05621 32.8725 6.09917 32.9454 7.68337 32.5448C7.68337 32.5448 9.14025 31.9529 11.362 29.8676C11.362 29.8676 14.7766 26.6988 14.9133 26.444C15.0499 26.189 18.8227 21.4419 19.9639 13.7447C19.9639 13.7447 24.5106 17.9029 25.1025 18.0304C25.1025 18.0304 28.6537 17.0287 30.4202 14.9437C30.4202 14.9437 31.6857 15.5993 32.3777 13.6051C32.3777 13.6051 31.6585 13.1135 30.6386 13.6962C30.6386 13.6962 30.2522 13.9066 30.0651 14.5704C30.0651 14.5704 29.3092 14.3972 26.4955 15.4808C26.4955 15.4808 24.7838 16.1273 25.0933 16.7739C25.0933 16.7739 23.0173 12.7402 22.2888 12.0936C22.2888 12.0936 20.5223 9.77153 20.3403 9.69887C20.3403 9.69887 20.4437 8.84168 19.3585 7.57658C19.3585 7.57658 18.0054 6.92469 17.8889 6.99142Z" fill="#204281"/>
</g>
<g id="g164">
<path id="path166" d="M13.4317 22.3041C13.4317 22.3041 11.6349 23.6031 15.2406 26.687C15.2406 26.687 16.7462 28.1316 18.9193 29.5279C18.9193 29.5279 21.6024 31.2519 21.7845 31.276C21.7845 31.276 21.2626 31.7738 21.6752 34.0563C21.6752 34.0563 22.2217 38.0506 22.3308 38.1722C22.3308 38.1722 21.5054 39.3255 23.9093 39.8597C23.9093 39.8597 26.2768 40.1753 27.26 39.8597C27.26 39.8597 26.6894 38.7305 23.5208 37.9292C23.5208 37.9292 24.3948 33.7043 24.1764 31.871C24.1764 31.871 22.3978 27.9191 19.7388 25.2057C19.7388 25.2057 15.2468 19.8031 13.4317 22.3041Z" fill="#EA3C30"/>
</g>
<g id="g168">
<path id="path170" d="M9.06718 19.7858C9.06718 19.7858 8.65742 20.3413 9.34042 21.088C9.34042 21.088 9.75919 21.5159 10.4058 21.6797C10.4058 21.6797 10.7152 21.1334 10.5333 20.4232C10.5333 20.4232 10.3147 19.5764 9.70454 19.4579C9.70454 19.4579 9.48594 15.2512 8.50268 14.1587C8.50268 14.1587 13.9477 13.0749 17.4626 10.8259C17.4626 10.8259 18.8102 10.0246 18.0453 8.73168C18.0453 8.73168 17.2986 7.5024 15.2498 8.6406C15.2498 8.6406 11.4619 10.5255 9.63167 11.9823C9.63167 11.9823 7.22775 13.6578 7.19153 13.9036C7.19153 13.9036 6.78177 14.7049 7.37348 16.2983C7.37348 16.2983 8.20222 18.6476 9.06718 19.7858Z" fill="#EA3C30"/>
</g>
<g id="g172">
<path id="path174" d="M20.2228 4.7043V6.50115H22.7117C22.7117 6.50115 21.324 7.96151 19.9062 7.43713C19.3726 7.23982 18.9354 6.81758 18.7942 6.26638C18.7242 5.99314 18.7191 5.6716 18.8892 5.35066C19.0034 5.13514 19.1911 4.97079 19.4111 4.86517C19.6111 4.76918 19.8923 4.68035 20.2228 4.7043Z" fill="#EA3C30"/>
</g>
<g id="g176">
<path id="path178" d="M16.8581 10.4495C16.4012 10.4495 16.031 10.0792 16.031 9.6224C16.031 9.16557 16.4012 8.79531 16.8581 8.79531C17.3149 8.79531 17.6852 9.16557 17.6852 9.6224C17.6852 10.0792 17.3149 10.4495 16.8581 10.4495ZM18.1162 9.51126C18.109 9.49694 18.0343 9.48732 17.9154 9.48159C17.9095 9.43574 17.9005 9.39112 17.8888 9.34752C17.9842 9.307 18.0435 9.28182 18.0495 9.27937C18.0863 9.26402 18.0214 9.07367 17.9762 9.03478C17.9639 9.02414 17.8915 9.0444 17.7795 9.08472C17.7576 9.04706 17.7333 9.01104 17.7071 8.97665C17.7801 8.90276 17.8254 8.85712 17.8299 8.85262C17.8581 8.82417 17.7259 8.67291 17.6692 8.65408C17.6538 8.64896 17.5943 8.69522 17.5061 8.77525C17.47 8.74741 17.4322 8.72203 17.3925 8.69891C17.4314 8.60291 17.4555 8.54335 17.458 8.53742C17.4731 8.50037 17.2928 8.41175 17.233 8.41625C17.2171 8.41748 17.18 8.48297 17.1295 8.59084C17.0877 8.57978 17.0451 8.57119 17.0017 8.56546C17.0011 8.46148 17.0009 8.39721 17.0009 8.39087C17.0009 8.35075 16.8003 8.33745 16.7469 8.36426C16.7326 8.37142 16.723 8.44613 16.7172 8.56505C16.662 8.57221 16.608 8.58326 16.5556 8.59882C16.5189 8.51818 16.496 8.46742 16.4923 8.45862C16.4665 8.39701 16.2393 8.47745 16.2528 8.54417C16.2549 8.5544 16.2776 8.61274 16.3149 8.70423C16.2711 8.73022 16.2291 8.75867 16.1896 8.7904C16.1249 8.72981 16.0844 8.69154 16.0776 8.68478C16.0304 8.6375 15.8509 8.79817 15.8887 8.85487C15.8942 8.86347 15.9376 8.9089 16.007 8.97952C15.9751 9.02168 15.9454 9.06548 15.9198 9.11235C15.8373 9.08124 15.7852 9.0618 15.7766 9.05811C15.7147 9.03273 15.611 9.2503 15.6677 9.28796C15.6763 9.29369 15.7338 9.31887 15.8249 9.35735C15.8124 9.40606 15.8023 9.4558 15.7968 9.50697C15.7084 9.50963 15.6527 9.51126 15.6433 9.51126C15.5764 9.51126 15.5631 9.75176 15.6298 9.76527C15.64 9.76731 15.7027 9.76854 15.8015 9.76957C15.8089 9.82258 15.8195 9.87456 15.8345 9.92491C15.7538 9.96155 15.7031 9.98448 15.6943 9.98816C15.6327 10.0139 15.7131 10.2411 15.7798 10.2276C15.7901 10.2256 15.8484 10.2029 15.9399 10.1656C15.9659 10.2094 15.9943 10.2514 16.0261 10.2909C15.9655 10.3556 15.9272 10.3961 15.9204 10.4028C15.8732 10.4501 16.0338 10.6296 16.0905 10.592C16.0991 10.5862 16.1446 10.5428 16.2152 10.4734C16.2573 10.5054 16.3011 10.5351 16.348 10.5606C16.3169 10.6431 16.2975 10.6953 16.2938 10.7039C16.2684 10.7657 16.486 10.8695 16.5236 10.8128C16.5294 10.8042 16.5545 10.7467 16.593 10.6556C16.6417 10.6681 16.6915 10.6781 16.7426 10.6836C16.7453 10.7721 16.7469 10.8277 16.7469 10.8372C16.7469 10.9041 16.9874 10.9174 17.0009 10.8507C17.003 10.8404 17.0044 10.7778 17.0052 10.6789C17.0488 10.6728 17.0914 10.6642 17.1331 10.6532C17.1735 10.7485 17.1986 10.8079 17.2011 10.8138C17.2165 10.8507 17.4068 10.7858 17.4457 10.7405C17.4563 10.7283 17.4361 10.6558 17.3957 10.5439C17.4334 10.522 17.4694 10.4976 17.5038 10.4714C17.5777 10.5445 17.6233 10.5897 17.6279 10.5942C17.6563 10.6225 17.8076 10.4902 17.8264 10.4335C17.8315 10.4182 17.7852 10.3586 17.7052 10.2704C17.7331 10.2344 17.7584 10.1965 17.7816 10.1568C17.8776 10.1957 17.9371 10.2199 17.9431 10.2223C17.9801 10.2375 18.0687 10.0571 18.0642 9.99737C18.063 9.98141 17.9975 9.94436 17.8896 9.8938C17.9007 9.85205 17.9093 9.80948 17.915 9.76609C18.019 9.76547 18.0833 9.76527 18.0896 9.76527C18.1297 9.76527 18.143 9.56469 18.1162 9.51126Z" fill="white"/>
</g>
<g id="g180">
<path id="path182" d="M7.87167 15.3164C7.56383 15.3056 7.32313 15.0473 7.33398 14.7394C7.34483 14.4316 7.60313 14.1909 7.91096 14.2017C8.2188 14.2126 8.4595 14.4709 8.44865 14.7787C8.4378 15.0866 8.1795 15.3273 7.87167 15.3164ZM8.74174 14.714C8.73724 14.7042 8.6873 14.696 8.60727 14.6893C8.6042 14.6584 8.59929 14.6279 8.59233 14.5982C8.65762 14.5732 8.69835 14.5577 8.70224 14.5562C8.72762 14.5466 8.68832 14.4171 8.65865 14.3896C8.65066 14.3823 8.60134 14.3941 8.52499 14.4187C8.51107 14.3927 8.49552 14.3679 8.47873 14.344C8.5297 14.2961 8.56122 14.2664 8.56449 14.2634C8.58414 14.2449 8.49859 14.1399 8.46093 14.1258C8.45069 14.1221 8.40955 14.1518 8.34815 14.2036C8.32441 14.1839 8.29944 14.1659 8.27344 14.1496C8.30189 14.0857 8.3195 14.0462 8.32134 14.0423C8.33239 14.0175 8.21307 13.9537 8.17274 13.9551C8.1619 13.9557 8.13529 13.9989 8.09865 14.0703C8.07082 14.0619 8.04237 14.0552 8.0133 14.0503C8.01535 13.9803 8.01658 13.9369 8.01678 13.9326C8.0178 13.9056 7.88292 13.8919 7.84629 13.9086C7.83646 13.9131 7.82827 13.9633 7.82152 14.0431C7.78406 14.0468 7.74743 14.0529 7.71181 14.0622C7.6891 14.0069 7.67477 13.9721 7.67252 13.9662C7.65655 13.924 7.50161 13.9727 7.50898 14.0181C7.51021 14.0251 7.52413 14.0648 7.54705 14.1274C7.51696 14.144 7.4879 14.162 7.46068 14.1825C7.41851 14.1401 7.39211 14.1133 7.38761 14.1086C7.35691 14.0757 7.23205 14.1798 7.25621 14.2189C7.25989 14.2249 7.28813 14.2564 7.33316 14.3055C7.31065 14.3333 7.28957 14.3622 7.27115 14.3931C7.21629 14.3702 7.1817 14.3559 7.17597 14.3532C7.13483 14.3346 7.05972 14.4787 7.09717 14.5055C7.1027 14.5096 7.14097 14.5278 7.20135 14.5558C7.19173 14.5884 7.18375 14.6217 7.17884 14.6559C7.11928 14.6557 7.08162 14.6555 7.07527 14.6553C7.03024 14.6537 7.01551 14.8156 7.06033 14.8262C7.06708 14.8276 7.10925 14.8301 7.17597 14.8332C7.17966 14.8692 7.18559 14.9044 7.19439 14.9386C7.13913 14.9613 7.10434 14.9756 7.0984 14.9779C7.05624 14.9938 7.10495 15.1488 7.15039 15.1414C7.15735 15.1402 7.19705 15.1263 7.25968 15.1033C7.27626 15.1334 7.29428 15.1625 7.31474 15.1897C7.27237 15.2319 7.24556 15.2583 7.24085 15.2626C7.2079 15.2935 7.31208 15.4183 7.35117 15.3942C7.35711 15.3905 7.38863 15.3623 7.43775 15.3172C7.46559 15.3397 7.49445 15.3608 7.52535 15.3792C7.50243 15.4341 7.4881 15.4687 7.48544 15.4744C7.46682 15.5156 7.61091 15.5907 7.63772 15.5532C7.64181 15.5477 7.66003 15.5094 7.68807 15.449C7.72062 15.4587 7.75398 15.4666 7.78816 15.4716C7.78795 15.5311 7.78775 15.5686 7.78754 15.5751C7.78591 15.6201 7.94781 15.6349 7.95845 15.5901C7.95988 15.5833 7.96234 15.5411 7.96541 15.4744C7.99488 15.4716 8.02374 15.4666 8.05219 15.4601C8.07716 15.5254 8.09272 15.5661 8.09415 15.57C8.10377 15.5954 8.23333 15.5561 8.26076 15.5264C8.26812 15.5184 8.25625 15.4691 8.23169 15.3928C8.25768 15.3788 8.28245 15.3633 8.3064 15.3465C8.35429 15.3975 8.38397 15.429 8.38704 15.4323C8.40546 15.4519 8.51046 15.3663 8.52458 15.3287C8.52827 15.3185 8.49859 15.2773 8.44681 15.2159C8.46645 15.1922 8.48447 15.1672 8.50084 15.1412C8.5647 15.1697 8.6042 15.1873 8.60809 15.1891C8.63286 15.2002 8.69671 15.0808 8.69528 15.0405C8.69467 15.0297 8.65148 15.003 8.58005 14.9664C8.58844 14.9386 8.5952 14.9101 8.60011 14.8811C8.67011 14.8831 8.7135 14.8843 8.7178 14.8845C8.74481 14.8856 8.75853 14.7507 8.74174 14.714Z" fill="white"/>
</g>
<g id="g184">
<path id="path186" d="M9.20506 19.4449C9.00878 19.438 8.85527 19.2732 8.86203 19.0769C8.86898 18.8806 9.03375 18.7271 9.23003 18.7339C9.42652 18.7409 9.58003 18.9056 9.57307 19.1019C9.56611 19.2984 9.40135 19.4519 9.20506 19.4449ZM9.76014 19.0608C9.75728 19.0544 9.72514 19.0493 9.67418 19.045C9.67234 19.0252 9.66906 19.0059 9.66476 18.9869C9.70631 18.9709 9.73231 18.9611 9.73476 18.9601C9.75093 18.9539 9.72596 18.8712 9.70713 18.8538C9.70202 18.8491 9.6705 18.8567 9.62178 18.8723C9.61298 18.8559 9.60295 18.8399 9.59231 18.8248C9.62485 18.7941 9.64491 18.7752 9.64696 18.7734C9.65944 18.7615 9.605 18.6946 9.58085 18.6856C9.5743 18.6831 9.5481 18.7022 9.50901 18.7351C9.49386 18.7226 9.4779 18.7112 9.46132 18.7007C9.47953 18.66 9.49079 18.6346 9.49181 18.6322C9.49898 18.6166 9.42284 18.5757 9.39705 18.5767C9.39009 18.5769 9.3731 18.6045 9.34977 18.6502C9.33217 18.6449 9.31395 18.6406 9.29532 18.6373C9.29676 18.5927 9.29758 18.565 9.29758 18.5624C9.29819 18.5452 9.21223 18.5364 9.18889 18.547C9.18255 18.5499 9.17743 18.5818 9.17313 18.6328C9.14919 18.6352 9.12585 18.6391 9.10313 18.6449C9.0886 18.6097 9.07939 18.5876 9.07796 18.5837C9.06793 18.5569 8.96907 18.588 8.97378 18.6168C8.97439 18.6213 8.9834 18.6467 8.99813 18.6866C8.9789 18.6971 8.96027 18.7087 8.94287 18.7218C8.91606 18.6946 8.89907 18.6776 8.89641 18.6747C8.87676 18.6537 8.79714 18.72 8.81249 18.7449C8.81495 18.7486 8.83276 18.7689 8.86162 18.8002C8.84729 18.8178 8.83378 18.8362 8.82211 18.8561C8.78711 18.8414 8.76501 18.8321 8.76132 18.8305C8.73513 18.8186 8.68723 18.9105 8.71097 18.9277C8.71466 18.9304 8.73902 18.9421 8.77749 18.9599C8.77135 18.9805 8.76644 19.0018 8.76317 19.0237C8.7251 19.0235 8.70115 19.0233 8.69706 19.0233C8.6684 19.0223 8.65899 19.1254 8.68764 19.1322C8.69194 19.1332 8.71875 19.1349 8.76132 19.1367C8.76358 19.1596 8.76747 19.1821 8.77299 19.204C8.73779 19.2184 8.71568 19.2276 8.71179 19.229C8.68498 19.2392 8.71609 19.3381 8.74495 19.3332C8.74945 19.3326 8.77483 19.3236 8.81475 19.309C8.82518 19.3283 8.83685 19.3467 8.84995 19.3641C8.82273 19.3909 8.80574 19.4079 8.80287 19.4108C8.78179 19.4302 8.84811 19.5098 8.87308 19.4945C8.87676 19.4922 8.89703 19.4742 8.92834 19.4456C8.94594 19.4599 8.96436 19.4734 8.98422 19.4851C8.96948 19.5201 8.96027 19.542 8.95863 19.5458C8.94676 19.572 9.03866 19.6197 9.05585 19.596C9.05851 19.5925 9.07018 19.5682 9.08799 19.5295C9.10866 19.5356 9.12995 19.5407 9.15185 19.5438C9.15164 19.5819 9.15164 19.6058 9.15144 19.6099C9.15041 19.6386 9.25357 19.648 9.26032 19.6195C9.26135 19.6152 9.26299 19.5882 9.26483 19.5458C9.28366 19.5438 9.30208 19.5407 9.32009 19.5366C9.33605 19.5782 9.34608 19.6042 9.3469 19.6066C9.35304 19.6228 9.43573 19.5978 9.45333 19.579C9.45784 19.5739 9.45047 19.5424 9.43471 19.4937C9.45129 19.4849 9.46705 19.4748 9.48219 19.4642C9.5129 19.4967 9.53193 19.5168 9.53377 19.5188C9.54544 19.5313 9.61257 19.4769 9.62158 19.4527C9.62383 19.4462 9.605 19.42 9.57184 19.3809C9.58433 19.3657 9.59599 19.3498 9.60643 19.3332C9.64716 19.3514 9.67234 19.3627 9.67479 19.3637C9.69055 19.3708 9.73128 19.2947 9.73026 19.2689C9.73006 19.262 9.70243 19.245 9.65678 19.2216C9.66231 19.204 9.66661 19.1858 9.66968 19.1672C9.7143 19.1686 9.74193 19.1694 9.74479 19.1694C9.76199 19.1701 9.77079 19.0841 9.76014 19.0608Z" fill="white"/>
</g>
<g id="g188">
<path id="path190" d="M15.1602 24.5237C14.7167 24.5082 14.3698 24.1359 14.3855 23.6923C14.4011 23.2488 14.7734 22.9019 15.2169 22.9176C15.6605 22.9332 16.0072 23.3055 15.9916 23.749C15.9761 24.1926 15.6038 24.5393 15.1602 24.5237ZM16.4141 23.6557C16.4075 23.6416 16.3353 23.6299 16.22 23.6201C16.2157 23.5755 16.2086 23.5319 16.1988 23.4889C16.2929 23.4529 16.3512 23.4306 16.357 23.4283C16.3934 23.4146 16.3369 23.2277 16.2943 23.1882C16.2829 23.1778 16.2117 23.1948 16.1017 23.2302C16.0815 23.1929 16.0592 23.1571 16.035 23.1227C16.1085 23.0535 16.1539 23.0106 16.1584 23.0065C16.1869 22.9799 16.0637 22.8286 16.0092 22.8081C15.9945 22.8028 15.9351 22.8456 15.8467 22.9203C15.8125 22.8921 15.7767 22.8661 15.7391 22.8423C15.7802 22.7504 15.8056 22.6933 15.808 22.6878C15.8242 22.6522 15.6521 22.5601 15.5939 22.5623C15.5784 22.5629 15.5401 22.6254 15.4873 22.7283C15.4472 22.7162 15.4063 22.7064 15.3643 22.6992C15.3672 22.5983 15.3692 22.5359 15.3694 22.5298C15.3706 22.4909 15.1764 22.471 15.1236 22.4952C15.1095 22.5017 15.0976 22.574 15.088 22.689C15.0339 22.6943 14.9811 22.7031 14.9298 22.7164C14.897 22.6368 14.8763 22.5867 14.8733 22.5781C14.8504 22.5175 14.6271 22.5877 14.6377 22.653C14.6393 22.663 14.6596 22.7205 14.6925 22.8106C14.6492 22.8343 14.6074 22.8605 14.5679 22.89C14.5073 22.8288 14.4692 22.7903 14.4629 22.7836C14.4187 22.7361 14.2388 22.8859 14.2736 22.9422C14.2787 22.9508 14.3194 22.9964 14.3841 23.0673C14.3518 23.1072 14.3213 23.1487 14.2951 23.1933C14.2159 23.1604 14.1661 23.1395 14.1577 23.1358C14.0986 23.109 13.9903 23.3166 14.0441 23.3552C14.0523 23.3612 14.1072 23.3874 14.1944 23.4279C14.1807 23.4748 14.1692 23.5227 14.162 23.5722C14.0761 23.5718 14.022 23.5714 14.0128 23.5712C13.9479 23.5689 13.9267 23.802 13.9911 23.8172C14.0009 23.8196 14.0617 23.8231 14.1577 23.8274C14.1631 23.8792 14.1716 23.93 14.1843 23.9793C14.1047 24.012 14.0546 24.0327 14.046 24.036C13.9852 24.0589 14.0556 24.2822 14.1209 24.2716C14.1309 24.2699 14.1884 24.2497 14.2785 24.2165C14.3022 24.2601 14.3284 24.3019 14.3579 24.3414C14.2967 24.4019 14.2582 24.44 14.2515 24.4464C14.204 24.4906 14.3538 24.6705 14.4101 24.6357C14.4187 24.6304 14.4641 24.5898 14.5352 24.525C14.5751 24.5575 14.6166 24.5878 14.6612 24.6142C14.6283 24.6932 14.6074 24.7431 14.6037 24.7515C14.5769 24.8107 14.7844 24.9188 14.8231 24.8651C14.8291 24.8569 14.8553 24.8019 14.8958 24.7149C14.9427 24.7286 14.9906 24.7401 15.0401 24.7472C15.0397 24.8332 15.0393 24.8872 15.0391 24.8964C15.0368 24.9613 15.2699 24.9824 15.2851 24.9181C15.2875 24.9083 15.291 24.8473 15.2953 24.7515C15.3377 24.747 15.3794 24.7403 15.4202 24.7309C15.4562 24.825 15.4787 24.8833 15.4808 24.8891C15.4947 24.9255 15.6815 24.869 15.7208 24.8264C15.7315 24.815 15.7145 24.7438 15.6791 24.6338C15.7163 24.6138 15.7522 24.5915 15.7865 24.5671C15.8557 24.6406 15.8985 24.686 15.9028 24.6905C15.9292 24.719 16.0807 24.5958 16.1009 24.5413C16.1065 24.5266 16.0637 24.4672 15.989 24.3788C16.0172 24.3446 16.0432 24.3088 16.0669 24.2712C16.1588 24.3123 16.216 24.3377 16.2215 24.3401C16.2569 24.3563 16.3492 24.1842 16.3467 24.126C16.3463 24.1105 16.2839 24.0722 16.181 24.0194C16.193 23.9793 16.2029 23.9384 16.21 23.8964C16.3107 23.8995 16.3731 23.9013 16.3793 23.9015C16.4184 23.9027 16.4382 23.7085 16.4141 23.6557Z" fill="white"/>
</g>
<g id="g192">
<path id="path194" d="M22.8057 32.5958C22.4719 32.5841 22.2107 32.3039 22.2226 31.9701C22.2343 31.6362 22.5145 31.3751 22.8483 31.3867C23.1821 31.3986 23.4433 31.6788 23.4314 32.0126C23.4198 32.3465 23.1396 32.6074 22.8057 32.5958ZM23.7495 31.9424C23.7446 31.9318 23.6901 31.923 23.6036 31.9156C23.6003 31.8821 23.5948 31.8491 23.5874 31.8168C23.6582 31.7897 23.7022 31.773 23.7065 31.7713C23.7339 31.7609 23.6914 31.6203 23.6592 31.5906C23.6506 31.5826 23.5972 31.5953 23.5143 31.6221C23.4992 31.5941 23.4824 31.5671 23.4642 31.5413C23.5194 31.4891 23.5536 31.4569 23.5571 31.4537C23.5786 31.4338 23.4857 31.3198 23.4447 31.3045C23.4337 31.3004 23.3891 31.3327 23.3225 31.3888C23.2968 31.3677 23.2697 31.3481 23.2415 31.3302C23.2724 31.2611 23.2914 31.2181 23.2935 31.2138C23.3056 31.187 23.176 31.1178 23.1322 31.1194C23.1205 31.1198 23.0917 31.1669 23.052 31.2443C23.0217 31.2353 22.991 31.2279 22.9592 31.2224C22.9615 31.1467 22.9629 31.0996 22.9631 31.0949C22.9642 31.0656 22.818 31.0507 22.7781 31.0689C22.7675 31.0738 22.7587 31.128 22.7513 31.2148C22.7108 31.2187 22.6709 31.2255 22.6324 31.2353C22.6076 31.1755 22.5921 31.1379 22.5896 31.1313C22.5724 31.0857 22.4044 31.1385 22.4124 31.1878C22.4136 31.1952 22.4289 31.2383 22.4537 31.3063C22.4212 31.3241 22.3896 31.3438 22.36 31.3661C22.3143 31.32 22.2857 31.2909 22.2809 31.2858C22.2476 31.2502 22.1121 31.363 22.1383 31.4054C22.1422 31.4119 22.1729 31.4461 22.2216 31.4995C22.1972 31.5294 22.1743 31.5607 22.1545 31.5943C22.0949 31.5695 22.0574 31.554 22.0511 31.5511C22.0067 31.5308 21.9252 31.6872 21.9657 31.7163C21.9719 31.7206 22.0132 31.7404 22.0787 31.7709C22.0683 31.8061 22.0597 31.8423 22.0544 31.8796C21.9897 31.8792 21.949 31.879 21.942 31.8788C21.8933 31.8769 21.8773 32.0525 21.9258 32.064C21.933 32.0659 21.9788 32.0683 22.0511 32.0716C22.0552 32.1107 22.0615 32.149 22.0712 32.186C22.0114 32.2106 21.9735 32.2261 21.9672 32.2286C21.9213 32.246 21.9743 32.414 22.0235 32.4058C22.0308 32.4046 22.0742 32.3894 22.142 32.3647C22.16 32.3972 22.1796 32.4287 22.2017 32.4584C22.1557 32.5041 22.1268 32.5327 22.1217 32.5374C22.0859 32.5708 22.1987 32.7063 22.2412 32.6801C22.2476 32.676 22.2818 32.6455 22.3352 32.5968C22.3653 32.6211 22.3966 32.6441 22.4302 32.6639C22.4052 32.7233 22.3896 32.7609 22.3868 32.7673C22.3667 32.8117 22.5229 32.8932 22.5519 32.8526C22.5564 32.8465 22.5763 32.8051 22.6066 32.7396C22.642 32.7499 22.678 32.7587 22.7153 32.764C22.7149 32.8287 22.7147 32.8694 22.7145 32.8762C22.7128 32.9251 22.8882 32.941 22.8997 32.8925C22.9015 32.8852 22.9042 32.8393 22.9075 32.7673C22.9394 32.764 22.9707 32.7587 23.0014 32.7517C23.0286 32.8225 23.0454 32.8665 23.0471 32.8708C23.0575 32.8983 23.1981 32.8557 23.2278 32.8236C23.2358 32.815 23.2229 32.7613 23.1963 32.6787C23.2243 32.6635 23.2513 32.6467 23.2771 32.6283C23.3293 32.6838 23.3614 32.7179 23.3647 32.7212C23.3846 32.7427 23.4986 32.65 23.5139 32.6091C23.518 32.598 23.4857 32.5532 23.4296 32.4867C23.4507 32.4611 23.4703 32.4341 23.4881 32.4056C23.5573 32.4365 23.6003 32.4558 23.6046 32.4576C23.6312 32.4697 23.7006 32.3401 23.6989 32.2965C23.6985 32.2847 23.6515 32.2558 23.5741 32.2161C23.5831 32.186 23.5905 32.1551 23.5958 32.1236C23.6717 32.1258 23.7188 32.1273 23.7233 32.1275C23.7528 32.1285 23.7677 31.9821 23.7495 31.9424Z" fill="white"/>
</g>
<g id="g196">
<path id="path198" d="M23.0942 39.3063C22.832 39.2971 22.6269 39.0771 22.6361 38.8147C22.6454 38.5525 22.8654 38.3474 23.1278 38.3566C23.39 38.3658 23.5951 38.5859 23.5858 38.8483C23.5766 39.1105 23.3564 39.3155 23.0942 39.3063ZM23.8355 38.7932C23.8317 38.7846 23.7891 38.7779 23.7209 38.7719C23.7183 38.7457 23.714 38.7197 23.7082 38.6945C23.7639 38.6731 23.7985 38.66 23.8018 38.6587C23.8235 38.6505 23.7899 38.54 23.7647 38.5167C23.758 38.5103 23.7158 38.5206 23.6509 38.5415C23.6391 38.5193 23.6258 38.4983 23.6114 38.4778C23.6548 38.4371 23.6818 38.4117 23.6845 38.4092C23.7013 38.3935 23.6284 38.304 23.5963 38.292C23.5875 38.2887 23.5525 38.3141 23.5001 38.3583C23.48 38.3415 23.4587 38.3261 23.4364 38.3122C23.4608 38.2578 23.4757 38.224 23.4774 38.2207C23.4868 38.1996 23.3851 38.1452 23.3507 38.1466C23.3415 38.1468 23.3187 38.1839 23.2876 38.2447C23.2639 38.2375 23.2397 38.2318 23.2148 38.2275C23.2166 38.1679 23.2176 38.1311 23.2178 38.1274C23.2187 38.1043 23.1038 38.0926 23.0725 38.1069C23.0641 38.1106 23.0572 38.1534 23.0514 38.2215C23.0195 38.2246 22.9884 38.2299 22.9579 38.2377C22.9387 38.1906 22.9264 38.161 22.9245 38.1558C22.911 38.12 22.7788 38.1616 22.7851 38.2003C22.7862 38.206 22.7982 38.24 22.8177 38.2934C22.7921 38.3073 22.7673 38.3229 22.744 38.3403C22.7082 38.3042 22.6857 38.2813 22.6818 38.2774C22.6558 38.2494 22.5494 38.338 22.5698 38.3712C22.5731 38.3763 22.5971 38.4031 22.6353 38.445C22.6161 38.4688 22.5983 38.4934 22.5825 38.5196C22.5359 38.5001 22.5064 38.4878 22.5015 38.4856C22.4665 38.4698 22.4024 38.5926 22.4343 38.6153C22.439 38.6188 22.4716 38.6344 22.5232 38.6583C22.515 38.6862 22.5082 38.7144 22.5039 38.7437C22.4532 38.7435 22.4212 38.7433 22.4157 38.7431C22.3774 38.7416 22.3647 38.8796 22.403 38.8886C22.4087 38.89 22.4446 38.8921 22.5015 38.8945C22.5045 38.9252 22.5097 38.9553 22.5172 38.9844C22.4702 39.0038 22.4405 39.0161 22.4354 39.0179C22.3995 39.0314 22.4411 39.1635 22.4798 39.1571C22.4855 39.1563 22.5195 39.1442 22.5729 39.1248C22.5868 39.1504 22.6024 39.1751 22.6198 39.1985C22.5835 39.2343 22.5608 39.2568 22.5569 39.2605C22.5287 39.2867 22.6173 39.3931 22.6507 39.3724C22.6558 39.3694 22.6826 39.3454 22.7246 39.3071C22.7481 39.3262 22.7729 39.3442 22.7991 39.3597C22.7796 39.4066 22.7673 39.4361 22.7651 39.441C22.7493 39.476 22.8721 39.5399 22.8949 39.5081C22.8983 39.5032 22.9139 39.4709 22.9378 39.4193C22.9655 39.4275 22.9939 39.4342 23.0232 39.4385C23.0228 39.4893 23.0228 39.5212 23.0226 39.5268C23.0211 39.565 23.1591 39.5775 23.1681 39.5395C23.1695 39.5337 23.1716 39.4977 23.174 39.441C23.1992 39.4383 23.2238 39.4342 23.2479 39.4287C23.2692 39.4844 23.2825 39.519 23.2837 39.5225C23.2919 39.544 23.4025 39.5104 23.4258 39.4852C23.4319 39.4785 23.4219 39.4365 23.401 39.3714C23.4231 39.3595 23.4442 39.3462 23.4645 39.3319C23.5054 39.3753 23.5308 39.4023 23.5332 39.405C23.549 39.4218 23.6384 39.3489 23.6505 39.3168C23.6536 39.3082 23.6284 39.273 23.5842 39.2208C23.601 39.2005 23.6163 39.1792 23.6303 39.1569C23.6847 39.1813 23.7185 39.1964 23.7217 39.1978C23.7426 39.2073 23.7973 39.1055 23.7958 39.0712C23.7954 39.0619 23.7586 39.0392 23.6978 39.0081C23.705 38.9844 23.7107 38.9602 23.715 38.9352C23.7746 38.9371 23.8114 38.9383 23.8151 38.9383C23.8382 38.9391 23.8499 38.8243 23.8355 38.7932Z" fill="white"/>
</g>
<g id="g200">
<path id="path202" d="M7.47228 31.9591C7.15851 31.948 6.91311 31.6846 6.92416 31.3708C6.93521 31.0571 7.19863 30.8117 7.5124 30.8227C7.82617 30.8338 8.07157 31.0972 8.06052 31.411C8.04947 31.7247 7.78605 31.9701 7.47228 31.9591ZM8.35935 31.3451C8.35464 31.335 8.30368 31.3266 8.22201 31.3197C8.21914 31.2882 8.21403 31.2572 8.20707 31.227C8.27359 31.2016 8.31493 31.1856 8.31903 31.1842C8.34482 31.1744 8.3047 31.0421 8.27461 31.0143C8.26642 31.0067 8.21607 31.0188 8.1383 31.044C8.12417 31.0176 8.10841 30.9922 8.09102 30.9678C8.14301 30.9189 8.17534 30.8886 8.17841 30.8856C8.19868 30.8669 8.11148 30.7597 8.07301 30.7454C8.06257 30.7415 8.02061 30.7718 7.95798 30.8246C7.93383 30.8047 7.90845 30.7863 7.88184 30.7695C7.9109 30.7044 7.92891 30.6641 7.93055 30.6602C7.94201 30.635 7.82023 30.5699 7.77909 30.5714C7.76804 30.5718 7.74102 30.616 7.70357 30.6889C7.67532 30.6803 7.64626 30.6733 7.61658 30.6684C7.61883 30.597 7.62006 30.5528 7.62026 30.5485C7.62129 30.5208 7.48374 30.5069 7.44649 30.5239C7.43626 30.5284 7.42807 30.5796 7.42111 30.661C7.38304 30.6647 7.34559 30.6711 7.30936 30.6805C7.28603 30.6242 7.27149 30.5888 7.26924 30.5826C7.25307 30.5397 7.09506 30.5894 7.10264 30.6356C7.10386 30.6426 7.11799 30.6833 7.14153 30.747C7.11062 30.7638 7.08115 30.7824 7.05331 30.8033C7.01033 30.7599 6.98331 30.7327 6.97901 30.728C6.9477 30.6944 6.82039 30.8004 6.84495 30.8403C6.84863 30.8463 6.87729 30.8784 6.92334 30.9287C6.90021 30.9568 6.87872 30.9863 6.8601 31.0178C6.80422 30.9944 6.76902 30.9797 6.76308 30.977C6.72112 30.9582 6.64457 31.1052 6.68264 31.1324C6.68837 31.1365 6.72726 31.1551 6.78887 31.1838C6.77925 31.2169 6.77106 31.2509 6.76615 31.2859C6.70536 31.2855 6.66709 31.2853 6.66054 31.2851C6.61448 31.2834 6.59954 31.4484 6.64519 31.4593C6.65215 31.4609 6.69513 31.4634 6.76308 31.4664C6.76676 31.5031 6.7729 31.5391 6.78191 31.5739C6.72562 31.597 6.69001 31.6117 6.68407 31.614C6.64109 31.6302 6.69083 31.7882 6.73709 31.7806C6.74404 31.7794 6.78478 31.7653 6.84843 31.7417C6.86521 31.7726 6.88384 31.8021 6.90472 31.8299C6.86132 31.8729 6.8341 31.8999 6.82939 31.9042C6.79562 31.9355 6.90185 32.0629 6.94156 32.0383C6.9477 32.0346 6.97983 32.006 7.02998 31.9599C7.05822 31.983 7.0877 32.0045 7.11922 32.0231C7.09588 32.079 7.08115 32.1142 7.07849 32.1202C7.05965 32.1621 7.20641 32.2387 7.23383 32.2006C7.23793 32.1949 7.25655 32.156 7.28521 32.0942C7.31837 32.104 7.35214 32.1122 7.38734 32.1171C7.38693 32.1779 7.38673 32.2162 7.38652 32.2227C7.38489 32.2686 7.54985 32.2837 7.5607 32.2381C7.56234 32.2311 7.5648 32.1881 7.56787 32.1202C7.59795 32.1171 7.62743 32.1122 7.65629 32.1056C7.68167 32.1721 7.69763 32.2135 7.69906 32.2176C7.70889 32.2434 7.84111 32.2033 7.86894 32.1732C7.87652 32.1652 7.86444 32.1146 7.83927 32.0369C7.86567 32.0227 7.89105 32.007 7.91541 31.9898C7.96432 32.0418 7.99461 32.0739 7.99769 32.0772C8.01631 32.0972 8.12356 32.01 8.13789 31.9716C8.14178 31.9611 8.11148 31.9192 8.05868 31.8565C8.07853 31.8324 8.09695 31.807 8.11374 31.7804C8.17882 31.8095 8.21914 31.8275 8.22303 31.8293C8.24821 31.8406 8.3133 31.7188 8.31186 31.6779C8.31145 31.6668 8.26724 31.6396 8.19438 31.6023C8.20298 31.5739 8.20993 31.545 8.21485 31.5151C8.28628 31.5174 8.33049 31.5186 8.33479 31.5188C8.36242 31.5198 8.37634 31.3823 8.35935 31.3451Z" fill="white"/>
</g>
<g id="g204">
<path id="path206" d="M25.1904 17.6828C24.8793 17.657 24.6478 17.3837 24.6736 17.0726C24.6994 16.7615 24.9726 16.53 25.2837 16.5558C25.5948 16.5816 25.8263 16.8548 25.8005 17.166C25.7747 17.4771 25.5015 17.7085 25.1904 17.6828ZM26.1006 17.1146C26.0965 17.1043 26.0461 17.0937 25.9653 17.0831C25.9638 17.0515 25.9602 17.0206 25.9548 16.9901C26.0222 16.968 26.0639 16.9541 26.068 16.9529C26.094 16.9443 26.0607 16.8112 26.032 16.782C26.0242 16.7742 25.9737 16.7838 25.8951 16.8049C25.8822 16.7781 25.8679 16.7523 25.8519 16.7273C25.9057 16.6811 25.9393 16.6524 25.9426 16.6498C25.9634 16.632 25.8818 16.5214 25.8443 16.5055C25.8341 16.5012 25.7909 16.5292 25.7264 16.5787C25.7033 16.5577 25.6789 16.5382 25.6531 16.5204C25.6851 16.4572 25.7049 16.4179 25.707 16.414C25.7195 16.3896 25.6016 16.319 25.5606 16.3188C25.5496 16.3186 25.5205 16.3612 25.48 16.4318C25.4524 16.422 25.4239 16.4138 25.3946 16.4072C25.4002 16.3366 25.4034 16.2926 25.4039 16.2883C25.4061 16.2611 25.2702 16.2406 25.2323 16.2558C25.2221 16.2598 25.2115 16.3102 25.2008 16.391C25.1627 16.3929 25.1253 16.3974 25.0886 16.4048C25.0684 16.3479 25.0555 16.312 25.0534 16.3059C25.0395 16.2623 24.8801 16.3043 24.8856 16.3505C24.8864 16.3577 24.8987 16.3986 24.9188 16.4631C24.8875 16.4784 24.8572 16.4954 24.8285 16.5149C24.788 16.4698 24.7624 16.4414 24.7583 16.4365C24.7288 16.4017 24.5974 16.501 24.6199 16.5417C24.6232 16.5478 24.6502 16.5812 24.6934 16.6332C24.6695 16.6602 24.6465 16.6884 24.6267 16.7187C24.5723 16.6929 24.5379 16.6768 24.5321 16.6739C24.4914 16.653 24.4083 16.7955 24.4449 16.8243C24.4505 16.8286 24.4881 16.8491 24.5481 16.8804C24.5368 16.9128 24.5272 16.9461 24.5205 16.9807C24.4601 16.9774 24.4222 16.9756 24.4157 16.975C24.3702 16.9713 24.3475 17.1344 24.3923 17.1473C24.3991 17.1492 24.4417 17.1537 24.509 17.16C24.5111 17.1964 24.5154 17.2325 24.5225 17.2677C24.4656 17.2879 24.4298 17.3008 24.4237 17.3029C24.3801 17.3168 24.422 17.4762 24.4683 17.4707C24.4754 17.4701 24.5164 17.4576 24.5808 17.4376C24.5962 17.4689 24.6132 17.4992 24.6326 17.5278C24.5876 17.5683 24.5592 17.5939 24.5542 17.598C24.5194 17.6275 24.6187 17.7589 24.6594 17.7364C24.6656 17.7331 24.6989 17.7061 24.7509 17.6629C24.778 17.6869 24.8062 17.7098 24.8365 17.7296C24.8107 17.7841 24.7945 17.8185 24.7917 17.8242C24.7708 17.8649 24.9132 17.948 24.9421 17.9114C24.9464 17.9059 24.9669 17.8682 24.9982 17.8082C25.0305 17.8195 25.0639 17.8291 25.0985 17.8359C25.0952 17.8962 25.0934 17.9341 25.0927 17.9406C25.0891 17.9861 25.2522 18.0088 25.2651 17.964C25.2669 17.9572 25.2714 17.9147 25.2778 17.8473C25.3077 17.8457 25.3371 17.8422 25.3662 17.8371C25.3883 17.9044 25.4022 17.9462 25.4034 17.9503C25.412 17.9763 25.5451 17.9429 25.5743 17.9142C25.5821 17.9065 25.5725 17.8559 25.5514 17.7773C25.5782 17.7644 25.604 17.7501 25.629 17.7341C25.6753 17.788 25.7039 17.8215 25.7066 17.8248C25.7244 17.8457 25.8349 17.764 25.8509 17.7266C25.8554 17.7163 25.8271 17.6731 25.7776 17.6087C25.7987 17.5855 25.8181 17.5612 25.8359 17.5356C25.8992 17.5673 25.9385 17.5872 25.9424 17.5892C25.9667 17.6017 26.0373 17.4838 26.0375 17.4429C26.0377 17.4318 25.9952 17.403 25.9245 17.3624C25.9344 17.3346 25.9426 17.3062 25.9491 17.2769C26.0197 17.2824 26.0637 17.2857 26.068 17.2861C26.0952 17.2883 26.1157 17.1524 26.1006 17.1146Z" fill="white"/>
</g>
<g id="g208">
<path id="path210" d="M29.996 15.2013C29.7952 15.1847 29.646 15.0085 29.6626 14.8077C29.6792 14.6069 29.8554 14.4577 30.0562 14.4743C30.257 14.4909 30.4062 14.6671 30.3896 14.8679C30.373 15.0687 30.1968 15.2179 29.996 15.2013ZM30.5832 14.8347C30.5806 14.8282 30.548 14.8212 30.4961 14.8142C30.495 14.794 30.4926 14.7741 30.4891 14.7545C30.5327 14.7401 30.5595 14.7311 30.5622 14.7303C30.5791 14.725 30.5575 14.639 30.539 14.6202C30.5339 14.6151 30.5014 14.6212 30.4506 14.6349C30.4424 14.6177 30.433 14.601 30.4228 14.5848C30.4576 14.5551 30.4791 14.5367 30.4813 14.5349C30.4948 14.5234 30.442 14.4522 30.4179 14.4417C30.4113 14.4389 30.3835 14.4571 30.3417 14.489C30.327 14.4755 30.3112 14.463 30.2947 14.4513C30.3153 14.4106 30.328 14.3852 30.3292 14.3828C30.3372 14.367 30.2613 14.3216 30.2349 14.3214C30.2277 14.3212 30.2091 14.3488 30.1829 14.3942C30.1651 14.3879 30.1467 14.3826 30.1278 14.3785C30.1313 14.3328 30.1336 14.3046 30.1338 14.3017C30.1352 14.2841 30.0476 14.2708 30.023 14.2806C30.0165 14.2833 30.0095 14.3159 30.0028 14.3678C29.9782 14.3691 29.9541 14.3719 29.9305 14.3768C29.9172 14.3402 29.909 14.3169 29.9078 14.313C29.8986 14.2849 29.7959 14.312 29.7993 14.3418C29.7999 14.3463 29.8077 14.373 29.8208 14.4145C29.8006 14.4243 29.7811 14.4352 29.7627 14.4479C29.7365 14.4188 29.7199 14.4004 29.7173 14.3973C29.6982 14.3748 29.6135 14.4389 29.628 14.4653C29.6303 14.4692 29.6477 14.4906 29.6755 14.5242C29.6599 14.5416 29.6452 14.5598 29.6323 14.5795C29.5971 14.5627 29.575 14.5523 29.5713 14.5504C29.5451 14.5369 29.4915 14.6288 29.515 14.6474C29.5187 14.6503 29.5431 14.6634 29.5818 14.6837C29.5744 14.7045 29.5683 14.726 29.564 14.7483C29.5249 14.7463 29.5005 14.7451 29.4962 14.7446C29.4669 14.7422 29.4522 14.8476 29.4811 14.8558C29.4856 14.857 29.513 14.8599 29.5564 14.864C29.5578 14.8875 29.5605 14.9108 29.5652 14.9334C29.5285 14.9467 29.5052 14.9549 29.5013 14.9561C29.4733 14.9653 29.5003 15.068 29.5302 15.0646C29.5347 15.0639 29.5613 15.0562 29.6028 15.0431C29.6127 15.0633 29.6237 15.0828 29.6362 15.1014C29.6071 15.1274 29.5887 15.144 29.5857 15.1466C29.5631 15.1657 29.6272 15.2504 29.6536 15.2359C29.6575 15.2336 29.679 15.2162 29.7126 15.1884C29.7299 15.2039 29.7482 15.2187 29.7678 15.2316C29.7512 15.2668 29.7406 15.2889 29.7387 15.2926C29.7254 15.3188 29.8171 15.3724 29.8358 15.3489C29.8386 15.3452 29.8517 15.3208 29.872 15.2823C29.8929 15.2895 29.9144 15.2956 29.9367 15.2999C29.9346 15.339 29.9334 15.3634 29.933 15.3677C29.9305 15.397 30.0359 15.4117 30.0441 15.3828C30.0454 15.3783 30.0484 15.3509 30.0523 15.3075C30.0718 15.3063 30.0908 15.3042 30.1094 15.3008C30.1237 15.3441 30.1328 15.3712 30.1336 15.3738C30.1389 15.3906 30.2249 15.3691 30.2437 15.3505C30.2488 15.3456 30.2427 15.313 30.2289 15.2623C30.2461 15.2541 30.2629 15.2447 30.2791 15.2344C30.3088 15.2692 30.3272 15.2907 30.329 15.293C30.3405 15.3063 30.4117 15.2537 30.4222 15.2295C30.425 15.223 30.4068 15.1951 30.3749 15.1534C30.3884 15.1387 30.4011 15.1229 30.4125 15.1063C30.4533 15.1268 30.4787 15.1397 30.4811 15.1409C30.4969 15.1489 30.5423 15.0729 30.5425 15.0465C30.5427 15.0394 30.5151 15.0208 30.4696 14.9946C30.476 14.9768 30.4813 14.9583 30.4854 14.9393C30.5311 14.943 30.5593 14.9452 30.5622 14.9454C30.5798 14.9469 30.5931 14.8593 30.5832 14.8347Z" fill="white"/>
</g>
<g id="g212">
<path id="path214" d="M19.6278 5.74767C19.4417 5.71104 19.3205 5.53051 19.3572 5.34446C19.3938 5.15841 19.5743 5.03724 19.7604 5.07388C19.9464 5.11052 20.0676 5.29104 20.031 5.47709C19.9943 5.66314 19.8138 5.78431 19.6278 5.74767ZM20.2154 5.46645C20.2138 5.4599 20.1841 5.45007 20.136 5.4382C20.1372 5.41917 20.1372 5.40013 20.136 5.38151C20.1781 5.37271 20.2043 5.36718 20.2068 5.36657C20.2232 5.36329 20.2119 5.2806 20.1966 5.26116C20.1925 5.25584 20.1614 5.25829 20.1124 5.26566C20.1065 5.24867 20.0995 5.23209 20.0916 5.21592C20.1274 5.19157 20.1495 5.17663 20.1515 5.17519C20.1655 5.16598 20.1237 5.09373 20.102 5.08145C20.0963 5.07818 20.0682 5.0921 20.0261 5.11768C20.0134 5.10356 20.0001 5.09005 19.9857 5.07756C20.0093 5.04154 20.024 5.01923 20.0255 5.01698C20.0347 5.00306 19.9681 4.95251 19.9436 4.94964C19.9368 4.94882 19.9166 4.97256 19.8873 5.01227C19.8711 5.00449 19.8545 4.99774 19.8374 4.9918C19.8455 4.94944 19.8505 4.92324 19.8511 4.92058C19.8541 4.90441 19.7737 4.88271 19.7498 4.88947C19.7432 4.8911 19.7334 4.92078 19.7215 4.96888C19.6984 4.96745 19.6755 4.96745 19.6529 4.9697C19.6446 4.93388 19.6392 4.91137 19.6384 4.90748C19.6329 4.88026 19.5338 4.89479 19.534 4.92303C19.534 4.92733 19.5387 4.95312 19.5465 4.99324C19.5265 5.0004 19.5072 5.00859 19.4886 5.01841C19.4671 4.98853 19.4536 4.96949 19.4513 4.96642C19.436 4.9433 19.3498 4.99426 19.3607 5.02046C19.3625 5.02435 19.3764 5.04645 19.3989 5.08063C19.3826 5.09537 19.367 5.11072 19.3529 5.12771C19.3218 5.10847 19.3021 5.09639 19.2989 5.09435C19.2757 5.079 19.216 5.15923 19.236 5.17908C19.2391 5.18215 19.2606 5.19709 19.2946 5.22002C19.2855 5.23885 19.2774 5.25829 19.271 5.27855C19.2348 5.27262 19.2121 5.26894 19.2082 5.26812C19.181 5.26279 19.1562 5.35961 19.1824 5.37045C19.1863 5.37209 19.2119 5.37782 19.252 5.38601C19.2508 5.40832 19.251 5.43022 19.253 5.45192C19.2172 5.46031 19.1947 5.46563 19.1908 5.46645C19.1636 5.47197 19.1781 5.57104 19.2063 5.57083C19.2106 5.57083 19.2362 5.56633 19.2765 5.55835C19.2837 5.57841 19.2919 5.59785 19.3017 5.61648C19.2716 5.63776 19.2528 5.65127 19.2495 5.65352C19.2266 5.66887 19.2776 5.75504 19.3038 5.74419C19.3077 5.74256 19.3298 5.72843 19.3639 5.70592C19.3787 5.72229 19.394 5.73785 19.411 5.75197C19.3918 5.78308 19.3797 5.80273 19.3774 5.80601C19.3623 5.82913 19.4425 5.8889 19.4624 5.86884C19.4655 5.86577 19.4804 5.84448 19.5033 5.8103C19.5222 5.81931 19.5416 5.8275 19.5619 5.83384C19.5559 5.87007 19.5522 5.89279 19.5514 5.89668C19.5461 5.9239 19.6429 5.94866 19.6538 5.92247C19.6554 5.91858 19.6609 5.89299 19.6693 5.85288C19.6875 5.8539 19.7055 5.8539 19.7234 5.85267C19.7324 5.89483 19.7377 5.92103 19.7383 5.92349C19.7416 5.93986 19.8243 5.92861 19.8437 5.91326C19.849 5.90916 19.8468 5.87805 19.8392 5.82913C19.8562 5.8232 19.873 5.81624 19.8891 5.80846C19.9133 5.84407 19.9282 5.86618 19.9297 5.86823C19.9391 5.88214 20.0111 5.84039 20.0234 5.81869C20.0267 5.81296 20.0128 5.78513 19.9872 5.74276C20.0013 5.73027 20.0148 5.71677 20.0273 5.70244C20.0633 5.72598 20.0856 5.74071 20.0879 5.74215C20.1018 5.75136 20.1524 5.68484 20.1552 5.66028C20.156 5.65373 20.1323 5.63326 20.0926 5.60399C20.1004 5.58803 20.1071 5.57124 20.1131 5.55405C20.1554 5.56224 20.1816 5.56715 20.1843 5.56776C20.2005 5.57083 20.2221 5.49039 20.2154 5.46645Z" fill="white"/>
</g>
</g>
</svg>
