<svg width="4547" height="1624" xmlns="http://www.w3.org/2000/svg" xmlns:xlink="http://www.w3.org/1999/xlink" xml:space="preserve" overflow="hidden"><defs><clipPath id="clip0"><rect x="0" y="0" width="4547" height="1624"/></clipPath><clipPath id="clip1"><rect x="657" y="0" width="3232" height="1624"/></clipPath><clipPath id="clip2"><rect x="657" y="0" width="3232" height="1624"/></clipPath><clipPath id="clip3"><rect x="657" y="0" width="3232" height="1624"/></clipPath><clipPath id="clip4"><rect x="661" y="0" width="3232" height="1624"/></clipPath></defs><g clip-path="url(#clip0)"><g clip-path="url(#clip1)"><g clip-path="url(#clip2)"><g clip-path="url(#clip3)"><g clip-path="url(#clip4)"><path d="M3271.14 346.593C3281.93 347.424 3296.95 367.032 3309.29 402.467 3337.27 482.766 3333.88 645.032 3302.96 704.833 3234.48 837.296 3083.92 910.958 2838.02 932.327 2564.61 956.083 2398.82 1008.35 2350.28 1086.07 2318.4 1137.15 2300.61 1130.17 2300.61 1066.58 2300.61 899.334 2396.53 741.813 2539.2 674.817 2581.64 654.87 2685.39 624.529 2769.75 607.365 3091.25 541.988 3256.93 464.699 3256.93 380.121 3256.93 356.659 3262.75 345.946 3271.14 346.593Z" fill="#FCFCFC" fill-rule="evenodd" transform="matrix(1 0 0 1.00007 564.364 -346.588)"/><path d="M2747.14 1088.26C2883.98 1089.83 3022.08 1116.95 3086.68 1161.2 3190.18 1232.1 3209.5 1297.03 3213.24 1586.22 3215.84 1788.58 3222.75 1852.61 3245.79 1887.75 3261.87 1912.3 3275.02 1936.71 3275.02 1942.04 3275.02 1947.34 3197.09 1951.69 3101.82 1951.69 2932.31 1951.69 2927.53 1950.51 2877.62 1897.09 2829.46 1845.55 2825.3 1844.34 2802.72 1875.45 2679.16 2045.73 2351.66 1972.6 2336.22 1771.28 2323.73 1608.84 2379.09 1550.14 2593.56 1498.34 2781.29 1453.01 2841.97 1405.49 2841.97 1303.78 2841.97 1172.31 2722.59 1101.42 2675.42 1204.9 2657.8 1243.59 2659.46 1261.34 2684.84 1305.58 2726.2 1377.62 2724.34 1387.02 2662.43 1419.02 2545.94 1479.26 2427.82 1441.21 2391.72 1331.83 2355 1220.63 2424.25 1130.82 2568.35 1102.77 2623 1092.12 2684.94 1087.55 2747.14 1088.26ZM2832.95 1519.65 2747.24 1601.93C2657.76 1687.82 2645.22 1724.05 2685.78 1779.5 2717.36 1822.68 2790.94 1805.83 2821.68 1748.4 2834.01 1725.37 2841.6 1664.46 2838.52 1613.08L2832.95 1519.65Z" fill="#FCFCFC" fill-rule="evenodd" transform="matrix(1 0 0 1.00007 564.364 -346.588)"/><path d="M97.3665 1121.77 261.506 1121.77C439.033 1121.77 503.25 1142.55 563.912 1219.62 583.147 1244.08 645.954 1399.18 703.46 1564.28 789.687 1811.88 815.689 1867.97 851.882 1884.46 915.342 1913.36 956.605 1881.21 954.244 1804.77 951.192 1706.63 773.015 1229.57 717.949 1172.11L669.698 1121.77 861.518 1121.77C1038.29 1121.77 1057.33 1125.18 1103.96 1165.31L1154.59 1208.83 1154.59 1504.3C1154.59 1760.11 1150.17 1806.5 1121.61 1850.08 1065.98 1934.95 987.639 1955.06 738.642 1948.39 440.533 1940.39 460.976 1961.25 286.911 1488.11 240.161 1361.02 178.381 1226.62 149.638 1189.41L97.3665 1121.77Z" fill="#FCFCFC" fill-rule="evenodd" transform="matrix(1 0 0 1.00007 564.364 -346.588)"/><path d="M1967.59 1121.77C2126.4 1121.77 2143.27 1125.21 2184.1 1166.06 2227.38 1209.32 2228.39 1216.86 2228.5 1495.31 2228.59 1794.42 2245.5 1902.7 2296.76 1932.58 2318.75 1945.39 2274.01 1950.73 2141.3 1951.13 1959.76 1951.65 1953.64 1950.34 1903.05 1899.75 1851.27 1847.97 1851.02 1847.93 1818.74 1884.2 1770.76 1938.07 1681.9 1969.71 1578.54 1969.71 1471.49 1969.71 1403.15 1938.83 1337.44 1860.73 1291.12 1805.7 1290.18 1799.26 1290.18 1538.02 1290.18 1286.45 1271.27 1157.85 1234.29 1157.85 1225.34 1157.85 1218.01 1149.73 1218.01 1139.81 1218.01 1116.08 1552.34 1115.96 1596.65 1139.66 1649.45 1167.94 1666.91 1259.68 1660.16 1473.57 1653.34 1690.39 1670.75 1779.27 1725.86 1808.77 1753.1 1823.34 1772.25 1821.03 1805.6 1799.18 1849.07 1770.72 1849.5 1767.54 1849.5 1483.46 1849.5 1252.44 1844.23 1191.22 1822.44 1169.45 1807.55 1154.56 1795.37 1137.75 1795.37 1132.07 1795.37 1126.4 1872.86 1121.77 1967.59 1121.77Z" fill="#FCFCFC" fill-rule="evenodd" transform="matrix(1 0 0 1.00007 564.364 -346.588)"/></g></g></g></g></g></svg>