<svg width="203" height="81" viewBox="0 0 203 81" fill="none" xmlns="http://www.w3.org/2000/svg">
<g clip-path="url(#clip0_226_4687)">
<path d="M49.9952 22.692C43.9903 22.692 39.1199 17.8411 39.1199 11.8362C39.1199 5.81179 43.9903 0.960938 49.9952 0.960938C56.0001 0.960938 60.8705 5.81179 60.8705 11.8362C60.8705 17.8411 56.0001 22.692 49.9952 22.692Z" fill="#898989"/>
<path d="M10.9144 22.692C4.9095 22.692 0.0390625 17.8411 0.0390625 11.8362C0.0390625 5.81179 4.9095 0.960938 10.9144 0.960938C16.9193 0.960938 21.7897 5.81179 21.7897 11.8362C21.7897 17.8411 16.9193 22.692 10.9144 22.692Z" fill="white"/>
<path d="M60.8704 40.6614V70.7054C60.8704 76.28 56.3521 80.7983 50.7775 80.7983C45.2029 80.7983 40.6846 76.28 40.6846 70.7054V56.544C42.5819 55.9963 44.4401 55.3117 46.2787 54.4511C49.5648 52.8863 52.7335 51.1259 54.8851 48.368C57.3496 46.6271 59.0122 44.3973 60.2249 41.9328C60.5574 41.2482 60.753 40.544 60.8313 39.8203C60.8573 40.0942 60.8704 40.3745 60.8704 40.6614Z" fill="#898989"/>
<path d="M60.831 39.8013C60.7527 40.525 60.5571 41.2487 60.2246 41.9138C59.0119 44.3783 57.3493 46.6277 54.8848 48.349C49.9753 49.4834 45.2613 49.5226 40.6843 48.701C37.2222 48.0751 33.8383 46.9602 30.5327 45.4345C31.8628 44.4565 33.1733 43.4394 34.5229 42.481C37.3787 40.4859 39.7063 38.1387 41.4471 35.3612C43.5009 32.0751 46.3371 30.7646 49.9752 30.5886C49.9883 30.5886 49.9948 30.5886 49.9948 30.5886C50.386 30.5625 50.7967 30.556 51.2271 30.569C51.6443 30.569 52.0747 30.5886 52.518 30.6277C56.1562 30.882 59.5987 33.7768 60.5767 37.1998C60.831 38.0605 60.9092 38.9407 60.831 39.8013Z" fill="white"/>
<path d="M0.0390625 40.6614V70.7054C0.0390625 76.28 4.55742 80.7983 10.132 80.7983C15.7066 80.7983 20.2249 76.28 20.2249 70.7054V56.544C18.3276 55.9963 16.4694 55.3117 14.6308 54.4511C11.3447 52.8863 8.15644 51.1259 6.02441 48.368C3.55986 46.6271 1.89726 44.3973 0.684549 41.9328C0.35203 41.2482 0.156412 40.544 0.0781728 39.8203C0.0520929 40.0942 0.0390625 40.3745 0.0390625 40.6614Z" fill="white"/>
<path d="M0.078112 39.8013C0.156352 40.525 0.35197 41.2487 0.684488 41.9138C1.8972 44.3783 3.5598 46.6277 6.02435 48.349C10.9339 49.4834 15.6478 49.5226 20.2248 48.701C23.6869 48.0751 27.0708 46.9602 30.3764 45.4345C29.0464 44.4565 27.7358 43.4394 26.3862 42.481C23.5304 40.4859 21.2028 38.1387 19.462 35.3612C17.4082 32.0751 14.572 30.7646 10.9339 30.5886C10.9208 30.5886 10.9143 30.5886 10.9143 30.5886C10.5231 30.5625 10.1124 30.556 9.68204 30.569C9.26476 30.569 8.83443 30.5886 8.39107 30.6277C4.75293 30.882 1.3104 33.7768 0.3324 37.1998C0.0781216 38.0605 -0.000127621 38.9407 0.078112 39.8013Z" fill="#898989"/>
<path d="M86.4744 54.8521C85.1052 54.2262 84.0229 53.3786 83.2274 52.3093C82.432 51.227 82.0082 50.0273 81.9561 48.7103H86.6504C86.7287 49.6361 87.172 50.412 87.9805 51.0379C88.789 51.6639 89.8061 51.9768 91.0319 51.9768C92.3098 51.9768 93.3008 51.7291 94.005 51.2335C94.6961 50.738 95.0417 50.1056 95.0417 49.3362C95.0417 48.5147 94.6505 47.9084 93.8681 47.5172C93.0857 47.1129 91.8469 46.6761 90.1517 46.2066C88.5087 45.7503 87.1721 45.3069 86.1419 44.8766C85.0987 44.4593 84.2055 43.8138 83.4622 42.9401C82.7059 42.0665 82.3277 40.9124 82.3277 39.478C82.3277 38.3044 82.6668 37.2352 83.3448 36.2702C84.0359 35.3053 85.027 34.5424 86.3179 33.9817C87.6089 33.421 89.0889 33.1406 90.758 33.1406C93.2486 33.1406 95.2568 33.7731 96.7825 35.0379C98.3081 36.3028 99.1231 38.0176 99.2275 40.1822H94.6896C94.6113 39.2042 94.2136 38.4218 93.4964 37.835C92.7792 37.2612 91.8143 36.9744 90.6016 36.9744C89.4019 36.9744 88.4826 37.196 87.8436 37.6394C87.2046 38.0958 86.8852 38.6956 86.8852 39.4389C86.8852 40.0257 87.1003 40.5147 87.5306 40.9059C87.9609 41.3101 88.4761 41.6231 89.0759 41.8448C89.6888 42.0665 90.595 42.3533 91.7947 42.7054C93.3856 43.1227 94.6896 43.553 95.7067 43.9964C96.7238 44.4267 97.604 45.0657 98.3473 45.9133C99.0905 46.7608 99.4752 47.8888 99.5013 49.2971C99.5013 50.5489 99.1558 51.6638 98.4646 52.6418C97.7735 53.6198 96.802 54.3892 95.5502 54.9499C94.2853 55.5106 92.8053 55.791 91.1101 55.791C89.3888 55.791 87.8436 55.478 86.4744 54.8521Z" fill="white"/>
<path d="M124.343 46.1675H107.58C107.71 47.9149 108.362 49.3167 109.536 50.3729C110.696 51.4422 112.131 51.9768 113.839 51.9768C116.277 51.9768 117.999 50.9532 119.003 48.9059H123.893C123.228 50.9271 122.028 52.5767 120.294 53.8546C118.559 55.1455 116.408 55.791 113.839 55.791C111.739 55.791 109.862 55.3216 108.206 54.3827C106.55 53.4308 105.246 52.1007 104.294 50.3925C103.355 48.6842 102.885 46.7022 102.885 44.4463C102.885 42.1903 103.342 40.2083 104.254 38.5C105.18 36.7918 106.471 35.4748 108.127 34.5489C109.783 33.6101 111.687 33.1406 113.839 33.1406C115.899 33.1406 117.738 33.597 119.355 34.5098C120.972 35.4096 122.237 36.6745 123.149 38.3044C124.049 39.9344 124.499 41.8122 124.499 43.9377C124.499 44.7592 124.447 45.5025 124.343 46.1675ZM119.765 42.4903C119.739 40.8212 119.14 39.4846 117.966 38.4805C116.805 37.4764 115.358 36.9744 113.624 36.9744C112.059 36.9744 110.722 37.4699 109.614 38.4609C108.492 39.4519 107.827 40.7951 107.619 42.4903H119.765Z" fill="white"/>
<path d="M128.802 38.5223C129.728 36.8271 130.98 35.5101 132.558 34.5712C134.135 33.6193 135.889 33.1433 137.819 33.1433C139.254 33.1433 140.668 33.4563 142.064 34.0822C143.459 34.7081 144.567 35.5361 145.389 36.5663V25.9844H149.966V55.5981H145.389V52.136C144.646 53.1922 143.615 54.0659 142.298 54.757C140.981 55.4481 139.475 55.7937 137.78 55.7937C135.876 55.7937 134.135 55.3112 132.558 54.3462C130.98 53.3682 129.728 52.0121 128.802 50.2778C127.889 48.5435 127.433 46.5744 127.433 44.3707C127.433 42.1669 127.889 40.2175 128.802 38.5223ZM144.45 40.5174C143.824 39.3959 143.009 38.5483 142.005 37.9746C140.988 37.3878 139.899 37.0944 138.738 37.0944C137.565 37.0944 136.476 37.3813 135.472 37.955C134.468 38.5157 133.653 39.3503 133.027 40.4587C132.401 41.5541 132.088 42.8581 132.088 44.3707C132.088 45.8833 132.401 47.2069 133.027 48.3413C133.653 49.4888 134.474 50.3625 135.492 50.9624C136.509 51.5492 137.591 51.8426 138.738 51.8426C139.899 51.8426 140.988 51.5557 142.005 50.9819C143.009 50.3951 143.824 49.541 144.45 48.4196C145.076 47.2851 145.389 45.9616 145.389 44.4489C145.389 42.9363 145.076 41.6258 144.45 40.5174Z" fill="white"/>
<path d="M171.619 34.2164C172.988 34.9336 174.057 35.9964 174.826 37.4047C175.596 38.813 175.981 40.5082 175.981 42.4903V55.5954H171.482V43.1749C171.482 41.2189 170.993 39.7127 170.015 38.6565C169.024 37.6133 167.681 37.0917 165.985 37.0917C164.29 37.0917 162.947 37.6133 161.956 38.6565C160.965 39.7127 160.47 41.2189 160.47 43.1749V55.5954H155.932V33.5123H160.47V36.0159C161.2 35.1162 162.145 34.412 163.306 33.9035C164.453 33.3949 165.679 33.1406 166.983 33.1406C168.704 33.1406 170.249 33.4992 171.619 34.2164Z" fill="white"/>
<path d="M181.614 38.5196C182.527 36.8244 183.772 35.5074 185.35 34.5685C186.928 33.6166 188.668 33.1406 190.572 33.1406C192.307 33.1406 193.813 33.4797 195.091 34.1577C196.382 34.8358 197.412 35.6769 198.181 36.681V33.5123H202.758V55.5954H198.181V52.1724C197.412 53.2026 196.362 54.0632 195.032 54.7543C193.702 55.4454 192.189 55.791 190.494 55.791C188.616 55.791 186.895 55.3085 185.33 54.3436C183.765 53.3656 182.527 52.0094 181.614 50.2751C180.688 48.5408 180.225 46.5718 180.225 44.368C180.225 42.1643 180.688 40.2148 181.614 38.5196ZM197.242 40.5147C196.616 39.3933 195.801 38.5457 194.797 37.9719C193.793 37.3851 192.704 37.0917 191.531 37.0917C190.37 37.0917 189.281 37.3786 188.264 37.9524C187.26 38.5131 186.445 39.3476 185.819 40.456C185.193 41.5514 184.88 42.8554 184.88 44.368C184.88 45.8806 185.193 47.2042 185.819 48.3387C186.445 49.4862 187.267 50.3599 188.284 50.9597C189.314 51.5465 190.396 51.8399 191.531 51.8399C192.704 51.8399 193.793 51.553 194.797 50.9792C195.801 50.3925 196.616 49.5383 197.242 48.4169C197.868 47.2824 198.181 45.9589 198.181 44.4463C198.181 42.9336 197.868 41.6231 197.242 40.5147Z" fill="white"/>
</g>
<defs>
<clipPath id="clip0_226_4687">
<rect width="202.836" height="80" fill="white" transform="translate(0 0.960938)"/>
</clipPath>
</defs>
</svg>
