<?xml version="1.0" encoding="utf-8"?>
<!DOCTYPE svg PUBLIC "-//W3C//DTD SVG 20010904//EN" "http://www.w3.org/TR/2001/REC-SVG-20010904/DTD/svg10.dtd">
<svg version="1.0" xmlns="http://www.w3.org/2000/svg" width="451pt" height="226pt" viewBox="0 0 451 226" style="" preserveAspectRatio="xMidYMid meet">
<g fill="#0C3148FF" stroke="#0C3148FF">
<path d="M 329.500 30.339 C 320.118 33.447 313.551 39.268 309.715 47.878 C 306.538 55.010 306.816 66.060 310.356 73.295 C 319.273 91.521 344.617 96.216 360.692 82.620 C 362.448 81.135 365.260 77.166 366.942 73.800 C 369.601 68.478 370.000 66.619 370.000 59.537 C 370.000 52.806 369.556 50.502 367.443 46.261 C 364.401 40.156 358.491 34.549 352.122 31.725 C 346.403 29.189 335.068 28.495 329.500 30.339 M 350.500 36.383 C 359.907 40.831 364.940 48.965 364.978 59.782 C 365.015 70.261 360.408 78.240 351.801 82.601 C 337.669 89.762 320.894 84.383 314.980 70.794 C 312.198 64.400 311.964 55.388 314.427 49.500 C 319.934 36.341 337.161 30.077 350.500 36.383 "/></g>
<g fill="#0C3148FF" stroke="#0C3148FF">
<path d="M 223.000 59.422 L 223.000 90.121 241.750 89.811 C 257.655 89.547 261.072 89.216 264.270 87.627 C 275.042 82.273 275.841 67.588 265.715 61.060 L 261.930 58.620 264.576 56.167 C 270.289 50.869 271.283 42.172 266.823 36.502 C 262.446 30.937 258.001 29.740 239.750 29.210 L 223.000 28.723 223.000 59.422 M 262.016 63.867 C 269.171 67.702 269.833 78.193 263.200 82.651 C 259.148 85.373 252.696 86.216 239.000 85.811 L 228.500 85.500 228.218 73.750 L 227.937 62.000 243.234 62.000 C 256.258 62.000 259.049 62.277 262.016 63.867 M 257.454 35.416 C 261.867 37.260 264.483 41.349 264.356 46.204 C 264.138 54.522 258.785 57.000 241.032 57.000 L 228.000 57.000 228.000 45.500 L 228.000 34.000 241.032 34.000 C 250.012 34.000 255.118 34.440 257.454 35.416 "/></g>
<g fill="#0C3148FF" stroke="#0C3148FF">
<path d="M 134.000 135.908 L 134.000 164.000 136.500 164.000 C 138.982 164.000 139.000 163.936 139.000 154.966 L 139.000 145.932 149.677 146.216 L 160.353 146.500 166.503 155.000 C 171.576 162.013 173.120 163.500 175.325 163.500 C 177.936 163.500 177.843 163.283 171.284 154.072 C 167.591 148.886 165.004 144.497 165.535 144.318 C 173.043 141.784 177.395 134.543 176.822 125.540 C 176.353 118.176 173.750 113.972 167.666 110.747 C 164.033 108.822 161.614 108.493 148.750 108.178 L 134.000 107.817 134.000 135.908 M 161.461 113.094 C 169.385 115.090 173.445 121.848 171.899 130.472 C 171.047 135.225 166.816 139.402 161.303 140.933 C 159.211 141.514 153.338 141.991 148.250 141.994 L 139.000 142.000 139.000 127.000 L 139.000 112.000 148.057 112.000 C 153.039 112.000 159.070 112.492 161.461 113.094 "/></g>
<g fill="#0C3148FF" stroke="#0C3148FF">
<path d="M 85.000 58.551 C 77.575 74.818 71.338 88.583 71.141 89.140 C 70.938 89.714 71.985 90.012 73.553 89.827 C 75.979 89.541 76.766 88.473 79.876 81.250 L 83.429 73.000 100.582 73.000 L 117.735 73.000 121.618 81.529 C 125.207 89.413 125.705 90.036 128.210 89.779 L 130.921 89.500 117.131 59.500 C 104.936 32.969 103.062 29.470 100.921 29.238 C 98.665 28.993 97.582 30.987 85.000 58.551 M 108.663 52.830 L 115.826 68.500 100.796 68.777 C 86.747 69.035 85.810 68.937 86.440 67.277 C 89.278 59.798 100.445 36.111 100.913 36.576 C 101.236 36.897 104.723 44.211 108.663 52.830 "/></g>
<g fill="#D62828FF" stroke="#D62828FF">
<path d="M 408.001 35.123 C 401.086 37.881 398.324 43.893 399.945 52.661 C 402.175 64.725 409.658 76.126 419.912 83.083 C 422.682 84.962 424.960 86.806 424.974 87.179 C 424.988 87.553 422.465 88.384 419.367 89.028 C 409.756 91.023 397.403 88.490 395.019 84.036 C 393.413 81.034 395.367 75.415 399.552 71.000 C 402.501 67.889 402.734 67.249 401.645 65.242 L 400.421 62.984 396.821 66.742 C 389.865 74.002 387.395 83.462 391.321 87.802 C 394.861 91.714 402.848 94.285 411.500 94.298 C 421.880 94.313 427.533 92.667 431.817 88.383 C 434.965 85.235 435.211 84.562 434.740 80.386 C 434.159 75.230 432.894 73.443 430.480 74.369 C 429.152 74.879 428.959 75.795 429.500 79.002 C 429.880 81.251 429.775 83.000 429.259 83.000 C 425.838 83.000 409.000 67.264 409.000 64.067 C 409.000 63.595 411.238 61.773 413.972 60.018 C 420.398 55.894 425.000 50.615 425.000 47.366 C 425.000 42.693 422.068 38.211 417.591 36.044 C 412.919 33.782 411.666 33.662 408.001 35.123 M 416.035 40.518 C 419.250 42.181 420.881 46.362 419.306 48.905 C 418.013 50.993 408.826 57.988 407.369 57.995 C 406.206 58.000 404.000 50.786 404.000 46.980 C 404.000 44.472 409.124 39.000 411.473 39.000 C 412.367 39.000 414.420 39.683 416.035 40.518 "/></g>
<g fill="#0C3148FF" stroke="#0C3148FF">
<path d="M 392.801 135.734 C 380.468 162.697 380.174 163.500 382.617 163.500 C 384.787 163.500 385.585 162.471 388.433 156.000 L 391.735 148.500 407.224 148.225 C 418.872 148.019 422.952 148.267 423.672 149.225 C 424.200 149.926 425.951 153.542 427.565 157.261 C 430.192 163.312 430.772 163.995 433.092 163.761 C 435.673 163.501 435.628 163.375 423.052 136.000 C 411.824 111.559 410.145 108.470 407.959 108.234 C 405.656 107.985 404.693 109.733 392.801 135.734 M 414.220 127.758 C 417.367 134.766 420.232 141.301 420.588 142.279 C 421.192 143.937 420.316 144.039 407.722 143.779 L 394.207 143.500 399.165 132.500 C 401.891 126.450 404.747 120.038 405.510 118.250 C 406.273 116.463 407.258 115.003 407.699 115.008 C 408.140 115.012 411.074 120.749 414.220 127.758 "/></g>
<g fill="#0C3148FF" stroke="#0C3148FF">
<path d="M 141.000 59.430 L 141.000 90.000 143.500 90.000 L 146.000 90.000 146.000 66.000 C 146.000 52.800 146.338 42.008 146.750 42.018 C 147.163 42.028 152.675 51.020 159.000 62.000 C 165.878 73.940 171.103 81.965 172.000 81.968 C 172.900 81.971 177.839 74.403 184.355 63.034 C 190.325 52.618 195.823 43.286 196.573 42.298 C 197.736 40.764 197.941 44.137 197.968 65.250 L 198.000 90.000 200.500 90.000 L 203.000 90.000 203.000 59.430 C 203.000 20.470 203.851 20.824 185.691 52.224 C 177.613 66.192 172.191 74.591 171.621 74.021 C 171.111 73.511 165.022 63.285 158.090 51.297 C 148.208 34.206 145.002 29.431 143.243 29.180 L 141.000 28.861 141.000 59.430 "/></g>
<g fill="#0C3148FF" stroke="#0C3148FF">
<path d="M 295.928 184.403 C 283.418 192.904 289.733 213.000 304.913 213.000 C 314.347 213.000 321.003 206.628 320.996 197.602 C 320.989 187.979 314.862 182.010 304.982 182.004 C 300.799 182.001 298.609 182.581 295.928 184.403 M 311.688 185.656 C 313.995 186.751 315.871 188.739 317.225 191.525 C 319.919 197.071 319.032 202.168 314.600 206.600 C 305.859 215.341 292.000 209.499 292.000 197.075 C 292.000 186.927 302.065 181.090 311.688 185.656 "/></g>
<g fill="#0C3148FF" stroke="#0C3148FF">
<path d="M 61.952 184.253 C 52.659 190.516 52.258 203.775 61.170 210.121 C 65.992 213.554 74.451 213.897 78.908 210.839 C 86.540 205.602 88.790 198.329 85.122 190.753 C 81.112 182.468 69.453 179.198 61.952 184.253 M 77.094 185.549 C 86.489 190.407 86.137 204.860 76.511 209.428 C 63.777 215.470 51.874 201.176 59.643 189.170 C 62.703 184.441 71.444 182.627 77.094 185.549 "/></g>
<g fill="#0C3148FF" stroke="#0C3148FF">
<path d="M 245.000 136.000 C 245.000 163.333 245.048 164.000 247.000 164.000 C 248.942 164.000 249.000 163.333 249.000 141.000 C 249.000 128.350 249.338 118.005 249.750 118.012 C 250.163 118.018 258.576 128.368 268.447 141.012 C 280.040 155.861 287.032 164.000 288.197 164.000 C 289.891 164.000 290.000 162.314 290.000 136.000 C 290.000 108.667 289.952 108.000 288.000 108.000 C 286.058 108.000 286.000 108.667 286.000 131.000 C 286.000 143.650 285.633 154.000 285.184 154.000 C 284.736 154.000 276.298 143.650 266.435 131.000 C 255.198 116.589 247.847 108.000 246.751 108.000 C 245.125 108.000 245.000 109.997 245.000 136.000 "/></g>
<g fill="#0C3148FF" stroke="#0C3148FF">
<path d="M 191.000 136.000 L 191.000 164.000 210.500 164.000 C 229.333 164.000 230.000 163.932 230.000 162.000 C 230.000 160.078 229.333 160.000 213.000 160.000 L 196.000 160.000 196.000 149.000 L 196.000 138.000 211.000 138.000 C 225.266 138.000 226.000 137.903 226.000 136.027 C 226.000 134.164 225.173 134.038 211.250 133.777 L 196.500 133.500 196.216 122.750 L 195.932 112.000 212.466 112.000 C 228.333 112.000 229.000 111.919 229.000 110.000 C 229.000 108.070 228.333 108.000 210.000 108.000 L 191.000 108.000 191.000 136.000 "/></g>
<g fill="#0C3148FF" stroke="#0C3148FF">
<path d="M 81.000 136.000 L 81.000 164.000 100.500 164.000 C 119.333 164.000 120.000 163.932 120.000 162.000 C 120.000 160.078 119.333 160.000 103.000 160.000 L 86.000 160.000 86.000 149.000 L 86.000 138.000 101.000 138.000 C 115.266 138.000 116.000 137.903 116.000 136.027 C 116.000 134.164 115.173 134.038 101.250 133.777 L 86.500 133.500 86.216 122.750 L 85.932 112.000 102.466 112.000 C 118.333 112.000 119.000 111.919 119.000 110.000 C 119.000 108.070 118.333 108.000 100.000 108.000 L 81.000 108.000 81.000 136.000 "/></g>
<g fill="#0C3148FF" stroke="#0C3148FF">
<path d="M 36.821 30.395 C 28.945 32.515 22.954 37.713 18.255 46.500 C 15.958 50.795 15.581 52.699 15.581 60.000 C 15.581 67.255 15.971 69.250 18.243 73.623 C 21.651 80.183 28.741 86.413 35.329 88.639 C 43.229 91.307 53.707 90.867 60.415 87.585 C 67.314 84.210 68.877 82.449 66.810 80.381 C 65.452 79.023 64.893 79.133 61.527 81.417 C 46.972 91.295 26.301 84.164 21.487 67.604 C 17.371 53.446 24.576 39.524 38.341 35.037 C 40.511 34.330 45.137 33.952 48.971 34.168 C 54.438 34.477 56.745 35.164 60.822 37.698 C 65.317 40.493 66.028 40.672 67.170 39.295 C 68.260 37.982 67.955 37.325 65.179 35.008 C 58.626 29.538 47.018 27.649 36.821 30.395 "/></g>
<g fill="#0C3148FF" stroke="#0C3148FF">
<path d="M 32.259 109.659 C 27.173 111.460 20.203 117.986 17.477 123.500 C 15.950 126.589 15.500 129.549 15.500 136.500 C 15.500 144.567 15.792 145.996 18.313 150.286 C 21.583 155.848 28.679 161.367 34.746 163.068 C 37.187 163.752 42.335 164.064 46.862 163.802 C 53.087 163.442 55.703 162.778 59.367 160.631 L 64.000 157.916 64.000 146.958 C 64.000 136.734 63.868 136.000 62.036 136.000 C 60.239 136.000 60.048 136.823 59.786 145.697 L 59.500 155.393 56.244 157.292 C 51.905 159.823 42.299 160.624 36.329 158.952 C 33.185 158.072 30.037 156.108 26.895 153.066 C 14.729 141.287 17.710 122.184 32.912 114.505 C 40.504 110.670 53.046 111.644 58.839 116.518 C 61.504 118.761 61.890 118.837 63.113 117.364 C 64.277 115.961 64.021 115.381 61.193 113.020 C 59.398 111.522 56.206 109.779 54.099 109.148 C 48.846 107.574 37.392 107.842 32.259 109.659 "/></g>
<g fill="#0C3148FF" stroke="#0C3148FF">
<path d="M 321.825 109.400 C 315.722 111.580 310.362 116.588 307.060 123.196 C 299.892 137.540 305.449 154.645 319.500 161.490 C 325.754 164.537 338.288 164.792 344.770 162.004 C 351.072 159.293 353.643 156.778 351.733 155.193 C 350.747 154.375 348.943 154.842 344.567 157.050 C 338.119 160.302 331.673 160.881 324.807 158.824 C 319.488 157.230 312.610 150.961 310.483 145.766 C 308.258 140.334 308.225 131.647 310.409 126.500 C 316.249 112.736 334.830 107.570 347.285 116.246 C 349.527 117.808 350.358 117.947 351.548 116.961 C 353.608 115.250 351.822 113.298 345.500 110.351 C 339.704 107.648 328.042 107.180 321.825 109.400 "/></g>
<g fill="#0C3148FF" stroke="#0C3148FF">
<path d="M 338.000 197.500 C 338.000 207.167 338.376 213.000 339.000 213.000 C 339.550 213.000 340.000 210.750 340.000 208.000 L 340.000 203.000 346.002 203.000 L 352.003 203.000 355.595 208.000 C 357.571 210.750 359.859 213.000 360.679 213.000 C 361.710 213.000 361.034 211.452 358.492 207.989 L 354.813 202.977 357.906 200.087 C 360.407 197.752 361.000 196.399 361.000 193.033 C 361.000 184.750 357.149 182.000 345.550 182.000 L 338.000 182.000 338.000 197.500 M 353.756 185.065 C 357.557 186.390 359.738 190.983 358.399 194.844 C 357.096 198.603 351.647 201.108 345.500 200.773 L 340.500 200.500 340.210 192.250 L 339.919 184.000 345.310 184.000 C 348.276 184.000 352.076 184.479 353.756 185.065 "/></g>
<g fill="#0C3148FF" stroke="#0C3148FF">
<path d="M 288.000 59.500 L 288.000 90.000 290.500 90.000 L 293.000 90.000 293.000 59.500 L 293.000 29.000 290.500 29.000 L 288.000 29.000 288.000 59.500 "/></g>
<g fill="#D62828FF" stroke="#D62828FF">
<path d="M 405.923 15.923 C 402.197 19.650 402.082 23.756 405.589 27.923 C 410.838 34.161 421.000 30.669 421.000 22.627 C 421.000 17.783 420.184 16.146 416.928 14.463 C 412.568 12.208 409.190 12.656 405.923 15.923 "/></g>
<g fill="#0C3148FF" stroke="#0C3148FF">
<path d="M 103.000 197.500 C 103.000 210.471 103.240 213.000 104.470 213.000 C 105.672 213.000 105.991 210.675 106.220 200.257 L 106.500 187.514 116.491 200.257 C 121.986 207.266 126.823 213.000 127.241 213.000 C 127.658 213.000 128.000 206.025 128.000 197.500 C 128.000 187.833 127.624 182.000 127.000 182.000 C 126.386 182.000 126.000 186.874 126.000 194.622 C 126.000 205.511 125.802 207.080 124.556 206.047 C 123.762 205.387 119.149 199.710 114.306 193.430 C 109.463 187.150 104.938 182.009 104.250 182.006 C 103.304 182.001 103.000 185.764 103.000 197.500 "/></g>
<g fill="#0C3148FF" stroke="#0C3148FF">
<path d="M 366.000 136.000 C 366.000 163.333 366.048 164.000 368.000 164.000 C 369.952 164.000 370.000 163.333 370.000 136.000 C 370.000 108.667 369.952 108.000 368.000 108.000 C 366.048 108.000 366.000 108.667 366.000 136.000 "/></g>
<g fill="#0C3148FF" stroke="#0C3148FF">
<path d="M 378.000 197.500 L 378.000 213.000 389.000 213.000 C 395.667 213.000 400.000 212.606 400.000 212.000 C 400.000 211.404 396.167 211.000 390.500 211.000 L 381.000 211.000 381.000 204.500 L 381.000 198.000 389.000 198.000 C 393.667 198.000 397.000 197.583 397.000 197.000 C 397.000 196.417 393.667 196.000 389.000 196.000 L 381.000 196.000 381.000 190.000 L 381.000 184.000 390.000 184.000 C 395.333 184.000 399.000 183.593 399.000 183.000 C 399.000 182.397 394.833 182.000 388.500 182.000 L 378.000 182.000 378.000 197.500 "/></g>
<g fill="#0C3148FF" stroke="#0C3148FF">
<path d="M 183.000 192.532 C 183.000 199.372 183.498 204.257 184.421 206.466 C 187.831 214.626 201.319 215.445 205.996 207.775 C 207.678 205.015 207.993 202.729 207.996 193.250 C 207.998 187.063 207.607 182.000 207.126 182.000 C 206.645 182.000 206.053 187.063 205.810 193.250 C 205.566 199.438 204.838 205.476 204.191 206.670 C 202.719 209.387 196.944 211.366 193.009 210.502 C 187.276 209.243 186.000 206.123 186.000 193.365 C 186.000 183.929 185.745 182.000 184.500 182.000 C 183.262 182.000 183.000 183.837 183.000 192.532 "/></g>
<g fill="#0C3148FF" stroke="#0C3148FF">
<path d="M 417.201 184.028 C 411.306 189.519 414.107 195.372 424.125 198.499 C 427.651 199.599 431.090 200.864 431.768 201.309 C 433.486 202.437 433.309 207.498 431.499 209.000 C 428.814 211.229 421.856 211.316 417.750 209.173 C 414.720 207.591 414.000 207.493 414.000 208.659 C 414.000 210.703 420.109 213.000 425.545 213.000 C 429.306 213.000 430.692 212.462 433.077 210.077 C 438.357 204.797 435.933 199.050 427.543 196.957 C 419.544 194.962 417.000 193.301 417.000 190.073 C 417.000 188.148 417.777 186.569 419.223 185.557 C 421.764 183.776 428.196 183.500 431.086 185.046 C 432.162 185.622 433.543 185.783 434.156 185.404 C 436.233 184.120 430.627 182.072 424.939 182.035 C 420.701 182.008 418.859 182.483 417.201 184.028 "/></g>
<g fill="#0C3148FF" stroke="#0C3148FF">
<path d="M 148.635 184.073 C 146.613 185.663 146.000 187.031 146.000 189.950 C 146.000 194.645 147.225 195.713 155.792 198.487 C 160.840 200.122 162.871 201.335 164.000 203.388 C 165.433 205.995 165.368 206.231 162.559 208.675 C 160.010 210.891 158.981 211.158 154.853 210.669 C 152.233 210.359 148.944 209.355 147.545 208.437 C 145.449 207.064 145.000 207.022 145.000 208.200 C 145.000 210.244 151.364 213.000 156.084 213.000 C 160.625 213.000 165.453 210.869 166.379 208.455 C 166.720 207.565 167.000 205.534 167.000 203.941 C 167.000 200.462 164.581 198.652 156.921 196.399 C 153.939 195.523 150.713 194.104 149.750 193.248 C 147.333 191.097 147.559 187.422 150.223 185.557 C 152.764 183.776 159.196 183.500 162.086 185.046 C 163.162 185.622 164.543 185.783 165.156 185.404 C 167.161 184.164 161.713 182.072 156.385 182.035 C 152.685 182.010 150.541 182.574 148.635 184.073 "/></g>
<g fill="#0C3148FF" stroke="#0C3148FF">
<path d="M 21.898 184.270 C 15.364 188.635 13.098 197.957 16.854 205.016 C 20.706 212.254 31.775 215.263 38.799 210.981 C 43.234 208.277 41.981 206.715 37.294 209.105 C 32.876 211.357 30.087 211.481 25.636 209.621 C 21.548 207.913 18.249 203.842 17.434 199.501 C 16.476 194.391 19.828 187.784 24.507 185.564 C 28.983 183.440 36.099 183.875 38.941 186.447 C 40.246 187.628 41.010 187.792 41.501 186.999 C 41.886 186.376 42.043 185.748 41.850 185.602 C 35.939 181.127 27.450 180.561 21.898 184.270 "/></g>
<g fill="#0C3148FF" stroke="#0C3148FF">
<path d="M 227.000 197.500 L 227.000 213.000 237.000 213.000 C 243.000 213.000 247.000 212.600 247.000 212.000 C 247.000 211.412 243.500 211.000 238.500 211.000 L 230.000 211.000 230.000 196.500 C 230.000 184.278 229.764 182.000 228.500 182.000 C 227.231 182.000 227.000 184.389 227.000 197.500 "/></g>
<g fill="#0C3148FF" stroke="#0C3148FF">
<path d="M 254.000 183.000 C 254.000 183.550 256.475 184.000 259.500 184.000 L 265.000 184.000 265.000 198.500 C 265.000 207.500 265.379 213.000 266.000 213.000 C 266.621 213.000 267.000 207.500 267.000 198.500 L 267.000 184.000 272.500 184.000 C 275.525 184.000 278.000 183.550 278.000 183.000 C 278.000 182.389 273.333 182.000 266.000 182.000 C 258.667 182.000 254.000 182.389 254.000 183.000 "/></g>
</svg>
