<svg width="979" height="159" xmlns="http://www.w3.org/2000/svg" xmlns:xlink="http://www.w3.org/1999/xlink" overflow="hidden"><defs><clipPath id="clip0"><rect x="0" y="0" width="979" height="159"/></clipPath></defs><g clip-path="url(#clip0)"><rect x="0" y="0" width="979" height="159.307" fill="#000000" fill-opacity="0"/><path d="M158.996 79.6534 158.996 53.1023C158.996 23.7733 135.269 0 105.996 0L105.996 26.5511C105.996 55.8799 129.728 79.6534 158.996 79.6534 129.724 79.6534 105.996 103.427 105.996 132.756L105.996 79.6534 105.996 53.1023C105.996 23.7733 82.2686 0 52.9963 0L0 0 0 79.6534 53.0001 79.6534 53.0001 26.5511C53.0001 55.8799 76.7276 79.6534 106 79.6534L53.0001 79.6534 53.0001 159.307 106 159.307C135.272 159.307 159 135.533 159 106.205L159 79.6534 158.996 79.6534Z" fill="#FFFFFF" fill-rule="evenodd"/><path d="M212 79.1525C182.727 79.1525 159 103.075 159 132.589L159 159.307C188.272 159.307 212 135.384 212 105.871L212 79.1525Z" fill="#FFFFFF" fill-rule="evenodd"/><g><g><g><g><path d="M329.67 146.036 329.67 68.4721 364.17 68.4721 374.801 94.5093C376.297 98.1645 378.397 104.536 380.783 113.567L381.95 113.567C384.386 104.536 386.548 98.0525 387.987 94.4535L398.343 68.4669 432.568 68.4669 432.568 146.031 404.881 146.031 404.881 121.486C404.881 117.11 404.992 112.455 405.542 105.861L404.438 105.693 391.093 146.026 371.157 146.026 357.868 105.693 356.706 105.861C357.202 112.455 357.372 117.11 357.372 121.486L357.372 146.031 329.67 146.031 329.67 146.036Z" fill="#FFFFFF" fill-rule="evenodd" transform="matrix(1.0018 0 0 1 -71.2643 -28.3897)"/><path d="M670.422 117.639 670.422 115.805C670.422 96.6179 682.678 85.8805 706.634 85.8805 730.597 85.8805 742.846 96.6127 742.846 115.805L742.846 117.639C742.846 136.77 730.538 147.619 706.634 147.619 682.678 147.615 670.422 136.77 670.422 117.639ZM713.979 119.53 713.979 113.97C713.979 106.571 711.605 103.125 706.634 103.125 701.667 103.125 699.289 106.576 699.289 113.97L699.289 119.53C699.289 126.873 701.663 130.374 706.634 130.374 711.605 130.374 713.979 126.868 713.979 119.53Z" fill="#FFFFFF" fill-rule="evenodd" transform="matrix(1.0018 0 0 1 -71.2643 -28.3897)"/><path d="M652.977 68.4669 636.046 68.4669 636.046 82.782 636.046 97.2341C631.534 90.3269 625.119 86.8129 615.917 86.8129 600.392 86.8129 592.852 95.9882 592.852 115.494L592.852 118.147C592.852 137.435 600.392 146.828 615.917 146.828 625.34 146.828 631.696 143.192 636.046 136.326L636.046 145.83 636.101 145.83 652.977 145.83 664.485 145.83 664.485 68.4669 652.977 68.4669ZM628.451 130.249C623.623 130.249 621.3 126.714 621.3 119.307L621.3 114.111C621.3 106.652 623.623 103.057 628.451 103.057 633.552 103.057 636.046 106.87 636.046 114.663L636.046 118.754C636.046 126.492 633.552 130.249 628.451 130.249Z" fill="#FFFFFF" fill-rule="evenodd" transform="matrix(1.0018 0 0 1 -71.2643 -28.3897)"/><path d="M567.519 86.672C557.479 86.672 550.26 90.4052 544.692 98.049L544.692 88.5614C544.696 88.2713 544.696 87.9756 544.692 87.6701L524.769 87.6701 516.866 87.6701 516.866 146.032 524.769 146.032 544.692 146.032 544.692 119.244C544.692 110.297 547.518 105.296 552.674 105.296 556.494 105.296 558.267 107.465 558.267 112.023L558.267 146.036 587.312 146.036 587.312 104.41C587.312 92.4521 580.493 86.672 567.519 86.672Z" fill="#FFFFFF" fill-rule="evenodd" transform="matrix(1.0018 0 0 1 -71.2643 -28.3897)"/><path d="M505.511 87.8644 482.351 87.8644 481.738 87.8644 481.738 114.475C481.738 123.364 478.908 128.276 473.7 128.276 469.924 128.276 468.096 126.121 468.096 121.593L468.096 87.8593 439.692 87.8593 439.692 129.212C439.692 141.03 446.46 146.828 459.441 146.828 469.501 146.828 476.763 143.114 482.351 135.521L482.351 144.237C482.336 144.754 482.336 145.28 482.351 145.836L505.511 145.836 510.138 145.836 510.138 87.8593 505.511 87.8593 505.511 87.8644Z" fill="#FFFFFF" fill-rule="evenodd" transform="matrix(1.0018 0 0 1 -71.2643 -28.3897)"/><path d="M799.064 146.036 782.818 68.4772 811.764 68.4772 817.471 103.046C818.362 108.366 819.133 114.736 819.581 122.102L820.689 122.102C821.52 114.787 822.517 108.087 823.515 102.767L829.894 68.4721 854.234 68.4721 861.385 102.929C862.493 108.249 863.38 114.787 864.048 122.097L865.263 122.097C865.877 114.782 866.597 108.523 867.377 103.203L872.363 68.4669 900.36 68.4669 884.838 146.026 848.966 146.026 844.803 123.645C844.138 120.102 843.029 112.011 842.195 103.148L841.035 103.148C840.255 112.011 839.151 119.99 838.482 123.589L834.434 146.026 799.064 146.026 799.064 146.036Z" fill="#FFFFFF" fill-rule="evenodd" transform="matrix(1.0018 0 0 1 -71.2643 -28.3897)"/><path d="M970.251 122.366 927.117 122.366C927.339 128.538 929.943 131.545 934.981 131.545 939.188 131.545 941.519 129.71 942.069 125.205L970.085 126.928C968.257 140.555 956.352 147.619 934.87 147.619 910.562 147.619 898.381 137.386 898.381 117.586L898.381 116.194C898.381 96.2265 910.673 85.8805 935.096 85.8805 958.79 85.8805 970.805 95.9459 970.805 114.971 970.805 117.418 970.639 119.864 970.251 122.366ZM942.014 109.686 942.014 109.518C942.014 104.345 939.631 101.899 934.815 101.899 930.442 101.899 927.948 104.513 927.283 109.686L942.014 109.686Z" fill="#FFFFFF" fill-rule="evenodd" transform="matrix(1.0018 0 0 1 -71.2643 -28.3897)"/><path d="M1025.31 86.5378C1016.08 86.5378 1009.65 90.2849 1005.13 97.303L1005.13 85.2571C1005.17 84.4522 1005.19 83.6317 1005.19 82.7812L1005.19 68.4669 1005.13 68.4669 989.869 68.4669 976.742 68.4669 976.742 145.83 989.869 145.83 1005.13 145.83 1005.13 136.24C1009.48 143.162 1015.85 146.828 1025.31 146.828 1040.84 146.828 1048.37 137.435 1048.37 118.149L1048.37 115.496C1048.37 95.9863 1040.84 86.5378 1025.31 86.5378ZM1019.94 119.308C1019.94 126.711 1017.61 130.25 1012.78 130.25 1007.68 130.25 1005.19 126.493 1005.19 118.756L1005.19 114.665C1005.19 106.872 1007.68 103.06 1012.78 103.06 1017.6 103.06 1019.94 106.65 1019.94 114.113L1019.94 119.308Z" fill="#FFFFFF" fill-rule="evenodd" transform="matrix(1.0018 0 0 1 -71.2643 -28.3897)"/></g></g></g></g></g></svg>