<svg width="189" height="41" viewBox="0 0 189 41" fill="none" xmlns="http://www.w3.org/2000/svg">
<g clip-path="url(#clip0_190_1878)">
<path d="M177.551 9.62988H172.797C172.213 9.62988 171.852 9.98316 171.852 10.5545V19.3281C171.852 19.8134 172.257 20.2097 172.753 20.2097C173.25 20.2097 173.639 19.8134 173.639 19.3281V15.7922H177.268C177.764 15.7922 178.138 15.4267 178.138 14.9413C178.138 14.4559 177.764 14.0904 177.268 14.0904H173.639V11.3348H177.551C178.047 11.3348 178.421 10.9693 178.421 10.4839C178.421 9.99852 178.047 9.63295 177.551 9.63295V9.62988Z" fill="#222222" stroke="#222222" stroke-width="1.17647" stroke-miterlimit="10"/>
<path d="M187.76 18.3448L184.952 14.8766L187.559 11.4882C187.823 11.1441 187.873 10.9537 187.873 10.7417C187.873 10.2809 187.465 9.89077 186.984 9.89077C186.676 9.89077 186.4 10.0321 186.208 10.2901L183.72 13.5495L181.213 10.2871C181.018 10.0259 180.751 9.8877 180.437 9.8877C179.956 9.8877 179.548 10.2778 179.548 10.7386C179.548 10.9506 179.598 11.1411 179.862 11.4851L182.47 14.8735L179.661 18.3387C179.394 18.6581 179.344 18.8486 179.344 19.0882C179.344 19.549 179.752 19.9392 180.233 19.9392C180.541 19.9392 180.814 19.7978 181.012 19.5367L183.698 16.1576L186.409 19.5429C186.604 19.8009 186.871 19.9392 187.182 19.9392C187.663 19.9392 188.071 19.549 188.071 19.0882C188.071 18.8486 188.021 18.6612 187.754 18.3417L187.76 18.3448Z" fill="#222222" stroke="#222222" stroke-width="1.17647" stroke-miterlimit="10"/>
<path d="M5.85376 38.3434H26.1865L34.2197 32.8938L39.4663 19.285L37.0849 8.31193L26.6766 4.42897L17.3334 2.58887L4.18555 10.6804L1.75391 16.8612V23.7455L5.03379 29.6866L6.01713 33.5358L5.85376 38.3434Z" fill="#BCFF52"/>
<path d="M37.6344 9.06171C26.9623 -6.22129 1.73792 0.168386 0.113683 18.6432C-0.492656 24.6304 1.33264 29.8804 5.44193 34.3624C5.66498 34.6051 5.68069 34.7771 5.51418 35.0505C4.42089 36.8783 3.35587 38.657 2.29399 40.5002H20.8737C23.7421 40.5002 26.5664 40.0762 29.2274 39.0256C30.7511 38.4235 32.1491 37.5971 33.2958 36.6971C41.728 30.0555 44.012 17.611 37.6344 9.06171ZM23.4876 36.5773C18.7751 37.121 9.2716 36.8353 9.2716 36.8353C9.2716 36.8353 10.3052 35.0382 10.8204 34.2149C11.0246 33.8893 10.9681 33.7357 10.6696 33.5114C-3.59347 23.0576 7.70706 0.404927 24.8856 5.04666C41.9228 9.18152 40.795 33.8893 23.4844 36.5773H23.4876Z" fill="#222222"/>
<path d="M20.9372 30.6244C18.4616 30.6244 16.1211 29.8533 14.346 28.4494C10.664 25.4174 9.38852 21.175 10.9154 17.0863C12.4139 13.0712 16.319 10.374 20.6325 10.374C22.1688 10.374 23.7239 10.6997 25.2602 11.3448L25.301 11.3632C26.2278 11.7963 29.7402 13.8791 29.9852 16.1247C30.0732 16.9449 29.7276 17.6914 29.0144 18.2321L28.9642 18.269C28.5589 18.5393 28.0876 18.6806 27.6007 18.6806C26.7996 18.6806 26.0519 18.2935 25.5995 17.6484C24.5721 16.0909 22.7154 15.1356 20.733 15.1356C19.7685 15.1356 18.8229 15.3629 18.0029 15.796L17.9527 15.8206C16.4258 16.521 15.4393 17.9556 15.2477 19.7558C15.0404 21.7096 15.8321 23.605 17.3181 24.7047C18.2888 25.4666 19.6083 25.8905 20.9592 25.8905C22.7405 25.8905 24.2737 25.1655 25.0591 23.9521C25.4958 23.2609 26.2686 22.84 27.1137 22.84C27.563 22.84 28.0028 22.9629 28.3861 23.1933C29.0019 23.5589 29.4009 24.1456 29.4982 24.8399C29.6051 25.5956 29.3412 26.3974 28.7882 27.0025C27.1074 29.2697 24.1763 30.6213 20.9404 30.6213L20.9372 30.6244Z" fill="#222222"/>
<path d="M61.2314 12.4312C63.8233 12.4312 65.9816 13.5371 67.4707 15.6291C67.8446 16.1606 68.3881 16.4278 69.0824 16.4278C70.1694 16.4278 71.0522 15.58 71.0522 14.5355C71.0522 14.1177 70.9266 13.7276 70.6909 13.405C68.5201 10.4222 65.0737 8.70801 61.2314 8.70801C57.9987 8.70801 54.9984 9.90914 52.7835 12.0933C50.5592 14.2867 49.334 17.2726 49.334 20.5013C49.334 23.7299 50.5592 26.7158 52.7835 28.9092C54.9984 31.0903 57.9987 32.2945 61.2314 32.2945C65.0737 32.2945 68.5232 30.5834 70.6909 27.6006C70.9266 27.278 71.0522 26.8848 71.0522 26.4701C71.0522 25.4256 70.1694 24.5778 69.0824 24.5778C68.3944 24.5778 67.8226 24.8634 67.4676 25.3795C65.9785 27.4715 63.8201 28.5744 61.2314 28.5744C56.676 28.5744 53.2391 25.1061 53.2391 20.5043C53.2391 15.9025 56.676 12.4343 61.2314 12.4343V12.4312Z" fill="#222222"/>
<path d="M88.0652 15.0854C87.0693 15.0854 86.2776 15.8073 86.1991 16.7596C84.7948 15.5953 82.8847 14.9287 80.8614 14.9287C78.4518 14.9287 76.2369 15.8257 74.6221 17.4539C73.0261 19.0636 72.1465 21.2508 72.1465 23.6131C72.1465 25.9755 73.0261 28.1627 74.6221 29.7724C76.2369 31.4006 78.4549 32.2976 80.8614 32.2976C82.9381 32.2976 84.8168 31.6279 86.1991 30.4268C86.2714 31.3975 87.0662 32.1409 88.0652 32.1409C89.1146 32.1409 89.9377 31.3238 89.9377 30.2793V16.9132C89.9377 15.8872 89.1146 15.0823 88.0652 15.0823V15.0854ZM81.0562 28.6972C78.1156 28.6972 75.9824 26.5592 75.9824 23.6101C75.9824 20.661 78.1156 18.5229 81.0562 18.5229C83.9968 18.5229 86.13 20.661 86.13 23.6101C86.13 26.5592 83.9968 28.6972 81.0562 28.6972Z" fill="#222222"/>
<path d="M111.85 14.9258C109.532 14.9258 107.421 15.8443 106.048 17.4141C104.857 15.8228 102.925 14.9258 100.622 14.9258C98.9036 14.9258 97.3956 15.4142 96.2647 16.3205C96.0196 15.5955 95.3253 15.0825 94.4896 15.0825C93.4403 15.0825 92.6172 15.8873 92.6172 16.9133V30.2395C92.6172 31.3024 93.4686 32.1318 94.5524 32.1318C95.6363 32.1318 96.4563 31.2993 96.4563 30.2395V22.5934C96.4563 20.1205 97.9392 18.523 100.233 18.523C102.526 18.523 103.908 20.0437 103.908 22.5934V30.2395C103.908 31.3024 104.76 32.1318 105.844 32.1318C106.927 32.1318 107.747 31.2993 107.747 30.2395V22.5934C107.747 20.1205 109.218 18.523 111.489 18.523C113.761 18.523 115.168 20.0437 115.168 22.5934V30.2395C115.168 31.3024 116.019 32.1318 117.103 32.1318C118.187 32.1318 119.007 31.2993 119.007 30.2395V22.3722C119.007 17.9179 116.129 14.9258 111.847 14.9258H111.85Z" fill="#222222"/>
<path d="M130.542 14.9252C128.512 14.9252 126.671 15.5611 125.308 16.7008V10.7566C125.308 9.69369 124.472 8.86426 123.404 8.86426C122.336 8.86426 121.469 9.69676 121.469 10.7566V30.3004C121.469 31.3264 122.292 32.1313 123.341 32.1313C124.337 32.1313 125.126 31.4094 125.207 30.4571C126.612 31.6213 128.522 32.288 130.545 32.288C132.955 32.288 135.169 31.3909 136.784 29.7628C138.38 28.1531 139.26 25.9659 139.26 23.6035C139.26 21.2412 138.38 19.054 136.784 17.4442C135.169 15.8161 132.951 14.9191 130.545 14.9191L130.542 14.9252ZM130.347 28.6938C127.406 28.6938 125.273 26.5557 125.273 23.6066C125.273 20.6575 127.406 18.5194 130.347 18.5194C133.288 18.5194 135.421 20.6575 135.421 23.6066C135.421 26.5557 133.288 28.6938 130.347 28.6938Z" fill="#222222"/>
<path d="M142.71 9.02441C141.441 9.02441 140.482 9.96136 140.482 11.2024C140.482 12.4435 141.441 13.3805 142.71 13.3805C143.979 13.3805 144.937 12.4435 144.937 11.2024C144.937 9.96136 143.979 9.02441 142.71 9.02441Z" fill="#222222"/>
<path d="M142.679 15.085C141.596 15.085 140.744 15.9175 140.744 16.9773V30.2389C140.744 31.3018 141.596 32.1313 142.679 32.1313C143.763 32.1313 144.583 31.2988 144.583 30.2389V16.9773C144.583 15.9144 143.748 15.085 142.679 15.085Z" fill="#222222"/>
<path d="M161.985 15.0854C160.989 15.0854 160.198 15.8073 160.119 16.7596C158.715 15.5953 156.805 14.9287 154.781 14.9287C152.372 14.9287 150.157 15.8257 148.542 17.4539C146.946 19.0636 146.066 21.2508 146.066 23.6131C146.066 25.9755 146.946 28.1627 148.542 29.7724C150.157 31.4006 152.375 32.2976 154.781 32.2976C156.858 32.2976 158.737 31.6279 160.119 30.4268C160.191 31.3975 160.986 32.1409 161.985 32.1409C163.034 32.1409 163.858 31.3238 163.858 30.2793V16.9132C163.858 15.8872 163.034 15.0823 161.985 15.0823V15.0854ZM154.976 28.6972C152.036 28.6972 149.902 26.5592 149.902 23.6101C149.902 20.661 152.036 18.5229 154.976 18.5229C157.917 18.5229 160.05 20.661 160.05 23.6101C160.05 26.5592 157.917 28.6972 154.976 28.6972Z" fill="#222222"/>
</g>
<defs>
<clipPath id="clip0_190_1878">
<rect width="188.235" height="40" fill="white" transform="translate(0 0.5)"/>
</clipPath>
</defs>
</svg>
