<svg width="189" height="189" xmlns="http://www.w3.org/2000/svg" xmlns:xlink="http://www.w3.org/1999/xlink" overflow="hidden"><defs><clipPath id="clip0"><rect x="28" y="45" width="133" height="99"/></clipPath><clipPath id="clip1"><rect x="28" y="45" width="133" height="99"/></clipPath><clipPath id="clip2"><rect x="28" y="45" width="133" height="99"/></clipPath><clipPath id="clip3"><rect x="28" y="45" width="133" height="99"/></clipPath></defs><g><rect x="0" y="0" width="189" height="189" fill="#000000" fill-opacity="0"/><g clip-path="url(#clip0)"><g clip-path="url(#clip1)"><g clip-path="url(#clip2)"><g clip-path="url(#clip3)"><path d="M98.9979 169.976 98.9979 153.476C98.9979 135.25 84.2239 120.476 65.9979 120.476L65.9979 136.976C65.9979 155.202 80.7741 169.976 98.9979 169.976 80.772 169.976 65.9979 184.75 65.9979 202.976L65.9979 169.976 65.9979 153.476C65.9979 135.25 51.224 120.476 32.9977 120.476L0 120.476 0 169.976 33.0002 169.976 33.0002 136.976C33.0002 155.202 47.774 169.976 66 169.976L33.0002 169.976 33.0002 219.476 66 219.476C84.2265 219.476 99 204.702 99 186.476L99 169.976 98.9979 169.976Z" fill="#FFFFFF" fill-rule="evenodd" transform="matrix(1.00758 0 0 1 28 -75.4762)"/><path d="M132 170.238C113.774 170.238 99 184.934 99 203.064L99 219.476C117.226 219.476 132 204.78 132 186.651L132 170.238Z" fill="#FFFFFF" fill-rule="evenodd" transform="matrix(1.00758 0 0 1 28 -75.4762)"/></g></g></g></g></g></svg>