<svg xmlns="http://www.w3.org/2000/svg" xmlns:v="https://svgstorm.com"
viewBox = "0 0 812 176"
width="812"
height="176">
<g fill="None" fill-opacity="0.0" stroke="#000000" stroke-opacity="0.00" stroke-width="0.3"><path d="
M 0.00 106.00 
C 3.91 93.49 12.63 89.73 25.00 88.00 C 37.37 86.27 33.77 66.76 37.93 57.93 C 42.09 49.09 45.25 37.43 52.77 29.77 C 60.29 22.11 66.62 15.32 76.23 10.23 C 85.84 5.14 98.59 1.00 110.00 1.00
C 109.96 1.00 110.00 0.00 110.00 0.00
L 0.00 0.00
L 0.00 106.00 Z"/>
</g>
<g fill="None" fill-opacity="0.0" stroke="#FE3C28" stroke-opacity="0.30" stroke-width="0.3"><path d="
M 110.00 1.00 
C 115.50 1.00 122.33 1.83 127.00 0.00
L 110.00 0.00
C 110.00 0.00 109.96 1.00 110.00 1.00 Z"/>
</g>
<g fill="None" fill-opacity="0.0" stroke="#FF3C29" stroke-opacity="0.97" stroke-width="0.3"><path d="
M 110.00 1.00 
C 98.59 1.00 85.84 5.14 76.23 10.23 C 66.62 15.32 60.29 22.11 52.77 29.77 C 45.25 37.43 42.09 49.09 37.93 57.93 C 33.77 66.76 37.37 86.27 25.00 88.00 C 12.63 89.73 3.91 93.49 0.00 106.00
L 0.00 119.00
C 9.96 150.33 40.79 173.77 73.00 176.00
L 74.00 176.00
C 77.93 174.40 85.14 174.30 89.00 176.00
L 90.00 176.00
C 104.94 173.79 121.29 169.27 133.70 159.70 C 146.11 150.13 153.39 139.78 159.78 125.78 C 166.17 111.78 162.87 88.70 182.00 88.00 C 201.13 87.30 203.67 62.97 197.68 50.32 C 191.69 37.68 183.38 25.38 171.30 16.70 C 159.22 8.01 142.79 1.20 128.00 0.00
L 127.00 0.00
C 122.33 1.83 115.50 1.00 110.00 1.00
M 125.00 32.00 
C 134.32 33.33 147.25 39.18 153.25 47.75 C 159.25 56.33 167.24 68.53 165.00 80.00 C 162.76 91.47 143.60 86.55 135.77 94.77 C 127.94 102.99 124.76 112.59 119.25 122.25 C 113.73 131.91 105.89 138.39 94.93 141.93 C 83.97 145.46 69.64 144.20 58.92 138.08 C 48.21 131.95 45.55 124.83 39.08 113.92 C 32.61 103.02 35.09 87.52 49.00 88.00 C 62.91 88.48 68.12 78.02 73.92 68.92 C 79.73 59.83 80.88 48.65 91.08 42.08 C 101.29 35.51 111.85 30.12 125.00 32.00 Z"/>
</g>
<g fill="None" fill-opacity="0.0" stroke="#000000" stroke-opacity="0.00" stroke-width="0.3"><path d="
M 90.00 176.00 
L 812.00 176.00
L 812.00 0.00
L 128.00 0.00
C 142.79 1.20 159.22 8.01 171.30 16.70 C 183.38 25.38 191.69 37.68 197.68 50.32 C 203.67 62.97 201.13 87.30 182.00 88.00 C 162.87 88.70 166.17 111.78 159.78 125.78 C 153.39 139.78 146.11 150.13 133.70 159.70 C 121.29 169.27 104.94 173.79 90.00 176.00
M 296.00 27.00 
C 296.00 37.67 296.00 48.33 296.00 59.00
C 307.58 48.55 330.20 46.81 339.30 62.70 C 348.40 78.59 342.15 103.66 344.00 122.00
C 337.33 122.00 330.67 122.00 324.00 122.00
C 320.43 107.83 334.13 67.22 310.00 68.00 C 285.87 68.78 299.65 107.51 296.00 122.00
C 289.33 122.00 282.67 122.00 276.00 122.00
C 276.00 90.33 276.00 58.67 276.00 27.00
C 282.67 27.00 289.33 27.00 296.00 27.00
M 576.00 27.00 
C 576.00 58.67 576.00 90.33 576.00 122.00
C 569.33 122.00 562.67 122.00 556.00 122.00
C 556.00 90.33 556.00 58.67 556.00 27.00
C 562.67 27.00 569.33 27.00 576.00 27.00
M 761.00 27.00 
C 761.00 44.67 761.00 62.33 761.00 80.00
C 767.82 72.31 773.71 69.83 779.75 60.75 C 785.80 51.67 797.66 50.06 809.00 52.00
C 802.62 61.73 793.62 70.80 785.00 79.00
C 793.39 93.51 803.17 107.36 811.00 122.00
C 802.07 121.77 788.06 124.81 784.23 115.77 C 780.40 106.73 775.14 103.80 772.00 95.00
C 761.62 99.61 759.42 111.30 761.00 122.00
C 754.33 122.00 747.67 122.00 741.00 122.00
C 741.00 90.33 741.00 58.67 741.00 27.00
C 747.67 27.00 754.33 27.00 761.00 27.00
M 395.00 51.00 
C 421.95 54.26 436.03 88.93 419.70 109.70 C 403.36 130.47 366.98 128.88 355.70 103.30 C 344.41 77.73 364.55 47.32 395.00 51.00
M 495.00 62.00 
C 505.29 50.71 529.85 44.48 539.92 61.08 C 549.99 77.68 542.82 102.78 545.00 122.00
C 538.33 122.00 531.67 122.00 525.00 122.00
C 524.85 108.04 525.20 91.72 525.00 78.00 C 524.80 64.28 502.09 64.69 501.08 78.08 C 500.06 91.47 501.68 108.29 501.00 122.00
C 494.33 122.00 487.67 122.00 481.00 122.00
C 481.92 107.67 480.18 92.86 480.07 78.93 C 479.96 64.99 458.94 64.00 456.68 77.68 C 454.41 91.36 456.96 107.84 456.00 122.00
C 449.33 122.00 442.67 122.00 436.00 122.00
C 436.00 98.67 436.00 75.33 436.00 52.00
C 441.67 52.00 447.33 52.00 453.00 52.00
C 454.64 54.07 453.44 57.62 456.00 59.00
C 465.51 47.97 488.29 47.63 495.00 62.00
M 730.00 122.00 
C 723.33 122.00 716.67 122.00 710.00 122.00
C 706.59 107.84 719.93 67.21 696.00 68.00 C 672.07 68.79 685.61 107.57 682.00 122.00
C 675.33 122.00 668.67 122.00 662.00 122.00
C 662.00 98.67 662.00 75.33 662.00 52.00
C 669.10 52.95 681.38 48.25 681.00 59.00
C 693.13 48.80 716.02 46.61 725.30 62.70 C 734.59 78.78 728.01 103.42 730.00 122.00
M 603.00 52.00 
C 607.71 68.19 614.02 83.88 619.00 100.00
C 624.97 84.58 630.44 68.17 635.00 52.00
C 642.00 52.00 649.00 52.00 656.00 52.00
C 652.40 66.51 645.55 77.55 641.07 92.07 C 636.60 106.60 629.75 116.03 625.69 131.69 C 621.64 147.35 604.44 152.99 588.00 149.00
C 588.00 143.33 588.00 137.67 588.00 132.00
C 603.29 137.59 611.01 123.93 605.03 112.98 C 599.04 102.02 597.92 93.44 593.22 82.78 C 588.53 72.12 585.60 62.81 582.00 52.00
C 589.00 52.00 596.00 52.00 603.00 52.00 Z"/>
</g>
<g fill="None" fill-opacity="0.0" stroke="#1859E9" stroke-opacity="0.95" stroke-width="0.3"><path d="
M 296.00 27.00 
C 289.33 27.00 282.67 27.00 276.00 27.00
C 276.00 58.67 276.00 90.33 276.00 122.00
C 282.67 122.00 289.33 122.00 296.00 122.00
C 299.65 107.51 285.87 68.78 310.00 68.00 C 334.13 67.22 320.43 107.83 324.00 122.00
C 330.67 122.00 337.33 122.00 344.00 122.00
C 342.15 103.66 348.40 78.59 339.30 62.70 C 330.20 46.81 307.58 48.55 296.00 59.00
C 296.00 48.33 296.00 37.67 296.00 27.00 Z"/>
</g>
<g fill="None" fill-opacity="0.0" stroke="#1859E9" stroke-opacity="0.95" stroke-width="0.3"><path d="
M 576.00 27.00 
C 569.33 27.00 562.67 27.00 556.00 27.00
C 556.00 58.67 556.00 90.33 556.00 122.00
C 562.67 122.00 569.33 122.00 576.00 122.00
C 576.00 90.33 576.00 58.67 576.00 27.00 Z"/>
</g>
<g fill="None" fill-opacity="0.0" stroke="#1859E9" stroke-opacity="0.94" stroke-width="0.3"><path d="
M 761.00 27.00 
C 754.33 27.00 747.67 27.00 741.00 27.00
C 741.00 58.67 741.00 90.33 741.00 122.00
C 747.67 122.00 754.33 122.00 761.00 122.00
C 759.42 111.30 761.62 99.61 772.00 95.00
C 775.14 103.80 780.40 106.73 784.23 115.77 C 788.06 124.81 802.07 121.77 811.00 122.00
C 803.17 107.36 793.39 93.51 785.00 79.00
C 793.62 70.80 802.62 61.73 809.00 52.00
C 797.66 50.06 785.80 51.67 779.75 60.75 C 773.71 69.83 767.82 72.31 761.00 80.00
C 761.00 62.33 761.00 44.67 761.00 27.00 Z"/>
</g>
<g fill="None" fill-opacity="0.0" stroke="#000000" stroke-opacity="0.00" stroke-width="0.3"><path d="
M 125.00 32.00 
C 111.85 30.12 101.29 35.51 91.08 42.08 C 80.88 48.65 79.73 59.83 73.92 68.92 C 68.12 78.02 62.91 88.48 49.00 88.00 C 35.09 87.52 32.61 103.02 39.08 113.92 C 45.55 124.83 48.21 131.95 58.92 138.08 C 69.64 144.20 83.97 145.46 94.93 141.93 C 105.89 138.39 113.73 131.91 119.25 122.25 C 124.76 112.59 127.94 102.99 135.77 94.77 C 143.60 86.55 162.76 91.47 165.00 80.00 C 167.24 68.53 159.25 56.33 153.25 47.75 C 147.25 39.18 134.32 33.33 125.00 32.00 Z"/>
</g>
<g fill="None" fill-opacity="0.0" stroke="#1859E9" stroke-opacity="0.95" stroke-width="0.3"><path d="
M 395.00 51.00 
C 364.55 47.32 344.41 77.73 355.70 103.30 C 366.98 128.88 403.36 130.47 419.70 109.70 C 436.03 88.93 421.95 54.26 395.00 51.00
M 395.00 68.00 
C 415.46 73.07 406.05 113.55 384.99 106.01 C 363.93 98.46 371.90 62.28 395.00 68.00 Z"/>
</g>
<g fill="None" fill-opacity="0.0" stroke="#1859E9" stroke-opacity="0.95" stroke-width="0.3"><path d="
M 495.00 62.00 
C 488.29 47.63 465.51 47.97 456.00 59.00
C 453.44 57.62 454.64 54.07 453.00 52.00
C 447.33 52.00 441.67 52.00 436.00 52.00
C 436.00 75.33 436.00 98.67 436.00 122.00
C 442.67 122.00 449.33 122.00 456.00 122.00
C 456.96 107.84 454.41 91.36 456.68 77.68 C 458.94 64.00 479.96 64.99 480.07 78.93 C 480.18 92.86 481.92 107.67 481.00 122.00
C 487.67 122.00 494.33 122.00 501.00 122.00
C 501.68 108.29 500.06 91.47 501.08 78.08 C 502.09 64.69 524.80 64.28 525.00 78.00 C 525.20 91.72 524.85 108.04 525.00 122.00
C 531.67 122.00 538.33 122.00 545.00 122.00
C 542.82 102.78 549.99 77.68 539.92 61.08 C 529.85 44.48 505.29 50.71 495.00 62.00 Z"/>
</g>
<g fill="None" fill-opacity="0.0" stroke="#1859E9" stroke-opacity="0.95" stroke-width="0.3"><path d="
M 730.00 122.00 
C 728.01 103.42 734.59 78.78 725.30 62.70 C 716.02 46.61 693.13 48.80 681.00 59.00
C 681.38 48.25 669.10 52.95 662.00 52.00
C 662.00 75.33 662.00 98.67 662.00 122.00
C 668.67 122.00 675.33 122.00 682.00 122.00
C 685.61 107.57 672.07 68.79 696.00 68.00 C 719.93 67.21 706.59 107.84 710.00 122.00
C 716.67 122.00 723.33 122.00 730.00 122.00 Z"/>
</g>
<g fill="None" fill-opacity="0.0" stroke="#1859E9" stroke-opacity="0.95" stroke-width="0.3"><path d="
M 603.00 52.00 
C 596.00 52.00 589.00 52.00 582.00 52.00
C 585.60 62.81 588.53 72.12 593.22 82.78 C 597.92 93.44 599.04 102.02 605.03 112.98 C 611.01 123.93 603.29 137.59 588.00 132.00
C 588.00 137.67 588.00 143.33 588.00 149.00
C 604.44 152.99 621.64 147.35 625.69 131.69 C 629.75 116.03 636.60 106.60 641.07 92.07 C 645.55 77.55 652.40 66.51 656.00 52.00
C 649.00 52.00 642.00 52.00 635.00 52.00
C 630.44 68.17 624.97 84.58 619.00 100.00
C 614.02 83.88 607.71 68.19 603.00 52.00 Z"/>
</g>
<g fill="None" fill-opacity="0.0" stroke="#000000" stroke-opacity="0.00" stroke-width="0.3"><path d="
M 395.00 68.00 
C 371.90 62.28 363.93 98.46 384.99 106.01 C 406.05 113.55 415.46 73.07 395.00 68.00 Z"/>
</g>
<g fill="None" fill-opacity="0.0" stroke="#000000" stroke-opacity="0.00" stroke-width="0.3"><path d="
M 0.00 176.00 
L 73.00 176.00
C 40.79 173.77 9.96 150.33 0.00 119.00
L 0.00 176.00 Z"/>
</g>
<g fill="None" fill-opacity="0.0" stroke="#FE3C29" stroke-opacity="0.33" stroke-width="0.3"><path d="
M 74.00 176.00 
L 89.00 176.00
C 85.14 174.30 77.93 174.40 74.00 176.00 Z"/>
</g>
<g fill="#000000" fill-opacity="0.00" stroke="None">
<path d="
M 0.00 106.00 
C 3.91 93.49 12.63 89.73 25.00 88.00 C 37.37 86.27 33.77 66.76 37.93 57.93 C 42.09 49.09 45.25 37.43 52.77 29.77 C 60.29 22.11 66.62 15.32 76.23 10.23 C 85.84 5.14 98.59 1.00 110.00 1.00
C 109.96 1.00 110.00 0.00 110.00 0.00
L 0.00 0.00
L 0.00 106.00 Z"/>
</g>
<g fill="#FE3C28" fill-opacity="0.30" stroke="None">
<path d="
M 110.00 1.00 
C 115.50 1.00 122.33 1.83 127.00 0.00
L 110.00 0.00
C 110.00 0.00 109.96 1.00 110.00 1.00 Z"/>
</g>
<g fill="#FF3C29" fill-opacity="0.97" stroke="None">
<path d="
M 110.00 1.00 
C 98.59 1.00 85.84 5.14 76.23 10.23 C 66.62 15.32 60.29 22.11 52.77 29.77 C 45.25 37.43 42.09 49.09 37.93 57.93 C 33.77 66.76 37.37 86.27 25.00 88.00 C 12.63 89.73 3.91 93.49 0.00 106.00
L 0.00 119.00
C 9.96 150.33 40.79 173.77 73.00 176.00
L 74.00 176.00
C 77.93 174.40 85.14 174.30 89.00 176.00
L 90.00 176.00
C 104.94 173.79 121.29 169.27 133.70 159.70 C 146.11 150.13 153.39 139.78 159.78 125.78 C 166.17 111.78 162.87 88.70 182.00 88.00 C 201.13 87.30 203.67 62.97 197.68 50.32 C 191.69 37.68 183.38 25.38 171.30 16.70 C 159.22 8.01 142.79 1.20 128.00 0.00
L 127.00 0.00
C 122.33 1.83 115.50 1.00 110.00 1.00
M 125.00 32.00 
C 134.32 33.33 147.25 39.18 153.25 47.75 C 159.25 56.33 167.24 68.53 165.00 80.00 C 162.76 91.47 143.60 86.55 135.77 94.77 C 127.94 102.99 124.76 112.59 119.25 122.25 C 113.73 131.91 105.89 138.39 94.93 141.93 C 83.97 145.46 69.64 144.20 58.92 138.08 C 48.21 131.95 45.55 124.83 39.08 113.92 C 32.61 103.02 35.09 87.52 49.00 88.00 C 62.91 88.48 68.12 78.02 73.92 68.92 C 79.73 59.83 80.88 48.65 91.08 42.08 C 101.29 35.51 111.85 30.12 125.00 32.00 Z"/>
</g>
<g fill="#000000" fill-opacity="0.00" stroke="None">
<path d="
M 90.00 176.00 
L 812.00 176.00
L 812.00 0.00
L 128.00 0.00
C 142.79 1.20 159.22 8.01 171.30 16.70 C 183.38 25.38 191.69 37.68 197.68 50.32 C 203.67 62.97 201.13 87.30 182.00 88.00 C 162.87 88.70 166.17 111.78 159.78 125.78 C 153.39 139.78 146.11 150.13 133.70 159.70 C 121.29 169.27 104.94 173.79 90.00 176.00
M 296.00 27.00 
C 296.00 37.67 296.00 48.33 296.00 59.00
C 307.58 48.55 330.20 46.81 339.30 62.70 C 348.40 78.59 342.15 103.66 344.00 122.00
C 337.33 122.00 330.67 122.00 324.00 122.00
C 320.43 107.83 334.13 67.22 310.00 68.00 C 285.87 68.78 299.65 107.51 296.00 122.00
C 289.33 122.00 282.67 122.00 276.00 122.00
C 276.00 90.33 276.00 58.67 276.00 27.00
C 282.67 27.00 289.33 27.00 296.00 27.00
M 576.00 27.00 
C 576.00 58.67 576.00 90.33 576.00 122.00
C 569.33 122.00 562.67 122.00 556.00 122.00
C 556.00 90.33 556.00 58.67 556.00 27.00
C 562.67 27.00 569.33 27.00 576.00 27.00
M 761.00 27.00 
C 761.00 44.67 761.00 62.33 761.00 80.00
C 767.82 72.31 773.71 69.83 779.75 60.75 C 785.80 51.67 797.66 50.06 809.00 52.00
C 802.62 61.73 793.62 70.80 785.00 79.00
C 793.39 93.51 803.17 107.36 811.00 122.00
C 802.07 121.77 788.06 124.81 784.23 115.77 C 780.40 106.73 775.14 103.80 772.00 95.00
C 761.62 99.61 759.42 111.30 761.00 122.00
C 754.33 122.00 747.67 122.00 741.00 122.00
C 741.00 90.33 741.00 58.67 741.00 27.00
C 747.67 27.00 754.33 27.00 761.00 27.00
M 395.00 51.00 
C 421.95 54.26 436.03 88.93 419.70 109.70 C 403.36 130.47 366.98 128.88 355.70 103.30 C 344.41 77.73 364.55 47.32 395.00 51.00
M 495.00 62.00 
C 505.29 50.71 529.85 44.48 539.92 61.08 C 549.99 77.68 542.82 102.78 545.00 122.00
C 538.33 122.00 531.67 122.00 525.00 122.00
C 524.85 108.04 525.20 91.72 525.00 78.00 C 524.80 64.28 502.09 64.69 501.08 78.08 C 500.06 91.47 501.68 108.29 501.00 122.00
C 494.33 122.00 487.67 122.00 481.00 122.00
C 481.92 107.67 480.18 92.86 480.07 78.93 C 479.96 64.99 458.94 64.00 456.68 77.68 C 454.41 91.36 456.96 107.84 456.00 122.00
C 449.33 122.00 442.67 122.00 436.00 122.00
C 436.00 98.67 436.00 75.33 436.00 52.00
C 441.67 52.00 447.33 52.00 453.00 52.00
C 454.64 54.07 453.44 57.62 456.00 59.00
C 465.51 47.97 488.29 47.63 495.00 62.00
M 730.00 122.00 
C 723.33 122.00 716.67 122.00 710.00 122.00
C 706.59 107.84 719.93 67.21 696.00 68.00 C 672.07 68.79 685.61 107.57 682.00 122.00
C 675.33 122.00 668.67 122.00 662.00 122.00
C 662.00 98.67 662.00 75.33 662.00 52.00
C 669.10 52.95 681.38 48.25 681.00 59.00
C 693.13 48.80 716.02 46.61 725.30 62.70 C 734.59 78.78 728.01 103.42 730.00 122.00
M 603.00 52.00 
C 607.71 68.19 614.02 83.88 619.00 100.00
C 624.97 84.58 630.44 68.17 635.00 52.00
C 642.00 52.00 649.00 52.00 656.00 52.00
C 652.40 66.51 645.55 77.55 641.07 92.07 C 636.60 106.60 629.75 116.03 625.69 131.69 C 621.64 147.35 604.44 152.99 588.00 149.00
C 588.00 143.33 588.00 137.67 588.00 132.00
C 603.29 137.59 611.01 123.93 605.03 112.98 C 599.04 102.02 597.92 93.44 593.22 82.78 C 588.53 72.12 585.60 62.81 582.00 52.00
C 589.00 52.00 596.00 52.00 603.00 52.00 Z"/>
</g>
<g fill="#1859E9" fill-opacity="0.95" stroke="None">
<path d="
M 296.00 27.00 
C 289.33 27.00 282.67 27.00 276.00 27.00
C 276.00 58.67 276.00 90.33 276.00 122.00
C 282.67 122.00 289.33 122.00 296.00 122.00
C 299.65 107.51 285.87 68.78 310.00 68.00 C 334.13 67.22 320.43 107.83 324.00 122.00
C 330.67 122.00 337.33 122.00 344.00 122.00
C 342.15 103.66 348.40 78.59 339.30 62.70 C 330.20 46.81 307.58 48.55 296.00 59.00
C 296.00 48.33 296.00 37.67 296.00 27.00 Z"/>
</g>
<g fill="#1859E9" fill-opacity="0.95" stroke="None">
<path d="
M 576.00 27.00 
C 569.33 27.00 562.67 27.00 556.00 27.00
C 556.00 58.67 556.00 90.33 556.00 122.00
C 562.67 122.00 569.33 122.00 576.00 122.00
C 576.00 90.33 576.00 58.67 576.00 27.00 Z"/>
</g>
<g fill="#1859E9" fill-opacity="0.94" stroke="None">
<path d="
M 761.00 27.00 
C 754.33 27.00 747.67 27.00 741.00 27.00
C 741.00 58.67 741.00 90.33 741.00 122.00
C 747.67 122.00 754.33 122.00 761.00 122.00
C 759.42 111.30 761.62 99.61 772.00 95.00
C 775.14 103.80 780.40 106.73 784.23 115.77 C 788.06 124.81 802.07 121.77 811.00 122.00
C 803.17 107.36 793.39 93.51 785.00 79.00
C 793.62 70.80 802.62 61.73 809.00 52.00
C 797.66 50.06 785.80 51.67 779.75 60.75 C 773.71 69.83 767.82 72.31 761.00 80.00
C 761.00 62.33 761.00 44.67 761.00 27.00 Z"/>
</g>
<g fill="#000000" fill-opacity="0.00" stroke="None">
<path d="
M 125.00 32.00 
C 111.85 30.12 101.29 35.51 91.08 42.08 C 80.88 48.65 79.73 59.83 73.92 68.92 C 68.12 78.02 62.91 88.48 49.00 88.00 C 35.09 87.52 32.61 103.02 39.08 113.92 C 45.55 124.83 48.21 131.95 58.92 138.08 C 69.64 144.20 83.97 145.46 94.93 141.93 C 105.89 138.39 113.73 131.91 119.25 122.25 C 124.76 112.59 127.94 102.99 135.77 94.77 C 143.60 86.55 162.76 91.47 165.00 80.00 C 167.24 68.53 159.25 56.33 153.25 47.75 C 147.25 39.18 134.32 33.33 125.00 32.00 Z"/>
</g>
<g fill="#1859E9" fill-opacity="0.95" stroke="None">
<path d="
M 395.00 51.00 
C 364.55 47.32 344.41 77.73 355.70 103.30 C 366.98 128.88 403.36 130.47 419.70 109.70 C 436.03 88.93 421.95 54.26 395.00 51.00
M 395.00 68.00 
C 415.46 73.07 406.05 113.55 384.99 106.01 C 363.93 98.46 371.90 62.28 395.00 68.00 Z"/>
</g>
<g fill="#1859E9" fill-opacity="0.95" stroke="None">
<path d="
M 495.00 62.00 
C 488.29 47.63 465.51 47.97 456.00 59.00
C 453.44 57.62 454.64 54.07 453.00 52.00
C 447.33 52.00 441.67 52.00 436.00 52.00
C 436.00 75.33 436.00 98.67 436.00 122.00
C 442.67 122.00 449.33 122.00 456.00 122.00
C 456.96 107.84 454.41 91.36 456.68 77.68 C 458.94 64.00 479.96 64.99 480.07 78.93 C 480.18 92.86 481.92 107.67 481.00 122.00
C 487.67 122.00 494.33 122.00 501.00 122.00
C 501.68 108.29 500.06 91.47 501.08 78.08 C 502.09 64.69 524.80 64.28 525.00 78.00 C 525.20 91.72 524.85 108.04 525.00 122.00
C 531.67 122.00 538.33 122.00 545.00 122.00
C 542.82 102.78 549.99 77.68 539.92 61.08 C 529.85 44.48 505.29 50.71 495.00 62.00 Z"/>
</g>
<g fill="#1859E9" fill-opacity="0.95" stroke="None">
<path d="
M 730.00 122.00 
C 728.01 103.42 734.59 78.78 725.30 62.70 C 716.02 46.61 693.13 48.80 681.00 59.00
C 681.38 48.25 669.10 52.95 662.00 52.00
C 662.00 75.33 662.00 98.67 662.00 122.00
C 668.67 122.00 675.33 122.00 682.00 122.00
C 685.61 107.57 672.07 68.79 696.00 68.00 C 719.93 67.21 706.59 107.84 710.00 122.00
C 716.67 122.00 723.33 122.00 730.00 122.00 Z"/>
</g>
<g fill="#1859E9" fill-opacity="0.95" stroke="None">
<path d="
M 603.00 52.00 
C 596.00 52.00 589.00 52.00 582.00 52.00
C 585.60 62.81 588.53 72.12 593.22 82.78 C 597.92 93.44 599.04 102.02 605.03 112.98 C 611.01 123.93 603.29 137.59 588.00 132.00
C 588.00 137.67 588.00 143.33 588.00 149.00
C 604.44 152.99 621.64 147.35 625.69 131.69 C 629.75 116.03 636.60 106.60 641.07 92.07 C 645.55 77.55 652.40 66.51 656.00 52.00
C 649.00 52.00 642.00 52.00 635.00 52.00
C 630.44 68.17 624.97 84.58 619.00 100.00
C 614.02 83.88 607.71 68.19 603.00 52.00 Z"/>
</g>
<g fill="#000000" fill-opacity="0.00" stroke="None">
<path d="
M 395.00 68.00 
C 371.90 62.28 363.93 98.46 384.99 106.01 C 406.05 113.55 415.46 73.07 395.00 68.00 Z"/>
</g>
<g fill="#000000" fill-opacity="0.00" stroke="None">
<path d="
M 0.00 176.00 
L 73.00 176.00
C 40.79 173.77 9.96 150.33 0.00 119.00
L 0.00 176.00 Z"/>
</g>
<g fill="#FE3C29" fill-opacity="0.33" stroke="None">
<path d="
M 74.00 176.00 
L 89.00 176.00
C 85.14 174.30 77.93 174.40 74.00 176.00 Z"/>
</g>
</svg>