<svg width="163" height="64" viewBox="0 0 163 64" fill="none" xmlns="http://www.w3.org/2000/svg">
<g clip-path="url(#clip0_132_2615)">
<path d="M39.9957 17.3848C35.1918 17.3848 31.2954 13.5042 31.2954 8.70024C31.2954 3.88068 35.1918 0 39.9957 0C44.7996 0 48.6959 3.88068 48.6959 8.70024C48.6959 13.5042 44.7996 17.3848 39.9957 17.3848Z" fill="#7D3CB5"/>
<path d="M8.73151 17.3848C3.9276 17.3848 0.03125 13.5042 0.03125 8.70024C0.03125 3.88068 3.9276 0 8.73151 0C13.5354 0 17.4317 3.88068 17.4317 8.70024C17.4317 13.5042 13.5354 17.3848 8.73151 17.3848Z" fill="#9A76C1"/>
<path d="M48.696 31.7666V55.8018C48.696 60.2615 45.0814 63.8761 40.6217 63.8761C36.162 63.8761 32.5474 60.2615 32.5474 55.8018V44.4727C34.0652 44.0346 35.5518 43.4869 37.0227 42.7984C39.6515 41.5465 42.1865 40.1382 43.9078 37.9319C45.8794 36.5392 47.2094 34.7554 48.1796 32.7837C48.4456 32.236 48.6021 31.6727 48.6647 31.0938C48.6856 31.3128 48.696 31.5371 48.696 31.7666Z" fill="#7D3CB5"/>
<path d="M48.6649 31.0785C48.6023 31.6575 48.4458 32.2365 48.1798 32.7685C47.2096 34.7401 45.8796 36.5397 43.9079 37.9167C39.9803 38.8243 36.2091 38.8556 32.5475 38.1983C29.7778 37.6976 27.0708 36.8057 24.4263 35.5851C25.4903 34.8027 26.5387 33.9891 27.6184 33.2223C29.903 31.6262 31.7651 29.7485 33.1578 27.5265C34.8008 24.8976 37.0698 23.8492 39.9803 23.7084C39.9907 23.7084 39.996 23.7084 39.996 23.7084C40.3089 23.6875 40.6375 23.6823 40.9817 23.6927C41.3156 23.6927 41.6598 23.7084 42.0145 23.7397C44.925 23.9431 47.6791 26.259 48.4615 28.9974C48.6649 29.6859 48.7275 30.39 48.6649 31.0785Z" fill="#9A76C1"/>
<path d="M0.03125 31.7666V55.8018C0.03125 60.2615 3.64594 63.8761 8.10559 63.8761C12.5653 63.8761 16.1799 60.2615 16.1799 55.8018V44.4727C14.662 44.0346 13.1755 43.4869 11.7046 42.7984C9.07576 41.5465 6.52515 40.1382 4.81953 37.9319C2.84789 36.5392 1.51781 34.7554 0.547639 32.7837C0.281624 32.236 0.12513 31.6727 0.0625382 31.0938C0.0416743 31.3128 0.03125 31.5371 0.03125 31.7666Z" fill="#9A76C1"/>
<path d="M0.0627826 31.0785C0.125374 31.6575 0.281869 32.2365 0.547883 32.7685C1.51805 34.7401 2.84814 36.5397 4.81977 37.9167C8.7474 38.8243 12.5185 38.8556 16.1801 38.1983C18.9498 37.6976 21.6569 36.8057 24.3014 35.5851C23.2374 34.8027 22.1889 33.9891 21.1092 33.2223C18.8246 31.6262 16.9626 29.7485 15.5699 27.5265C13.9269 24.8976 11.6579 23.8492 8.74738 23.7084C8.73695 23.7084 8.73175 23.7084 8.73175 23.7084C8.4188 23.6875 8.09018 23.6823 7.74593 23.6927C7.41211 23.6927 7.06784 23.7084 6.71315 23.7397C3.80264 23.9431 1.04861 26.259 0.266213 28.9974C0.0627902 29.6859 0.000190869 30.39 0.0627826 31.0785Z" fill="#7D3CB5"/>
<path d="M69.1796 43.127C68.0843 42.6263 67.2184 41.9482 66.5821 41.0928C65.9457 40.2269 65.6067 39.2672 65.5649 38.2136H69.3204C69.383 38.9542 69.7377 39.5749 70.3845 40.0757C71.0313 40.5764 71.845 40.8268 72.8256 40.8268C73.8479 40.8268 74.6408 40.6286 75.2041 40.2321C75.757 39.8357 76.0334 39.3298 76.0334 38.7143C76.0334 38.0571 75.7205 37.572 75.0945 37.259C74.4686 36.9356 73.4776 36.5862 72.1214 36.2106C70.807 35.8455 69.7377 35.4908 68.9136 35.1466C68.0791 34.8127 67.3645 34.2964 66.7699 33.5974C66.1648 32.8985 65.8623 31.9753 65.8623 30.8277C65.8623 29.8889 66.1335 29.0334 66.676 28.2615C67.2289 27.4895 68.0217 26.8793 69.0544 26.4307C70.0872 25.9821 71.2712 25.7578 72.6065 25.7578C74.599 25.7578 76.2055 26.2638 77.4261 27.2757C78.6466 28.2876 79.2986 29.6594 79.3821 31.3911H75.7518C75.6892 30.6087 75.371 29.9828 74.7972 29.5133C74.2235 29.0543 73.4515 28.8248 72.4814 28.8248C71.5216 28.8248 70.7861 29.0021 70.275 29.3568C69.7638 29.722 69.5082 30.2018 69.5082 30.7964C69.5082 31.2659 69.6803 31.6571 70.0246 31.97C70.3689 32.2934 70.7809 32.5438 71.2608 32.7211C71.7511 32.8985 72.4761 33.128 73.4359 33.4096C74.7086 33.7435 75.7517 34.0877 76.5654 34.4424C77.3791 34.7867 78.0833 35.2978 78.6779 35.9759C79.2725 36.654 79.5803 37.5563 79.6012 38.683C79.6012 39.6845 79.3247 40.5764 78.7718 41.3588C78.2189 42.1412 77.4417 42.7567 76.4402 43.2052C75.4283 43.6538 74.2443 43.8781 72.8882 43.8781C71.5112 43.8781 70.275 43.6277 69.1796 43.127Z" fill="#7D3CB5"/>
<path d="M99.4739 36.1793H86.0636C86.1679 37.5772 86.6895 38.6986 87.6284 39.5436C88.5568 40.399 89.7044 40.8268 91.0709 40.8268C93.0217 40.8268 94.3988 40.0078 95.202 38.37H99.114C98.582 39.987 97.6222 41.3066 96.2348 42.329C94.8473 43.3617 93.126 43.8781 91.0709 43.8781C89.3914 43.8781 87.8892 43.5026 86.5644 42.7515C85.2395 41.9899 84.1963 40.9259 83.4348 39.5593C82.6837 38.1927 82.3081 36.607 82.3081 34.8023C82.3081 32.9976 82.6732 31.4119 83.4035 30.0453C84.1441 28.6788 85.1769 27.6251 86.5018 26.8845C87.8266 26.1334 89.3497 25.7578 91.0709 25.7578C92.7192 25.7578 94.1901 26.1229 95.4837 26.8532C96.7772 27.573 97.7891 28.5849 98.5194 29.8889C99.2392 31.1929 99.5991 32.695 99.5991 34.3955C99.5991 35.0527 99.5574 35.6473 99.4739 36.1793ZM95.8123 33.2375C95.7914 31.9022 95.3115 30.833 94.3727 30.0297C93.4442 29.2264 92.2863 28.8248 90.8988 28.8248C89.647 28.8248 88.5777 29.2212 87.691 30.014C86.7939 30.8069 86.2618 31.8814 86.0949 33.2375H95.8123Z" fill="#7D3CB5"/>
<path d="M103.042 30.0616C103.782 28.7054 104.784 27.6518 106.046 26.9007C107.308 26.1392 108.711 25.7584 110.255 25.7584C111.403 25.7584 112.535 26.0088 113.651 26.5095C114.767 27.0102 115.654 27.6726 116.311 28.4968V20.0312H119.973V43.7222H116.311V40.9525C115.716 41.7975 114.892 42.4964 113.839 43.0493C112.785 43.6022 111.58 43.8787 110.224 43.8787C108.701 43.8787 107.308 43.4927 106.046 42.7207C104.784 41.9383 103.782 40.8534 103.042 39.466C102.311 38.0785 101.946 36.5033 101.946 34.7403C101.946 32.9773 102.311 31.4177 103.042 30.0616ZM115.56 31.6576C115.059 30.7605 114.407 30.0824 113.604 29.6234C112.79 29.154 111.919 28.9193 110.991 28.9193C110.052 28.9193 109.181 29.1488 108.378 29.6078C107.574 30.0563 106.922 30.724 106.422 31.6107C105.921 32.487 105.671 33.5302 105.671 34.7403C105.671 35.9504 105.921 37.0092 106.422 37.9168C106.922 38.8348 107.58 39.5338 108.393 40.0136C109.207 40.4831 110.073 40.7178 110.991 40.7178C111.919 40.7178 112.79 40.4883 113.604 40.0293C114.407 39.5598 115.059 38.8766 115.56 37.9794C116.061 37.0718 116.311 36.013 116.311 34.8029C116.311 33.5928 116.061 32.5444 115.56 31.6576Z" fill="#7D3CB5"/>
<path d="M137.295 26.6184C138.391 27.1922 139.246 28.0424 139.861 29.1691C140.477 30.2957 140.785 31.6519 140.785 33.2375V43.7216H137.186V33.7852C137.186 32.2204 136.795 31.0155 136.012 30.1705C135.219 29.336 134.145 28.9187 132.789 28.9187C131.432 28.9187 130.358 29.336 129.565 30.1705C128.772 31.0155 128.376 32.2204 128.376 33.7852V43.7216H124.746V26.0551H128.376V28.058C128.96 27.3382 129.716 26.7749 130.645 26.3681C131.563 25.9612 132.543 25.7578 133.587 25.7578C134.964 25.7578 136.2 26.0447 137.295 26.6184Z" fill="#7D3CB5"/>
<path d="M145.291 30.061C146.021 28.7048 147.018 27.6512 148.28 26.9001C149.542 26.1386 150.935 25.7578 152.458 25.7578C153.845 25.7578 155.05 26.029 156.073 26.5715C157.105 27.114 157.929 27.7868 158.545 28.5901V26.0551H162.207V43.7216H158.545V40.9832C157.929 41.8074 157.09 42.4959 156.026 43.0488C154.962 43.6017 153.751 43.8781 152.395 43.8781C150.893 43.8781 149.516 43.4921 148.264 42.7202C147.012 41.9378 146.021 40.8528 145.291 39.4654C144.55 38.0779 144.18 36.5027 144.18 34.7397C144.18 32.9767 144.55 31.4171 145.291 30.061ZM157.794 31.6571C157.293 30.7599 156.641 30.0818 155.838 29.6228C155.035 29.1534 154.164 28.9187 153.225 28.9187C152.296 28.9187 151.425 29.1482 150.611 29.6072C149.808 30.0558 149.156 30.7234 148.655 31.6101C148.155 32.4864 147.904 33.5296 147.904 34.7397C147.904 35.9498 148.155 37.0087 148.655 37.9162C149.156 38.8343 149.813 39.5332 150.627 40.0131C151.451 40.4825 152.317 40.7172 153.225 40.7172C154.164 40.7172 155.035 40.4877 155.838 40.0287C156.641 39.5593 157.293 38.876 157.794 37.9788C158.295 37.0713 158.545 36.0124 158.545 34.8023C158.545 33.5922 158.295 32.5438 157.794 31.6571Z" fill="#7D3CB5"/>
</g>
<defs>
<clipPath id="clip0_132_2615">
<rect width="162.269" height="64" fill="white"/>
</clipPath>
</defs>
</svg>
