<?xml version="1.0" encoding="UTF-8"?>
<!DOCTYPE svg PUBLIC "-//W3C//DTD SVG 1.1//EN" "http://www.w3.org/Graphics/SVG/1.1/DTD/svg11.dtd">
<svg xmlns="http://www.w3.org/2000/svg" version="1.1" width="512px" height="323px" style="shape-rendering:geometricPrecision; text-rendering:geometricPrecision; image-rendering:optimizeQuality; fill-rule:evenodd; clip-rule:evenodd" xmlns:xlink="http://www.w3.org/1999/xlink">
<g><path style="opacity:1" fill="#0f98bc" d="M 13.5,-0.5 C 174.167,-0.5 334.833,-0.5 495.5,-0.5C 498.964,0.497055 502.297,1.99705 505.5,4C 507.439,5.43211 508.772,7.26544 509.5,9.5C 509.41,12.1522 510.076,14.4855 511.5,16.5C 511.5,114.167 511.5,211.833 511.5,309.5C 510.295,312.234 508.795,314.901 507,317.5C 504.521,319.314 502.021,320.981 499.5,322.5C 336.833,322.5 174.167,322.5 11.5,322.5C 5.43416,320.1 1.43416,315.767 -0.5,309.5C -0.5,209.833 -0.5,110.167 -0.5,10.5C 1.80778,3.86151 6.47444,0.194844 13.5,-0.5 Z"/></g>
<g><path style="opacity:0.639" fill="#8ccadd" d="M 509.5,9.5 C 510.167,10.5 510.833,11.5 511.5,12.5C 511.5,13.8333 511.5,15.1667 511.5,16.5C 510.076,14.4855 509.41,12.1522 509.5,9.5 Z"/></g>
<g><path style="opacity:1" fill="#fcfdfe" d="M 69.5,152.5 C 62.9221,153.46 56.2554,153.793 49.5,153.5C 49.5,150.5 49.5,147.5 49.5,144.5C 53.8461,144.666 58.1794,144.499 62.5,144C 64.2349,141.363 65.5682,138.53 66.5,135.5C 74.5,134.167 82.5,134.167 90.5,135.5C 91.7404,138.393 93.0737,141.227 94.5,144C 102.827,144.5 111.16,144.666 119.5,144.5C 119.333,133.495 119.5,122.495 120,111.5C 125,122.167 130,132.833 135,143.5C 138.667,144.833 142.333,144.833 146,143.5C 151,132.833 156,122.167 161,111.5C 161.5,122.495 161.667,133.495 161.5,144.5C 165.5,144.5 169.5,144.5 173.5,144.5C 174.497,128.008 174.83,111.342 174.5,94.5C 167.646,94.176 160.979,94.5093 154.5,95.5C 149.604,104.962 144.937,114.629 140.5,124.5C 136.063,114.629 131.396,104.962 126.5,95.5C 120.021,94.5093 113.354,94.176 106.5,94.5C 106.829,109.343 106.496,124.01 105.5,138.5C 100.165,124.002 94.3316,109.669 88,95.5C 81.6667,94.1667 75.3333,94.1667 69,95.5C 62.7238,111.038 56.2238,126.372 49.5,141.5C 49.3336,133.493 49.5003,125.493 50,117.5C 54.3333,107.167 58.6667,96.8333 63,86.5C 73.0895,85.348 83.2562,85.1814 93.5,86C 94.8563,88.3976 96.0229,90.8976 97,93.5C 97.4974,90.854 97.6641,88.1873 97.5,85.5C 109.171,85.3335 120.838,85.5001 132.5,86C 135.129,91.4252 137.629,96.9252 140,102.5C 143.051,97.0665 145.551,91.3998 147.5,85.5C 186.168,85.3333 224.835,85.5 263.5,86C 265.433,86.2511 267.266,86.7511 269,87.5C 279.577,85.5369 290.41,84.8703 301.5,85.5C 301.343,86.8734 301.51,88.2068 302,89.5C 304.543,87.6457 307.376,86.4791 310.5,86C 328.497,85.5001 346.497,85.3334 364.5,85.5C 366.652,94.5263 367.652,94.5263 367.5,85.5C 378.52,85.1679 389.52,85.5012 400.5,86.5C 404.625,95.9897 406.292,95.6563 405.5,85.5C 415.833,85.5 426.167,85.5 436.5,85.5C 436.5,108.167 436.5,130.833 436.5,153.5C 425.48,153.832 414.48,153.499 403.5,152.5C 399.375,143.01 397.708,143.344 398.5,153.5C 385.163,153.667 371.829,153.5 358.5,153C 357.311,150.122 355.978,147.288 354.5,144.5C 350.555,143.509 346.555,143.176 342.5,143.5C 341.801,146.573 340.801,149.573 339.5,152.5C 329.183,153.666 318.849,153.832 308.5,153C 305.888,152.361 303.554,151.194 301.5,149.5C 300.571,150.689 300.238,152.022 300.5,153.5C 284.167,153.5 267.833,153.5 251.5,153.5C 251.5,147.833 251.5,142.167 251.5,136.5C 250.5,136.5 249.5,136.5 248.5,136.5C 248.5,142.167 248.5,147.833 248.5,153.5C 195.166,153.667 141.832,153.5 88.5,153C 86.7651,150.363 85.4318,147.53 84.5,144.5C 76.0007,141.349 71.0007,144.015 69.5,152.5 Z"/></g>
<g><path style="opacity:1" fill="#1296c3" d="M 320.5,132.5 C 316.732,135.119 313.732,138.619 311.5,143C 318.492,143.5 325.492,143.666 332.5,143.5C 302.722,148.55 291.222,136.217 298,106.5C 300.5,101.333 304.333,97.5 309.5,95C 316.826,94.5003 324.159,94.3337 331.5,94.5C 331.5,98.1667 331.5,101.833 331.5,105.5C 312.776,102.72 305.943,110.386 311,128.5C 313.239,131.962 316.406,133.295 320.5,132.5 Z"/></g>
<g><path style="opacity:1" fill="#34b9e0" d="M 126.5,95.5 C 120.167,95.5 113.833,95.5 107.5,95.5C 107.667,110.504 107.5,125.504 107,140.5C 106.283,139.956 105.783,139.289 105.5,138.5C 106.496,124.01 106.829,109.343 106.5,94.5C 113.354,94.176 120.021,94.5093 126.5,95.5 Z"/></g>
<g><path style="opacity:1" fill="#0da7d7" d="M 105.5,138.5 C 105.783,139.289 106.283,139.956 107,140.5C 107.5,125.504 107.667,110.504 107.5,95.5C 113.833,95.5 120.167,95.5 126.5,95.5C 131.396,104.962 136.063,114.629 140.5,124.5C 144.937,114.629 149.604,104.962 154.5,95.5C 160.833,95.5 167.167,95.5 173.5,95.5C 173.5,111.833 173.5,128.167 173.5,144.5C 169.5,144.5 165.5,144.5 161.5,144.5C 161.667,133.495 161.5,122.495 161,111.5C 156,122.167 151,132.833 146,143.5C 142.333,144.833 138.667,144.833 135,143.5C 130,132.833 125,122.167 120,111.5C 119.5,122.495 119.333,133.495 119.5,144.5C 111.16,144.666 102.827,144.5 94.5,144C 93.0737,141.227 91.7404,138.393 90.5,135.5C 82.5,134.167 74.5,134.167 66.5,135.5C 65.5682,138.53 64.2349,141.363 62.5,144C 58.1794,144.499 53.8461,144.666 49.5,144.5C 49.5,143.5 49.5,142.5 49.5,141.5C 56.2238,126.372 62.7238,111.038 69,95.5C 75.3333,94.1667 81.6667,94.1667 88,95.5C 94.3316,109.669 100.165,124.002 105.5,138.5 Z"/></g>
<g><path style="opacity:1" fill="#0f8eb8" d="M 373.5,133.5 C 372.883,133.389 372.383,133.056 372,132.5C 370.294,136.079 368.461,139.579 366.5,143C 374.159,143.5 381.826,143.666 389.5,143.5C 381.324,144.821 372.991,144.821 364.5,143.5C 363.022,140.712 361.689,137.878 360.5,135C 352.479,134.168 344.479,134.335 336.5,135.5C 335.663,138.507 334.33,141.174 332.5,143.5C 325.492,143.666 318.492,143.5 311.5,143C 313.732,138.619 316.732,135.119 320.5,132.5C 322.09,132.372 323.423,131.705 324.5,130.5C 329.305,118.751 334.305,107.085 339.5,95.5C 345.722,94.1913 351.889,94.1913 358,95.5C 363.456,108.074 368.623,120.741 373.5,133.5 Z"/></g>
<g><path style="opacity:1" fill="#0584ad" d="M 404.5,111.5 C 401.935,115.844 399.935,120.51 398.5,125.5C 395.691,121.232 392.857,116.898 390,112.5C 389.5,122.828 389.334,133.161 389.5,143.5C 381.826,143.666 374.159,143.5 366.5,143C 368.461,139.579 370.294,136.079 372,132.5C 372.383,133.056 372.883,133.389 373.5,133.5C 374.41,135.019 375.243,136.685 376,138.5C 376.5,123.837 376.667,109.17 376.5,94.5C 382.509,94.3338 388.509,94.5005 394.5,95C 398.059,100.386 401.392,105.886 404.5,111.5 Z"/></g>
<g><path style="opacity:1" fill="#cae4ec" d="M 414.5,94.5 C 414.667,105.172 414.5,115.839 414,126.5C 413.283,125.956 412.783,125.289 412.5,124.5C 413.167,114.5 413.833,104.5 414.5,94.5 Z"/></g>
<g><path style="opacity:1" fill="#1782a7" d="M 414.5,94.5 C 418.833,94.5 423.167,94.5 427.5,94.5C 427.5,111.167 427.5,127.833 427.5,144.5C 421.491,144.666 415.491,144.499 409.5,144C 405.433,138.026 401.766,131.859 398.5,125.5C 399.935,120.51 401.935,115.844 404.5,111.5C 407.403,115.63 410.07,119.963 412.5,124.5C 412.783,125.289 413.283,125.956 414,126.5C 414.5,115.839 414.667,105.172 414.5,94.5 Z"/></g>
<g><path style="opacity:1" fill="#069dcd" d="M 254.5,127.5 C 249.695,126.513 244.695,126.179 239.5,126.5C 239.5,132.5 239.5,138.5 239.5,144.5C 235.5,144.5 231.5,144.5 227.5,144.5C 227.5,127.833 227.5,111.167 227.5,94.5C 239.838,94.3335 252.171,94.5001 264.5,95C 273.062,98.848 275.895,105.348 273,114.5C 271.542,116.96 269.709,119.127 267.5,121C 269.378,122.543 270.878,124.376 272,126.5C 272.499,132.491 272.666,138.491 272.5,144.5C 268.5,144.5 264.5,144.5 260.5,144.5C 260.666,140.486 260.499,136.486 260,132.5C 258.924,129.921 257.091,128.254 254.5,127.5 Z"/></g>
<g><path style="opacity:1" fill="#49bee1" d="M 154.5,95.5 C 160.979,94.5093 167.646,94.176 174.5,94.5C 174.83,111.342 174.497,128.008 173.5,144.5C 173.5,128.167 173.5,111.833 173.5,95.5C 167.167,95.5 160.833,95.5 154.5,95.5 Z"/></g>
<g><path style="opacity:1" fill="#85d0e7" d="M 254.5,106.5 C 249.833,106.5 245.167,106.5 240.5,106.5C 240.5,109.5 240.5,112.5 240.5,115.5C 239.521,112.375 239.187,109.042 239.5,105.5C 244.695,105.179 249.695,105.513 254.5,106.5 Z"/></g>
<g><path style="opacity:1" fill="#fdfefe" d="M 254.5,106.5 C 259.68,107.404 260.68,109.904 257.5,114C 251.956,115.404 246.29,115.904 240.5,115.5C 240.5,112.5 240.5,109.5 240.5,106.5C 245.167,106.5 249.833,106.5 254.5,106.5 Z"/></g>
<g><path style="opacity:1" fill="#f0f9fc" d="M 77.5,107.5 C 80.5493,111.253 82.8826,115.586 84.5,120.5C 80.5,121.833 76.5,121.833 72.5,120.5C 74.7655,116.366 76.4322,112.033 77.5,107.5 Z"/></g>
<g><path style="opacity:1" fill="#f0f8fa" d="M 348.5,107.5 C 350.865,111.562 352.865,115.895 354.5,120.5C 350.5,121.833 346.5,121.833 342.5,120.5C 344.788,116.26 346.788,111.927 348.5,107.5 Z"/></g>
<g><path style="opacity:1" fill="#0197c6" d="M 279.5,94.5 C 283.5,94.5 287.5,94.5 291.5,94.5C 291.5,111.167 291.5,127.833 291.5,144.5C 287.5,144.5 283.5,144.5 279.5,144.5C 279.5,127.833 279.5,111.167 279.5,94.5 Z"/></g>
<g><path style="opacity:1" fill="#06a3d2" d="M 194.5,113.5 C 202.65,114.493 210.983,114.826 219.5,114.5C 219.5,117.833 219.5,121.167 219.5,124.5C 210.833,124.5 202.167,124.5 193.5,124.5C 193.19,127.713 193.523,130.713 194.5,133.5C 203.167,133.5 211.833,133.5 220.5,133.5C 220.5,137.167 220.5,140.833 220.5,144.5C 207.5,144.5 194.5,144.5 181.5,144.5C 181.5,127.833 181.5,111.167 181.5,94.5C 194.5,94.5 207.5,94.5 220.5,94.5C 220.5,98.5 220.5,102.5 220.5,106.5C 211.833,106.5 203.167,106.5 194.5,106.5C 194.5,108.833 194.5,111.167 194.5,113.5 Z"/></g>
<g><path style="opacity:1" fill="#5ec3e1" d="M 194.5,113.5 C 203.167,113.5 211.833,113.5 220.5,113.5C 220.5,117.5 220.5,121.5 220.5,125.5C 211.833,125.5 203.167,125.5 194.5,125.5C 194.5,128.167 194.5,130.833 194.5,133.5C 193.523,130.713 193.19,127.713 193.5,124.5C 202.167,124.5 210.833,124.5 219.5,124.5C 219.5,121.167 219.5,117.833 219.5,114.5C 210.983,114.826 202.65,114.493 194.5,113.5 Z"/></g>
<g><path style="opacity:1" fill="#89d0e7" d="M 254.5,127.5 C 249.833,127.5 245.167,127.5 240.5,127.5C 240.822,133.358 240.489,139.025 239.5,144.5C 239.5,138.5 239.5,132.5 239.5,126.5C 244.695,126.179 249.695,126.513 254.5,127.5 Z"/></g>
<g><path style="opacity:1" fill="#6abfd5" d="M 69.5,152.5 C 66.572,153.82 63.2386,154.486 59.5,154.5C 55.9825,154.498 52.6491,154.165 49.5,153.5C 56.2554,153.793 62.9221,153.46 69.5,152.5 Z"/></g>
<g><path style="opacity:1" fill="#a9dae7" d="M 131.5,169.5 C 131.5,192.167 131.5,214.833 131.5,237.5C 151.5,237.5 171.5,237.5 191.5,237.5C 171.34,238.497 151.007,238.83 130.5,238.5C 130.169,215.327 130.502,192.327 131.5,169.5 Z"/></g>
<g><path style="opacity:1" fill="#fafcfd" d="M 131.5,169.5 C 151.169,169.333 170.836,169.5 190.5,170C 194.044,173.375 197.377,176.875 200.5,180.5C 204.353,177.481 207.687,173.981 210.5,170C 227.5,169.333 244.5,169.333 261.5,170C 263.101,170.273 264.601,170.773 266,171.5C 273.432,170.184 281.098,169.518 289,169.5C 296.5,169.667 304,169.833 311.5,170C 313.556,170.311 315.556,170.811 317.5,171.5C 327.34,170.191 337.34,169.525 347.5,169.5C 357.562,169.513 367.395,170.18 377,171.5C 378.734,170.751 380.567,170.251 382.5,170C 388.833,169.833 395.167,169.667 401.5,169.5C 408.336,169.539 415.003,170.206 421.5,171.5C 422.795,170.902 424.128,170.402 425.5,170C 437.829,169.5 450.162,169.333 462.5,169.5C 462.667,189.169 462.5,208.836 462,228.5C 457.704,233.658 452.204,236.658 445.5,237.5C 432.653,238.121 419.986,237.454 407.5,235.5C 406.893,235.624 406.56,235.957 406.5,236.5C 404.139,236.674 401.806,237.007 399.5,237.5C 366.5,237.5 333.5,237.5 300.5,237.5C 300.822,231.642 300.489,225.975 299.5,220.5C 297.547,226.074 296.88,232.074 297.5,238.5C 287.167,238.5 276.833,238.5 266.5,238.5C 266.83,232.132 266.496,225.798 265.5,219.5C 261.928,220.681 258.262,221.348 254.5,221.5C 251.833,221.5 249.167,221.5 246.5,221.5C 246.5,226.833 246.5,232.167 246.5,237.5C 234.167,237.5 221.833,237.5 209.5,237.5C 206.854,234.188 203.854,231.188 200.5,228.5C 197.146,231.188 194.146,234.188 191.5,237.5C 171.5,237.5 151.5,237.5 131.5,237.5C 131.5,214.833 131.5,192.167 131.5,169.5 Z"/></g>
<g><path style="opacity:1" fill="#87bdcd" d="M 428.5,179.5 C 437.652,178.506 446.985,178.173 456.5,178.5C 456.817,182.702 456.483,186.702 455.5,190.5C 455.5,186.833 455.5,183.167 455.5,179.5C 446.5,179.5 437.5,179.5 428.5,179.5 Z"/></g>
<g><path style="opacity:1" fill="#069bca" d="M 186.5,179.5 C 191.139,184.474 195.805,189.474 200.5,194.5C 196.54,196.138 192.874,198.138 189.5,200.5C 186.036,197.538 182.703,194.371 179.5,191C 170.84,190.5 162.173,190.334 153.5,190.5C 152.527,192.948 152.194,195.615 152.5,198.5C 161.167,198.5 169.833,198.5 178.5,198.5C 178.5,202.167 178.5,205.833 178.5,209.5C 170.167,209.5 161.833,209.5 153.5,209.5C 153.5,212.167 153.5,214.833 153.5,217.5C 152.539,215.735 152.205,213.735 152.5,211.5C 148.524,212.295 144.524,212.962 140.5,213.5C 140.5,202.167 140.5,190.833 140.5,179.5C 155.833,179.5 171.167,179.5 186.5,179.5 Z"/></g>
<g><path style="opacity:1" fill="#0791bd" d="M 259.5,179.5 C 265.161,179.578 268.995,182.244 271,187.5C 272.081,194.054 271.414,200.388 269,206.5C 266.137,209.515 262.637,211.349 258.5,212C 251.508,212.5 244.508,212.666 237.5,212.5C 237.5,217.833 237.5,223.167 237.5,228.5C 229.316,228.826 221.316,228.492 213.5,227.5C 216.336,224.244 220.003,222.244 224.5,221.5C 225.491,215.021 225.824,208.354 225.5,201.5C 229.5,199.167 233.5,196.833 237.5,194.5C 237.5,196.167 237.5,197.833 237.5,199.5C 243.621,199.91 249.621,199.41 255.5,198C 258.194,193.783 256.86,191.283 251.5,190.5C 249.369,189.686 247.036,189.186 244.5,189C 247.833,186.333 251.167,183.667 254.5,181C 256.025,179.991 257.692,179.491 259.5,179.5 Z"/></g>
<g><path style="opacity:1" fill="#79c2da" d="M 312.5,179.5 C 300.5,179.5 288.5,179.5 276.5,179.5C 276.5,195.833 276.5,212.167 276.5,228.5C 275.503,212.008 275.17,195.342 275.5,178.5C 288.011,178.171 300.345,178.505 312.5,179.5 Z"/></g>
<g><path style="opacity:1" fill="#078ab4" d="M 312.5,179.5 C 321.126,182.411 324.293,188.411 322,197.5C 320.939,200.562 319.106,203.062 316.5,205C 318.123,207.08 319.623,209.246 321,211.5C 321.499,217.157 321.666,222.824 321.5,228.5C 317.5,228.5 313.5,228.5 309.5,228.5C 309.666,224.486 309.499,220.486 309,216.5C 307.773,214.274 305.939,212.774 303.5,212C 298.511,211.501 293.511,211.334 288.5,211.5C 288.5,217.167 288.5,222.833 288.5,228.5C 284.5,228.5 280.5,228.5 276.5,228.5C 276.5,212.167 276.5,195.833 276.5,179.5C 288.5,179.5 300.5,179.5 312.5,179.5 Z"/></g>
<g><path style="opacity:1" fill="#fbfdfe" d="M 223.5,188.5 C 224.494,198.987 224.828,209.654 224.5,220.5C 219.366,215.195 214.366,209.695 209.5,204C 214.004,198.664 218.671,193.497 223.5,188.5 Z"/></g>
<g><path style="opacity:1" fill="#fbfdfe" d="M 153.5,190.5 C 162.173,190.334 170.84,190.5 179.5,191C 182.703,194.371 186.036,197.538 189.5,200.5C 190.622,202.052 191.122,203.718 191,205.5C 187.131,209.034 183.631,212.867 180.5,217C 171.506,217.5 162.506,217.666 153.5,217.5C 153.5,214.833 153.5,212.167 153.5,209.5C 161.833,209.5 170.167,209.5 178.5,209.5C 178.5,205.833 178.5,202.167 178.5,198.5C 170.35,197.507 162.017,197.174 153.5,197.5C 153.5,195.167 153.5,192.833 153.5,190.5 Z"/></g>
<g><path style="opacity:1" fill="#fcfefe" d="M 251.5,190.5 C 256.86,191.283 258.194,193.783 255.5,198C 249.621,199.41 243.621,199.91 237.5,199.5C 237.5,197.833 237.5,196.167 237.5,194.5C 237.5,193.167 237.5,191.833 237.5,190.5C 242.167,190.5 246.833,190.5 251.5,190.5 Z"/></g>
<g><path style="opacity:1" fill="#fcfdfe" d="M 288.5,190.5 C 293.844,190.334 299.177,190.501 304.5,191C 309.325,193.135 309.659,195.801 305.5,199C 299.843,199.499 294.176,199.666 288.5,199.5C 288.5,196.5 288.5,193.5 288.5,190.5 Z"/></g>
<g><path style="opacity:1" fill="#0081a9" d="M 366.5,190.5 C 357.833,190.5 349.167,190.5 340.5,190.5C 340.5,193.167 340.5,195.833 340.5,198.5C 349.167,198.5 357.833,198.5 366.5,198.5C 366.5,202.167 366.5,205.833 366.5,209.5C 357.833,209.5 349.167,209.5 340.5,209.5C 340.5,212.167 340.5,214.833 340.5,217.5C 348.984,218.493 357.651,218.826 366.5,218.5C 366.5,221.833 366.5,225.167 366.5,228.5C 353.833,228.5 341.167,228.5 328.5,228.5C 328.5,212.167 328.5,195.833 328.5,179.5C 341.167,179.5 353.833,179.5 366.5,179.5C 366.5,183.167 366.5,186.833 366.5,190.5 Z"/></g>
<g><path style="opacity:1" fill="#a1d9eb" d="M 153.5,190.5 C 153.5,192.833 153.5,195.167 153.5,197.5C 162.017,197.174 170.35,197.507 178.5,198.5C 169.833,198.5 161.167,198.5 152.5,198.5C 152.194,195.615 152.527,192.948 153.5,190.5 Z"/></g>
<g><path style="opacity:1" fill="#7ec8df" d="M 223.5,188.5 C 223.56,187.957 223.893,187.624 224.5,187.5C 225.493,192.12 225.827,196.786 225.5,201.5C 225.824,208.354 225.491,215.021 224.5,221.5C 224.5,221.167 224.5,220.833 224.5,220.5C 224.828,209.654 224.494,198.987 223.5,188.5 Z"/></g>
<g><path style="opacity:1" fill="#087294" d="M 428.5,179.5 C 437.5,179.5 446.5,179.5 455.5,179.5C 455.5,183.167 455.5,186.833 455.5,190.5C 447.493,190.334 439.493,190.5 431.5,191C 428.674,193.522 429.007,195.522 432.5,197C 438.231,197.21 443.897,197.876 449.5,199C 455.468,201.266 458.468,205.599 458.5,212C 458.304,220.195 454.304,225.528 446.5,228C 436.839,228.5 427.172,228.666 417.5,228.5C 417.5,224.833 417.5,221.167 417.5,217.5C 425.174,217.666 432.841,217.5 440.5,217C 445.669,214.533 445.669,212.2 440.5,210C 431.617,211.266 424.117,208.766 418,202.5C 414.774,194.182 416.274,187.015 422.5,181C 424.345,179.872 426.345,179.372 428.5,179.5 Z"/></g>
<g><path style="opacity:1" fill="#1297c4" d="M 259.5,179.5 C 257.692,179.491 256.025,179.991 254.5,181C 251.167,183.667 247.833,186.333 244.5,189C 247.036,189.186 249.369,189.686 251.5,190.5C 246.833,190.5 242.167,190.5 237.5,190.5C 237.5,191.833 237.5,193.167 237.5,194.5C 233.5,196.833 229.5,199.167 225.5,201.5C 225.827,196.786 225.493,192.12 224.5,187.5C 223.893,187.624 223.56,187.957 223.5,188.5C 218.671,193.497 214.004,198.664 209.5,204C 214.366,209.695 219.366,215.195 224.5,220.5C 224.5,220.833 224.5,221.167 224.5,221.5C 220.003,222.244 216.336,224.244 213.5,227.5C 209.401,223.006 205.068,218.673 200.5,214.5C 196.376,219.125 192.043,223.625 187.5,228C 171.837,228.5 156.17,228.667 140.5,228.5C 140.5,223.5 140.5,218.5 140.5,213.5C 144.524,212.962 148.524,212.295 152.5,211.5C 152.205,213.735 152.539,215.735 153.5,217.5C 162.506,217.666 171.506,217.5 180.5,217C 183.631,212.867 187.131,209.034 191,205.5C 191.122,203.718 190.622,202.052 189.5,200.5C 192.874,198.138 196.54,196.138 200.5,194.5C 205.269,189.229 210.269,184.062 215.5,179C 230.339,178.172 245.006,178.339 259.5,179.5 Z"/></g>
<g><path style="opacity:1" fill="#0f7b9f" d="M 373.5,228.5 C 373.5,224.833 373.5,221.167 373.5,217.5C 381.352,217.825 389.018,217.492 396.5,216.5C 399.513,215.644 400.18,213.811 398.5,211C 393.584,209.839 388.584,209.173 383.5,209C 375.193,207.19 371.193,202.024 371.5,193.5C 371.844,185.646 375.844,180.813 383.5,179C 392.827,178.5 402.161,178.334 411.5,178.5C 411.5,182.5 411.5,186.5 411.5,190.5C 403.16,190.334 394.827,190.5 386.5,191C 385.065,193.267 385.398,195.267 387.5,197C 396.017,196.32 403.85,198.154 411,202.5C 414.415,209.621 414.082,216.621 410,223.5C 407.749,225.377 405.249,226.877 402.5,228C 392.839,228.5 383.172,228.666 373.5,228.5 Z"/></g>
<g><path style="opacity:1" fill="#5bafc9" d="M 366.5,190.5 C 366.5,186.833 366.5,183.167 366.5,179.5C 353.833,179.5 341.167,179.5 328.5,179.5C 328.5,195.833 328.5,212.167 328.5,228.5C 327.503,212.008 327.17,195.342 327.5,178.5C 340.833,178.5 354.167,178.5 367.5,178.5C 367.817,182.702 367.483,186.702 366.5,190.5 Z"/></g>
<g><path style="opacity:1" fill="#8dc3d3" d="M 396.5,216.5 C 389.018,217.492 381.352,217.825 373.5,217.5C 373.5,221.167 373.5,224.833 373.5,228.5C 372.517,224.702 372.183,220.702 372.5,216.5C 380.5,216.5 388.5,216.5 396.5,216.5 Z"/></g>
<g><path style="opacity:1" fill="#60aec6" d="M 340.5,217.5 C 349.5,217.5 358.5,217.5 367.5,217.5C 367.815,221.371 367.482,225.038 366.5,228.5C 366.5,225.167 366.5,221.833 366.5,218.5C 357.651,218.826 348.984,218.493 340.5,217.5 Z"/></g>
<g><path style="opacity:1" fill="#9bd7ea" d="M 186.5,179.5 C 171.167,179.5 155.833,179.5 140.5,179.5C 140.5,190.833 140.5,202.167 140.5,213.5C 140.5,218.5 140.5,223.5 140.5,228.5C 139.503,212.008 139.17,195.342 139.5,178.5C 155.342,178.17 171.009,178.504 186.5,179.5 Z"/></g>
<g><path style="opacity:1" fill="#81c9dc" d="M 254.5,221.5 C 252.393,222.468 250.059,222.802 247.5,222.5C 247.5,227.833 247.5,233.167 247.5,238.5C 234.656,238.829 221.989,238.495 209.5,237.5C 221.833,237.5 234.167,237.5 246.5,237.5C 246.5,232.167 246.5,226.833 246.5,221.5C 249.167,221.5 251.833,221.5 254.5,221.5 Z"/></g>
<g><path style="opacity:1" fill="#8ecfdf" d="M 299.5,220.5 C 300.489,225.975 300.822,231.642 300.5,237.5C 333.5,237.5 366.5,237.5 399.5,237.5C 366.338,238.498 333.004,238.832 299.5,238.5C 299.5,232.5 299.5,226.5 299.5,220.5 Z"/></g>
<g><path style="opacity:1" fill="#8dcedf" d="M 406.5,236.5 C 406.56,235.957 406.893,235.624 407.5,235.5C 419.986,237.454 432.653,238.121 445.5,237.5C 439.342,238.166 433.009,238.5 426.5,238.5C 419.595,238.461 412.929,237.794 406.5,236.5 Z"/></g>
</svg>
