<?xml version="1.0" encoding="UTF-8"?>
<!DOCTYPE svg PUBLIC "-//W3C//DTD SVG 1.1//EN" "http://www.w3.org/Graphics/SVG/1.1/DTD/svg11.dtd">
<svg xmlns="http://www.w3.org/2000/svg" version="1.1" width="512px" height="322px" style="shape-rendering:geometricPrecision; text-rendering:geometricPrecision; image-rendering:optimizeQuality; fill-rule:evenodd; clip-rule:evenodd" xmlns:xlink="http://www.w3.org/1999/xlink">
<g><path style="opacity:0.999" fill="#0079be" d="M 19.5,-0.5 C 176.833,-0.5 334.167,-0.5 491.5,-0.5C 501.167,3.16667 507.833,9.83333 511.5,19.5C 511.5,113.5 511.5,207.5 511.5,301.5C 507.833,311.167 501.167,317.833 491.5,321.5C 334.167,321.5 176.833,321.5 19.5,321.5C 9.83333,317.833 3.16667,311.167 -0.5,301.5C -0.5,207.5 -0.5,113.5 -0.5,19.5C 3.16667,9.83333 9.83333,3.16667 19.5,-0.5 Z"/></g>
<g><path style="opacity:1" fill="#fcfdfe" d="M 211.5,47.5 C 239.169,47.3334 266.835,47.5 294.5,48C 346.823,55.8864 380.656,85.0531 396,135.5C 404.652,199.037 379.486,243.203 320.5,268C 297.852,274.845 274.685,277.345 251,275.5C 208.504,280.643 172.171,268.309 142,238.5C 111.576,201.626 104.576,160.626 121,115.5C 139.3,76.9435 169.467,54.2769 211.5,47.5 Z"/></g>
<g><path style="opacity:1" fill="#0479be" d="M 216.5,56.5 C 269.814,55.3806 306.314,79.3806 326,128.5C 338.038,171.855 327.872,209.022 295.5,240C 262.167,266.666 225.501,272.332 185.5,257C 140.15,233.818 119.65,196.651 124,145.5C 131.509,105.664 154.009,78.1645 191.5,63C 199.762,60.0192 208.095,57.8525 216.5,56.5 Z"/></g>
<g><path style="opacity:1" fill="#badaed" d="M 252.5,100.5 C 251.167,140.833 251.167,181.167 252.5,221.5C 252.44,222.043 252.107,222.376 251.5,222.5C 250.167,181.5 250.167,140.5 251.5,99.5C 252.107,99.6236 252.44,99.9569 252.5,100.5 Z"/></g>
<g><path style="opacity:1" fill="#fdfefe" d="M 201.5,99.5 C 202.833,119.656 203.5,140.156 203.5,161C 203.333,181.5 203.167,202 203,222.5C 169.386,205.601 156.386,178.601 164,141.5C 170.763,122.259 183.263,108.259 201.5,99.5 Z"/></g>
<g><path style="opacity:1" fill="#fdfefe" d="M 252.5,100.5 C 270.974,108.143 283.474,121.477 290,140.5C 298.061,173.337 288.228,199.17 260.5,218C 257.929,219.454 255.262,220.62 252.5,221.5C 251.167,181.167 251.167,140.833 252.5,100.5 Z"/></g>
</svg>
