<?xml version="1.0" encoding="UTF-8"?>
<!DOCTYPE svg PUBLIC "-//W3C//DTD SVG 1.1//EN" "http://www.w3.org/Graphics/SVG/1.1/DTD/svg11.dtd">
<svg xmlns="http://www.w3.org/2000/svg" version="1.1" width="421px" height="263px" style="shape-rendering:geometricPrecision; text-rendering:geometricPrecision; image-rendering:optimizeQuality; fill-rule:evenodd; clip-rule:evenodd" xmlns:xlink="http://www.w3.org/1999/xlink">
<g><path style="opacity:0.263" fill="#bbbbbb" d="M 13.5,-0.5 C 144.167,-0.5 274.833,-0.5 405.5,-0.5C 410.527,0.845654 414.194,3.84565 416.5,8.5C 413.337,4.74718 409.337,2.24718 404.5,1C 274.5,0.333333 144.5,0.333333 14.5,1C 12.2827,2.27543 9.94938,3.27543 7.5,4C 5.96252,5.70733 4.29585,7.20733 2.5,8.5C 4.80635,3.84565 8.47302,0.845654 13.5,-0.5 Z"/></g>
<g><path style="opacity:1" fill="#010000" d="M 416.5,8.5 C 416.992,10.8185 417.992,12.8185 419.5,14.5C 419.667,92.1674 419.5,169.834 419,247.5C 418.153,249.854 417.32,252.188 416.5,254.5C 413.117,258.185 409.117,260.851 404.5,262.5C 274.5,262.5 144.5,262.5 14.5,262.5C 12.8984,260.926 10.8984,260.259 8.5,260.5C 6.83333,258.167 4.83333,256.167 2.5,254.5C 1.73623,251.982 0.73623,249.649 -0.5,247.5C -0.5,169.833 -0.5,92.1667 -0.5,14.5C 1.00751,12.8185 2.00751,10.8185 2.5,8.5C 4.29585,7.20733 5.96252,5.70733 7.5,4C 9.94938,3.27543 12.2827,2.27543 14.5,1C 144.5,0.333333 274.5,0.333333 404.5,1C 409.337,2.24718 413.337,4.74718 416.5,8.5 Z"/></g>
<g><path style="opacity:0.212" fill="#c2c2c2" d="M 2.5,8.5 C 2.00751,10.8185 1.00751,12.8185 -0.5,14.5C -0.5,13.5 -0.5,12.5 -0.5,11.5C 0.271873,10.3065 1.27187,9.30646 2.5,8.5 Z"/></g>
<g><path style="opacity:0.204" fill="#c4c4c4" d="M 416.5,8.5 C 418.539,9.91104 419.539,11.911 419.5,14.5C 417.992,12.8185 416.992,10.8185 416.5,8.5 Z"/></g>
<g><path style="opacity:0.11" fill="#e2e2e2" d="M 419.5,14.5 C 419.833,14.5 420.167,14.5 420.5,14.5C 420.5,92.5 420.5,170.5 420.5,248.5C 419.675,250.81 418.342,252.81 416.5,254.5C 417.32,252.188 418.153,249.854 419,247.5C 419.5,169.834 419.667,92.1674 419.5,14.5 Z"/></g>
<g><path style="opacity:1" fill="#a10013" d="M 180.5,40.5 C 170.171,39.2446 159.838,39.2446 149.5,40.5C 154.413,38.9925 159.579,38.3258 165,38.5C 170.421,38.3258 175.587,38.9925 180.5,40.5 Z"/></g>
<g><path style="opacity:1" fill="#e9001a" d="M 180.5,40.5 C 191.462,42.6483 201.462,46.9816 210.5,53.5C 210.5,53.8333 210.5,54.1667 210.5,54.5C 182.246,79.923 175.746,110.256 191,145.5C 196.624,154.611 203.124,162.944 210.5,170.5C 192.902,183.166 173.235,187.833 151.5,184.5C 149.485,183.076 147.152,182.41 144.5,182.5C 117.147,173.31 99.9804,154.643 93,126.5C 88.3671,87.2517 103.867,59.4183 139.5,43C 142.777,41.8566 146.11,41.0233 149.5,40.5C 159.838,39.2446 170.171,39.2446 180.5,40.5 Z"/></g>
<g><path style="opacity:1" fill="#f59d1a" d="M 242.5,184.5 C 239.495,182.723 236.162,181.723 232.5,181.5C 224.77,179.136 217.77,175.469 211.5,170.5C 236.802,146.722 244.302,118.056 234,84.5C 228.912,72.2569 221.078,62.2569 210.5,54.5C 210.5,54.1667 210.5,53.8333 210.5,53.5C 237.487,35.2286 265.487,33.7286 294.5,49C 326.687,71.5287 336.854,101.695 325,139.5C 308.297,173.991 280.797,188.991 242.5,184.5 Z"/></g>
<g><path style="opacity:1" fill="#fe5f00" d="M 210.5,54.5 C 221.078,62.2569 228.912,72.2569 234,84.5C 244.302,118.056 236.802,146.722 211.5,170.5C 211.167,170.5 210.833,170.5 210.5,170.5C 203.124,162.944 196.624,154.611 191,145.5C 175.746,110.256 182.246,79.923 210.5,54.5 Z"/></g>
<g><path style="opacity:1" fill="#71480d" d="M 322.5,154.5 C 324.201,154.966 325.701,154.966 327,154.5C 327.483,155.448 327.649,156.448 327.5,157.5C 324.966,157.741 323.3,156.741 322.5,154.5 Z"/></g>
<g><path style="opacity:1" fill="#9e6511" d="M 232.5,181.5 C 236.162,181.723 239.495,182.723 242.5,184.5C 238.838,184.277 235.505,183.277 232.5,181.5 Z"/></g>
<g><path style="opacity:1" fill="#810010" d="M 144.5,182.5 C 147.152,182.41 149.485,183.076 151.5,184.5C 148.848,184.59 146.515,183.924 144.5,182.5 Z"/></g>
<g><path style="opacity:1" fill="#e7e7e7" d="M 314.5,195.5 C 315.833,195.5 317.167,195.5 318.5,195.5C 318.5,204.5 318.5,213.5 318.5,222.5C 316.549,222.773 315.049,222.107 314,220.5C 307.139,224.286 302.139,222.62 299,215.5C 298.313,204.342 303.146,200.675 313.5,204.5C 314.484,201.572 314.817,198.572 314.5,195.5 Z"/></g>
<g><path style="opacity:1" fill="#e3e3e3" d="M 187.5,197.5 C 188.833,197.5 190.167,197.5 191.5,197.5C 191.5,199.167 191.5,200.833 191.5,202.5C 193.833,202.5 196.167,202.5 198.5,202.5C 198.5,203.833 198.5,205.167 198.5,206.5C 196.167,206.5 193.833,206.5 191.5,206.5C 191.335,210.182 191.501,213.848 192,217.5C 194.069,218.264 196.236,218.764 198.5,219C 198.957,219.414 199.291,219.914 199.5,220.5C 196.359,224.024 192.859,224.358 189,221.5C 187.675,216.599 187.175,211.599 187.5,206.5C 186.167,206.5 184.833,206.5 183.5,206.5C 183.5,205.167 183.5,203.833 183.5,202.5C 184.833,202.5 186.167,202.5 187.5,202.5C 187.5,200.833 187.5,199.167 187.5,197.5 Z"/></g>
<g><path style="opacity:1" fill="#737373" d="M 104.5,203.5 C 106.05,202.28 107.716,202.28 109.5,203.5C 108.065,204.096 106.398,204.096 104.5,203.5 Z"/></g>
<g><path style="opacity:1" fill="#e2e2e2" d="M 104.5,203.5 C 106.398,204.096 108.065,204.096 109.5,203.5C 113.625,201.755 117.292,202.422 120.5,205.5C 124.085,202.155 128.085,201.655 132.5,204C 133.701,204.903 134.535,206.069 135,207.5C 135.499,212.489 135.666,217.489 135.5,222.5C 133.833,222.5 132.167,222.5 130.5,222.5C 130.666,217.821 130.499,213.155 130,208.5C 127.333,205.833 124.667,205.833 122,208.5C 121.501,213.155 121.334,217.821 121.5,222.5C 120.167,222.5 118.833,222.5 117.5,222.5C 117.666,217.821 117.499,213.155 117,208.5C 114.333,205.833 111.667,205.833 109,208.5C 108.501,213.155 108.334,217.821 108.5,222.5C 107.167,222.5 105.833,222.5 104.5,222.5C 104.5,216.167 104.5,209.833 104.5,203.5 Z"/></g>
<g><path style="opacity:1" fill="#e9e9e9" d="M 153.5,203.5 C 154.935,204.096 156.602,204.096 158.5,203.5C 158.5,209.5 158.5,215.5 158.5,221.5C 156.602,220.904 154.935,220.904 153.5,221.5C 142.579,223.41 138.079,218.743 140,207.5C 143.43,202.591 147.93,201.257 153.5,203.5 Z"/></g>
<g><path style="opacity:1" fill="#707070" d="M 153.5,221.5 C 154.935,220.904 156.602,220.904 158.5,221.5C 158.5,215.5 158.5,209.5 158.5,203.5C 156.602,204.096 154.935,204.096 153.5,203.5C 155.379,202.659 157.379,202.325 159.5,202.5C 159.5,209.167 159.5,215.833 159.5,222.5C 157.379,222.675 155.379,222.341 153.5,221.5 Z"/></g>
<g><path style="opacity:1" fill="#e6e6e6" d="M 168.5,202.5 C 172.215,202.196 175.715,202.863 179,204.5C 179.617,205.449 179.451,206.282 178.5,207C 175.54,206.68 172.54,206.68 169.5,207C 168.075,208.714 168.408,210.047 170.5,211C 177.299,210.142 180.466,212.975 180,219.5C 174.808,224.418 169.308,224.752 163.5,220.5C 163.887,219.28 164.72,218.613 166,218.5C 169.105,219.367 172.272,219.701 175.5,219.5C 175.5,218.167 175.5,216.833 175.5,215.5C 167.759,216.256 164.259,212.922 165,205.5C 166.145,204.364 167.312,203.364 168.5,202.5 Z"/></g>
<g><path style="opacity:1" fill="#e5e5e5" d="M 208.5,202.5 C 216.955,202.204 221.288,206.204 221.5,214.5C 216.456,214.173 211.456,214.506 206.5,215.5C 207.313,216.814 208.313,217.981 209.5,219C 212.758,219.616 215.758,219.283 218.5,218C 219.925,219.714 219.592,221.047 217.5,222C 205.981,224.817 201.148,220.317 203,208.5C 204.36,205.977 206.193,203.977 208.5,202.5 Z"/></g>
<g><path style="opacity:1" fill="#f2f2f2" d="M 230.5,209.5 C 229.515,213.634 229.182,217.968 229.5,222.5C 228.5,222.5 227.5,222.5 226.5,222.5C 226.5,216.167 226.5,209.833 226.5,203.5C 227.93,203.421 229.264,203.754 230.5,204.5C 232.51,202.829 234.843,202.162 237.5,202.5C 237.5,203.833 237.5,205.167 237.5,206.5C 235.473,206.338 233.473,206.505 231.5,207C 230.748,207.671 230.414,208.504 230.5,209.5 Z"/></g>
<g><path style="opacity:1" fill="#dddddd" d="M 245.5,202.5 C 249.544,201.958 253.211,202.791 256.5,205C 255.91,206.299 254.91,207.132 253.5,207.5C 244.77,205.733 241.937,209.066 245,217.5C 245.956,218.894 247.289,219.561 249,219.5C 251.137,218.923 253.304,218.59 255.5,218.5C 255.208,222.004 253.208,223.671 249.5,223.5C 241.261,221.754 238.094,216.754 240,208.5C 241.36,205.977 243.193,203.977 245.5,202.5 Z"/></g>
<g><path style="opacity:1" fill="#ededed" d="M 275.5,203.5 C 276.5,203.5 277.5,203.5 278.5,203.5C 278.5,209.5 278.5,215.5 278.5,221.5C 277.5,221.5 276.5,221.5 275.5,221.5C 274.503,220.287 273.503,220.454 272.5,222C 261.189,222.668 257.356,217.501 261,206.5C 264.916,202.031 269.416,201.364 274.5,204.5C 275.107,204.376 275.44,204.043 275.5,203.5 Z"/></g>
<g><path style="opacity:1" fill="#f2f2f2" d="M 289.5,209.5 C 288.515,213.634 288.182,217.968 288.5,222.5C 287.5,222.5 286.5,222.5 285.5,222.5C 285.5,216.167 285.5,209.833 285.5,203.5C 286.93,203.421 288.264,203.754 289.5,204.5C 291.51,202.829 293.843,202.162 296.5,202.5C 296.5,203.833 296.5,205.167 296.5,206.5C 293.364,205.979 291.03,206.979 289.5,209.5 Z"/></g>
<g><path style="opacity:1" fill="#858585" d="M 226.5,203.5 C 226.5,209.833 226.5,216.167 226.5,222.5C 227.5,222.5 228.5,222.5 229.5,222.5C 229.182,217.968 229.515,213.634 230.5,209.5C 230.5,214.167 230.5,218.833 230.5,223.5C 228.833,223.5 227.167,223.5 225.5,223.5C 225.176,216.646 225.509,209.979 226.5,203.5 Z"/></g>
<g><path style="opacity:1" fill="#8f8f8f" d="M 275.5,203.5 C 276.568,202.566 277.901,202.232 279.5,202.5C 279.5,209.167 279.5,215.833 279.5,222.5C 277.901,222.768 276.568,222.434 275.5,221.5C 276.5,221.5 277.5,221.5 278.5,221.5C 278.5,215.5 278.5,209.5 278.5,203.5C 277.5,203.5 276.5,203.5 275.5,203.5 Z"/></g>
<g><path style="opacity:1" fill="#7e7e7e" d="M 285.5,203.5 C 285.5,209.833 285.5,216.167 285.5,222.5C 286.5,222.5 287.5,222.5 288.5,222.5C 288.182,217.968 288.515,213.634 289.5,209.5C 289.5,214.167 289.5,218.833 289.5,223.5C 287.833,223.5 286.167,223.5 284.5,223.5C 284.176,216.646 284.509,209.979 285.5,203.5 Z"/></g>
<g><path style="opacity:1" fill="#0d0d0d" d="M 145.5,206.5 C 152.825,205.992 155.658,209.326 154,216.5C 150.667,220.5 147.333,220.5 144,216.5C 143.037,212.851 143.537,209.518 145.5,206.5 Z"/></g>
<g><path style="opacity:1" fill="#131313" d="M 216.5,210.5 C 212.988,211.055 209.988,210.388 207.5,208.5C 207.611,207.883 207.944,207.383 208.5,207C 212.506,205.579 215.172,206.746 216.5,210.5 Z"/></g>
<g><path style="opacity:1" fill="#121212" d="M 266.5,206.5 C 275.244,206.413 277.577,210.246 273.5,218C 267.461,221.132 264.128,219.298 263.5,212.5C 263.628,210.045 264.628,208.045 266.5,206.5 Z"/></g>
<g><path style="opacity:1" fill="#131313" d="M 305.5,206.5 C 312.825,205.992 315.658,209.326 314,216.5C 309.974,220.631 306.307,220.298 303,215.5C 301.927,211.9 302.76,208.9 305.5,206.5 Z"/></g>
<g><path style="opacity:1" fill="#5c5c5c" d="M 207.5,208.5 C 209.988,210.388 212.988,211.055 216.5,210.5C 213.375,211.479 210.042,211.813 206.5,211.5C 206.263,210.209 206.596,209.209 207.5,208.5 Z"/></g>
<g><path style="opacity:1" fill="#5a5a5a" d="M 324.5,219.5 C 325.5,219.5 326.5,219.5 327.5,219.5C 327.426,223.541 326.093,224.208 323.5,221.5C 323.863,220.817 324.196,220.15 324.5,219.5 Z"/></g>
<g><path style="opacity:0.208" fill="#c6c6c6" d="M -0.5,247.5 C 0.73623,249.649 1.73623,251.982 2.5,254.5C 1.27187,253.694 0.271873,252.694 -0.5,251.5C -0.5,250.167 -0.5,248.833 -0.5,247.5 Z"/></g>
<g><path style="opacity:0.016" fill="#d3d3d3" d="M 2.5,254.5 C 4.83333,256.167 6.83333,258.167 8.5,260.5C 5.5,259.5 3.5,257.5 2.5,254.5 Z"/></g>
<g><path style="opacity:0.016" fill="#cfcfcf" d="M 416.5,254.5 C 414.827,258.173 412.16,260.84 408.5,262.5C 407.167,262.5 405.833,262.5 404.5,262.5C 409.117,260.851 413.117,258.185 416.5,254.5 Z"/></g>
<g><path style="opacity:0.576" fill="#8a8a8a" d="M 8.5,260.5 C 10.8984,260.259 12.8984,260.926 14.5,262.5C 13.1667,262.5 11.8333,262.5 10.5,262.5C 9.83333,261.833 9.16667,261.167 8.5,260.5 Z"/></g>
</svg>
