<?xml version="1.0" encoding="UTF-8"?>
<!-- Generator: visioncortex VTracer 0.6.4 -->
<svg version="1.1" xmlns="http://www.w3.org/2000/svg" width="2000" height="1997">
<path d="M0 0 C4.656023 0.004617 9.311784 -0.00225 13.967773 -0.020508 C43.348981 -0.134493 72.445026 0.495658 101.700928 3.315674 C102.93594 3.433895 104.170953 3.552116 105.44339 3.67392 C112.501069 4.369848 119.53952 5.182014 126.575928 6.065674 C128.115068 6.25509 128.115068 6.25509 129.685303 6.448334 C165.740462 10.899236 201.302538 17.152224 236.700928 25.315674 C237.42244 25.481761 238.143953 25.647849 238.887329 25.81897 C316.772013 43.822396 392.514971 72.090813 589.700928 185.315674 C590.474688 185.863687 591.248447 186.411699 592.045654 186.976318 C608.508753 198.664907 624.348969 211.094816 639.961182 223.891846 C641.520411 225.167937 643.084939 226.437548 644.650146 227.706299 C655.02737 236.129272 665.175354 244.810604 675.005615 253.866455 C677.109267 255.778034 679.232817 257.651582 681.379639 259.513672 C685.511373 263.126234 689.542785 266.833183 693.536865 270.596924 C694.263846 271.281859 694.990827 271.966794 695.739838 272.672485 C703.620834 280.134632 711.316168 287.779661 718.979736 295.464111 C721.355694 297.845509 723.737061 300.221406 726.118896 302.596924 C727.659582 304.138269 729.199959 305.679925 730.73999 307.221924 C731.437987 307.917897 732.135984 308.61387 732.855133 309.330933 C736.772422 313.26678 740.517427 317.299943 744.135986 321.512619 C746.697509 324.46389 749.394735 327.286077 752.075928 330.128174 C756.802891 335.174783 761.276019 340.349015 765.599365 345.749268 C767.680942 348.291267 769.851312 350.710967 772.075928 353.128174 C776.139656 357.587673 779.859768 362.250911 783.552979 367.015625 C786.438243 370.731889 789.39951 374.357915 792.450928 377.940674 C798.899186 385.623488 804.829366 393.693674 810.797119 401.751709 C812.592614 404.169802 814.400579 406.577957 816.212646 408.983643 C824.906421 420.579051 832.976276 432.542256 840.939697 444.648193 C842.439765 446.920128 843.952278 449.182213 845.478271 451.436768 C862.402094 476.443659 877.486464 502.691758 891.700928 529.315674 C892.16644 530.183535 892.631953 531.051396 893.111572 531.945557 C936.607994 613.257727 967.845478 700.354778 1003.888428 897.815674 C1003.967332 898.538687 1004.046237 899.2617 1004.127533 900.006622 C1004.619466 904.558227 1005.061151 909.112487 1005.464935 913.67276 C1005.626565 915.482874 1005.794714 917.292414 1005.968414 919.10141 C1008.215919 943.03139 1008.04205 967.008917 1008.016602 991.021484 C1008.011984 995.739681 1008.018852 1000.457618 1008.037109 1005.175781 C1008.148946 1034.369198 1007.528158 1063.250591 1004.700928 1092.315674 C1004.540364 1094.012146 1004.540364 1094.012146 1004.376556 1095.742889 C1003.795536 1101.798834 1003.126854 1107.839568 1002.388428 1113.878174 C1002.284547 1114.746811 1002.180667 1115.615447 1002.073639 1116.510406 C996.61505 1162.049661 988.208836 1206.916068 976.700928 1251.315674 C976.420194 1252.40184 976.420194 1252.40184 976.133789 1253.509949 C962.661222 1305.476189 944.902073 1356.430201 922.700928 1405.315674 C922.426116 1405.921614 922.151304 1406.527554 921.868164 1407.151855 C909.709617 1433.931574 896.867157 1460.333473 882.138428 1485.803467 C880.401195 1488.839493 878.727635 1491.907101 877.058594 1494.980957 C860.534548 1525.302046 841.015123 1554.406281 820.700928 1582.315674 C820.166289 1583.053179 819.63165 1583.790684 819.080811 1584.550537 C803.274553 1606.316752 786.517296 1627.255184 769.061768 1647.716553 C767.651145 1649.374174 766.24805 1651.037972 764.845459 1652.702393 C758.018974 1660.772739 750.913905 1668.536457 743.654785 1676.218262 C742.248093 1677.728307 740.856816 1679.252763 739.475586 1680.786133 C731.437854 1689.69214 722.99513 1698.173668 714.502441 1706.644531 C712.004288 1709.137294 709.511566 1711.635399 707.019287 1714.134033 C705.409582 1715.743078 703.799567 1717.351813 702.189209 1718.960205 C701.088911 1720.063539 701.088911 1720.063539 699.966385 1721.189163 C695.935219 1725.202297 691.816609 1729.052099 687.500412 1732.757736 C684.49201 1735.362317 681.603326 1738.094291 678.700928 1740.815674 C673.775883 1745.407181 668.826942 1749.948003 663.700928 1754.315674 C662.785693 1755.098135 661.870459 1755.880596 660.92749 1756.686768 C657.532543 1759.579694 654.120078 1762.451413 650.700928 1765.315674 C650.049146 1765.861753 649.397363 1766.407832 648.72583 1766.970459 C638.886464 1775.193039 628.861302 1783.117857 618.63208 1790.848877 C616.871391 1792.186199 615.121225 1793.535482 613.376709 1794.893799 C599.212604 1805.912299 584.562565 1816.263514 569.700928 1826.315674 C568.719468 1826.982603 567.738008 1827.649531 566.726807 1828.33667 C552.427228 1838.039113 538.004542 1847.306092 523.031982 1855.950928 C518.612752 1858.538223 514.289463 1861.278449 509.966553 1864.022705 C507.700928 1865.315674 507.700928 1865.315674 505.700928 1865.315674 C505.370928 1865.975674 505.040928 1866.635674 504.700928 1867.315674 C502.53758 1868.579257 500.379635 1869.75349 498.154053 1870.897705 C496.774352 1871.619599 495.3948 1872.341777 494.015381 1873.064209 C493.300354 1873.436446 492.585327 1873.808683 491.848633 1874.1922 C489.134593 1875.611926 486.435598 1877.058638 483.737503 1878.508377 C469.408371 1886.207056 455.032475 1893.793354 440.388428 1900.878174 C439.275 1901.419822 438.161572 1901.96147 437.014404 1902.519531 C435.986699 1903.010422 434.958994 1903.501313 433.900146 1904.00708 C433.01158 1904.431907 432.123013 1904.856733 431.20752 1905.294434 C428.700928 1906.315674 428.700928 1906.315674 425.938477 1906.834961 C425.200085 1906.993596 424.461694 1907.152231 423.700928 1907.315674 C423.370928 1907.975674 423.040928 1908.635674 422.700928 1909.315674 C420.844482 1910.270264 420.844482 1910.270264 418.372803 1911.276611 C417.443228 1911.659382 416.513652 1912.042153 415.555908 1912.436523 C414.531265 1912.850393 413.506621 1913.264263 412.450928 1913.690674 C410.239888 1914.595372 408.028955 1915.500331 405.818115 1916.405518 C404.651191 1916.881021 403.484268 1917.356523 402.281982 1917.846436 C398.748588 1919.29612 395.227352 1920.771913 391.70874 1922.25708 C368.383162 1932.078884 344.699241 1940.728182 320.700928 1948.753174 C319.574836 1949.130466 319.574836 1949.130466 318.425995 1949.515381 C308.911326 1952.695005 299.368168 1955.629746 289.700928 1958.315674 C288.522725 1958.652683 287.344521 1958.989692 286.130615 1959.336914 C283.241956 1960.161276 280.349922 1960.966177 277.450928 1961.753174 C276.51249 1962.008408 275.574053 1962.263643 274.607178 1962.526611 C272.669678 1963.052653 270.732178 1963.578695 268.794678 1964.104736 C264.904983 1965.162648 261.018829 1966.223797 257.14624 1967.343018 C240.10892 1972.152873 222.737462 1975.603048 205.388428 1979.065674 C204.407028 1979.261944 203.425629 1979.458214 202.41449 1979.660431 C192.201845 1981.698119 181.995554 1983.730204 171.700928 1985.315674 C170.42826 1985.512417 170.42826 1985.512417 169.129883 1985.713135 C166.675313 1986.087137 164.219718 1986.453157 161.763428 1986.815674 C156.215795 1987.637258 150.674141 1988.479151 145.138428 1989.378174 C138.180516 1990.459715 131.185617 1991.14871 124.181396 1991.85083 C121.347749 1992.137042 118.52205 1992.454325 115.697021 1992.815674 C107.388029 1993.874934 99.043445 1994.579502 90.700928 1995.315674 C89.7298 1995.404211 88.758673 1995.492749 87.758118 1995.583969 C63.881213 1997.69251 40.001075 1997.657507 16.048828 1997.631348 C11.468649 1997.626741 6.888738 1997.633561 2.308594 1997.651855 C-38.637651 1997.813764 -79.662924 1996.883425 -120.174072 1990.378174 C-122.430508 1990.02223 -124.687019 1989.666765 -126.943604 1989.311768 C-128.0298 1989.140161 -129.115996 1988.968555 -130.235107 1988.791748 C-132.904077 1988.377048 -135.574242 1987.981102 -138.248291 1987.60083 C-194.7624 1979.552916 -250.276937 1965.442727 -304.361572 1947.315674 C-305.935092 1946.789489 -307.50866 1946.263447 -309.082275 1945.737549 C-312.115632 1944.723601 -315.148753 1943.708954 -318.181641 1942.693604 C-322.671109 1941.190811 -327.161637 1939.691227 -331.653809 1938.196533 C-333.363993 1937.627051 -335.073514 1937.055572 -336.782227 1936.481689 C-360.228997 1928.638404 -384.07149 1922.231456 -408.562744 1918.712646 C-411.223908 1918.326578 -413.878364 1917.909316 -416.533447 1917.483643 C-421.777031 1916.659302 -427.029578 1915.952688 -432.299072 1915.315674 C-433.603523 1915.156877 -433.603523 1915.156877 -434.934326 1914.994873 C-470.97138 1910.877658 -508.320282 1912.168531 -544.299072 1916.315674 C-545.56896 1916.46021 -546.838848 1916.604746 -548.147217 1916.753662 C-566.738708 1918.939899 -585.002805 1922.412251 -603.299072 1926.315674 C-604.69416 1926.610063 -604.69416 1926.610063 -606.117432 1926.9104 C-629.450315 1931.851376 -652.073217 1939.043333 -674.748291 1946.358643 C-708.970108 1957.381322 -742.568698 1966.804716 -778.924072 1963.378174 C-779.896025 1963.291162 -780.867979 1963.20415 -781.869385 1963.114502 C-784.68048 1962.859463 -787.489814 1962.590139 -790.299072 1962.315674 C-791.119238 1962.2397 -791.939404 1962.163726 -792.784424 1962.085449 C-805.708957 1960.799798 -818.209474 1955.89617 -830.299072 1951.315674 C-830.951016 1951.070107 -831.602959 1950.824541 -832.274658 1950.571533 C-848.869312 1944.183139 -864.339213 1934.264583 -878.299072 1923.315674 C-879.170479 1922.635049 -880.041885 1921.954424 -880.939697 1921.253174 C-893.023667 1911.585998 -904.026861 1900.767282 -914.873047 1889.752441 C-916.094975 1888.521309 -917.339426 1887.312603 -918.588135 1886.108643 C-920.562299 1884.039827 -921.765625 1881.765305 -923.123291 1879.264893 C-924.398948 1877.150099 -925.851577 1875.344608 -927.424072 1873.440674 C-940.826843 1856.429464 -950.132996 1835.505564 -954.299072 1814.315674 C-954.440386 1813.598633 -954.581699 1812.881592 -954.727295 1812.142822 C-955.684044 1807.214117 -956.525704 1802.276421 -957.299072 1797.315674 C-957.433135 1796.461025 -957.567197 1795.606377 -957.705322 1794.72583 C-963.929847 1745.534796 -946.871456 1692.500345 -933.404541 1645.718018 C-925.144324 1616.812386 -918.060512 1587.166798 -914.299072 1557.315674 C-914.152441 1556.234634 -914.005811 1555.153594 -913.854736 1554.039795 C-908.588039 1513.882644 -908.985755 1471.447057 -914.299072 1431.315674 C-914.468262 1430.008081 -914.637451 1428.700488 -914.811768 1427.353271 C-916.121245 1417.325931 -917.826547 1407.431963 -919.736572 1397.503174 C-919.953779 1396.365576 -920.170986 1395.227979 -920.394775 1394.055908 C-922.45119 1383.353909 -924.888485 1372.842416 -927.703125 1362.313721 C-928.23529 1360.320476 -928.762449 1358.325952 -929.289307 1356.331299 C-931.083163 1349.578229 -932.997924 1342.913257 -935.299072 1336.315674 C-935.874246 1334.597678 -936.447046 1332.878886 -937.017822 1331.159424 C-937.310439 1330.281572 -937.603057 1329.403721 -937.904541 1328.499268 C-939.369385 1324.104736 -940.834229 1319.710205 -942.299072 1315.315674 C-942.635049 1314.321134 -942.635049 1314.321134 -942.977814 1313.306503 C-944.761673 1308.004492 -946.435747 1302.678082 -948.04126 1297.31958 C-948.291509 1296.487163 -948.541758 1295.654746 -948.799591 1294.797104 C-949.326313 1293.043491 -949.852335 1291.289668 -950.377686 1289.535645 C-951.162922 1286.915381 -951.95155 1284.296156 -952.740479 1281.677002 C-957.35412 1266.32264 -961.842975 1250.977673 -965.299072 1235.315674 C-965.832843 1232.951475 -966.369589 1230.587961 -966.906158 1228.224396 C-967.694393 1224.7485 -968.477628 1221.271486 -969.260742 1217.794434 C-969.862912 1215.122227 -970.466735 1212.450398 -971.070557 1209.778564 C-974.805066 1193.221714 -974.805066 1193.221714 -976.299072 1185.315674 C-976.455613 1184.499939 -976.612153 1183.684204 -976.773438 1182.84375 C-978.884507 1171.744084 -980.756656 1160.63562 -982.292725 1149.44165 C-982.878803 1145.184702 -983.514703 1140.967828 -984.361572 1136.753174 C-985.434186 1131.117558 -985.942699 1125.442627 -986.479004 1119.736084 C-986.937337 1114.87572 -987.439813 1110.026226 -988.021729 1105.178955 C-991.991968 1072.097317 -992.650825 1039.236788 -992.614746 1005.955078 C-992.61013 1001.34007 -992.616997 996.725326 -992.635254 992.110352 C-992.728471 968.305595 -992.562113 944.590965 -990.904541 920.835205 C-990.841909 919.933004 -990.779277 919.030803 -990.714746 918.101263 C-990.049368 908.774737 -989.160922 899.547513 -987.748535 890.302139 C-987.25737 887.03858 -986.889563 883.774974 -986.543121 880.493713 C-986.05746 876.159384 -985.424145 871.844379 -984.810791 867.526611 C-984.66632 866.506288 -984.52185 865.485965 -984.373001 864.434723 C-984.066972 862.27807 -983.76017 860.121527 -983.452637 857.965088 C-982.99489 854.74911 -982.542381 851.532423 -982.090088 848.315674 C-980.604274 837.831248 -979.025844 827.370767 -977.217041 816.936768 C-977.060475 816.032641 -976.90391 815.128515 -976.742599 814.196991 C-975.266061 805.844389 -973.524223 797.548829 -971.650635 789.276611 C-971.431816 788.309492 -971.212998 787.342373 -970.987549 786.345947 C-970.760352 785.345957 -970.533154 784.345967 -970.299072 783.315674 C-969.93894 781.722876 -969.93894 781.722876 -969.571533 780.0979 C-966.487396 766.486682 -963.264069 752.917905 -959.822021 739.392822 C-958.86973 735.61033 -957.969122 731.814845 -957.07251 728.018799 C-956.254546 725.160058 -955.199368 722.428778 -954.137451 719.653564 C-952.464198 714.987555 -951.161103 710.204807 -949.799072 705.440674 C-946.137784 692.730086 -946.137784 692.730086 -944.689697 687.831299 C-944.463145 687.06334 -944.236592 686.295381 -944.003174 685.50415 C-943.28337 683.266867 -942.446948 681.11204 -941.549072 678.940674 C-939.481206 673.920967 -937.700519 668.818626 -935.924072 663.690674 C-930.028375 646.7421 -923.46085 630.129831 -916.625732 613.537354 C-915.797466 611.525979 -914.971265 609.51375 -914.148193 607.500244 C-910.273035 598.022857 -906.150419 588.776308 -901.490479 579.659424 C-898.868255 574.509362 -896.403404 569.285592 -893.924072 564.065674 C-885.479461 546.367231 -876.622903 529.097353 -866.874268 512.076904 C-864.444997 507.818527 -862.055479 503.538456 -859.674072 499.253174 C-859.272529 498.533716 -858.870986 497.814258 -858.457275 497.072998 C-856.305055 493.199186 -854.249227 489.296721 -852.299072 485.315674 C-851.639072 485.315674 -850.979072 485.315674 -850.299072 485.315674 C-850.073486 484.671143 -849.8479 484.026611 -849.615479 483.362549 C-847.824342 479.216893 -845.560496 475.43289 -843.236572 471.565674 C-842.717805 470.70168 -842.199038 469.837686 -841.664551 468.94751 C-835.249607 458.408073 -828.245101 448.269245 -821.233643 438.121338 C-819.564821 435.701084 -817.908049 433.273536 -816.26001 430.839111 C-809.21991 420.456934 -801.819655 410.354034 -794.299072 400.315674 C-793.305205 398.988503 -793.305205 398.988503 -792.29126 397.634521 C-784.989214 387.908294 -777.626108 378.29028 -769.674072 369.085205 C-767.488943 366.537086 -765.381412 363.947986 -763.299072 361.315674 C-760.178704 357.381576 -756.980323 353.522991 -753.736572 349.690674 C-753.083984 348.91917 -753.083984 348.91917 -752.418213 348.13208 C-745.624146 340.133105 -738.609371 332.393154 -731.377197 324.78833 C-730.735244 324.108994 -730.093291 323.429658 -729.431885 322.729736 C-728.853257 322.120815 -728.274629 321.511895 -727.678467 320.884521 C-726.208697 319.347207 -726.208697 319.347207 -725.299072 317.315674 C-724.639072 317.315674 -723.979072 317.315674 -723.299072 317.315674 C-723.056406 316.748345 -722.81374 316.181017 -722.563721 315.596497 C-721.05568 312.87671 -719.262311 311.024658 -717.064697 308.82251 C-716.190391 307.941899 -715.316084 307.061288 -714.415283 306.153992 C-713.460134 305.202422 -712.504724 304.251113 -711.549072 303.300049 C-710.569938 302.319567 -709.591101 301.338789 -708.612549 300.357727 C-706.564678 298.306912 -704.513244 296.259747 -702.459229 294.215088 C-699.822672 291.589956 -697.195236 288.955907 -694.570374 286.319088 C-692.552876 284.294378 -690.530657 282.274438 -688.506958 280.255928 C-687.535818 279.286125 -686.566168 278.314826 -685.598022 277.342033 C-684.247994 275.986946 -682.890893 274.638917 -681.533447 273.29126 C-680.762266 272.521669 -679.991084 271.752079 -679.196533 270.959167 C-677.299072 269.315674 -677.299072 269.315674 -675.299072 269.315674 C-675.299072 268.655674 -675.299072 267.995674 -675.299072 267.315674 C-673.970947 265.97583 -673.970947 265.97583 -672.049072 264.378174 C-668.389322 261.269981 -664.826038 258.072914 -661.299072 254.815674 C-654.138514 248.230805 -646.839543 241.909606 -639.29126 235.772705 C-636.076771 233.133131 -632.904059 230.448719 -629.736572 227.753174 C-614.162885 214.52817 -597.78413 202.369585 -581.299072 190.315674 C-580.151001 189.473352 -580.151001 189.473352 -578.979736 188.614014 C-568.69572 181.074912 -558.265731 173.813645 -547.599854 166.824951 C-545.297089 165.314373 -543.001043 163.79396 -540.705322 162.272705 C-513.865659 144.569122 -486.045345 128.659336 -457.736572 113.440674 C-456.631846 112.846255 -455.527119 112.251836 -454.388916 111.639404 C-440.552381 104.245506 -426.502703 97.338695 -412.236572 90.815674 C-411.132807 90.310598 -411.132807 90.310598 -410.006744 89.795319 C-382.603227 77.292584 -354.654944 65.919768 -326.216858 55.986389 C-324.250653 55.29874 -322.286315 54.605929 -320.322021 53.912842 C-241.1949 26.095461 -158.729873 9.840779 -75.299072 2.315674 C-74.290764 2.222428 -73.282455 2.129183 -72.243591 2.033112 C-48.195146 -0.109165 -24.124786 -0.025962 0 0 Z " fill="#10BED7" transform="translate(992.299072265625,-0.315673828125)"/>
<path d="M0 0 C1.300342 0.312275 1.300342 0.312275 2.626953 0.630859 C12.252632 3.031453 21.125847 6.552434 30 11 C31.28819 11.61641 32.577296 12.230908 33.867188 12.84375 C47.449193 19.365867 59.60011 27.077562 71 37 C71.926836 37.792773 72.853672 38.585547 73.808594 39.402344 C80.294257 45.096414 85.719698 51.189976 91 58 C91.790195 58.96293 92.580391 59.925859 93.394531 60.917969 C111.650901 83.601867 124.615162 112.244632 133 140 C133.367383 141.210913 133.367383 141.210913 133.742188 142.446289 C137.083276 153.557062 139.918815 164.58123 142 176 C142.37309 177.708752 142.747902 179.417129 143.125 181.125 C144.149126 186.152526 144.458309 191.196862 144.753906 196.3125 C144.832831 198.96882 144.832831 198.96882 146 201 C155.614533 265.573385 138.83954 339.491235 100 392 C97.162488 395.816963 94.1703 399.453193 91 403 C90.544155 403.514658 90.088311 404.029316 89.618652 404.55957 C74.832742 421.191892 58.465023 434.290419 39 445 C38.357241 445.358359 37.714482 445.716719 37.052246 446.085938 C21.634193 454.588041 4.351647 460.917339 -13 464 C-14.606816 464.286172 -14.606816 464.286172 -16.246094 464.578125 C-28.453007 466.591044 -40.514796 467.162722 -52.875 467.125 C-54.134414 467.128867 -55.393828 467.132734 -56.691406 467.136719 C-69.645449 467.123405 -82.367125 466.142524 -95.1875 464.3125 C-96.383669 464.1446 -97.579839 463.976699 -98.812256 463.803711 C-107.350101 462.544148 -115.674592 460.76305 -124.0625 458.75 C-141.773881 454.56804 -157.603772 453.494934 -173.578125 463.304688 C-179.179928 467.22595 -183.078634 471.012795 -186.8125 476.6875 C-187.206309 477.268223 -187.600117 477.848945 -188.005859 478.447266 C-191.668682 483.881814 -192.231431 487.496285 -192.464844 493.976562 C-192.502398 494.933107 -192.539952 495.889652 -192.578644 496.875183 C-192.703768 500.124939 -192.820964 503.374925 -192.9375 506.625 C-192.979465 507.750936 -193.02143 508.876871 -193.064667 510.036926 C-193.667993 526.287614 -194.135936 542.54014 -194.539062 558.796875 C-194.561146 559.687032 -194.583229 560.577189 -194.605982 561.49432 C-194.826862 570.43601 -195.041122 579.377831 -195.243439 588.319962 C-195.32052 591.70928 -195.399928 595.098542 -195.47958 598.487801 C-195.53314 600.810973 -195.583076 603.134203 -195.632843 605.457458 C-195.726641 609.639438 -195.853165 613.819569 -196 618 C-196.022351 618.700749 -196.044702 619.401498 -196.06773 620.123482 C-196.139672 622.184512 -196.233239 624.243409 -196.33374 626.303223 C-196.386103 627.491789 -196.438466 628.680355 -196.492416 629.904938 C-197.402876 635.45659 -200.629275 637.817248 -205 641 C-206.126844 641.889596 -207.251703 642.78171 -208.375 643.675781 C-224.272608 656.072708 -242.299452 665.017106 -263 663 C-279.991651 660.221803 -293.344506 647.390308 -303.068604 633.96875 C-307.85195 627.072838 -311.595946 619.657276 -315 612 C-315.505727 611.000416 -316.011453 610.000832 -316.532505 608.970958 C-318.442336 604.475187 -318.417474 600.266433 -318.380317 595.439281 C-318.387307 594.016408 -318.387307 594.016408 -318.394438 592.56479 C-318.406407 589.379865 -318.396984 586.195365 -318.38768 583.010437 C-318.391852 580.706469 -318.397329 578.402503 -318.404 576.098541 C-318.41849 569.762073 -318.414198 563.425734 -318.406833 557.089259 C-318.401136 550.958956 -318.412405 544.828672 -318.421741 538.698378 C-318.441415 525.384258 -318.443753 512.070176 -318.438545 498.756045 C-318.433989 487.102172 -318.434586 475.448314 -318.440386 463.794441 C-318.441143 462.231509 -318.441899 460.668577 -318.442654 459.105646 C-318.443799 456.750459 -318.444949 454.395273 -318.446113 452.040087 C-318.45682 430.140512 -318.461542 408.240942 -318.453643 386.341366 C-318.453346 385.515686 -318.453048 384.690007 -318.452742 383.839307 C-318.450293 377.134135 -318.447682 370.428964 -318.445058 363.723792 C-318.434958 337.574463 -318.443306 311.425199 -318.466553 285.275879 C-318.492628 255.897145 -318.505472 226.518449 -318.498365 197.139703 C-318.497649 194.006743 -318.496975 190.873782 -318.496325 187.740822 C-318.49607 186.583701 -318.49607 186.583701 -318.49581 185.403204 C-318.493507 173.759986 -318.501483 162.116804 -318.514616 150.473595 C-318.529528 137.230038 -318.53037 123.986565 -318.512545 110.743009 C-318.503824 103.98525 -318.501926 97.227661 -318.517197 90.469908 C-318.531005 84.282925 -318.52633 78.096242 -318.506957 71.909277 C-318.503185 69.671756 -318.506155 67.434211 -318.516569 65.196711 C-318.598593 46.224244 -315.662431 34.098858 -302.4375 19.875 C-288.678513 6.636398 -272.251439 2.321286 -253.566406 2.664062 C-246.258048 3.041991 -239.657483 5.790956 -232.804443 8.174072 C-213.981792 14.647443 -197.40826 18.330557 -177.5 18.4375 C-176.771025 18.444036 -176.04205 18.450572 -175.290985 18.457306 C-163.42558 18.521385 -152.9388 17.083001 -142.109863 11.963867 C-138.649217 10.38291 -135.066823 9.251984 -131.4375 8.125 C-130.229729 7.749279 -130.229729 7.749279 -128.997559 7.365967 C-87.306825 -5.342306 -42.752304 -10.280025 0 0 Z " fill="#FEFEFE" transform="translate(633,771)"/>
<path d="M0 0 C14.620761 12.952465 26.303839 28.408254 34.464844 46.183594 C34.972734 47.271562 35.480625 48.359531 36.003906 49.480469 C37.549018 53.396955 38.393598 57.053589 39.089844 61.183594 C39.211016 61.856484 39.332187 62.529375 39.457031 63.222656 C39.809424 65.206783 40.13739 67.195199 40.464844 69.183594 C40.640321 70.148849 40.815799 71.114104 40.996593 72.108609 C41.795141 77.810441 41.6093 83.576028 41.605286 89.320847 C41.607872 90.663021 41.610886 92.005196 41.614289 93.347369 C41.622329 97.025303 41.624147 100.703217 41.624887 104.381159 C41.626742 108.351997 41.634292 112.322824 41.641022 116.293655 C41.654584 124.971454 41.660626 133.649249 41.665032 142.327057 C41.667798 147.748641 41.672036 153.170223 41.676537 158.591806 C41.688726 173.611914 41.699026 188.63202 41.702412 203.652133 C41.702631 204.61281 41.702851 205.573486 41.703077 206.563274 C41.703295 207.526205 41.703514 208.489136 41.703738 209.481247 C41.704182 211.432403 41.704628 213.38356 41.705078 215.334717 C41.7053 216.302551 41.705521 217.270385 41.705749 218.267548 C41.709696 233.946811 41.72715 249.626027 41.750438 265.305272 C41.774171 281.41501 41.786614 297.524725 41.78778 313.634481 C41.788695 322.674653 41.794418 331.714764 41.812599 340.754919 C41.828027 348.453142 41.833105 356.151286 41.824861 363.849522 C41.820964 367.774058 41.821837 371.698435 41.835918 375.622952 C41.848715 379.222466 41.84741 382.821701 41.835328 386.421215 C41.832465 388.32576 41.844262 390.230311 41.85675 392.134817 C41.771554 407.069182 37.913544 418.459718 27.714844 429.496094 C18.24175 438.471574 7.653411 441.490817 -5.039062 441.554688 C-6.153935 441.563716 -7.268808 441.572744 -8.417465 441.582047 C-10.775109 441.596531 -13.132793 441.605431 -15.490479 441.609131 C-19.061418 441.620974 -22.630599 441.670135 -26.201172 441.720703 C-43.800899 441.846588 -56.017554 440.082259 -69.207031 427.601562 C-79.192389 417.02429 -81.844817 404.030367 -81.786713 390.040497 C-81.791168 388.225838 -81.791168 388.225838 -81.795713 386.374519 C-81.802011 383.033277 -81.799463 379.692255 -81.793194 376.351027 C-81.788646 372.74077 -81.795708 369.130532 -81.801498 365.520279 C-81.81012 359.267671 -81.811942 353.015091 -81.809551 346.762478 C-81.806448 337.707079 -81.818112 328.651742 -81.834101 319.596358 C-81.86005 304.883255 -81.880074 290.170151 -81.893555 275.457031 C-81.894365 274.577015 -81.895175 273.696999 -81.89601 272.790315 C-81.907224 260.311406 -81.912511 247.8325 -81.915397 235.353586 C-81.915703 234.03629 -81.915703 234.03629 -81.916016 232.692383 C-81.916216 231.815263 -81.916415 230.938142 -81.916621 230.034443 C-81.920361 215.382347 -81.93949 200.730319 -81.97111 186.078258 C-81.989975 177.052202 -81.996017 168.02632 -81.985293 159.00025 C-81.97895 152.808143 -81.98708 146.61616 -82.006347 140.424079 C-82.016977 136.857719 -82.021269 133.29166 -82.007875 129.725302 C-81.924077 105.524718 -84.642179 86.190307 -101.78125 67.769531 C-111.633252 58.354318 -126.172884 49.205515 -139.847656 47.621094 C-143.535156 47.183594 -143.535156 47.183594 -144.535156 46.183594 C-166.000685 44.373545 -185.411941 48.09778 -202.535156 61.621094 C-217.819468 75.031992 -229.351691 93.30843 -230.722262 114.009661 C-230.795879 117.14498 -230.809569 120.274851 -230.800171 123.411026 C-230.804552 124.605617 -230.808933 125.800209 -230.813447 127.031 C-230.823583 130.320332 -230.82494 133.609529 -230.822512 136.898872 C-230.822091 140.456518 -230.833212 144.014131 -230.842972 147.571762 C-230.858387 153.728849 -230.866828 159.885912 -230.870682 166.043016 C-230.876445 174.954824 -230.895056 183.86657 -230.917122 192.778351 C-230.952798 207.252045 -230.98113 221.725742 -231.003418 236.199463 C-231.004753 237.064707 -231.006088 237.92995 -231.007463 238.821414 C-231.01824 245.841884 -231.02866 252.862354 -231.039063 259.882825 C-231.048174 266.021249 -231.057427 272.159672 -231.066895 278.298096 C-231.068225 279.162583 -231.069556 280.027069 -231.070927 280.917753 C-231.09337 295.340479 -231.123568 309.763179 -231.159287 324.185878 C-231.180923 333.07384 -231.195564 341.961762 -231.201126 350.849749 C-231.205378 356.93945 -231.21663 363.029113 -231.23335 369.118792 C-231.242737 372.629784 -231.248876 376.140702 -231.246286 379.651707 C-231.245127 383.462269 -231.256148 387.272612 -231.270142 391.083145 C-231.266843 392.186265 -231.263544 393.289385 -231.260145 394.425933 C-231.342056 407.949217 -234.708986 418.373214 -244.097656 428.433594 C-252.111821 436.04705 -261.431955 441.208947 -272.578125 441.376465 C-274.046206 441.400559 -274.046206 441.400559 -275.543945 441.42514 C-280.025217 441.470099 -284.506347 441.510684 -288.987793 441.533691 C-291.33848 441.550193 -293.689118 441.577406 -296.039551 441.615723 C-312.776943 441.886707 -326.079381 441.842501 -339.320312 430.339844 C-349.559166 420.371859 -353.898849 410.27659 -354.154205 396.130463 C-354.195814 391.607724 -354.173698 387.086739 -354.146973 382.563965 C-354.150518 380.062069 -354.1563 377.560175 -354.164139 375.058289 C-354.176296 369.679327 -354.173494 364.300692 -354.157307 358.921764 C-354.134043 351.090557 -354.14164 343.259601 -354.156838 335.428384 C-354.181091 322.64771 -354.185332 309.867116 -354.174805 297.086426 C-354.174181 296.322786 -354.173557 295.559147 -354.172914 294.772367 C-354.171643 293.227867 -354.170369 291.683368 -354.169092 290.138869 C-354.168459 289.373906 -354.167827 288.608944 -354.167175 287.820801 C-354.166537 287.055679 -354.165899 286.290557 -354.165242 285.50225 C-354.158489 277.079788 -354.156445 268.657328 -354.15625 260.234863 C-354.156227 259.483693 -354.156204 258.732523 -354.156181 257.958591 C-354.156251 245.267915 -354.168511 232.57727 -354.187209 219.886609 C-354.197023 212.799246 -354.200063 205.712003 -354.185596 198.624645 C-354.125131 168.522782 -354.533716 138.594076 -356.661911 108.557525 C-356.760063 107.170776 -356.760063 107.170776 -356.860199 105.756012 C-356.923816 104.857398 -356.987433 103.958783 -357.052978 103.032938 C-358.367303 83.624639 -358.961775 63.391055 -355.535156 44.183594 C-355.400933 43.425625 -355.266709 42.667656 -355.128418 41.886719 C-353.384116 32.42924 -351.185146 23.68372 -346.535156 15.183594 C-346.082695 14.323789 -345.630234 13.463984 -345.164062 12.578125 C-338.502036 0.644252 -328.439131 -7.681748 -315.472656 -12.003906 C-294.171347 -17.895758 -271.732705 -14.375337 -250.742188 -8.867188 C-227.809195 -3.010896 -202.284647 0.182386 -179.535156 -7.816406 C-178.133301 -8.299563 -178.133301 -8.299563 -176.703125 -8.79248 C-172.301627 -10.311491 -167.904358 -11.8422 -163.51123 -13.385254 C-111.137928 -31.692903 -45.527002 -37.853082 0 0 Z " fill="#FEFEFE" transform="translate(1643.53515625,796.81640625)"/>
<path d="M0 0 C1.394242 -0.008565 1.394242 -0.008565 2.81665 -0.017303 C4.35098 -0.01898 4.35098 -0.01898 5.916306 -0.020691 C6.991212 -0.025656 8.066119 -0.030621 9.173599 -0.035736 C12.742382 -0.050384 16.311121 -0.057164 19.879929 -0.062683 C22.353739 -0.068433 24.82755 -0.07419 27.301361 -0.079956 C32.494138 -0.090474 37.686899 -0.096311 42.879684 -0.099792 C49.537988 -0.104491 56.196058 -0.129303 62.854306 -0.157764 C67.966355 -0.176376 73.078355 -0.181596 78.190435 -0.183128 C80.645262 -0.186159 83.100087 -0.194201 85.55488 -0.207314 C88.988014 -0.224342 92.420647 -0.222501 95.853806 -0.216003 C96.870619 -0.225218 97.887433 -0.234433 98.935059 -0.243927 C107.688479 -0.191953 107.688479 -0.191953 111.579147 3.140442 C114.084464 6.004721 114.954214 7.751913 114.956345 11.554494 C114.964112 12.439197 114.971879 13.3239 114.979881 14.235412 C114.973144 15.205049 114.966406 16.174685 114.959464 17.173704 C114.964124 18.209807 114.968784 19.245909 114.973585 20.313409 C114.985615 23.814056 114.976109 27.314321 114.966827 30.814972 C114.970997 33.338528 114.976472 35.862083 114.983147 38.385634 C114.994633 43.887215 114.996714 49.388678 114.990597 54.890266 C114.981525 63.071253 114.989522 71.25216 115.000888 79.433141 C115.020583 94.042979 115.022897 108.652782 115.017693 123.262631 C115.01314 136.048995 115.013729 148.835345 115.019533 161.621708 C115.02029 163.335089 115.021046 165.048469 115.021801 166.76185 C115.022946 169.343585 115.024096 171.925321 115.02526 174.507056 C115.03597 198.518961 115.040686 222.530862 115.03279 246.542768 C115.032493 247.448464 115.032196 248.354159 115.03189 249.287299 C115.029441 256.642755 115.026829 263.998211 115.024206 271.353667 C115.014103 300.046774 115.022457 328.739823 115.0457 357.432922 C115.071757 389.652098 115.084625 421.871238 115.077512 454.090424 C115.076796 457.524131 115.076122 460.957837 115.075472 464.391544 C115.075302 465.237042 115.075132 466.082539 115.074957 466.953658 C115.072652 479.731925 115.080644 492.510159 115.093763 505.288418 C115.108653 519.816771 115.109547 534.345047 115.091692 548.873399 C115.082107 557.008398 115.083609 565.143218 115.100927 573.278205 C115.112607 579.344447 115.10349 585.410467 115.086105 591.476704 C115.082316 593.93697 115.085348 596.397258 115.095716 598.857505 C115.108769 602.190503 115.097407 605.522542 115.079719 608.855497 C115.089369 609.820451 115.09902 610.785405 115.108963 611.7796 C115.045806 617.538124 114.360372 620.724617 110.579147 625.140442 C107.700057 627.13702 105.378976 627.393517 101.917786 627.407867 C100.985542 627.416397 100.053298 627.424927 99.092804 627.433716 C98.077108 627.432809 97.061413 627.431903 96.014938 627.430969 C94.40214 627.441045 94.40214 627.441045 92.75676 627.451324 C89.198811 627.470339 85.64105 627.47423 82.083054 627.476379 C79.6121 627.482804 77.141148 627.489532 74.670197 627.496552 C69.489357 627.508532 64.308584 627.512231 59.127731 627.511047 C52.4851 627.510844 45.842895 627.538162 39.200364 627.572592 C34.096883 627.594814 28.993506 627.598886 23.889982 627.597828 C21.440734 627.60019 18.991484 627.60905 16.542284 627.624493 C13.118801 627.644059 9.696249 627.638351 6.272751 627.626282 C5.259079 627.637521 4.245408 627.64876 3.201019 627.660339 C-1.095016 627.621797 -3.702334 627.560777 -7.464203 625.360077 C-10.484742 621.93356 -11.670163 619.296374 -11.675003 614.72639 C-11.683667 613.399335 -11.683667 613.399335 -11.692505 612.045471 C-11.68868 611.075835 -11.684856 610.106199 -11.680915 609.10718 C-11.684721 608.071077 -11.688526 607.034975 -11.692447 605.967475 C-11.702821 602.466904 -11.698846 598.966494 -11.695007 595.465912 C-11.699457 592.942356 -11.70477 590.418802 -11.710876 587.89525 C-11.722127 582.393693 -11.727088 576.892185 -11.726555 571.390617 C-11.725763 563.209642 -11.736301 555.028708 -11.74897 546.847743 C-11.773729 530.536029 -11.782495 514.224325 -11.787507 497.912594 C-11.787768 497.067549 -11.788029 496.222504 -11.788298 495.351851 C-11.788559 494.505144 -11.788819 493.658436 -11.789087 492.786071 C-11.792167 483.410438 -11.798671 474.034807 -11.8053 464.659176 C-11.824949 436.352157 -11.841353 408.045141 -11.844176 379.738115 C-11.84427 378.83242 -11.844364 377.926725 -11.844461 376.993585 C-11.84484 373.32306 -11.845204 369.652535 -11.845564 365.982011 C-11.845836 363.219229 -11.846113 360.456447 -11.84639 357.693665 C-11.846478 356.780737 -11.846566 355.867809 -11.846657 354.927217 C-11.849563 326.234102 -11.871665 297.541053 -11.907913 268.847961 C-11.948614 236.628788 -11.972335 204.409661 -11.972636 172.19046 C-11.972733 168.756753 -11.972899 165.323046 -11.973116 161.889339 C-11.97316 161.043842 -11.973204 160.198344 -11.97325 159.327226 C-11.974371 145.704686 -11.991798 132.082213 -12.014935 118.459695 C-12.037746 104.775599 -12.042023 91.091593 -12.027386 77.407485 C-12.019218 69.272443 -12.024985 61.137687 -12.050567 53.002679 C-12.068108 46.936404 -12.059671 40.870463 -12.040922 34.80418 C-12.037406 32.34391 -12.042425 29.88361 -12.056626 27.423379 C-12.074633 24.090204 -12.062108 20.758514 -12.041678 17.425386 C-12.054242 16.460432 -12.066805 15.495479 -12.079749 14.501284 C-12.021346 10.078595 -11.842589 7.078666 -9.007051 3.560133 C-5.72195 0.486537 -4.35206 0.015978 0 0 Z " fill="#FDFEFE" transform="translate(867.4208526611328,609.8595581054688)"/>
<path d="M0 0 C0.922385 -0.00853 1.844769 -0.01706 2.795105 -0.025848 C4.302266 -0.024489 4.302266 -0.024489 5.839874 -0.023102 C6.903713 -0.029819 7.967552 -0.036536 9.063629 -0.043457 C12.584306 -0.062472 16.104793 -0.066363 19.625519 -0.068512 C22.071656 -0.074937 24.517793 -0.081665 26.963928 -0.088684 C32.093493 -0.100666 37.222991 -0.104364 42.35257 -0.10318 C48.925603 -0.102977 55.498204 -0.130283 62.071135 -0.164724 C67.124044 -0.186961 72.176848 -0.191018 77.229801 -0.18996 C79.653103 -0.192321 82.076407 -0.201171 84.49966 -0.216625 C87.889415 -0.23622 91.27823 -0.230472 94.667999 -0.218414 C95.668725 -0.229653 96.66945 -0.240892 97.7005 -0.252472 C103.425799 -0.200717 106.902117 0.330384 111.383331 4.267426 C113.766988 7.842911 113.664957 10.365579 113.6406 14.491452 C113.644106 15.236001 113.647612 15.980549 113.651225 16.747659 C113.660588 19.262485 113.655603 21.777081 113.650757 24.291916 C113.654491 26.105143 113.659091 27.918368 113.664487 29.731591 C113.676766 34.72994 113.676451 39.728223 113.674099 44.726584 C113.673692 50.111165 113.684718 55.495724 113.694214 60.880295 C113.710852 71.435736 113.716325 81.991156 113.717439 92.546609 C113.718388 101.123913 113.722492 109.701208 113.72884 118.278509 C113.74646 142.578907 113.755678 166.879287 113.754179 191.179691 C113.754099 192.490697 113.754019 193.801702 113.753937 195.152435 C113.753855 196.465035 113.753773 197.777636 113.753689 199.130011 C113.752876 220.407136 113.772017 241.68419 113.800214 262.961295 C113.828915 284.791003 113.842755 306.620677 113.841026 328.450405 C113.840361 340.713146 113.845895 352.975812 113.867382 365.238535 C113.885558 375.678945 113.889971 386.119246 113.876363 396.559665 C113.869815 401.888981 113.869782 407.21809 113.88707 412.547386 C113.902726 417.423572 113.900014 422.299386 113.882501 427.175562 C113.879415 428.942056 113.883126 430.708578 113.894222 432.47504 C113.908287 434.872439 113.897802 437.268522 113.881109 439.665875 C113.896014 440.699814 113.896014 440.699814 113.911219 441.75464 C113.838567 446.67445 112.432187 449.462677 109.383331 453.267426 C106.504241 455.264004 104.18316 455.5205 100.72197 455.534851 C99.789726 455.543381 98.857482 455.551911 97.896988 455.560699 C96.881292 455.559793 95.865597 455.558887 94.819122 455.557953 C93.743923 455.56467 92.668724 455.571387 91.560944 455.578308 C88.002995 455.597322 84.445234 455.601214 80.887238 455.603363 C78.416284 455.609788 75.945332 455.616516 73.47438 455.623535 C68.293541 455.635516 63.112768 455.639215 57.931915 455.638031 C51.289283 455.637828 44.647079 455.665145 38.004548 455.699575 C32.901067 455.721797 27.79769 455.72587 22.694166 455.724812 C20.244918 455.727174 17.795668 455.736034 15.346468 455.751476 C11.922985 455.771043 8.500433 455.765335 5.076935 455.753265 C4.063263 455.764504 3.049592 455.775743 2.005203 455.787323 C-2.290832 455.748781 -4.89815 455.68776 -8.660019 453.487061 C-12.493524 449.13831 -12.907584 445.597962 -12.873938 439.917558 C-12.877444 439.171556 -12.88095 438.425554 -12.884562 437.656946 C-12.893907 435.143208 -12.888945 432.6297 -12.884094 430.115952 C-12.887829 428.301149 -12.89243 426.486347 -12.897825 424.671549 C-12.910093 419.673528 -12.90979 414.675575 -12.907436 409.677543 C-12.907029 404.291635 -12.918058 398.905749 -12.927551 393.519852 C-12.944182 382.964214 -12.949662 372.408599 -12.950776 361.85295 C-12.951725 353.276139 -12.95583 344.699335 -12.962177 336.122526 C-12.979795 311.822971 -12.989015 287.523433 -12.987516 263.223871 C-12.987436 261.913169 -12.987357 260.602466 -12.987274 259.252045 C-12.987192 257.939748 -12.987111 256.627451 -12.987026 255.275387 C-12.986213 233.99765 -13.00536 212.719984 -13.033551 191.442268 C-13.062247 169.611403 -13.076093 147.780572 -13.074363 125.949687 C-13.073698 113.686435 -13.079238 101.423256 -13.100719 89.160021 C-13.118889 78.720705 -13.123314 68.281496 -13.109701 57.842171 C-13.10315 52.512973 -13.10313 47.183981 -13.120407 41.854801 C-13.136049 36.979941 -13.133366 32.105454 -13.115839 27.230603 C-13.112749 25.463483 -13.116474 23.696337 -13.127559 21.929249 C-13.141597 19.533421 -13.131161 17.138916 -13.114447 14.743134 C-13.124383 14.051501 -13.134319 13.359867 -13.144557 12.647275 C-13.074705 7.935538 -11.909805 5.595634 -8.616669 2.267426 C-5.709544 0.34691 -3.450669 0.014462 0 0 Z " fill="#FDFEFE" transform="translate(1082.6166687011719,781.7325744628906)"/>
<path d="M0 0 C3.433409 2.899555 6.732226 5.91587 10 9 C10.666445 9.601992 11.332891 10.203984 12.019531 10.824219 C26.635236 24.546907 37.03139 43.408744 44 62 C44.464062 63.200117 44.928125 64.400234 45.40625 65.636719 C49.759525 77.178514 52.629209 88.906373 55 101 C55.166611 101.823872 55.333223 102.647744 55.504883 103.496582 C62.069757 137.088895 58.406878 173.404378 49 206 C48.659688 207.198828 48.319375 208.397656 47.96875 209.632812 C37.652273 242.983493 15.220055 275.541276 -15.96875 292.023438 C-34.825326 301.53316 -55.448599 304.059755 -75.769531 297.847656 C-91.221456 292.627259 -103.477779 284.405667 -115 273 C-116.183359 271.90752 -116.183359 271.90752 -117.390625 270.792969 C-141.920975 247.677831 -153.344126 212.977153 -160.3125 180.9375 C-160.472021 180.212966 -160.631543 179.488433 -160.795898 178.741943 C-163.227988 166.910339 -163.186422 154.909446 -163.185303 142.883789 C-163.187484 140.268713 -163.205692 137.654064 -163.224609 135.039062 C-163.366978 92.432082 -150.414845 50.021424 -123 17 C-122.27168 16.118281 -121.543359 15.236562 -120.792969 14.328125 C-89.032276 -22.525724 -38.935631 -30.574454 0 0 Z " fill="#0FB5DC" transform="translate(596,866)"/>
<path d="M0 0 C10.740563 8.937544 20.892211 21.877303 23.132812 36.167969 C24.503231 55.860284 21.44646 72.919539 8.394531 88.441406 C-3.03195 101.111295 -18.376511 109.031234 -35.449219 109.953125 C-54.660526 110.182514 -70.899333 104.403583 -85.160156 91.300781 C-97.988275 78.3537 -103.142569 63.549748 -103.121338 45.665039 C-102.820733 29.89386 -96.836724 16.989686 -86 5.5625 C-61.924176 -17.280526 -26.951351 -19.782943 0 0 Z " fill="#F878C5" transform="translate(1171.6875,634.25)"/>
<path d="" fill="#0EBBD6" transform="translate(0,0)"/>
</svg>
