<?xml version="1.0" encoding="UTF-8"?>
<!DOCTYPE svg PUBLIC "-//W3C//DTD SVG 1.1//EN" "http://www.w3.org/Graphics/SVG/1.1/DTD/svg11.dtd">
<svg xmlns="http://www.w3.org/2000/svg" version="1.1" width="512px" height="322px" style="shape-rendering:geometricPrecision; text-rendering:geometricPrecision; image-rendering:optimizeQuality; fill-rule:evenodd; clip-rule:evenodd" xmlns:xlink="http://www.w3.org/1999/xlink">
<g><path style="opacity:1" fill="#0f4595" d="M 19.5,-0.5 C 176.833,-0.5 334.167,-0.5 491.5,-0.5C 501.167,3.16667 507.833,9.83333 511.5,19.5C 511.5,113.5 511.5,207.5 511.5,301.5C 507.833,311.167 501.167,317.833 491.5,321.5C 334.167,321.5 176.833,321.5 19.5,321.5C 9.83333,317.833 3.16667,311.167 -0.5,301.5C -0.5,207.5 -0.5,113.5 -0.5,19.5C 3.16667,9.83333 9.83333,3.16667 19.5,-0.5 Z"/></g>
<g><path style="opacity:1" fill="#fcfdfd" d="M 311.5,91.5 C 327.163,90.4559 342.497,92.1225 357.5,96.5C 355.821,106.244 353.821,115.911 351.5,125.5C 339.325,120.394 326.658,118.561 313.5,120C 309.888,121.139 306.554,122.806 303.5,125C 299.97,131.278 301.303,136.278 307.5,140C 316.833,145 326.167,150 335.5,155C 354.045,168.6 357.545,185.433 346,205.5C 333.668,220.914 317.501,228.748 297.5,229C 280.742,230.844 264.575,228.677 249,222.5C 249.303,212.345 250.803,202.345 253.5,192.5C 271.55,202.58 290.217,204.08 309.5,197C 314.833,191.333 314.833,185.667 309.5,180C 301.152,174.825 292.485,170.158 283.5,166C 261.563,152.382 257.397,134.549 271,112.5C 282.149,100.843 295.649,93.8431 311.5,91.5 Z"/></g>
<g><path style="opacity:1" fill="#5c81b7" d="M 158.5,94.5 C 171.339,93.1748 184.339,93.1748 197.5,94.5C 197.376,95.1067 197.043,95.44 196.5,95.5C 184.011,94.5046 171.344,94.1713 158.5,94.5 Z"/></g>
<g><path style="opacity:1" fill="#fdfdfe" d="M 158.5,94.5 C 171.344,94.1713 184.011,94.5046 196.5,95.5C 177.483,139.572 158.483,183.572 139.5,227.5C 126.421,227.814 113.421,227.48 100.5,226.5C 90.0929,188.152 79.4262,149.819 68.5,111.5C 56.4793,105.049 43.8126,100.382 30.5,97.5C 30.5,96.5 30.5,95.5 30.5,94.5C 52.5025,94.3334 74.5025,94.5 96.5,95C 101,96.8333 104.167,100 106,104.5C 111.453,131.219 117.12,157.886 123,184.5C 134.743,154.432 146.577,124.432 158.5,94.5 Z"/></g>
<g><path style="opacity:1" fill="#fcfdfe" d="M 211.5,94.5 C 223.833,94.5 236.167,94.5 248.5,94.5C 240.41,138.709 233.076,183.043 226.5,227.5C 214.167,227.5 201.833,227.5 189.5,227.5C 197.157,183.224 204.49,138.891 211.5,94.5 Z"/></g>
<g><path style="opacity:1" fill="#fdfdfe" d="M 388.5,227.5 C 375.656,227.829 362.989,227.495 350.5,226.5C 368.424,185.904 386.257,145.237 404,104.5C 406.552,100.281 410.052,97.1145 414.5,95C 420.667,94.8333 426.833,94.6667 433,94.5C 439.574,94.5222 445.907,95.1889 452,96.5C 461.662,140.147 471.162,183.814 480.5,227.5C 469.167,227.5 457.833,227.5 446.5,227.5C 445.581,221.077 444.248,214.744 442.5,208.5C 426.833,207.167 411.167,207.167 395.5,208.5C 392.963,214.78 390.63,221.113 388.5,227.5 Z"/></g>
<g><path style="opacity:1" fill="#164896" d="M 425.5,131.5 C 429.529,147.633 433.196,163.967 436.5,180.5C 426.494,180.666 416.494,180.5 406.5,180C 412.739,163.782 419.072,147.615 425.5,131.5 Z"/></g>
<g><path style="opacity:1" fill="#4e76b0" d="M 100.5,226.5 C 113.421,227.48 126.421,227.814 139.5,227.5C 133.175,228.166 126.675,228.5 120,228.5C 113.131,228.497 106.631,227.83 100.5,226.5 Z"/></g>
<g><path style="opacity:1" fill="#6b8cbd" d="M 350.5,226.5 C 362.989,227.495 375.656,227.829 388.5,227.5C 375.661,228.825 362.661,228.825 349.5,227.5C 349.624,226.893 349.957,226.56 350.5,226.5 Z"/></g>
</svg>
