<svg width="101" height="101" viewBox="0 0 101 101" fill="none" xmlns="http://www.w3.org/2000/svg">
<circle cx="49.567" cy="49.567" r="49.567" transform="matrix(1 0 0 -1 0.933594 100.067)" fill="#D9D9D9" fill-opacity="0.4"/>
<path d="M87.7015 50.6493C87.7015 30.021 70.979 13.2985 50.3507 13.2985C29.7225 13.2985 13 30.021 13 50.6493C13 71.2775 29.7225 88 50.3507 88C70.979 88 87.7015 71.2775 87.7015 50.6493Z" fill="#7E5AFB"/>
<path d="M51.6209 33H44.7248C37.6934 33 32 38.6255 32 45.5574V52.3628C32 59.3016 37.7005 64.9201 44.7248 64.9201H58.9441C60.2749 64.9201 61.5346 65.482 62.4171 66.4652L63.1359 67.2729C63.5558 67.7434 64.3386 67.4485 64.3386 66.8234V45.5574C64.3386 38.6185 58.6381 33 51.6138 33H51.6209Z" fill="#FAF3E1"/>
<path d="M63.5914 46.3504C66.1423 46.3504 68.2102 44.3097 68.2102 41.7924C68.2102 39.2751 66.1423 37.2344 63.5914 37.2344C61.0406 37.2344 58.9727 39.2751 58.9727 41.7924C58.9727 44.3097 61.0406 46.3504 63.5914 46.3504Z" fill="#FF0000"/>
</svg>
