<svg width="100" height="101" viewBox="0 0 100 101" fill="none" xmlns="http://www.w3.org/2000/svg">
<g id="WhatsApp">
<circle id="Ellipse 1" cx="49.567" cy="49.567" r="49.567" transform="matrix(1 0 0 -1 0.183105 100.066)" fill="#DBDBDB" fill-opacity="0.24"/>
<path id="Ellipse 2" d="M86.9515 50.6493C86.9515 30.021 70.229 13.2985 49.6007 13.2985C28.9725 13.2985 12.25 30.021 12.25 50.6493C12.25 71.2775 28.9725 88 49.6007 88C70.229 88 86.9515 71.2775 86.9515 50.6493Z" fill="#25D366"/>
<path id="whatsapp" fill-rule="evenodd" clip-rule="evenodd" d="M63.0667 37.8734C59.8884 34.6951 55.6506 33 51.201 33C41.8779 33 34.25 40.6279 34.25 49.951C34.25 52.9174 35.0976 55.8838 36.5808 58.4265L34.25 66.902L43.1493 64.5712C45.6919 65.8425 48.4464 66.6901 51.201 66.6901C60.524 66.6901 68.152 59.0621 68.152 49.7391C68.152 45.2895 66.245 41.0517 63.0667 37.8734ZM51.201 63.9355C48.6583 63.9355 46.1157 63.2999 43.9968 62.0286L43.573 61.8167L38.2758 63.2999L39.7591 58.2146L39.3353 57.5789C37.8521 55.2482 37.2164 52.7055 37.2164 50.1629C37.2164 42.5349 43.573 36.1783 51.201 36.1783C55.015 36.1783 58.4052 37.6615 61.1597 40.2042C63.9142 42.9587 65.1856 46.3489 65.1856 50.1629C65.1856 57.5789 59.0408 63.9355 51.201 63.9355ZM58.8289 53.3412C58.4052 53.1293 56.2863 52.0699 55.8625 52.0699C55.4388 51.858 55.2268 51.858 55.0149 52.2817C54.803 52.7055 53.9555 53.5531 53.7437 53.9768C53.5318 54.1887 53.3198 54.1887 52.8961 54.1887C52.4723 53.9768 51.201 53.5531 49.5059 52.0699C48.2346 51.0104 47.387 49.5272 47.1751 49.1034C46.9632 48.6797 47.1751 48.4678 47.387 48.2559C47.5989 48.044 47.8108 47.8321 48.0227 47.6202C48.2346 47.4083 48.2346 47.1964 48.4465 46.9846C48.6584 46.7727 48.4465 46.5608 48.4465 46.3489C48.4465 46.137 47.5989 44.0181 47.1751 43.1706C46.9632 42.5349 46.5395 42.5349 46.3276 42.5349C46.1157 42.5349 45.9038 42.5349 45.48 42.5349C45.2681 42.5349 44.8443 42.5349 44.4206 42.9587C43.9968 43.3825 42.9374 44.4419 42.9374 46.5608C42.9374 48.6797 44.4206 50.5866 44.6325 51.0104C44.8444 51.2223 47.5989 55.6719 51.8366 57.367C55.4387 58.8502 56.0744 58.4265 56.922 58.4265C57.7695 58.4265 59.4646 57.367 59.6765 56.5195C60.1002 55.4601 60.1003 54.6125 59.8884 54.6125C59.6765 53.5531 59.2527 53.5531 58.8289 53.3412Z" fill="white"/>
</g>
</svg>
