<?xml version="1.0" encoding="UTF-8"?>
<!-- Generator: visioncortex VTracer 0.6.4 -->
<svg version="1.1" xmlns="http://www.w3.org/2000/svg" width="2000" height="2000">
<path d="M0 0 C660 0 1320 0 2000 0 C2000 660 2000 1320 2000 2000 C1340 2000 680 2000 0 2000 C0 1340 0 680 0 0 Z " fill="#5F0B72" transform="translate(0,0)"/>
<path d="M0 0 C0.990645 -0.020625 1.981289 -0.04125 3.001953 -0.0625 C18.067643 -0.141533 30.87672 6.066602 41.8125 16.25 C66.487524 41.45876 69.042845 80.916153 69.0625 114.1875 C69.063512 115.724254 69.063512 115.724254 69.064545 117.292053 C69.039572 141.20153 66.806682 163.980033 61.474121 187.322266 C60.796858 190.319218 60.153641 193.321763 59.519531 196.328125 C59.096517 198.322951 58.673346 200.317744 58.25 202.3125 C58.064536 203.191399 57.879072 204.070298 57.687988 204.97583 C54.878079 217.971358 51.153253 230.715824 47.3125 243.4375 C46.745957 245.331455 46.745957 245.331455 46.167969 247.263672 C39.965749 267.884455 39.965749 267.884455 36.3125 276.4375 C35.930938 277.338555 35.549375 278.239609 35.15625 279.167969 C17.72807 319.141324 -4.379288 361.087562 -47.1875 378.25 C-66.179252 385.524084 -88.724234 383.277917 -107.1875 375.25 C-119.044297 369.642257 -129.637447 361.966685 -140.1875 354.25 C-143.671418 372.483286 -146.499123 390.764332 -149.043457 409.149902 C-150.207573 417.540269 -151.417269 425.916671 -152.804688 434.273438 C-152.928286 435.019936 -153.051885 435.766434 -153.17923 436.535553 C-153.733106 439.812061 -154.355105 443.033768 -155.1875 446.25 C-153.955237 446.083953 -152.722974 445.917905 -151.453369 445.746826 C-107.854828 439.877365 -107.854828 439.877365 -88.042969 437.581055 C-82.67345 436.958528 -77.305381 436.323968 -71.9375 435.6875 C-70.949111 435.572532 -69.960723 435.457563 -68.942383 435.339111 C-63.988338 434.752228 -59.067918 434.079026 -54.144531 433.273438 C-45.5109 431.922558 -36.8252 431.210344 -28.125 430.4375 C-24.301901 430.091841 -20.479075 429.743202 -16.65625 429.394531 C-15.658188 429.303854 -14.660127 429.213176 -13.631821 429.119751 C-5.991482 428.42289 1.645338 427.692918 9.28125 426.949219 C10.413727 426.83912 11.546203 426.729021 12.712997 426.615585 C17.168881 426.182014 21.624725 425.748105 26.080109 425.309418 C37.963537 424.140046 49.84853 423.051748 61.753906 422.128906 C62.81489 422.046316 63.875874 421.963725 64.969009 421.878632 C71.206176 421.407231 77.437532 421.055564 83.6875 420.8125 C92.850621 420.415283 101.924337 419.454025 111.028809 418.35376 C117.975088 417.546041 124.880365 417.07377 131.863281 416.785156 C143.540934 416.296705 155.119949 415.134445 166.739258 413.904053 C175.927064 412.938813 185.051317 412.078343 194.296875 412.058594 C194.985899 412.056494 195.674923 412.054394 196.384827 412.052231 C201.69348 412.106105 206.098842 412.804498 210.8125 415.25 C211.556289 415.628984 212.300078 416.007969 213.066406 416.398438 C222.806041 422.100491 228.328307 431.25339 231.191406 441.980469 C232.955639 451.267658 232.672703 460.331021 227.40625 468.40625 C219.090389 478.918753 206.47923 481.318889 193.875 483.0625 C186.607202 484.096859 179.345682 485.13693 172.109375 486.375 C153.94 489.477784 135.715709 491.828248 117.421844 494.071411 C100.157627 496.188456 82.915312 498.416944 65.6875 500.8125 C61.492256 501.395029 57.296957 501.977151 53.101562 502.558594 C51.567649 502.771183 51.567649 502.771183 50.002747 502.988068 C31.621933 505.527491 13.216115 507.882621 -5.1875 510.25 C-6.064042 510.362793 -6.940585 510.475586 -7.843689 510.591797 C-17.725432 511.863038 -27.607819 513.129229 -37.490494 514.393204 C-45.077343 515.363608 -52.663933 516.33599 -60.25 517.3125 C-62.138275 517.555529 -62.138275 517.555529 -64.064697 517.803467 C-70.155994 518.590245 -76.245412 519.388714 -82.332031 520.210938 C-83.520305 520.371345 -84.708579 520.531753 -85.932861 520.697021 C-88.350789 521.02376 -90.768595 521.351395 -93.186279 521.679932 C-100.658698 522.683225 -108.135756 523.605398 -115.625 524.472656 C-117.453951 524.686827 -119.28289 524.901101 -121.111816 525.115479 C-124.649364 525.529822 -128.188089 525.930653 -131.728027 526.323975 C-150.810628 527.854322 -150.810628 527.854322 -167.1875 536.25 C-170.620867 541.037521 -171.903633 546.699853 -173.351562 552.320312 C-177.661769 567.426177 -185.40504 579.400088 -199.1875 587.25 C-205.340783 590.138056 -211.427267 591.095029 -218.1875 590.25 C-225.253148 587.520091 -229.500697 580.245617 -232.509766 573.640625 C-232.836543 572.892969 -233.16332 572.145313 -233.5 571.375 C-235.357821 566.474494 -235.357821 566.474494 -238.1875 562.25 C-238.274356 560.688273 -238.294522 559.122707 -238.285156 557.558594 C-238.281934 556.614355 -238.278711 555.670117 -238.275391 554.697266 C-238.267012 553.704043 -238.258633 552.71082 -238.25 551.6875 C-238.245488 550.69041 -238.240977 549.69332 -238.236328 548.666016 C-238.2245 546.193952 -238.208018 543.722005 -238.1875 541.25 C-257.214255 544.091385 -276.234015 546.948745 -295.1875 550.25 C-295.88015 550.370527 -296.572799 550.491055 -297.286438 550.615234 C-317.854929 554.19905 -338.348519 558.005284 -358.776367 562.32666 C-367.322392 564.12335 -375.883557 565.847823 -384.440979 567.589203 C-399.359969 570.625815 -414.277713 573.668486 -429.1875 576.75 C-430.305762 576.980742 -431.424023 577.211484 -432.576172 577.449219 C-436.949199 578.355119 -441.316913 579.272442 -445.671875 580.261719 C-450.147166 581.265945 -454.648205 582.107973 -459.156494 582.949707 C-468.579551 584.70965 -477.941039 586.583295 -487.25 588.875 C-494.068857 590.552263 -500.866386 591.994281 -507.791504 593.154541 C-515.826077 594.501889 -523.80123 596.137498 -531.783203 597.763916 C-533.458025 598.10252 -535.133897 598.43595 -536.810547 598.765381 C-541.18235 599.625174 -545.506234 600.536127 -549.8125 601.6875 C-553.93327 602.749554 -558.037115 603.603149 -562.226562 604.325928 C-576.704313 606.741259 -576.704313 606.741259 -588.1875 615.25 C-593.94607 624.792715 -597.027385 635.308963 -600.3125 645.875 C-601.330764 649.118836 -602.354728 652.360826 -603.382812 655.601562 C-603.627266 656.373525 -603.87172 657.145487 -604.123581 657.940842 C-605.655961 662.730974 -607.349045 667.406358 -609.289062 672.048828 C-611.241462 676.832206 -612.812563 681.765481 -614.455078 686.662109 C-616.299546 692.043565 -618.467611 697.169631 -620.864014 702.327393 C-622.762494 706.519738 -624.461075 710.786437 -626.181641 715.054199 C-632.821133 731.47998 -640.25946 747.410062 -648.1875 763.25 C-648.69249 764.267876 -649.19748 765.285752 -649.717773 766.334473 C-660.695784 788.374826 -673.477577 809.49345 -688.1875 829.25 C-688.606606 829.813965 -689.025713 830.37793 -689.45752 830.958984 C-696.421378 840.273524 -703.782681 849.284625 -711.1875 858.25 C-711.685078 858.854893 -712.182656 859.459785 -712.695312 860.083008 C-723.628167 873.317901 -735.459502 885.876878 -749.1875 896.25 C-750.229063 897.046641 -751.270625 897.843281 -752.34375 898.664062 C-765.808804 908.744233 -780.379336 916.541496 -796.1875 922.25 C-796.945469 922.542617 -797.703438 922.835234 -798.484375 923.136719 C-800.699825 923.948192 -802.914813 924.613923 -805.1875 925.25 C-806.421133 925.601914 -807.654766 925.953828 -808.925781 926.316406 C-831.05781 932.167431 -854.736299 930.990391 -875.1875 920.25 C-883.616873 915.128722 -891.05615 909.052016 -898.1875 902.25 C-898.799805 901.712461 -899.412109 901.174922 -900.042969 900.621094 C-914.977857 886.984891 -923.58985 865.081296 -924.5 845.167969 C-924.619872 839.851125 -924.452618 834.56016 -924.1875 829.25 C-924.148828 828.395352 -924.110156 827.540703 -924.070312 826.660156 C-920.889921 765.203775 -886.785236 705.446567 -847.1875 660.25 C-846.438555 659.387617 -845.689609 658.525234 -844.917969 657.636719 C-836.025375 647.556246 -826.492437 637.889101 -816.1875 629.25 C-815.295469 628.468828 -814.403437 627.687656 -813.484375 626.882812 C-776.801571 594.918741 -733.549243 572.777115 -690.25 551.3125 C-680.731569 546.577654 -671.30204 541.730325 -662.1875 536.25 C-661.303203 535.72793 -660.418906 535.205859 -659.507812 534.667969 C-652.831548 529.89381 -651.235335 521.976744 -648.927979 514.487549 C-648.174523 512.210787 -647.304118 510.020181 -646.386719 507.804688 C-643.613344 500.998206 -641.345354 494.021883 -639.033447 487.048584 C-638.259166 484.715125 -637.478572 482.383849 -636.697266 480.052734 C-633.959049 471.844211 -631.380833 463.610511 -628.97879 455.297531 C-627.083449 448.785156 -624.896575 442.390538 -622.625 436 C-619.958177 428.464728 -617.420748 420.91988 -615.126221 413.261963 C-613.651136 408.529033 -611.934933 403.888134 -610.1875 399.25 C-616.232709 404.0474 -622.056788 408.9773 -627.6875 414.25 C-633.32596 419.509362 -639.087369 424.524899 -645.1875 429.25 C-645.708926 429.654604 -646.230352 430.059209 -646.767578 430.476074 C-665.912959 445.174166 -685.777778 453.302185 -710.1875 451.25 C-726.434425 448.510693 -740.644116 437.764914 -750.5 424.9375 C-765.250042 403.615363 -764.394961 377.847827 -760.082764 353.364502 C-755.821774 330.159801 -750.64462 306.983206 -744.060303 284.327148 C-743.006641 280.612365 -742.139247 276.896543 -741.3125 273.125 C-739.462919 264.963912 -737.091067 256.995558 -734.632812 249 C-733.053206 243.859584 -731.628654 238.684228 -730.242188 233.488281 C-729.12875 230.069615 -727.714194 226.907321 -726.226562 223.639404 C-724.502147 219.673977 -723.137882 215.592778 -721.75 211.5 C-719.815457 205.854567 -717.830129 200.272427 -715.5625 194.75 C-708.831934 177.436504 -705.451239 158.325849 -704.6875 139.8125 C-704.296986 130.376952 -703.546381 120.731036 -697.1875 113.25 C-690.254577 107.142425 -683.497233 107.610279 -674.640137 108.023438 C-660.946664 109.288373 -649.125098 115.948627 -640.1875 126.25 C-634.323657 134.33806 -633.916123 144.649222 -635.1875 154.25 C-636.821047 162.024824 -639.122998 169.632929 -641.341797 177.256348 C-642.428375 181.102659 -643.330227 184.972494 -644.1875 188.875 C-645.777415 195.930858 -647.730859 202.868291 -649.75 209.8125 C-650.189893 211.330613 -650.189893 211.330613 -650.638672 212.879395 C-651.896059 217.147556 -653.185092 221.363906 -654.789062 225.515625 C-656.146585 229.14074 -657.116091 232.671807 -658 236.4375 C-659.507192 242.696606 -661.199892 248.881619 -663 255.0625 C-678.526076 300.540496 -678.526076 300.540496 -672.25 346.25 C-670.139377 349.319997 -669.54156 350.023045 -666.1875 351.25 C-656.342537 352.316331 -647.754283 351.510661 -639.773438 345.402344 C-637.146724 343.105012 -634.665972 340.706441 -632.1875 338.25 C-631.195196 337.304743 -630.201664 336.360774 -629.207031 335.417969 C-613.34929 320.207739 -604.169867 302.730894 -596.4375 282.4375 C-595.882395 281.000309 -595.326407 279.563459 -594.769531 278.126953 C-593.707414 275.384886 -592.64979 272.641159 -591.595703 269.895996 C-590.111397 266.05296 -588.584573 262.22894 -587.045898 258.407471 C-585.706584 255.041281 -584.445259 251.647318 -583.1875 248.25 C-581.566348 243.897206 -579.932757 239.554968 -578.1875 235.25 C-575.658032 228.999497 -573.328702 222.673279 -570.974121 216.355469 C-570.201531 214.287556 -569.423987 212.221584 -568.644531 210.15625 C-565.780129 202.561231 -562.990459 194.94607 -560.273438 187.296875 C-558.703894 182.89312 -557.120749 178.498283 -555.328125 174.179688 C-552.702668 167.831247 -550.511135 161.373993 -548.381592 154.846191 C-546.061343 147.754169 -543.41616 140.81909 -540.6875 133.875 C-539.192613 130.008759 -537.817646 126.175116 -536.6875 122.1875 C-529.233387 96.512223 -514.504215 76.287615 -491.1875 63.25 C-480.557968 57.742731 -469.593307 55.147302 -457.625 55 C-456.365586 54.974219 -455.106172 54.948437 -453.808594 54.921875 C-449.212761 55.338326 -445.935827 56.617952 -442.542969 59.785156 C-437.169061 66.812574 -437.522429 73.662759 -438.1875 82.25 C-438.713131 84.676778 -439.364612 86.786263 -440.335938 89.0625 C-441.317364 91.583595 -441.949176 94.143606 -442.584961 96.77002 C-443.87736 102.089382 -445.261279 107.386072 -446.625 112.6875 C-446.924707 113.86377 -447.224414 115.040039 -447.533203 116.251953 C-450.041476 125.985793 -450.041476 125.985793 -451.660156 130.660156 C-453.647475 136.415211 -455.118819 142.314176 -456.653137 148.202087 C-457.36892 150.945281 -458.093535 153.686112 -458.818024 156.427017 C-459.37455 158.532609 -459.930041 160.638472 -460.485352 162.744385 C-464.882335 179.41038 -469.328561 196.049116 -474.240967 212.571777 C-476.250417 219.373356 -478.112284 226.213606 -479.956787 233.061523 C-481.297121 238.028344 -482.677126 242.981243 -484.097656 247.925781 C-486.122484 254.985083 -488.067548 262.06476 -489.992523 269.151733 C-490.579168 271.31136 -491.167016 273.470656 -491.755127 275.629883 C-493.471946 281.93455 -495.185335 288.240137 -496.894531 294.546875 C-500.679523 308.4987 -504.612192 322.405063 -508.652344 336.285156 C-511.518338 346.171838 -514.201049 356.089031 -516.75 366.0625 C-518.900849 374.473221 -521.213648 382.751265 -523.882812 391.011719 C-527.023604 400.975523 -529.509207 411.154789 -532.1875 421.25 C-533.433589 425.938552 -534.684448 430.625804 -535.9375 435.3125 C-536.218999 436.375815 -536.500498 437.439131 -536.790527 438.534668 C-538.216233 443.867676 -539.764947 449.112364 -541.553223 454.334717 C-542.348691 456.736736 -542.942032 459.157793 -543.5 461.625 C-544.80067 467.005668 -546.422471 472.237063 -548.125 477.5 C-550.498261 484.853375 -552.535816 492.219254 -554.328125 499.734375 C-555.192211 503.269274 -556.178972 506.753978 -557.1875 510.25 C-552.082961 509.356278 -546.978891 508.459914 -541.875 507.5625 C-540.724784 507.3605 -540.724784 507.3605 -539.551331 507.154419 C-529.208191 505.336539 -518.881176 503.452323 -508.5625 501.5 C-500.406332 499.962615 -492.299246 498.653909 -484.050781 497.744873 C-480.272561 497.260896 -476.583625 496.594791 -472.847656 495.855469 C-464.043379 494.156951 -455.194189 492.903081 -446.3125 491.6875 C-434.044209 490.023558 -434.044209 490.023558 -421.874023 487.770264 C-414.621593 486.365781 -407.271564 485.424783 -399.963623 484.351807 C-397.757971 484.02709 -395.552808 483.699193 -393.347656 483.371094 C-392.044495 483.179587 -390.741333 482.988081 -389.398682 482.790771 C-386.182653 482.334104 -386.182653 482.334104 -383.1875 481.25 C-381.011814 480.927475 -378.83111 480.638435 -376.648438 480.367188 C-367.673714 479.217406 -358.746566 477.802367 -349.8125 476.375 C-348.121116 476.106063 -346.429709 475.837266 -344.738281 475.568604 C-341.401192 475.038205 -338.064283 474.506693 -334.727539 473.974121 C-330.889102 473.361532 -327.050139 472.752319 -323.210938 472.144531 C-314.794846 470.808898 -306.382531 469.45677 -297.980469 468.035156 C-283.187352 465.533485 -268.388046 463.209297 -253.527344 461.144531 C-251.967538 460.923981 -251.967538 460.923981 -250.376221 460.698975 C-248.15975 460.386894 -245.942023 460.083661 -243.723389 459.787354 C-237.996496 458.982486 -232.838334 458.209046 -227.625 455.5625 C-226.674961 455.104883 -225.724922 454.647266 -224.746094 454.175781 C-219.843181 450.485497 -218.160772 446.184987 -217.246094 440.316406 C-217.025404 438.483364 -216.818933 436.648566 -216.625 434.8125 C-216.385761 432.842088 -216.143554 430.872034 -215.898438 428.902344 C-215.780811 427.939253 -215.663184 426.976162 -215.541992 425.983887 C-214.015797 414.213683 -211.175871 402.718884 -208.1875 391.25 C-207.85217 389.917168 -207.517662 388.584122 -207.1875 387.25 C-216.860777 390.392691 -216.860777 390.392691 -226.4375 393.8125 C-227.044648 394.041953 -227.651797 394.271406 -228.277344 394.507812 C-229.671521 395.049518 -231.058695 395.609349 -232.441406 396.179688 C-246.317665 401.645451 -264.879247 406.832036 -279.566406 402.179688 C-292.028951 396.470937 -298.115961 387.353269 -303.483887 375.19873 C-304.556566 372.227832 -304.897679 369.389051 -305.1875 366.25 C-305.8475 366.25 -306.5075 366.25 -307.1875 366.25 C-307.469644 366.837007 -307.751787 367.424014 -308.04248 368.028809 C-309.837293 371.510515 -312.089492 374.655471 -314.3125 377.875 C-314.8046 378.588496 -315.296699 379.301992 -315.803711 380.037109 C-319.701143 385.641094 -323.792395 391.024919 -328.1875 396.25 C-328.746953 396.943516 -329.306406 397.637031 -329.882812 398.351562 C-338.231092 408.408328 -348.553085 414.689623 -360.1875 420.25 C-361.095 420.708906 -362.0025 421.167813 -362.9375 421.640625 C-377.712599 427.884863 -398.411582 425.71418 -413.1875 420.25 C-432.416308 412.403996 -445.229254 398.951933 -453.398438 380.09375 C-456.918836 371.178891 -458.487634 361.645154 -460.1875 352.25 C-460.539414 350.413086 -460.539414 350.413086 -460.898438 348.539062 C-463.423618 334.595674 -463.425088 320.558999 -463.4375 306.4375 C-463.439172 305.435103 -463.440844 304.432706 -463.442566 303.399933 C-463.443956 289.505346 -463.085303 275.982114 -460.559082 262.280273 C-460.225392 260.457037 -459.950647 258.623245 -459.683594 256.789062 C-457.419208 241.24436 -452.484038 226.139725 -448.033691 211.117676 C-447.257098 208.485861 -446.490949 205.851352 -445.730469 203.214844 C-445.509958 202.453572 -445.289448 201.6923 -445.062256 200.907959 C-444.663834 199.531775 -444.267311 198.155039 -443.873291 196.777588 C-442.531579 192.172025 -440.913897 187.720289 -439.1875 183.25 C-438.94 182.596606 -438.6925 181.943213 -438.4375 181.27002 C-419.20009 130.486729 -390.572722 71.675223 -339.886719 45.460938 C-324.09395 38.375904 -306.300537 36.389444 -289.6875 41.914062 C-279.018576 45.986353 -268.530101 50.402604 -258.1875 55.25 C-257.923242 54.53457 -257.658984 53.819141 -257.386719 53.082031 C-253.492951 43.886651 -246.523117 32.612681 -237.1875 28.25 C-234.313704 27.901309 -231.744767 27.726387 -228.875 27.75 C-228.087544 27.75427 -227.300088 27.75854 -226.48877 27.762939 C-215.68827 28.069022 -203.578499 31.12431 -195.1875 38.25 C-189.298476 44.603947 -188.443526 50.076098 -188.6875 58.582031 C-189.383157 69.227519 -192.227039 79.697767 -194.580811 90.078949 C-196.508615 98.601026 -198.282859 107.154144 -200.05835 115.709015 C-201.003496 120.260003 -201.954815 124.809698 -202.90625 129.359375 C-203.094493 130.260072 -203.282737 131.160769 -203.476685 132.08876 C-204.796928 138.399947 -206.129958 144.70835 -207.46875 151.015625 C-207.835401 152.745843 -208.202019 154.476067 -208.568604 156.206299 C-209.088377 158.65938 -209.608939 161.112277 -210.132538 163.564545 C-211.842262 171.572125 -213.494524 179.566064 -214.734863 187.66333 C-215.228821 190.486137 -215.901307 193.227825 -216.625 196 C-218.139868 201.847391 -219.260273 207.728965 -220.332764 213.671875 C-220.885194 216.680778 -221.474266 219.67853 -222.10083 222.672852 C-224.527366 234.289012 -226.45985 245.919954 -228.052734 257.678711 C-228.439443 260.514244 -228.844329 263.346813 -229.25 266.179688 C-232.682082 287.179838 -232.682082 287.179838 -227.28125 307.113281 C-226.1875 309.25 -226.1875 309.25 -226.1875 312.25 C-210.432421 308.577918 -201.22133 303.543266 -191.9375 289.6875 C-186.739152 280.604517 -185.302727 269.595416 -183.738281 259.378906 C-183.107107 255.793298 -182.249942 252.281547 -181.375 248.75 C-179.220648 239.950778 -177.676501 231.062465 -176.120605 222.141113 C-173.879189 209.341126 -171.302871 196.615105 -168.70459 183.883789 C-167.114843 176.021828 -165.656453 168.135195 -164.1875 160.25 C-161.232374 144.387178 -161.232374 144.387178 -159.647949 136.561523 C-159.153289 134.078257 -158.685066 131.59103 -158.222656 129.101562 C-155.2954 113.349709 -155.2954 113.349709 -153.6875 107.375 C-151.888856 100.581208 -150.836047 93.656543 -149.667969 86.733154 C-148.637269 80.677304 -147.434519 74.719994 -145.964844 68.753906 C-145.104658 64.876584 -144.429047 60.986785 -143.758301 57.072998 C-141.226102 42.386978 -138.843288 29.662311 -126.25 20.375 C-117.725295 14.414637 -107.244839 13.898699 -97.1875 15.25 C-89.343465 17.612766 -82.300494 22.010168 -78.1875 29.25 C-76.283967 34.577154 -75.1875 39.590582 -75.1875 45.25 C-69.570012 40.410071 -64.126559 35.417664 -58.75 30.3125 C-57.246664 28.89653 -55.742764 27.481158 -54.238281 26.066406 C-51.997305 23.958243 -49.764034 21.844048 -47.542969 19.714844 C-34.000681 7.07705 -18.373707 0.093803 0 0 Z " fill="#FEFDFE" transform="translate(1297.1875,864.75)"/>
<path d="M0 0 C1.117939 0.214629 2.235879 0.429258 3.387695 0.650391 C46.245624 9.043932 87.203376 25.03634 122 52 C122.625356 52.484043 123.250713 52.968086 123.89502 53.466797 C144.230926 69.343119 162.578085 87.288041 178 108 C178.698752 108.922083 178.698752 108.922083 179.411621 109.862793 C197.028618 133.223038 209.611048 159.311819 218.875 186.9375 C219.110606 187.638105 219.346213 188.338711 219.588959 189.060547 C223.998274 202.257708 227.082134 215.418585 229.125 229.1875 C229.293867 230.285137 229.462734 231.382773 229.636719 232.513672 C231.128492 242.374645 232.154029 252.069192 232.203125 262.046875 C232.208825 262.979371 232.214525 263.911866 232.220398 264.87262 C232.229784 266.839059 232.236356 268.805514 232.240234 270.771973 C232.24984 273.701147 232.280883 276.629587 232.3125 279.558594 C232.415215 297.698344 230.13876 315.294215 226.25 333 C225.99686 334.165715 225.743721 335.331431 225.48291 336.532471 C222.276849 350.825267 218.094356 364.674782 212 378 C211.339618 379.515697 210.682105 381.032647 210.027344 382.550781 C198.153499 409.753973 182.780134 433.634492 163.488281 456.097656 C161.991897 457.843046 160.506425 459.598004 159.042969 461.371094 C157.737407 462.949839 156.376308 464.482533 155 466 C154.34 466 153.68 466 153 466 C153 466.66 153 467.32 153 468 C152.34 468 151.68 468 151 468 C151 468.66 151 469.32 151 470 C150.34 470 149.68 470 149 470 C149 470.66 149 471.32 149 472 C147.742188 473.304687 147.742188 473.304687 145.875 474.875 C145.137656 475.498906 144.400312 476.122813 143.640625 476.765625 C142.769219 477.502969 141.897812 478.240313 141 479 C139.993044 479.888649 138.987939 480.779397 137.984375 481.671875 C117.623936 499.655869 95.145684 512.790415 71 525 C70.347573 525.331611 69.695146 525.663223 69.022949 526.004883 C54.473477 533.323938 39.052587 537.958118 23.25 541.6875 C22.098948 541.960701 20.947896 542.233901 19.761963 542.515381 C15.852449 543.403919 11.931687 544.217278 8 545 C7.149964 545.173651 6.299928 545.347302 5.424133 545.526215 C-9.674815 548.549964 -24.286724 549.607304 -39.67334 549.466553 C-43.13037 549.437455 -46.585867 549.446039 -50.042969 549.458984 C-64.263264 549.444713 -77.976262 548.319005 -92 546 C-93.437945 545.773944 -94.876007 545.548632 -96.314209 545.324219 C-110.424644 543.048748 -124.565301 538.941516 -137.855469 533.714844 C-141.995516 532.19938 -144.721513 531.395568 -149 533 C-151.984764 534.759522 -151.984764 534.759522 -155 537.125 C-156.229815 538.037798 -157.461735 538.947763 -158.695312 539.855469 C-159.373682 540.356108 -160.052051 540.856748 -160.750977 541.372559 C-165.059226 544.4901 -169.473391 547.454011 -173.875 550.4375 C-175.781357 551.732916 -177.687608 553.028487 -179.59375 554.324219 C-180.972402 555.260803 -180.972402 555.260803 -182.378906 556.216309 C-186.052206 558.716041 -189.715224 561.230523 -193.375 563.75 C-194.011636 564.188201 -194.648271 564.626401 -195.304199 565.077881 C-196.568443 565.948283 -197.832604 566.818806 -199.09668 567.689453 C-201.056063 569.038602 -203.016183 570.386674 -204.976562 571.734375 C-205.640994 572.191187 -206.305425 572.647998 -206.98999 573.118652 C-208.317341 574.030853 -209.644972 574.942645 -210.9729 575.854004 C-214.475408 578.258814 -217.970711 580.673333 -221.457031 583.101562 C-222.185996 583.60752 -222.914961 584.113477 -223.666016 584.634766 C-225.066504 585.607079 -226.465039 586.582213 -227.861328 587.560547 C-233.61838 591.549824 -238.06417 592.889834 -245 592 C-248.584923 589.864301 -250.564671 587.888667 -252 584 C-252.20731 581.064121 -252.281451 578.248443 -252.25 575.3125 C-252.244683 574.385503 -252.239365 573.458506 -252.233887 572.503418 C-251.970747 551.242424 -250.916071 529.856878 -248.9375 508.6875 C-248.700275 505.908148 -248.475248 503.128292 -248.259766 500.347168 C-248.119815 498.543855 -247.978164 496.740652 -247.826416 494.938293 C-247.426956 490.183603 -247.096193 485.430489 -246.834747 480.666168 C-246.738119 479.080606 -246.621473 477.496112 -246.48288 475.913666 C-245.539108 466.207627 -245.539108 466.207627 -249.261963 457.530518 C-251.950476 454.440235 -254.967277 451.747083 -258 449 C-260.153536 446.488619 -262.113127 443.859218 -264.0625 441.1875 C-264.560159 440.511387 -265.057817 439.835273 -265.570557 439.138672 C-267.059225 437.100922 -268.532285 435.052878 -270 433 C-270.639536 432.113689 -270.639536 432.113689 -271.291992 431.209473 C-283.038639 414.791182 -292.297531 396.619881 -300 378 C-300.703207 376.47679 -301.410776 374.955576 -302.125 373.4375 C-305.864602 365.039516 -308.750256 356.050595 -310.539062 347.039062 C-311.199188 344.118846 -312.192972 341.34099 -313.21875 338.53125 C-314.389657 334.73751 -315.196215 330.886205 -316 327 C-316.264419 325.732529 -316.264419 325.732529 -316.53418 324.439453 C-319.850731 307.609014 -320.38755 291.041496 -320.375 273.9375 C-320.376631 272.895454 -320.378263 271.853408 -320.379944 270.779785 C-320.376756 252.766626 -319.314343 235.19541 -315.4375 217.5625 C-315.18428 216.396543 -314.93106 215.230586 -314.670166 214.029297 C-304.178982 167.688329 -282.596741 125.41211 -251 90 C-250.208516 89.097656 -249.417031 88.195312 -248.601562 87.265625 C-240.948408 78.618903 -232.882774 70.387507 -224 63 C-223.515312 62.590884 -223.030625 62.181768 -222.53125 61.760254 C-206.972269 48.683791 -189.97923 37.462994 -172 28 C-171.347251 27.652437 -170.694502 27.304873 -170.021973 26.946777 C-160.917171 22.126849 -151.727775 18.194645 -142.02002 14.749756 C-139.748416 13.906621 -137.519392 12.978982 -135.28125 12.050781 C-129.591234 9.760277 -123.783873 8.065589 -117.875 6.4375 C-116.768259 6.132314 -115.661519 5.827129 -114.52124 5.512695 C-106.056767 3.217287 -97.685475 1.264764 -89 0 C-88.156792 -0.133901 -87.313584 -0.267803 -86.444824 -0.405762 C-58.382969 -4.767886 -27.94153 -5.430164 0 0 Z " fill="#01CFB4" transform="translate(1110,213)"/>
<path d="M0 0 C12.655955 10.933661 20.80194 24.0103 22.679688 40.707031 C22.821663 42.747588 22.944611 44.789506 23.054688 46.832031 C23.143633 48.083711 23.232578 49.335391 23.324219 50.625 C25.348942 91.286608 1.85528 133.179733 -24.375 162.738281 C-31.066846 170.130415 -37.97616 176.803194 -45.945312 182.832031 C-46.876016 183.566797 -47.806719 184.301563 -48.765625 185.058594 C-62.674488 195.851871 -77.89618 203.70257 -93.945312 210.832031 C-94.726243 211.182656 -95.507173 211.533281 -96.311768 211.894531 C-104.478765 215.376449 -113.042138 217.121695 -121.689453 219.011719 C-129.583118 220.859992 -137.257637 222.85244 -142.300049 229.661377 C-150.216304 244.112029 -152.144828 267.975713 -147.910156 283.667969 C-144.230318 291.806665 -138.211766 297.155041 -130.757812 301.832031 C-119.578489 304.764313 -107.11855 303.611736 -97.007812 298.082031 C-96.28199 297.691526 -95.556167 297.301021 -94.80835 296.898682 C-86.874819 292.473146 -79.807424 286.980522 -72.751953 281.289062 C-71.228485 280.060406 -69.69009 278.850293 -68.148438 277.644531 C-58.150309 269.802862 -48.343213 261.629806 -39.617188 252.378906 C-37.945312 250.832031 -37.945312 250.832031 -35.945312 250.832031 C-35.945312 250.172031 -35.945312 249.512031 -35.945312 248.832031 C-35.285312 248.832031 -34.625313 248.832031 -33.945312 248.832031 C-33.945312 248.172031 -33.945312 247.512031 -33.945312 246.832031 C-33.285312 246.832031 -32.625313 246.832031 -31.945312 246.832031 C-31.945312 246.172031 -31.945312 245.512031 -31.945312 244.832031 C-30.018353 243.226232 -28.097588 241.737798 -26.070312 240.269531 C-25.514727 239.857676 -24.959141 239.44582 -24.386719 239.021484 C-19.753671 235.610891 -17.046541 234.336557 -11.320312 234.4375 C-6.13698 235.298547 -3.365815 238.926394 -0.355469 242.964844 C5.744151 252.370365 9.706205 263.702559 11.054688 274.832031 C11.215176 276.137207 11.215176 276.137207 11.378906 277.46875 C12.158764 289.617197 4.98365 298.520879 -2.588776 307.305542 C-6.451977 311.652741 -10.574058 315.753957 -14.701172 319.848633 C-16.318775 321.455504 -17.925382 323.072816 -19.53125 324.691406 C-26.023537 331.192248 -32.719733 337.144253 -39.945312 342.832031 C-41.006565 343.700167 -42.066741 344.569624 -43.125 345.441406 C-63.961748 361.990012 -87.533111 374.085292 -112.945312 381.832031 C-113.6804 382.057939 -114.415488 382.283848 -115.172852 382.516602 C-136.984078 388.950271 -160.296138 387.839919 -180.578125 377.488281 C-187.154885 373.777257 -192.567309 369.103715 -197.945312 363.832031 C-198.634961 363.178477 -199.324609 362.524922 -200.035156 361.851562 C-219.077902 342.356316 -222.299854 313.744539 -224.695312 287.957031 C-224.76034 287.27405 -224.825367 286.591068 -224.892365 285.88739 C-226.597237 267.659533 -225.623107 250.88748 -222.882812 232.832031 C-222.726695 231.7821 -222.570577 230.732169 -222.409729 229.650421 C-220.415123 216.279807 -218.213222 202.977139 -215.320312 189.769531 C-215.055974 188.555879 -214.791636 187.342227 -214.519287 186.091797 C-212.804885 178.633965 -210.577606 171.464734 -208.100586 164.235107 C-206.729216 160.195479 -205.534426 156.12564 -204.382812 152.019531 C-202.578335 145.776978 -200.511939 139.807072 -197.945312 133.832031 C-197.361673 132.410816 -196.779821 130.988866 -196.199219 129.566406 C-191.890013 119.0748 -187.189781 108.886869 -181.945312 98.832031 C-181.381992 97.736328 -180.818672 96.640625 -180.238281 95.511719 C-170.144619 76.269936 -157.613801 58.673136 -143.945312 41.832031 C-143.285715 41.013638 -143.285715 41.013638 -142.612793 40.178711 C-122.94378 15.945098 -98.181489 -10.298845 -65.351074 -13.980469 C-41.836773 -15.813124 -19.534367 -14.378745 0 0 Z " fill="#FEFDFE" transform="translate(1593.9453125,845.16796875)"/>
<path d="M0 0 C10.28005 9.414584 17.053734 21.216204 20.296875 34.660156 C20.673496 36.777487 20.673496 36.777487 21.875 37.8125 C22.729732 43.359033 23.111858 48.829884 23.1875 54.4375 C23.216504 55.161953 23.245508 55.886406 23.275391 56.632812 C23.336468 61.819704 22.310353 64.712043 18.875 68.8125 C13.861794 73.073725 7.992483 73.376436 1.644531 73.128906 C-3.582696 72.53172 -6.575617 70.63421 -9.9375 66.75 C-13.058081 62.559505 -13.287748 60.244023 -13.75 55.0625 C-14.841904 45.582836 -18.271859 35.959473 -25.375 29.25 C-38.329449 19.796753 -53.730104 19.743046 -69.125 20.8125 C-78.93718 22.566465 -86.733423 27.05491 -92.625 35.125 C-96.554439 42.219521 -96.141479 49.983282 -95.125 57.8125 C-93.046386 64.276135 -87.893624 68.523199 -82.125 71.8125 C-78.531094 73.387677 -74.850817 74.589816 -71.125 75.8125 C-68.958112 76.624411 -66.791459 77.436947 -64.625 78.25 C-59.140744 80.21549 -53.647123 81.766033 -48 83.1875 C-22.996242 89.556501 4.872196 98.785859 19.625 121.507812 C29.657129 139.114199 32.799152 162.009569 27.440674 181.759521 C21.093865 201.239018 8.982055 217.264839 -8.96875 227.214844 C-30.650334 238.189804 -56.716443 240.382856 -80.125 233.8125 C-81.3625 233.483789 -82.6 233.155078 -83.875 232.816406 C-101.621894 227.561434 -117.69322 215.91001 -127.125 199.8125 C-129.618182 195.210502 -131.92539 190.561138 -134.125 185.8125 C-134.455 185.104805 -134.785 184.397109 -135.125 183.667969 C-139.054721 174.273479 -140.391523 163.861908 -140.5625 153.75 C-140.595734 152.697279 -140.595734 152.697279 -140.629639 151.623291 C-140.608368 146.561566 -139.291191 143.704882 -136.125 139.8125 C-130.231083 135.53941 -124.217321 135.210528 -117.125 135.8125 C-111.869749 137.449382 -108.73236 139.674646 -105.125 143.8125 C-103.912186 146.238128 -103.913136 148.042721 -103.75 150.75 C-102.617737 163.537908 -98.419468 175.152957 -88.9375 184.1875 C-75.943027 194.781299 -60.528421 198.161851 -44.125 196.8125 C-32.831309 195.550711 -22.634598 192.782298 -15.125 183.8125 C-8.547451 174.569413 -6.997225 166.148992 -8.125 154.8125 C-10.594838 146.377564 -15.475617 141.50494 -22.890625 137.210938 C-37.56084 129.739363 -53.97916 125.633521 -69.777344 121.222656 C-90.958998 115.263665 -111.539884 106.820077 -123.208496 86.969238 C-124.345054 84.935372 -125.432786 82.883551 -126.5 80.8125 C-126.834109 80.1724 -127.168218 79.5323 -127.512451 78.872803 C-134.408447 64.802131 -134.485133 45.012277 -130.5625 30.0625 C-123.769374 10.768135 -111.133637 -3.462851 -92.75 -12.5 C-62.476282 -25.747002 -25.525803 -20.661357 0 0 Z " fill="#5E0C72" transform="translate(1067.125,396.1875)"/>
<path d="M0 0 C6.921627 3.861969 9.879716 10.88754 12.19458 18.124756 C13.310258 22.1219 13.977583 26.145555 14.5625 30.25 C14.688425 31.131558 14.814351 32.013115 14.944092 32.921387 C15.923485 40.190245 16.296423 47.234336 15.875 54.5625 C15.827144 55.472095 15.779287 56.381689 15.72998 57.318848 C14.276064 83.410643 9.756093 108.334878 1.649414 133.179199 C1.088457 134.905574 0.533943 136.634046 -0.016602 138.36377 C-3.744602 150.07303 -7.550305 161.441136 -13.081055 172.436035 C-14.341617 175.003739 -15.533551 177.599452 -16.726562 180.199219 C-25.909844 200.08993 -25.909844 200.08993 -33.125 208.5625 C-33.746328 209.353984 -34.367656 210.145469 -35.007812 210.960938 C-42.17225 219.69169 -51.466265 225.073868 -62.125 228.5625 C-62.805625 228.788086 -63.48625 229.013672 -64.1875 229.246094 C-73.424892 231.782877 -85.745742 232.453164 -94.355469 227.84375 C-97.798538 225.350755 -100.215358 222.381784 -102.125 218.5625 C-102.491984 212.822877 -101.451759 207.927658 -100 202.4375 C-99.777717 201.571492 -99.555435 200.705483 -99.326416 199.813232 C-97.446908 192.576899 -95.37979 185.396768 -93.288818 178.219238 C-91.717262 172.780833 -90.311247 167.333512 -89.0625 161.8125 C-87.849744 156.457659 -86.475162 151.191735 -84.875 145.9375 C-82.595623 138.447733 -80.637811 130.884195 -78.708588 123.298096 C-74.295733 105.953703 -69.336942 88.886087 -63.587402 71.934326 C-61.994675 67.23344 -60.527276 62.530697 -59.1875 57.75 C-53.233292 38.329736 -40.880001 23.980863 -27.125 9.5625 C-26.453398 8.826445 -25.781797 8.090391 -25.089844 7.332031 C-18.084465 -0.152075 -9.980363 -4.117374 0 0 Z " fill="#600C72" transform="translate(1279.125,945.4375)"/>
<path d="M0 0 C4.483367 2.523572 8.086744 5.322732 9.75 10.3125 C10.864767 20.807234 8.192151 29.597294 4.75 39.3125 C3.932153 41.706513 3.119582 44.102336 2.3125 46.5 C1.902578 47.715586 1.492656 48.931172 1.070312 50.183594 C-0.834455 56.009175 -2.432894 61.925682 -4.087402 67.825928 C-5.600642 73.175996 -7.288748 78.382433 -9.273438 83.578125 C-10.477254 86.94881 -11.456731 90.372277 -12.4375 93.8125 C-16.393793 107.618863 -21.15183 121.184048 -25.765625 134.78125 C-27.555766 140.083693 -29.28756 145.379161 -30.811523 150.764893 C-33.280874 159.464325 -36.10445 168.038529 -39.018005 176.597687 C-39.500106 178.015226 -39.979863 179.433566 -40.457092 180.852753 C-47.746644 202.488313 -47.746644 202.488313 -55.6875 210.6875 C-56.139316 211.181211 -56.591133 211.674922 -57.056641 212.183594 C-62.143183 217.594809 -67.810774 221.71447 -75.265625 222.71875 C-82.100639 222.916866 -86.869356 222.496818 -92.328125 218.183594 C-104.839975 206.002341 -110.91601 182.020375 -111.46875 165.054688 C-111.395887 157.282873 -109.882958 149.637273 -108.5625 142 C-108.425507 141.19782 -108.288514 140.395641 -108.147369 139.569153 C-100.172567 93.012639 -84.4936 42.636011 -43.976562 13.945312 C-35.859877 8.426749 -27.250647 4.185246 -18.25 0.3125 C-17.370859 -0.07293 -16.491719 -0.458359 -15.585938 -0.855469 C-10.279767 -2.745459 -5.082815 -2.373262 0 0 Z " fill="#600C72" transform="translate(1017.25,973.6875)"/>
<path d="M0 0 C-0.563199 4.094156 -1.475536 7.537958 -3.128906 11.320312 C-3.803972 12.890874 -3.803972 12.890874 -4.492676 14.493164 C-4.990093 15.65042 -5.48751 16.807676 -6 18 C-7.102516 20.659955 -8.188953 23.326428 -9.277344 25.992188 C-29.473182 75.186513 -52.097698 124.543381 -86 166 C-86.752813 166.942305 -87.505625 167.884609 -88.28125 168.855469 C-93.310419 175.098872 -98.548211 181.122607 -104 187 C-104.549141 187.603281 -105.098281 188.206563 -105.664062 188.828125 C-116.831892 200.601108 -130.807971 210.637737 -147.375 211.5625 C-150.934571 211.522279 -153.217122 211.484059 -156.261719 209.601562 C-162.727525 202.729013 -165.400579 193.972018 -165.234131 184.699219 C-164.826367 179.998244 -163.50069 175.664709 -162.0625 171.1875 C-161.750386 170.194116 -161.438271 169.200732 -161.116699 168.177246 C-151.465598 138.324624 -135.792631 111.268035 -116 87 C-115.581699 86.480186 -115.163398 85.960371 -114.732422 85.424805 C-102.485327 70.284767 -88.556174 55.748265 -73 44 C-71.718723 42.992573 -70.438898 41.983299 -69.160156 40.972656 C-16.969661 0 -16.969661 0 0 0 Z " fill="#600C72" transform="translate(614,1501)"/>
<path d="M0 0 C4.948023 0.066353 8.366029 2.317704 12.125 5.375 C16.333436 9.915681 18.87122 14.182152 18.675781 20.539062 C16.459838 31.948812 8.081965 43.088136 2.397705 53.039551 C-1.995458 60.747141 -6.211624 68.541798 -10.375 76.375 C-14.929733 84.940439 -19.56421 93.450004 -24.375 101.875 C-29.245302 110.405746 -33.943032 119.019323 -38.5625 127.6875 C-43.356893 136.682265 -48.200451 145.64295 -53.175781 154.539062 C-56.298275 160.122393 -59.385655 165.725078 -62.474182 171.32724 C-63.498993 173.185673 -64.524551 175.043692 -65.550293 176.901611 C-68.752966 182.704015 -71.950951 188.508867 -75.132324 194.322983 C-76.556526 196.925046 -77.983449 199.525612 -79.410583 202.126068 C-80.08288 203.352885 -80.753871 204.580418 -81.423401 205.808746 C-94.266848 229.368677 -94.266848 229.368677 -99.730469 231.847656 C-105.554511 233.279798 -111.806404 233.788296 -117.351562 231.234375 C-119.426395 229.757902 -121.130686 228.226459 -122.875 226.375 C-123.7 225.50875 -124.525 224.6425 -125.375 223.75 C-128.006566 217.828977 -127.962461 211.429312 -125.792969 205.335938 C-123.05059 199.404557 -119.852592 193.685585 -116.75 187.9375 C-116.063667 186.661406 -115.377388 185.385282 -114.691162 184.109131 C-111.001345 177.257927 -107.273963 170.430527 -103.430176 163.664307 C-99.607497 156.931319 -95.865405 150.153913 -92.125 143.375 C-91.60577 142.434292 -91.60577 142.434292 -91.07605 141.474579 C-86.40369 133.005893 -81.776554 124.514189 -77.1875 116 C-72.509161 107.320989 -67.69827 98.726399 -62.81958 90.158691 C-58.117082 81.870619 -53.60733 73.485378 -49.114502 65.082275 C-44.700451 56.849141 -40.137323 48.71054 -35.503662 40.599365 C-31.584938 33.712186 -27.849824 26.745124 -24.295898 19.662354 C-20.778363 12.788231 -16.555975 5.55061 -9.875 1.375 C-6.578617 0.495964 -3.397953 0.328834 0 0 Z " fill="#5D0C72" transform="translate(1234.875,389.625)"/>
<path d="M0 0 C5.282833 2.781619 7.058233 5.883976 9.214844 11.21875 C11.522573 20.156313 10.86217 29.931664 7.027344 38.28125 C6.540078 39.361484 6.052813 40.441719 5.550781 41.554688 C-7.335707 68.68104 -29.60214 85.048223 -57.035156 95.78125 C-61.146731 97.168213 -64.605956 97.892588 -68.972656 97.28125 C-71.910156 95.78125 -71.910156 95.78125 -73.972656 94.28125 C-73.035509 90.008396 -71.044263 86.499518 -68.910156 82.71875 C-68.478965 81.948616 -68.047773 81.178481 -67.603516 80.38501 C-62.161828 70.73915 -56.475419 61.234896 -50.804688 51.722656 C-48.12702 47.230642 -45.476056 42.724764 -42.850098 38.202393 C-39.077843 31.715879 -35.162754 25.338811 -31.097656 19.03125 C-30.418361 17.975266 -30.418361 17.975266 -29.725342 16.897949 C-26.189591 11.469201 -22.950615 6.593643 -17.410156 3.03125 C-16.645742 2.531094 -15.881328 2.030938 -15.09375 1.515625 C-10.412737 -1.208501 -5.108515 -1.86132 0 0 Z " fill="#610E73" transform="translate(1538.97265625,900.71875)"/>
</svg>
