<svg width="275" height="80" viewBox="0 0 275 80" fill="none" xmlns="http://www.w3.org/2000/svg">
<path d="M121.229 42.5274V13.7656H134.028L137.972 23.4206C138.527 24.7759 139.306 27.1384 140.191 30.4873H140.624C141.528 27.1384 142.33 24.7345 142.864 23.3999L146.706 13.7637H159.403V42.5255H149.131V33.4239C149.131 31.8012 149.172 30.075 149.377 27.6297L148.967 27.5676L144.016 42.5236H136.62L131.69 27.5676L131.259 27.6297C131.443 30.075 131.506 31.8012 131.506 33.4239V42.5255H121.229V42.5274Z" fill="#050A41"/>
<path d="M247.517 32.0712V31.3935C247.517 24.3061 252.078 20.3398 260.993 20.3398C269.91 20.3398 274.469 24.3043 274.469 31.3935V32.0712C274.469 39.1379 269.888 43.1456 260.993 43.1456C252.078 43.1437 247.517 39.1379 247.517 32.0712ZM263.726 32.7696V30.7159C263.726 27.9826 262.843 26.71 260.993 26.71C259.144 26.71 258.26 27.9844 258.26 30.7159V32.7696C258.26 35.4822 259.143 36.7754 260.993 36.7754C262.843 36.7754 263.726 35.4803 263.726 32.7696Z" fill="#050A41"/>
<path d="M127.249 79.3808L121.229 50.619H131.954L134.069 63.4384C134.399 65.4112 134.685 67.7737 134.851 70.5051H135.261C135.57 67.7925 135.939 65.3077 136.31 63.3349L138.672 50.6171H147.691L150.341 63.3951C150.752 65.3679 151.081 67.7925 151.328 70.5032H151.779C152.005 67.7906 152.273 65.4696 152.561 63.4968L154.409 50.6152H164.783L159.031 79.377H145.739L144.197 71.0774C143.95 69.7634 143.54 66.7628 143.231 63.4761H142.8C142.512 66.7628 142.102 69.722 141.855 71.0567L140.355 79.377H127.249V79.3808Z" fill="#050A41"/>
<path d="M190.733 70.6717H174.728C174.811 72.9513 175.777 74.062 177.646 74.062C179.207 74.062 180.071 73.3843 180.276 71.7202L190.671 72.3565C189.993 77.3901 185.575 79.9992 177.605 79.9992C168.586 79.9992 164.066 76.2193 164.066 68.906V68.3921C164.066 61.0167 168.627 57.1953 177.687 57.1953C186.48 57.1953 190.938 60.9131 190.938 67.9403C190.938 68.8439 190.876 69.7474 190.733 70.6717ZM180.255 65.9882V65.9261C180.255 64.0154 179.372 63.1118 177.584 63.1118C175.961 63.1118 175.037 64.0775 174.79 65.9882H180.255Z" fill="#050A41"/>
<path d="M241.094 13.7656H234.821V19.0873V24.4598C233.15 21.8921 230.772 20.5857 227.363 20.5857C221.61 20.5857 218.817 23.9967 218.817 31.2479V32.2342C218.817 39.4045 221.61 42.8964 227.363 42.8964C230.855 42.8964 233.21 41.5448 234.821 38.9922V42.5255H234.842H241.094H245.359V13.7656H241.094ZM232.007 36.7333C230.219 36.7333 229.357 35.4193 229.357 32.6653V30.7339C229.357 27.9611 230.219 26.6246 232.007 26.6246C233.897 26.6246 234.821 28.0421 234.821 30.9391V32.4601C234.821 35.3365 233.897 36.7333 232.007 36.7333Z" fill="#050A41"/>
<path d="M209.427 20.5859C205.704 20.5859 203.029 21.9658 200.964 24.7913V21.2843C200.966 21.177 200.966 21.0678 200.964 20.9549H193.579H190.65V42.5277H193.579H200.964V32.626C200.964 29.3186 202.012 27.47 203.923 27.47C205.341 27.47 205.998 28.2719 205.998 29.9567V42.5295H216.763V27.1425C216.763 22.7225 214.235 20.5859 209.427 20.5859Z" fill="#050A41"/>
<path d="M186.471 20.955H177.893H177.667V30.8566C177.667 34.1641 176.618 35.9919 174.689 35.9919C173.292 35.9919 172.614 35.19 172.614 33.5052V20.9531H162.095V36.3402C162.095 40.7376 164.601 42.8949 169.408 42.8949C173.134 42.8949 175.824 41.5131 177.893 38.6876V41.931C177.887 42.1231 177.887 42.3188 177.893 42.5259H186.471H188.184V20.9531H186.471V20.955Z" fill="#050A41"/>
<path d="M211.091 57.3376C207.669 57.3376 205.286 58.7306 203.612 61.3396V56.8613C203.626 56.562 203.633 56.2571 203.633 55.9408V50.6191H203.612H197.958H193.093V79.381H197.958H203.612V75.8156C205.224 78.3889 207.584 79.7518 211.091 79.7518C216.844 79.7518 219.638 76.2599 219.638 69.0896V68.1033C219.638 60.8502 216.844 57.3376 211.091 57.3376ZM209.1 69.5207C209.1 72.2729 208.238 73.5887 206.449 73.5887C204.559 73.5887 203.635 72.1919 203.635 69.3155V67.7945C203.635 64.8975 204.559 63.48 206.449 63.48C208.236 63.48 209.1 64.8146 209.1 67.5893V69.5207Z" fill="#050A41"/>
<path d="M79.9981 40V26.6667C79.9981 11.9384 68.0597 0 53.3315 0V13.3333C53.3315 28.0615 65.2718 40 79.9981 40C65.2699 40 53.3315 51.9384 53.3315 66.6666V40V26.6667C53.3315 11.9384 41.393 0 26.6648 0H0V40H26.6667V13.3333C26.6667 28.0615 38.6051 40 53.3333 40H26.6667V80H53.3333C68.0616 80 80 68.0615 80 53.3333V40H79.9981Z" fill="#303BE4"/>
<path d="M106.665 40C91.9365 40 79.9981 51.9384 79.9981 66.6666V80C94.7263 80 106.665 68.0615 106.665 53.3333V40Z" fill="#303BE4"/>
</svg>
