<svg width="217" height="60" viewBox="0 0 217 60" fill="none" xmlns="http://www.w3.org/2000/svg">
<path d="M90.767 22.7704H86.3649V34.9547H90.767V22.7704Z" fill="white"/>
<path d="M98.466 14.0458H94.0638V31.3257H98.466V14.0458Z" fill="white"/>
<path d="M113.861 21.9797H109.459V36.4457H113.861V21.9797Z" fill="white"/>
<path d="M121.56 8.78845H117.158V26.0683H121.56V8.78845Z" fill="white"/>
<path d="M129.257 12.2303H124.855V26.2694H129.257V12.2303Z" fill="white"/>
<path d="M106.163 0.982483H101.761V33.8742H106.163V0.982483Z" fill="white"/>
<path d="M81.5608 32.3599L80.7825 32.1013C80.8316 31.9562 85.7747 17.7237 96.6953 17.7237C102.171 17.7237 104.909 20.9245 107.558 24.0135C108.189 24.7474 108.845 25.513 109.517 26.2235C111.828 28.627 114.043 29.7479 116.493 29.7562H116.518C119.625 29.7562 123.052 27.8531 126.717 24.1036C131.497 19.2015 134.431 15.6371 134.456 15.6038L135.095 16.1125C135.063 16.1442 132.111 19.7419 127.307 24.6673C123.486 28.587 119.862 30.5702 116.518 30.5702H116.493C113.844 30.5618 111.369 29.3209 108.927 26.7806C108.23 26.0551 107.573 25.2895 106.934 24.5389C104.294 21.4499 101.794 18.531 96.7021 18.531C86.3648 18.5393 81.61 32.2231 81.5608 32.3599Z" fill="white"/>
<path d="M134.447 18.2633L134.381 16.2801L132.504 16.3685L132.472 15.5629L135.177 15.4344L135.266 18.2316L134.447 18.2633Z" fill="white"/>
<path d="M69.6483 41.8324C68.6647 41.9458 68.4918 42.0993 67.9356 42.9783C67.3048 43.9857 66.7791 44.9465 66.0906 46.1707C65.9176 46.486 65.8769 46.6544 65.8769 46.9847V48.686C65.8769 49.8319 66.0007 49.9203 67.3115 50.0403V50.4273H63.2791V50.0403C64.5577 49.8702 64.656 49.8469 64.656 48.686V46.9046C64.656 46.6311 64.5984 46.501 64.3779 46.099C63.8861 45.1966 63.4113 44.3243 62.6483 43.0267C62.0988 42.0826 61.9598 41.9225 61 41.8257V41.4388H64.4593V41.8257C63.4436 41.9625 63.4995 42.141 63.7539 42.6163C64.344 43.6805 65.0087 44.9231 65.5988 45.9622C66.1076 45.0349 66.9029 43.527 67.3048 42.7698C67.6252 42.0759 67.5829 41.9392 66.4772 41.8257V41.4388H69.6584V41.8341H69.65L69.6483 41.8324Z" fill="white"/>
<path d="M77.683 48.2422C77.6016 48.6058 77.215 50.0236 77.0759 50.4439H70.2472V50.0569C71.5512 49.9602 71.6496 49.8384 71.6496 48.7026V43.2434C71.6496 42.0091 71.4936 41.9457 70.4439 41.849V41.462H74.7477C76.067 41.462 76.6164 41.4454 76.7894 41.437C76.8063 41.7839 76.864 42.8164 76.9131 43.5503L76.4943 43.6237C76.3705 43.1567 76.223 42.8664 76.0754 42.5762C75.8533 42.1159 75.526 42.0191 74.6815 42.0191H73.3453C72.9112 42.0191 72.8773 42.0592 72.8773 42.4628V45.5185H74.4357C75.4938 45.5185 75.5582 45.3083 75.7312 44.3726H76.1653V47.2198H75.7312C75.5515 46.2273 75.4362 46.0822 74.4272 46.0822H72.8773V48.8327C72.8773 49.8001 73.1893 49.8801 73.8862 49.8968H75.1987C76.0602 49.8968 76.1992 49.775 76.5028 49.4131C76.7741 49.1229 77.0691 48.5591 77.2659 48.1388L77.6847 48.2439L77.683 48.2422Z" fill="white"/>
<path d="M82.2984 41.4442C83.2989 41.4442 84.1027 41.621 84.6758 42.0413C85.2253 42.445 85.6017 43.0888 85.6017 44.0012C85.6017 46.0177 83.8466 46.84 82.5104 46.84C82.3544 46.84 82.2153 46.8233 82.1339 46.815L81.1674 46.5648V48.7181C81.1674 49.879 81.2657 49.9123 82.5613 50.0491V50.4361H78.6831V50.0491C79.8973 49.9274 79.9464 49.839 79.9464 48.6947V43.2039C79.9464 41.9696 79.7904 41.9463 78.6831 41.8328V41.4459H82.2984V41.4442ZM81.1589 46.0811C81.3318 46.1611 81.7083 46.2579 82.1831 46.2579C83.1259 46.2579 84.2892 45.7909 84.2892 44.0479C84.2892 42.5234 83.2803 41.9196 82.1 41.9196C81.6896 41.9196 81.3946 41.993 81.3132 42.0897C81.1979 42.1864 81.1572 42.3566 81.1572 42.7269V46.0811H81.1589Z" fill="white"/>
<path d="M94.7842 50.4353V50.0483C95.6948 49.9349 95.8084 49.7982 95.6117 49.2744C95.432 48.734 95.1437 48.0401 94.8486 47.1695H91.8065C91.5843 47.79 91.3724 48.3304 91.1757 48.8958C90.8636 49.7915 91.0603 49.9032 92.2168 50.0417V50.4286H88.9712V50.0417C89.8564 49.9283 90.0785 49.8315 90.5788 48.5906L93.4886 41.3334L93.9397 41.2533C94.8249 43.6168 95.7931 46.2288 96.6783 48.6239C97.1294 49.8248 97.2515 49.9383 98.252 50.0517V50.4386H94.7842V50.4353ZM93.3835 43.0663C92.9324 44.2606 92.4576 45.5182 92.0303 46.6057H94.6621L93.3835 43.0663Z" fill="white"/>
<path d="M102.737 41.4441C104.721 41.4441 105.968 41.831 106.844 42.645C107.533 43.3055 108.041 44.2745 108.041 45.6039C108.041 47.2251 107.37 48.5395 106.286 49.3367C105.221 50.1273 103.851 50.4259 102.122 50.4259H98.8336V50.0389C100.048 49.9255 100.097 49.8288 100.097 48.6996V43.1837C100.097 41.9978 99.924 41.9411 98.8336 41.8293V41.4424H102.736L102.737 41.4441ZM101.311 48.5962C101.311 49.637 101.762 49.9272 102.812 49.9272C105.345 49.9272 106.641 48.2259 106.641 45.8074C106.641 44.2996 106.124 43.1537 105.009 42.4848C104.362 42.0812 103.549 41.9278 102.607 41.9278C101.976 41.9278 101.64 42.0078 101.493 42.1212C101.369 42.2013 101.313 42.3547 101.313 42.8952V48.5962H101.311Z" fill="white"/>
<path d="M118.199 41.831C117.256 41.9528 117.018 42.0812 116.51 43.3222C116.133 44.2328 114.19 48.8697 113.501 50.5794H113.033C112.206 48.3543 110.992 45.1202 110.196 43.072C109.803 42.0478 109.566 41.9111 108.704 41.8293V41.4424H112.279V41.8293C111.238 41.9428 111.18 42.1029 111.377 42.6199C111.729 43.6274 112.754 46.3862 113.639 48.6762C114.385 46.8949 115.311 44.6365 115.976 42.8952C116.288 42.0962 116.115 41.9678 114.967 41.831V41.4441H118.197V41.831H118.199Z" fill="white"/>
<path d="M118.755 50.4344V50.0474C119.912 49.9257 120.019 49.8706 120.019 48.6931V43.2022C120.019 42.008 119.903 41.9596 118.755 41.8312V41.4442H122.527V41.8312C121.362 41.9529 121.248 42.008 121.248 43.2022V48.6931C121.248 49.879 121.363 49.9274 122.527 50.0474V50.4344H118.755Z" fill="white"/>
<path d="M128.568 43.5502C128.331 42.6395 127.938 41.7355 126.617 41.7355C125.518 41.7355 125.141 42.5261 125.141 43.2433C125.141 44.1941 125.757 44.6794 126.929 45.2749C128.618 46.1289 129.347 46.766 129.347 48.0803C129.347 49.5315 128.068 50.6373 126.255 50.6373C125.411 50.6373 124.682 50.4038 124.107 50.177C123.992 49.79 123.829 48.8459 123.73 48.1054L124.165 47.9919C124.443 48.9193 125.067 50.1202 126.525 50.1202C127.541 50.1202 128.156 49.4264 128.156 48.5324C128.156 47.4682 127.583 47.0412 126.345 46.3707C124.87 45.5801 124.041 44.9196 124.041 43.6286C124.041 42.3376 125.082 41.2335 126.935 41.2335C127.722 41.2335 128.494 41.4436 128.789 41.5003C128.847 42.0007 128.904 42.5478 129.011 43.4518L128.568 43.5486V43.5502Z" fill="white"/>
<path d="M135.587 41.2515C137.99 41.2515 140.145 43.0662 140.145 45.8149C140.145 48.7905 138.095 50.6453 135.506 50.6453C132.916 50.6453 130.841 48.6288 130.841 46.0251C130.832 43.5499 132.619 41.2515 135.587 41.2515ZM135.307 41.7669C133.734 41.7669 132.299 43.0645 132.299 45.6532C132.299 48.2418 133.734 50.1199 135.735 50.1199C137.44 50.1199 138.719 48.8773 138.719 46.2086C138.711 43.298 137.145 41.7652 135.309 41.7652L135.307 41.7669Z" fill="white"/>
<path d="M149.851 50.5484C149.671 50.5484 149.515 50.5317 149.334 50.5167C148.31 50.4516 147.76 50.1864 147.136 49.3308C146.619 48.6219 146.112 47.7496 145.661 47.049C145.383 46.6053 145.193 46.5253 144.481 46.5253H143.989V48.6936C143.989 49.8712 144.145 49.9362 145.268 50.048V50.4349H141.513V50.048C142.678 49.9262 142.777 49.8712 142.777 48.6936V43.1777C142.777 42.0002 142.621 41.9601 141.513 41.8384V41.4514H145.096C146.121 41.4514 146.809 41.5732 147.343 41.9184C147.916 42.2821 148.303 42.9025 148.303 43.7415C148.303 44.9274 147.533 45.6763 146.492 46.12C146.746 46.547 147.353 47.4743 147.77 48.0948C148.288 48.8287 148.557 49.1756 148.878 49.5226C149.254 49.9262 149.583 50.0797 149.902 50.1597L149.853 50.5467L149.851 50.5484ZM144.662 46.0566C145.391 46.0566 145.859 45.9432 146.212 45.653C146.761 45.2493 146.982 44.7022 146.982 43.9517C146.982 42.4755 145.981 41.9351 144.9 41.9351C144.489 41.9351 144.252 41.9918 144.153 42.0719C144.03 42.1686 143.98 42.3054 143.98 42.669V46.0566H144.66H144.662Z" fill="white"/>
<path d="M155.517 43.5502C155.279 42.6395 154.886 41.7355 153.565 41.7355C152.466 41.7355 152.09 42.5261 152.09 43.2433C152.09 44.1941 152.705 44.6794 153.877 45.2749C155.566 46.1289 156.295 46.766 156.295 48.0803C156.295 49.5315 155.017 50.6373 153.204 50.6373C152.359 50.6373 151.63 50.4038 151.055 50.177C150.94 49.79 150.777 48.8459 150.679 48.1054L151.113 47.9919C151.391 48.9193 152.015 50.1202 153.474 50.1202C154.489 50.1202 155.105 49.4264 155.105 48.5324C155.105 47.4682 154.532 47.0412 153.294 46.3707C151.818 45.5801 150.989 44.9196 150.989 43.6286C150.989 42.3376 152.03 41.2335 153.884 41.2335C154.671 41.2335 155.442 41.4436 155.737 41.5003C155.795 42.0007 155.853 42.5478 155.959 43.4518L155.517 43.5486V43.5502Z" fill="white"/>
<path d="M62.7622 58.5575L62.2535 59.9286H61.933L63.4083 55.9772H63.7779L65.3194 59.9286H64.9836L64.4596 58.5575H62.7622ZM64.3528 58.2757C63.9017 57.0981 63.6728 56.5343 63.5982 56.2675H63.5897C63.4914 56.566 63.237 57.2666 62.869 58.2757H64.3528Z" fill="white"/>
<path d="M66.4119 59.1448C66.5103 59.5151 66.7731 59.7336 67.2242 59.7336C67.7329 59.7336 67.9449 59.5001 67.9449 59.1848C67.9449 58.8696 67.8058 58.7095 67.1665 58.556C66.4289 58.3792 66.2406 58.1607 66.2406 57.7904C66.2406 57.4201 66.5357 57.0399 67.192 57.0399C67.8482 57.0399 68.1517 57.4268 68.2009 57.8305H67.9143C67.8652 57.5969 67.6769 57.2984 67.1852 57.2984C66.6934 57.2984 66.5459 57.5402 66.5459 57.7654C66.5459 58.0239 66.6849 58.1524 67.2513 58.2891C68.0636 58.4826 68.2603 58.7412 68.2603 59.1681C68.2603 59.6835 67.8346 59.9988 67.236 59.9988C66.5798 59.9988 66.2118 59.6602 66.1372 59.1515H66.4153V59.1431L66.4119 59.1448Z" fill="white"/>
<path d="M69.3701 58.549C69.3786 59.2745 69.7466 59.7265 70.296 59.7265C70.8454 59.7265 71.0167 59.428 71.1235 59.1945H71.4186C71.2948 59.5648 70.9929 59.9934 70.2875 59.9934C69.4193 59.9934 69.0734 59.2512 69.0734 58.534C69.0734 57.7283 69.4837 57.0345 70.3197 57.0345C71.2049 57.0345 71.4847 57.7851 71.4847 58.3171C71.4847 58.3972 71.4847 58.4789 71.4762 58.5506H69.3701V58.549ZM71.1896 58.2988C71.1812 57.7417 70.8776 57.2997 70.3129 57.2997C69.7483 57.2997 69.4515 57.7033 69.3871 58.2988H71.1913H71.1896Z" fill="white"/>
<path d="M72.6011 59.1448C72.6995 59.5151 72.9623 59.7336 73.4134 59.7336C73.9221 59.7336 74.1341 59.5001 74.1341 59.1848C74.1341 58.8696 73.995 58.7095 73.3557 58.556C72.6181 58.3792 72.4299 58.1607 72.4299 57.7904C72.4299 57.4201 72.7249 57.0399 73.3812 57.0399C74.0374 57.0399 74.341 57.4268 74.3901 57.8305H74.1035C74.0544 57.5969 73.8661 57.2984 73.3744 57.2984C72.8826 57.2984 72.7351 57.5402 72.7351 57.7654C72.7351 58.0239 72.8741 58.1524 73.4405 58.2891C74.2528 58.4826 74.4495 58.7412 74.4495 59.1681C74.4495 59.6835 74.0238 59.9988 73.4253 59.9988C72.769 59.9988 72.401 59.6602 72.3264 59.1515H72.6045V59.1431L72.6011 59.1448Z" fill="white"/>
<path d="M77.8148 58.5077C77.8148 59.29 77.3722 59.9922 76.5192 59.9922C75.7409 59.9922 75.2644 59.3634 75.2644 58.5161C75.2644 57.6688 75.7155 57.0399 76.5515 57.0399C77.3146 57.0316 77.8148 57.6204 77.8148 58.5077ZM75.5679 58.5161C75.5679 59.1849 75.9376 59.7337 76.543 59.7337C77.1484 59.7337 77.5096 59.2333 77.5096 58.5161C77.5096 57.8472 77.1653 57.2985 76.526 57.2985C75.8783 57.2985 75.5662 57.8305 75.5662 58.5161H75.5679Z" fill="white"/>
<path d="M78.872 57.8716C78.872 57.3963 78.8635 57.1944 78.8635 57.106H79.1416C79.1501 57.1944 79.1501 57.3796 79.1501 57.7349C79.3146 57.3079 79.6826 57.0577 80.1506 57.0327V57.3396C79.552 57.3796 79.1501 57.7832 79.1501 58.4604V59.9282H78.8635V57.8716H78.872Z" fill="white"/>
<path d="M82.1683 55.7017L81.3153 56.589H81.0033L81.7901 55.7017H82.1666H82.1683ZM81.0287 57.0977H81.3153V59.9199H81.0287V57.0977Z" fill="white"/>
<path d="M84.5287 59.3878C84.5287 59.638 84.5542 59.8314 84.5694 59.9282H84.2913C84.2659 59.8631 84.2506 59.7347 84.2422 59.4928C84.1438 59.703 83.8894 59.9932 83.2993 59.9932C82.6346 59.9932 82.348 59.5662 82.348 59.1459C82.348 58.5254 82.8313 58.2436 83.7012 58.2436H84.2506V57.9533C84.2506 57.6715 84.1692 57.2928 83.513 57.2928C82.9314 57.2928 82.8483 57.5914 82.7838 57.8249H82.4972C82.5295 57.518 82.7262 57.0343 83.5215 57.0343C84.1777 57.0343 84.5457 57.3078 84.5457 57.93V59.3894H84.5287V59.3878ZM84.2506 58.4837H83.6843C83.045 58.4837 82.6516 58.6455 82.6516 59.1376C82.6516 59.4928 82.9144 59.7347 83.3163 59.7347C84.1353 59.7347 84.2506 59.1943 84.2506 58.5888V58.4837Z" fill="white"/>
<path d="M87.7189 58.549C87.7274 59.2745 88.0953 59.7265 88.6447 59.7265C89.1942 59.7265 89.3654 59.428 89.4723 59.1945H89.7673C89.6435 59.5648 89.3417 59.9934 88.6363 59.9934C87.7681 59.9934 87.4221 59.2512 87.4221 58.534C87.4221 57.7283 87.8325 57.0345 88.6685 57.0345C89.5537 57.0345 89.8335 57.7851 89.8335 58.3171C89.8335 58.3972 89.8335 58.4789 89.825 58.5506H87.7189V58.549ZM89.5384 58.2988C89.5299 57.7417 89.2264 57.2997 88.6617 57.2997C88.097 57.2997 87.8003 57.7033 87.7358 58.2988H89.5401H89.5384Z" fill="white"/>
<path d="M90.8823 57.8138C90.8823 57.5636 90.8823 57.3301 90.8738 57.1049H91.1519C91.1604 57.1933 91.1688 57.5653 91.1604 57.6453C91.2841 57.3551 91.5216 57.0399 92.1117 57.0399C92.6204 57.0399 93.0782 57.3217 93.0782 58.104V59.9337H92.7917V58.1524C92.7917 57.652 92.578 57.3217 92.0778 57.3217C91.3978 57.3217 91.1604 57.8788 91.1604 58.4993V59.9421H90.8738V57.8138H90.8823Z" fill="white"/>
<path d="M96.2857 59.9289V57.3719H95.7939V57.1051H96.2857V56.7014C96.2857 56.226 96.4248 55.709 97.0641 55.709C97.1454 55.709 97.2777 55.7257 97.3422 55.749V56.0226C97.2608 55.9975 97.12 55.9909 97.0301 55.9909C96.6944 55.9909 96.5621 56.2244 96.5621 56.7164V57.1034H97.1845V57.3703H96.5621V59.9272H96.284L96.2857 59.9289Z" fill="white"/>
<path d="M98.0728 55.7593H98.3593V56.308H98.0728V55.7593ZM98.0728 57.0986H98.3593V59.9208H98.0728V57.0986Z" fill="white"/>
<path d="M99.6378 57.8138C99.6378 57.5636 99.6378 57.3301 99.6293 57.1049H99.9074C99.9159 57.1933 99.9243 57.5653 99.9159 57.6453C100.04 57.3551 100.277 57.0399 100.867 57.0399C101.376 57.0399 101.834 57.3217 101.834 58.104V59.9337H101.547V58.1524C101.547 57.652 101.333 57.3217 100.833 57.3217C100.153 57.3217 99.9159 57.8788 99.9159 58.4993V59.9421H99.6293V57.8138H99.6378Z" fill="white"/>
<path d="M105.066 59.3878C105.066 59.638 105.091 59.8314 105.107 59.9282H104.828C104.803 59.8631 104.788 59.7347 104.779 59.4928C104.681 59.703 104.427 59.9932 103.836 59.9932C103.172 59.9932 102.885 59.5662 102.885 59.1459C102.885 58.5254 103.368 58.2436 104.238 58.2436H104.788V57.9533C104.788 57.6715 104.706 57.2928 104.05 57.2928C103.468 57.2928 103.385 57.5914 103.321 57.8249H103.034C103.067 57.518 103.263 57.0343 104.059 57.0343C104.715 57.0343 105.083 57.3078 105.083 57.93V59.3894H105.066V59.3878ZM104.786 58.4837H104.22C103.58 58.4837 103.187 58.6455 103.187 59.1376C103.187 59.4928 103.45 59.7347 103.852 59.7347C104.671 59.7347 104.786 59.1943 104.786 58.5888V58.4837Z" fill="white"/>
<path d="M106.352 57.8138C106.352 57.5636 106.352 57.3301 106.344 57.1049H106.622C106.631 57.1933 106.639 57.5653 106.631 57.6453C106.754 57.3551 106.992 57.0399 107.582 57.0399C108.091 57.0399 108.548 57.3217 108.548 58.104V59.9337H108.262V58.1524C108.262 57.652 108.048 57.3217 107.548 57.3217C106.868 57.3217 106.631 57.8788 106.631 58.4993V59.9421H106.344V57.8138H106.352Z" fill="white"/>
<path d="M109.5 59.661L111.311 57.3626H109.59V57.0957H111.647V57.3692L109.851 59.6593H111.704L111.638 59.9262H109.498V59.6593L109.5 59.661Z" fill="white"/>
<path d="M114.616 59.3878C114.616 59.638 114.642 59.8314 114.657 59.9282H114.379C114.353 59.8631 114.338 59.7347 114.33 59.4928C114.231 59.703 113.977 59.9932 113.387 59.9932C112.722 59.9932 112.435 59.5662 112.435 59.1459C112.435 58.5254 112.919 58.2436 113.789 58.2436H114.338V57.9533C114.338 57.6715 114.257 57.2928 113.6 57.2928C113.019 57.2928 112.936 57.5914 112.871 57.8249H112.585C112.617 57.518 112.814 57.0343 113.609 57.0343C114.265 57.0343 114.633 57.3078 114.633 57.93V59.3894H114.616V59.3878ZM114.33 58.4837H113.763C113.124 58.4837 112.73 58.6455 112.73 59.1376C112.73 59.4928 112.993 59.7347 113.395 59.7347C114.214 59.7347 114.33 59.1943 114.33 58.5888V58.4837Z" fill="white"/>
<path d="M115.871 59.1448C115.97 59.5151 116.232 59.7336 116.684 59.7336C117.192 59.7336 117.404 59.5001 117.404 59.1848C117.404 58.8696 117.265 58.7095 116.626 58.556C115.888 58.3792 115.7 58.1607 115.7 57.7904C115.7 57.4201 115.995 57.0399 116.651 57.0399C117.308 57.0399 117.611 57.4268 117.66 57.8305H117.374C117.325 57.5969 117.136 57.2984 116.645 57.2984C116.153 57.2984 116.005 57.5402 116.005 57.7654C116.005 58.0239 116.144 58.1524 116.711 58.2891C117.523 58.4826 117.72 58.7412 117.72 59.1681C117.72 59.6835 117.294 59.9988 116.695 59.9988C116.039 59.9988 115.671 59.6602 115.597 59.1515H115.875V59.1431L115.871 59.1448Z" fill="white"/>
<path d="M120.666 58.549C120.675 59.2745 121.043 59.7265 121.592 59.7265C122.141 59.7265 122.313 59.428 122.42 59.1945H122.715C122.591 59.5648 122.289 59.9934 121.584 59.9934C120.715 59.9934 120.369 59.2512 120.369 58.534C120.369 57.7283 120.78 57.0345 121.616 57.0345C122.501 57.0345 122.781 57.7851 122.781 58.3171C122.781 58.3972 122.781 58.4789 122.772 58.5506H120.666V58.549ZM122.486 58.2988C122.477 57.7417 122.174 57.2997 121.609 57.2997C121.044 57.2997 120.748 57.7033 120.683 58.2988H122.487H122.486Z" fill="white"/>
<path d="M125.668 55.7593H125.954V56.308H125.668V55.7593ZM125.668 57.0986H125.954V59.9208H125.668V57.0986Z" fill="white"/>
<path d="M127.233 57.8138C127.233 57.5636 127.233 57.3301 127.224 57.1049H127.502C127.511 57.1933 127.519 57.5653 127.511 57.6453C127.634 57.3551 127.872 57.0399 128.462 57.0399C128.971 57.0399 129.429 57.3217 129.429 58.104V59.9337H129.142V58.1524C129.142 57.652 128.928 57.3217 128.428 57.3217C127.748 57.3217 127.511 57.8788 127.511 58.4993V59.9421H127.224V57.8138H127.233Z" fill="white"/>
<path d="M130.595 57.0975C131.063 58.3885 131.382 59.2742 131.489 59.6295H131.497C131.563 59.4193 131.882 58.582 132.44 57.0975H132.743L131.662 59.9197H131.317L130.293 57.0975H130.597H130.595Z" fill="white"/>
<path d="M133.71 58.5488C133.719 59.2743 134.087 59.7264 134.636 59.7264C135.186 59.7264 135.357 59.4278 135.464 59.1943H135.759C135.635 59.5646 135.333 59.9932 134.628 59.9932C133.76 59.9932 133.414 59.251 133.414 58.5338C133.414 57.7282 133.824 57.0343 134.66 57.0343C135.545 57.0343 135.825 57.7849 135.825 58.3169C135.825 58.397 135.825 58.4787 135.816 58.5505H133.71V58.5488ZM135.53 58.2986C135.521 57.7415 135.218 57.2995 134.653 57.2995C134.088 57.2995 133.792 57.7031 133.727 58.2986H135.532H135.53Z" fill="white"/>
<path d="M136.874 57.8716C136.874 57.3963 136.866 57.1944 136.866 57.106H137.144C137.153 57.1944 137.153 57.3796 137.153 57.7349C137.317 57.3079 137.685 57.0577 138.153 57.0327V57.3396C137.554 57.3796 137.153 57.7832 137.153 58.4604V59.9282H136.866V57.8716H136.874Z" fill="white"/>
<path d="M139.096 59.1448C139.194 59.5151 139.457 59.7336 139.915 59.7336C140.424 59.7336 140.636 59.5001 140.636 59.1848C140.636 58.8696 140.497 58.7095 139.857 58.556C139.12 58.3792 138.931 58.1607 138.931 57.7904C138.931 57.4201 139.227 57.0399 139.883 57.0399C140.539 57.0399 140.843 57.4268 140.892 57.8305H140.605C140.556 57.5969 140.368 57.2984 139.876 57.2984C139.384 57.2984 139.237 57.5402 139.237 57.7654C139.237 58.0239 139.376 58.1524 139.942 58.2891C140.754 58.4826 140.951 58.7412 140.951 59.1681C140.951 59.6835 140.525 59.9988 139.927 59.9988C139.271 59.9988 138.903 59.6602 138.828 59.1515H139.099V59.1431L139.096 59.1448Z" fill="white"/>
<path d="M141.99 55.7593H142.277V56.308H141.99V55.7593ZM141.99 57.0986H142.277V59.9208H141.99V57.0986Z" fill="white"/>
<path d="M145.884 58.5077C145.884 59.29 145.441 59.9922 144.588 59.9922C143.81 59.9922 143.333 59.3634 143.333 58.5161C143.333 57.6688 143.784 57.0399 144.62 57.0399C145.384 57.0316 145.884 57.6204 145.884 58.5077ZM143.637 58.5161C143.637 59.1849 144.007 59.7337 144.612 59.7337C145.217 59.7337 145.579 59.2333 145.579 58.5161C145.579 57.8472 145.234 57.2985 144.595 57.2985C143.947 57.2985 143.635 57.8305 143.635 58.5161H143.637Z" fill="white"/>
<path d="M146.942 57.8138C146.942 57.5636 146.942 57.3301 146.933 57.1049H147.211C147.22 57.1933 147.228 57.5653 147.22 57.6453C147.344 57.3551 147.581 57.0399 148.171 57.0399C148.68 57.0399 149.138 57.3217 149.138 58.104V59.9337H148.851V58.1524C148.851 57.652 148.638 57.3217 148.137 57.3217C147.457 57.3217 147.22 57.8788 147.22 58.4993V59.9421H146.933V57.8138H146.942Z" fill="white"/>
<path d="M150.491 58.5488C150.5 59.2743 150.868 59.7264 151.417 59.7264C151.967 59.7264 152.138 59.4278 152.245 59.1943H152.54C152.416 59.5646 152.114 59.9932 151.409 59.9932C150.541 59.9932 150.195 59.251 150.195 58.5338C150.195 57.7282 150.605 57.0343 151.441 57.0343C152.326 57.0343 152.606 57.7849 152.606 58.3169C152.606 58.397 152.606 58.4787 152.597 58.5505H150.491V58.5488ZM152.311 58.2986C152.302 57.7415 151.999 57.2995 151.434 57.2995C150.869 57.2995 150.573 57.7031 150.508 58.2986H152.313H152.311Z" fill="white"/>
<path d="M153.721 59.1448C153.82 59.5151 154.083 59.7336 154.534 59.7336C155.042 59.7336 155.254 59.5001 155.254 59.1848C155.254 58.8696 155.115 58.7095 154.476 58.556C153.738 58.3792 153.55 58.1607 153.55 57.7904C153.55 57.4201 153.845 57.0399 154.501 57.0399C155.158 57.0399 155.461 57.4268 155.51 57.8305H155.224C155.175 57.5969 154.986 57.2984 154.495 57.2984C154.003 57.2984 153.855 57.5402 153.855 57.7654C153.855 58.0239 153.994 58.1524 154.561 58.2891C155.373 58.4826 155.57 58.7412 155.57 59.1681C155.57 59.6835 155.144 59.9988 154.546 59.9988C153.889 59.9988 153.521 59.6602 153.447 59.1515H153.725V59.1431L153.721 59.1448Z" fill="white"/>
<path d="M155.753 53.5493H62.1716V53.7511H155.753V53.5493Z" fill="white"/>
</svg>
