<svg width="217" height="60" viewBox="0 0 217 60" fill="none" xmlns="http://www.w3.org/2000/svg">
<g clip-path="url(#clip0_532_1907)">
<path d="M73.6245 13.8892C73.757 13.8892 73.8138 13.9963 73.8138 14.0521L74.2872 20.8926L73.9085 20.9298L73.5677 16.3571C73.454 14.7739 72.8623 14.2524 71.1911 14.2524H56.5201L56.5012 26.8575H65.0652C65.8274 26.8575 65.9221 23.4723 65.9221 21.9961V20.9158H66.2061V33.1578H65.9221V32.0775C65.9221 30.4943 65.8274 27.2161 65.0652 27.2161H56.5012V39.9796C56.5012 40.5011 56.7473 40.99 59.3558 40.99H60.118V41.2601H52.4109V40.99H53.1731C55.7816 40.99 56.0278 40.5058 56.0278 39.9796V15.0766C56.0278 14.5178 55.6869 14.1592 53.1731 14.1592H52.4109V13.8892H73.6245Z" fill="white" stroke="white" stroke-width="0.873431" stroke-miterlimit="10"/>
<path d="M81.7065 40.9851H82.3741V41.2552H74.7616V40.9851H75.5238C78.1323 40.9851 78.3785 40.5148 78.3785 39.9933V23.7001C78.3785 23.0343 77.8482 22.8014 76.3807 22.8014H75.9073V22.5313H76.3807L78.8519 22.4755V39.9933C78.8519 40.5148 79.098 40.9851 81.7065 40.9851ZM78.5678 15.6863C78.9655 15.6863 79.33 16.0122 79.33 16.408C79.33 16.8038 78.9892 17.1298 78.5678 17.1298C78.1465 17.1298 77.8056 16.8038 77.8056 16.408C77.8056 16.0122 78.1465 15.6863 78.5678 15.6863Z" fill="white" stroke="white" stroke-width="0.873431" stroke-miterlimit="10"/>
<path d="M85.8897 22.5331L88.3609 22.4772V28.8147C88.3609 29.122 88.3988 29.3735 88.4934 29.3735C88.5692 29.3735 88.6639 29.2478 88.7964 28.9218C90.2971 25.2851 93.6489 22.4399 97.2042 22.4399C101.276 22.4399 103.482 24.2048 103.482 27.4829V39.995C103.482 40.5165 103.728 40.9868 106.336 40.9868H107.099V41.2569H99.1073V40.9868H100.154C102.762 40.9868 103.008 40.5165 103.008 39.995V27.5342C103.008 24.4935 101.048 22.8544 97.2042 22.8544C92.7115 22.8544 88.3561 27.7158 88.3561 32.9357V39.995C88.3561 40.5165 88.6023 40.9868 91.2108 40.9868H92.2571V41.2569H84.2659V40.9868H85.0281C87.6366 40.9868 87.8827 40.5165 87.8827 39.995V23.7019C87.8827 23.036 87.3478 22.8031 85.8849 22.8031H85.4115V22.5331H85.8849H85.8897Z" fill="white" stroke="white" stroke-width="0.873431" stroke-miterlimit="10"/>
<path d="M124.758 28.2776V37.0272L125.061 38.7362C125.326 40.2495 125.691 40.8782 126.221 40.8968L128.257 40.7152L128.294 41.0737L126.221 41.3438H126.202C125.269 41.3438 124.834 40.2635 124.583 38.806C124.488 38.2472 124.28 37.1855 124.28 37.0412V36.6454C124.28 36.3194 124.223 36.1611 124.147 36.1611C124.072 36.1611 123.977 36.2868 123.863 36.5383C122.552 39.2018 119.716 41.3438 116.289 41.3438C111.99 41.3438 108.87 39.3462 108.87 36.5709C108.87 33.1157 112.393 31.9097 116.27 31.5279C118.627 31.2951 123.48 31.1321 124.185 28.9528C124.242 28.7526 124.28 28.557 124.28 28.3754V28.2683C124.261 25.1159 121.922 22.7969 118.552 22.7969C114.745 22.7969 111.663 24.3988 111.663 26.3778C111.663 26.6106 111.512 26.755 111.266 26.755C111.02 26.755 110.868 26.6106 110.868 26.3778C110.868 24.1985 114.291 22.4337 118.5 22.4337C122.135 22.4337 124.758 24.883 124.758 28.2683V28.2776ZM116.308 31.8957C112.464 32.2729 109.344 33.4277 109.344 36.5755C109.344 39.132 112.255 40.9853 116.289 40.9853C120.8 40.9853 124.28 37.0598 124.28 33.2415V29.6234C123.006 31.621 118.4 31.6955 116.308 31.8911V31.8957Z" fill="white" stroke="white" stroke-width="0.873431" stroke-miterlimit="10"/>
<path d="M131.32 22.5331L133.792 22.4772V28.8147C133.792 29.122 133.83 29.3735 133.924 29.3735C134 29.3735 134.095 29.2478 134.227 28.9218C135.728 25.2851 139.08 22.4399 142.635 22.4399C146.706 22.4399 148.912 24.2048 148.912 27.4829V39.995C148.912 40.5165 149.159 40.9868 151.767 40.9868H152.529V41.2569H144.538V40.9868H145.584C148.193 40.9868 148.439 40.5165 148.439 39.995V27.5342C148.439 24.4935 146.479 22.8544 142.635 22.8544C138.142 22.8544 133.787 27.7158 133.787 32.9357V39.995C133.787 40.5165 134.033 40.9868 136.642 40.9868H137.688V41.2569H129.697V40.9868H130.459C133.067 40.9868 133.314 40.5165 133.314 39.995V23.7019C133.314 23.036 132.779 22.8031 131.316 22.8031H130.842V22.5331H131.316H131.32Z" fill="white" stroke="white" stroke-width="0.873431" stroke-miterlimit="10"/>
<path d="M163.507 22.4446C167.54 22.4446 170.736 24.5167 170.736 26.0441C170.736 26.2769 170.584 26.4213 170.338 26.4213C170.092 26.4213 169.94 26.2769 169.94 26.0441C169.94 24.3165 166.688 22.8031 163.45 22.8031C158.332 22.8031 154.659 26.6029 154.659 31.9299C154.659 37.257 158.465 40.9868 163.885 40.9868C166.319 40.9868 168.908 40.2138 170.868 38.6446L171.114 38.9147C169.079 40.5538 166.394 41.3454 163.885 41.3454C158.252 41.3454 154.18 37.4199 154.18 31.9299C154.18 26.4399 158.119 22.4399 163.502 22.4399L163.507 22.4446Z" fill="white" stroke="white" stroke-width="0.873431" stroke-miterlimit="10"/>
<path d="M173.874 31.8943C173.874 37.1515 177.434 40.9885 182.532 40.9885C186.831 40.9885 189.458 39.2237 190.883 36.8303L191.224 37.0119C189.738 39.5124 186.945 41.3517 182.528 41.3517C177.183 41.3517 173.396 37.3192 173.396 31.899V31.5218C173.566 26.2088 177.467 22.4463 182.717 22.4463C187.967 22.4463 191.66 26.3159 191.66 31.5405C191.66 31.6662 191.546 31.7221 191.47 31.7221H173.869V31.9037L173.874 31.8943ZM191.073 30.1295C191.073 29.9293 191.054 29.7524 191.016 29.5894C190.273 25.5755 187.248 22.8002 182.722 22.8002C177.926 22.8002 174.12 26.1482 173.893 31.3542H190.216C190.883 31.3542 191.073 30.7256 191.073 30.1295Z" fill="white" stroke="white" stroke-width="0.873431" stroke-miterlimit="10"/>
<path d="M22.5829 12.6435L22.474 13.6493C22.474 13.789 22.3651 13.8915 22.1805 13.8915C21.9959 13.8915 21.887 13.789 21.887 13.6493C21.887 13.6493 22.5261 8.04291 24.7795 5.87763C28.0697 2.71586 32.5766 0.983643 36.4207 0.983643C44.5823 0.983643 50.4763 6.08252 50.4763 13.1278C50.4763 17.6726 48.791 22.5293 40.8471 30.5478L28.6189 42.9015C26.0909 45.4673 23.899 47.4137 22.3604 48.5592C21.8491 48.941 21.5556 49.1832 21.5556 49.3555C21.5556 49.4952 21.8112 49.565 22.4361 49.565H190.904C192.699 49.565 191.979 50.4311 190.904 50.4311H19.9081C19.7613 50.4311 19.5436 50.3287 19.5436 50.0819V49.6675C19.5436 49.5278 19.6525 49.3555 19.875 49.3182C20.462 49.2484 23.7901 46.6826 28.0366 42.4126L40.2648 30.0589C48.1708 22.0776 49.5626 17.4304 49.5626 13.1278C49.5626 6.50161 44.0332 1.67746 36.4207 1.67746C30.8581 1.67746 23.4634 4.73213 22.5829 12.6435Z" fill="white" stroke="white" stroke-width="1.31015" stroke-miterlimit="10"/>
<path d="M17.773 10.1931C17.8771 10.1931 17.9245 10.2769 17.9245 10.3189L18.2985 15.7251L17.9955 15.753L17.7256 12.1396C17.6357 10.887 17.167 10.4725 15.8462 10.4725H4.2334V20.4328H11.0032C11.6044 20.4328 11.6802 17.7553 11.6802 16.5912V15.739H11.9074V25.4153H11.6802V24.5631C11.6802 23.3105 11.6044 20.7215 11.0032 20.7215H4.2334V30.8122C4.2334 31.2266 4.4275 31.6084 6.49158 31.6084H7.09281V31.8226H1V31.6084H1.60123C3.66057 31.6084 3.85941 31.2219 3.85941 30.8122V11.1291C3.85941 10.6867 3.58956 10.4027 1.60123 10.4027H1V10.1885H17.773V10.1931Z" fill="white" stroke="white" stroke-width="0.873431" stroke-miterlimit="10"/>
<path d="M24.16 31.6083H24.6855V31.8225H18.6685V31.6083H19.2697C21.329 31.6083 21.5279 31.2404 21.5279 30.826V17.9461C21.5279 17.4199 21.1065 17.2336 19.9467 17.2336H19.5727V17.0194H19.9467L21.9019 16.9775V30.8213C21.9019 31.2358 22.096 31.6036 24.16 31.6036V31.6083Z" fill="white" stroke="white" stroke-width="0.873431" stroke-miterlimit="10"/>
<path d="M25.6183 17.3013H26.9722C28.2789 17.3013 28.4777 17.0591 28.4777 15.5504V13.0312H28.7807V16.817C28.7807 17.129 28.918 17.3013 29.3204 17.3013H36.4499V17.5853H29.3204C28.9132 17.5853 28.7807 17.7716 28.7807 18.0836V26.2651C28.7807 29.3663 30.4329 31.6014 32.7053 31.6014C34.0592 31.6014 35.5315 31.0613 36.3316 29.8645L36.573 30.0089C35.7162 31.3034 34.135 31.8855 32.7053 31.8855C30.2104 31.8855 28.4019 29.5246 28.4019 26.2651V18.0836C28.4019 17.7716 28.2647 17.5853 27.8623 17.5853H25.623V17.3013H25.6183Z" fill="white" stroke="white" stroke-width="0.873431" stroke-miterlimit="10"/>
<path d="M200.859 22.4572L192.542 49.3206C192.437 49.6698 192.158 49.9445 191.798 50.0423L191.339 50.1681L199.78 22.4525H200.855L200.859 22.4572Z" fill="white" stroke="white" stroke-width="1.09179" stroke-miterlimit="10"/>
<path d="M211.358 21.928H201.241L198.704 24.5776L199.717 20.871C200.224 19.814 200.678 19.814 201.237 19.814H211.889V21.4018C211.889 21.6952 211.647 21.9327 211.349 21.9327L211.358 21.928Z" fill="white" stroke="white" stroke-width="0.327536" stroke-miterlimit="10"/>
<path d="M211.065 21.9633L210.455 21.1624L213.077 12.194L215.17 12.7853L212.538 21.3254C212.339 21.9261 211.652 22.2241 211.07 21.9633H211.065Z" fill="white" stroke="white" stroke-width="0.109179" stroke-miterlimit="10"/>
<path d="M209.745 13.9848L214.319 12.3922L216.742 16.3643V5.24451L209.745 13.9848Z" fill="white" stroke="white" stroke-width="0.109179" stroke-miterlimit="10"/>
<path d="M23.7663 57.6283C23.9083 57.6469 24.0409 57.6841 24.1545 57.7354C24.2681 57.7866 24.3676 57.8564 24.4528 57.9403C24.5333 58.0241 24.5995 58.1219 24.6421 58.2336C24.6847 58.3454 24.7084 58.4758 24.7084 58.6201C24.7084 58.7225 24.6942 58.8296 24.6611 58.9461C24.6279 59.0578 24.5759 59.1696 24.5001 59.2767C24.4244 59.3838 24.3297 59.4816 24.2066 59.57C24.0882 59.6585 23.9368 59.733 23.7569 59.7889C23.6196 59.8308 23.4681 59.8634 23.2976 59.882C23.1272 59.9006 22.9284 59.91 22.6964 59.91H21.5034V55.5002H22.6538C22.758 55.5002 22.8526 55.5002 22.9426 55.5049C23.0278 55.5049 23.1083 55.5142 23.1793 55.5189C23.2503 55.5235 23.3166 55.5328 23.3829 55.5422C23.4444 55.5515 23.5012 55.5654 23.558 55.5747C23.7048 55.612 23.8326 55.6632 23.951 55.7284C24.0693 55.7936 24.1687 55.8728 24.2539 55.9612C24.3344 56.0497 24.4007 56.1522 24.4433 56.2686C24.4859 56.385 24.5096 56.506 24.5096 56.6411C24.5096 56.7482 24.4954 56.8506 24.4717 56.9531C24.4433 57.0509 24.4007 57.144 24.3439 57.2278C24.2871 57.3116 24.2066 57.3861 24.1119 57.4513C24.0172 57.5165 23.9036 57.5724 23.7711 57.6143V57.6283H23.7663ZM22.9331 57.4094C23.0467 57.4094 23.1414 57.4048 23.2219 57.3954C23.3024 57.3861 23.3781 57.3722 23.4397 57.3489C23.6148 57.293 23.7427 57.2092 23.8231 57.0928C23.9036 56.9764 23.9415 56.8413 23.9415 56.683C23.9415 56.5247 23.8989 56.3896 23.8137 56.2825C23.7285 56.1801 23.6006 56.1009 23.4207 56.0497C23.3308 56.0264 23.2314 56.0078 23.113 55.9985C22.9947 55.9892 22.8574 55.9845 22.7011 55.9845H22.062V57.4094H22.9284H22.9331ZM22.0668 57.8937V59.4257H22.7532C22.9142 59.4257 23.0657 59.4164 23.2077 59.4024C23.345 59.3884 23.4633 59.3651 23.5628 59.3325C23.6716 59.3 23.7616 59.258 23.8326 59.2068C23.9036 59.1556 23.9652 59.0997 24.0125 59.0345C24.0598 58.974 24.0882 58.9042 24.1119 58.8343C24.1309 58.7645 24.1403 58.6946 24.1403 58.6201C24.1403 58.5363 24.1309 58.4571 24.1072 58.3826C24.0835 58.3081 24.0504 58.2429 24.003 58.187C23.9557 58.1312 23.8941 58.0799 23.8137 58.0334C23.7332 57.9868 23.6385 57.9542 23.5249 57.9309C23.4539 57.917 23.3734 57.903 23.2882 57.8983C23.1982 57.8937 23.0893 57.889 22.9568 57.889H22.0668V57.8937Z" fill="white"/>
<path d="M35.1811 57.7079C35.1811 58.0431 35.129 58.3505 35.0296 58.6299C34.9301 58.9093 34.7834 59.1514 34.594 59.3516C34.4047 59.5518 34.1774 59.7102 33.9123 59.8266C33.6472 59.9383 33.349 59.9942 33.0176 59.9942C32.6862 59.9942 32.369 59.9383 32.1039 59.8266C31.8388 59.7148 31.6068 59.5565 31.4174 59.3516C31.2328 59.1514 31.086 58.9093 30.9914 58.6299C30.8919 58.3505 30.8446 58.0431 30.8446 57.7079C30.8446 57.3726 30.8967 57.0653 31.0008 56.7812C31.105 56.5018 31.247 56.2597 31.4364 56.0595C31.6257 55.8592 31.853 55.7009 32.1181 55.5845C32.3832 55.4681 32.6862 55.4169 33.0176 55.4169C33.349 55.4169 33.6614 55.4727 33.9265 55.5845C34.1964 55.6963 34.4236 55.8546 34.6082 56.0595C34.7929 56.2644 34.9396 56.5018 35.039 56.7812C35.1385 57.0606 35.1858 57.3679 35.1858 57.7079H35.1811ZM34.6177 57.7079C34.6177 57.4099 34.5751 57.1491 34.4946 56.9209C34.4141 56.6928 34.3005 56.5065 34.1538 56.3528C34.007 56.1992 33.8413 56.0874 33.6425 56.0082C33.4484 55.9291 33.2353 55.8918 33.0128 55.8918C32.7903 55.8918 32.5773 55.9291 32.3832 56.0082C32.1891 56.0874 32.0187 56.1992 31.8719 56.3528C31.7299 56.5065 31.6163 56.6928 31.5311 56.9209C31.4506 57.1491 31.408 57.4099 31.408 57.7079C31.408 58.0059 31.4506 58.2667 31.5311 58.4902C31.6115 58.7137 31.7299 58.9046 31.8719 59.0536C32.0139 59.2073 32.1844 59.319 32.3832 59.3982C32.5773 59.4773 32.7903 59.5146 33.0176 59.5146C33.2448 59.5146 33.4531 59.4773 33.6472 59.3982C33.8413 59.319 34.0117 59.2073 34.1538 59.0536C34.2958 58.8999 34.4094 58.7137 34.4946 58.4902C34.5798 58.2667 34.6177 58.0059 34.6177 57.7079Z" fill="white"/>
<path d="M43.3038 59.5131C43.4742 59.5131 43.6257 59.4945 43.7536 59.4572C43.8861 59.42 43.9997 59.3687 44.0944 59.2989C44.1938 59.229 44.2743 59.1499 44.3406 59.0521C44.4069 58.9543 44.4542 58.8519 44.4921 58.7355C44.5157 58.661 44.5299 58.5818 44.5394 58.4933C44.5489 58.4048 44.5536 58.3164 44.5536 58.2326V55.4945H45.1217V58.2186C45.1217 58.321 45.117 58.4281 45.1028 58.5399C45.0886 58.6516 45.0744 58.7541 45.046 58.8519C45.0034 59.0148 44.9371 59.1639 44.8471 59.3036C44.7572 59.4432 44.6436 59.5597 44.5015 59.6621C44.3595 59.7645 44.1891 59.8437 43.9903 59.8996C43.7914 59.9555 43.5595 59.9834 43.2896 59.9834C43.0198 59.9834 42.8115 59.9555 42.6174 59.9042C42.4233 59.853 42.2576 59.7785 42.1203 59.6854C41.983 59.5923 41.8694 59.4805 41.7794 59.3548C41.6895 59.2244 41.6232 59.0847 41.5759 58.9357C41.5427 58.8239 41.5143 58.7075 41.5001 58.5818C41.4859 58.4561 41.4764 58.335 41.4764 58.2139V55.4899H42.0445V58.2279C42.0445 58.3257 42.054 58.4281 42.0682 58.5306C42.0824 58.633 42.1061 58.7308 42.1392 58.8146C42.2197 59.0288 42.357 59.1965 42.5464 59.3175C42.7357 59.4386 42.9866 59.5038 43.2943 59.5038L43.3038 59.5131Z" fill="white"/>
<path d="M53.2407 59.91H52.6726V55.9845H51.1151V55.5002H54.7983V55.9845H53.2407V59.91Z" fill="white"/>
<path d="M60.8058 59.91V55.5002H61.3739V59.91H60.8058Z" fill="white"/>
<path d="M72.04 57.6609C72.04 57.8705 72.0163 58.0707 71.969 58.2616C71.9216 58.4525 71.8553 58.6248 71.7701 58.7831C71.6849 58.9415 71.5808 59.0858 71.4624 59.2115C71.3441 59.3373 71.2115 59.4444 71.0647 59.5282V59.5422C71.2588 59.5142 71.4387 59.4909 71.6139 59.477C71.7843 59.463 71.9595 59.4583 72.1347 59.4583V59.9426C72.0258 59.938 71.9074 59.9286 71.7796 59.9193C71.6518 59.91 71.505 59.91 71.3393 59.91C71.2162 59.91 71.0884 59.91 70.9606 59.9193C70.8328 59.924 70.7049 59.9333 70.5819 59.9426C70.454 59.9519 70.331 59.9612 70.2126 59.9659C70.0942 59.9706 69.9759 59.9752 69.867 59.9752C69.5214 59.9752 69.2137 59.9193 68.9391 59.8122C68.6645 59.7051 68.4373 59.5468 68.2479 59.3512C68.0586 59.151 67.9166 58.9135 67.8171 58.6341C67.7177 58.3547 67.6656 58.0474 67.6656 57.7121C67.6656 57.3769 67.7177 57.0695 67.8219 56.7855C67.926 56.5061 68.0728 56.264 68.2621 56.0637C68.4515 55.8635 68.6787 55.7052 68.9486 55.5888C69.2184 55.4724 69.5214 55.4211 69.8528 55.4211C70.1842 55.4211 70.5014 55.477 70.7712 55.5888C71.0411 55.7005 71.273 55.8589 71.4577 56.0591C71.647 56.2593 71.7891 56.4968 71.8885 56.7715C71.9879 57.0463 72.04 57.3443 72.04 57.6656V57.6609ZM71.4387 57.7075C71.4387 57.4095 71.3961 57.1487 71.3157 56.9205C71.2352 56.6924 71.1216 56.5061 70.9795 56.3524C70.8375 56.1988 70.6671 56.087 70.473 56.0079C70.2789 55.9287 70.0706 55.8914 69.8481 55.8914C69.6256 55.8914 69.4173 55.9287 69.2232 56.0079C69.0291 56.087 68.8634 56.1988 68.7166 56.3524C68.5699 56.5061 68.461 56.6924 68.3805 56.9205C68.3 57.1487 68.2574 57.4095 68.2574 57.7075C68.2574 58.0055 68.3 58.2663 68.3805 58.4898C68.461 58.7133 68.5746 58.9042 68.7166 59.0532C68.8586 59.2069 69.0291 59.3186 69.2232 59.3978C69.4173 59.477 69.6256 59.5142 69.8528 59.5142C70.08 59.5142 70.2836 59.477 70.473 59.3978C70.6623 59.3186 70.8328 59.2069 70.9748 59.0532C71.1168 58.8996 71.2304 58.7133 71.3109 58.4898C71.3914 58.2663 71.434 58.0055 71.434 57.7075H71.4387Z" fill="white"/>
<path d="M80.1914 59.5131C80.3618 59.5131 80.5133 59.4945 80.6411 59.4572C80.7737 59.42 80.8873 59.3687 80.982 59.2989C81.0814 59.229 81.1619 59.1499 81.2282 59.0521C81.2944 58.9543 81.3418 58.8519 81.3796 58.7355C81.4033 58.661 81.4175 58.5818 81.427 58.4933C81.4365 58.4048 81.4412 58.3164 81.4412 58.2326V55.4945H82.0093V58.2186C82.0093 58.321 82.0046 58.4281 81.9904 58.5399C81.9761 58.6516 81.9619 58.7541 81.9335 58.8519C81.8909 59.0148 81.8247 59.1639 81.7347 59.3036C81.6448 59.4432 81.5311 59.5597 81.3891 59.6621C81.2471 59.7645 81.0767 59.8437 80.8778 59.8996C80.679 59.9555 80.447 59.9834 80.1772 59.9834C79.9073 59.9834 79.699 59.9555 79.5049 59.9042C79.3108 59.853 79.1451 59.7785 79.0079 59.6854C78.8706 59.5923 78.7569 59.4805 78.667 59.3548C78.577 59.2244 78.5108 59.0847 78.4634 58.9357C78.4303 58.8239 78.4019 58.7075 78.3877 58.5818C78.3735 58.4561 78.364 58.335 78.364 58.2139V55.4899H78.9321V58.2279C78.9321 58.3257 78.9416 58.4281 78.9558 58.5306C78.97 58.633 78.9937 58.7308 79.0268 58.8146C79.1073 59.0288 79.2446 59.1965 79.4339 59.3175C79.6233 59.4386 79.8742 59.5038 80.1819 59.5038L80.1914 59.5131Z" fill="white"/>
<path d="M89.0261 59.4257H91.4168V59.91H88.458V55.5002H91.2843V55.9845H89.0214V57.4094H91.0334V57.8937H89.0214V59.4257H89.0261Z" fill="white"/>
<path d="M104.944 59.91H104.375V55.5002H107.154V55.9845H104.944V57.4094H106.904V57.8937H104.944V59.91Z" fill="white"/>
<path d="M113.256 59.91V55.5002H113.824V59.91H113.256Z" fill="white"/>
<path d="M122.677 57.9589C122.961 58.35 123.245 58.7458 123.525 59.1603H123.544C123.515 58.7319 123.496 58.2942 123.496 57.8471V55.5002H124.069V59.91H123.501L121.674 57.4513C121.356 57.0229 121.077 56.6225 120.826 56.2499H120.807C120.836 56.6504 120.855 57.1207 120.855 57.6562V59.91H120.286V55.5002H120.85L122.677 57.9589Z" fill="white"/>
<path d="M130.06 59.91L131.959 55.5002H132.451L134.349 59.91H133.734L133.175 58.5829H131.225L130.666 59.91H130.056H130.06ZM132.2 56.1848C131.992 56.7342 131.793 57.2325 131.604 57.6795L131.428 58.0939H132.972L132.797 57.6795C132.607 57.2232 132.408 56.7249 132.214 56.1801H132.2V56.1848Z" fill="white"/>
<path d="M142.734 57.9589C143.018 58.35 143.302 58.7458 143.581 59.1603H143.6C143.572 58.7319 143.553 58.2942 143.553 57.8471V55.5002H144.126V59.91H143.558L141.73 57.4513C141.413 57.0229 141.134 56.6225 140.883 56.2499H140.864C140.892 56.6504 140.911 57.1207 140.911 57.6562V59.91H140.343V55.5002H140.907L142.734 57.9589Z" fill="white"/>
<path d="M152.842 55.8978C152.582 55.8978 152.335 55.9351 152.108 56.0142C151.881 56.0934 151.682 56.2098 151.516 56.3634C151.351 56.5171 151.218 56.7127 151.123 56.9409C151.029 57.169 150.981 57.4391 150.981 57.7418C150.981 58.0444 151.024 58.3099 151.114 58.5334C151.204 58.7569 151.332 58.9432 151.493 59.0875C151.654 59.2319 151.857 59.3436 152.084 59.4135C152.316 59.4833 152.572 59.5206 152.861 59.5206C152.937 59.5206 153.022 59.5206 153.107 59.5113C153.192 59.5019 153.282 59.4926 153.372 59.4787C153.462 59.4647 153.547 59.4461 153.628 59.4274C153.713 59.4088 153.784 59.3902 153.85 59.3669V59.8419C153.713 59.8931 153.552 59.9303 153.372 59.9583C153.192 59.9862 153.003 60.0002 152.813 60.0002C152.425 60.0002 152.084 59.949 151.781 59.8465C151.483 59.7441 151.232 59.5997 151.029 59.4042C150.825 59.2132 150.674 58.9804 150.565 58.7057C150.456 58.4309 150.409 58.119 150.409 57.7697C150.409 57.4205 150.465 57.1131 150.574 56.8244C150.683 56.5357 150.844 56.2889 151.052 56.0841C151.261 55.8792 151.512 55.7162 151.81 55.5998C152.108 55.4834 152.44 55.4275 152.809 55.4275C152.908 55.4275 153.003 55.4275 153.098 55.4368C153.192 55.4461 153.282 55.4554 153.372 55.4694C153.457 55.4834 153.538 55.502 153.614 55.5206C153.689 55.5392 153.751 55.5625 153.808 55.5812V56.0561C153.666 56.0142 153.514 55.977 153.344 55.9444C153.178 55.9164 153.008 55.8978 152.842 55.8978Z" fill="white"/>
<path d="M160.071 59.91V55.5002H160.639V59.91H160.071Z" fill="white"/>
<path d="M167.669 59.4257H170.06V59.91H167.101V55.5002H169.927V55.9845H167.664V57.4094H169.676V57.8937H167.664V59.4257H167.669Z" fill="white"/>
<path d="M176.882 58.0846V59.91H176.314V55.5002H177.521C177.725 55.5002 177.9 55.5096 178.042 55.5235C178.184 55.5375 178.317 55.5608 178.435 55.5934C178.762 55.6772 179.008 55.8215 179.178 56.0218C179.349 56.222 179.434 56.4735 179.434 56.7761C179.434 56.9531 179.405 57.1114 179.344 57.2557C179.282 57.4001 179.197 57.5165 179.088 57.6236C178.979 57.7261 178.847 57.8099 178.695 57.8751C178.544 57.9403 178.373 57.9915 178.189 58.0194V58.0334L179.566 59.9193H178.998L177.564 58.0939H176.877L176.882 58.0846ZM176.882 55.9845V57.6003H177.441C177.616 57.6003 177.763 57.5957 177.886 57.5817C178.009 57.5724 178.118 57.5491 178.217 57.5212C178.416 57.4653 178.568 57.3722 178.672 57.2464C178.781 57.1207 178.833 56.9577 178.833 56.7575C178.833 56.5666 178.781 56.4176 178.681 56.3012C178.582 56.1848 178.444 56.1009 178.265 56.0544C178.179 56.0311 178.08 56.0125 177.966 56.0031C177.853 55.9938 177.701 55.9845 177.526 55.9845H176.882Z" fill="white"/>
<path d="M185.347 59.91L187.245 55.5002H187.738L189.636 59.91H189.02L188.462 58.5829H186.511L185.953 59.91H185.342H185.347ZM187.487 56.1848C187.278 56.7342 187.079 57.2325 186.89 57.6795L186.715 58.0939H188.258L188.083 57.6795C187.894 57.2232 187.695 56.7249 187.501 56.1801H187.487V56.1848Z" fill="white"/>
</g>
<defs>
<clipPath id="clip0_532_1907">
<rect width="217" height="60" fill="white"/>
</clipPath>
</defs>
</svg>
