<svg width="138" height="40" viewBox="0 0 138 40" fill="none" xmlns="http://www.w3.org/2000/svg">
<path d="M60.6156 21.2637V6.88278H67.0149L68.9868 11.7103C69.2644 12.388 69.6541 13.5692 70.0965 15.2436H70.313C70.7648 13.5692 71.1657 12.3673 71.433 11.6999L73.354 6.88184H79.7026V21.2627H74.5663V16.7119C74.5663 15.9006 74.587 15.0375 74.6896 13.8149L74.4844 13.7838L72.009 21.2618H68.311L65.8459 13.7838L65.6304 13.8149C65.7227 15.0375 65.7537 15.9006 65.7537 16.7119V21.2627H60.6156V21.2637Z" fill="white"/>
<path d="M123.759 16.0346V15.6958C123.759 12.1521 126.04 10.1689 130.497 10.1689C134.956 10.1689 137.236 12.1512 137.236 15.6958V16.0346C137.236 19.568 134.945 21.5718 130.497 21.5718C126.04 21.5709 123.759 19.568 123.759 16.0346ZM131.864 16.3838V15.357C131.864 13.9903 131.423 13.354 130.497 13.354C129.573 13.354 129.131 13.9912 129.131 15.357V16.3838C129.131 17.7401 129.572 18.3867 130.497 18.3867C131.423 18.3867 131.864 17.7392 131.864 16.3838Z" fill="white"/>
<path d="M63.6256 39.6914L60.6156 25.3105H65.9777L67.0356 31.7202C67.2004 32.7066 67.3434 33.8878 67.4263 35.2535H67.6314C67.7858 33.8972 67.9703 32.6548 68.1557 31.6684L69.3369 25.3095H73.8463L75.1715 31.6985C75.3767 32.6849 75.5414 33.8972 75.6647 35.2526H75.8906C76.0036 33.8963 76.1372 32.7358 76.2812 31.7494L77.2055 25.3086H82.3926L79.5162 39.6895H72.8703L72.0994 35.5397C71.9761 34.8827 71.7709 33.3824 71.6166 31.739H71.401C71.257 33.3824 71.0518 34.862 70.9285 35.5293L70.1784 39.6895H63.6256V39.6914Z" fill="white"/>
<path d="M95.3668 35.3359H87.3646C87.406 36.4757 87.8889 37.031 88.8235 37.031C89.6038 37.031 90.0358 36.6922 90.1384 35.8601L95.3358 36.1782C94.997 38.6951 92.7879 39.9996 88.8028 39.9996C84.2934 39.9996 82.0336 38.1096 82.0336 34.453V34.196C82.0336 30.5083 84.3141 28.5977 88.8442 28.5977C93.2406 28.5977 95.4695 30.4566 95.4695 33.9701C95.4695 34.4219 95.4384 34.8737 95.3668 35.3359ZM90.128 32.9941V32.963C90.128 32.0077 89.6866 31.5559 88.7924 31.5559C87.9811 31.5559 87.519 32.0388 87.3957 32.9941H90.128Z" fill="white"/>
<path d="M120.548 6.88281H117.412V9.54364V12.2299C116.576 10.9461 115.387 10.2929 113.683 10.2929C110.806 10.2929 109.41 11.9983 109.41 15.6239V16.1171C109.41 19.7022 110.806 21.4482 113.683 21.4482C115.429 21.4482 116.606 20.7724 117.412 19.4961V21.2628H117.422H120.548H122.681V6.88281H120.548ZM116.005 18.3666C115.11 18.3666 114.679 17.7097 114.679 16.3327V15.367C114.679 13.9806 115.11 13.3123 116.005 13.3123C116.95 13.3123 117.412 14.021 117.412 15.4696V16.2301C117.412 17.6683 116.95 18.3666 116.005 18.3666Z" fill="white"/>
<path d="M104.715 10.293C102.853 10.293 101.516 10.9829 100.483 12.3957V10.6422C100.484 10.5885 100.484 10.5339 100.483 10.4774H96.7911H95.3265V21.2638H96.7911H100.483V16.313C100.483 14.6593 101.008 13.735 101.963 13.735C102.672 13.735 103 14.136 103 14.9784V21.2648H108.383V13.5712C108.383 11.3613 107.119 10.293 104.715 10.293Z" fill="white"/>
<path d="M93.237 10.4775H88.9479H88.8349V15.4283C88.8349 17.082 88.3107 17.996 87.3459 17.996C86.6475 17.996 86.3087 17.595 86.3087 16.7526V10.4766H81.0492V18.1701C81.0492 20.3688 82.302 21.4474 84.7058 21.4474C86.5685 21.4474 87.9135 20.7566 88.9479 19.3438V20.9655C88.9451 21.0615 88.9451 21.1594 88.9479 21.2629H93.237H94.0935V10.4766H93.237V10.4775Z" fill="white"/>
<path d="M105.547 28.6688C103.836 28.6688 102.644 29.3653 101.808 30.6698V28.4307C101.814 28.281 101.818 28.1285 101.818 27.9704V25.3096H101.808H98.9803H96.5482V39.6905H98.9803H101.808V37.9078C102.613 39.1945 103.794 39.8759 105.547 39.8759C108.424 39.8759 109.82 38.1299 109.82 34.5448V34.0516C109.82 30.4251 108.424 28.6688 105.547 28.6688ZM104.551 34.7604C104.551 36.1364 104.12 36.7943 103.226 36.7943C102.281 36.7943 101.819 36.096 101.819 34.6578V33.8973C101.819 32.4487 102.281 31.74 103.226 31.74C104.119 31.74 104.551 32.4073 104.551 33.7947V34.7604Z" fill="white"/>
<path d="M39.9989 20V13.3333C39.9989 5.96922 34.0297 0 26.6656 0V6.66666C26.6656 14.0308 32.6358 20 39.9989 20C32.6348 20 26.6656 25.9692 26.6656 33.3333V20V13.3333C26.6656 5.96922 20.6964 0 13.3323 0H0V20H13.3333V6.66666C13.3333 14.0308 19.3025 20 26.6666 20H13.3333V40H26.6666C34.0307 40 39.9999 34.0308 39.9999 26.6667V20H39.9989Z" fill="white"/>
<path d="M53.3323 20C45.9682 20 39.999 25.9692 39.999 33.3333V40C47.3631 40 53.3323 34.0308 53.3323 26.6667V20Z" fill="white"/>
</svg>
