<svg width="217" height="60" viewBox="0 0 217 60" fill="none" xmlns="http://www.w3.org/2000/svg">
<g clip-path="url(#clip0_532_1945)">
<path d="M35.007 28.8114C35.1046 28.5892 35.2074 27.9814 35.5589 27.6206C37.5327 25.5947 39.5513 23.6122 41.5849 21.6467C42.7959 20.4755 43.5148 21.5623 44.2969 22.3211C45.1248 23.1244 45.5852 23.9321 44.5342 24.9185C43.3891 25.9936 42.3011 27.1337 41.1253 28.1725C40.1208 29.0593 40.1437 29.8092 41.0963 30.72C42.1166 31.6957 42.9646 32.866 44.0324 33.7777C45.5343 35.0608 44.579 35.8961 43.7327 36.8993C42.708 38.1149 41.8732 37.9771 40.8669 36.8451C39.3527 35.1416 37.7199 33.5466 36.1618 31.8823C35.4482 31.1199 34.9341 30.2411 35.007 28.8114Z" fill="white"/>
<path d="M94.3829 28.8114C94.2854 28.5892 94.1825 27.9814 93.831 27.6206C91.8572 25.5947 89.8386 23.6122 87.805 21.6467C86.594 20.4755 85.8752 21.5623 85.093 22.3211C84.2652 23.1244 83.8047 23.9321 84.8557 24.9185C86.0008 25.9936 87.0888 27.1337 88.2646 28.1725C89.2691 29.0593 89.2463 29.8092 88.2936 30.72C87.2733 31.6957 86.4253 32.866 85.3575 33.7777C83.8556 35.0608 84.8109 35.8961 85.6572 36.8993C86.6819 38.1149 87.5168 37.9771 88.523 36.8451C90.0372 35.1416 91.67 33.5466 93.2282 31.8823C93.9417 31.1199 94.4567 30.2411 94.3829 28.8114Z" fill="white"/>
<path d="M64.253 49.8143C64.0325 49.9103 63.4296 50.0072 63.0684 50.3573C61.0401 52.3273 59.054 54.3435 57.0846 56.3748C55.9114 57.585 56.9774 58.3252 57.7173 59.1249C58.5012 59.9718 59.2948 60.4472 60.2835 59.3977C61.3609 58.2532 62.5025 57.1674 63.5438 55.9918C64.4341 54.9877 65.1749 55.0197 66.0634 55.9945C67.0151 57.0386 68.162 57.9103 69.0505 59.0014C70.3001 60.536 71.1385 59.5808 72.1412 58.7375C73.3558 57.7165 73.231 56.8715 72.1237 55.8398C70.4583 54.2875 68.9011 52.6169 67.2753 51.021C66.53 50.2906 65.6679 49.7584 64.253 49.8143Z" fill="white"/>
<path d="M65.2312 10.1486C65.4526 10.0544 66.0555 9.96202 66.4193 9.61369C68.4617 7.6588 70.4618 5.65682 72.4453 3.63972C73.6273 2.43836 72.5666 1.69017 71.8319 0.885108C71.0541 0.0320652 70.2641 -0.44866 69.2684 0.593652C68.1831 1.73015 67.0336 2.80801 65.9834 3.97561C65.0861 4.97349 64.3453 4.93528 63.4639 3.95428C62.5191 2.90398 61.3793 2.02339 60.4988 0.925983C59.2596 -0.617491 58.4151 0.331519 57.4054 1.16768C56.1829 2.17978 56.3024 3.02571 57.4027 4.06536C59.0575 5.62927 60.6025 7.31225 62.2177 8.9197C62.9577 9.65634 63.8163 10.1939 65.2312 10.1477V10.1486Z" fill="white"/>
<path d="M61.8714 26.7121C61.6482 26.8018 61.1534 27.1635 60.6534 27.1723C57.8412 27.2248 55.0272 27.2132 52.2142 27.1803C50.5383 27.1608 50.7764 25.8759 50.743 24.7803C50.707 23.6207 50.9372 22.7179 52.3706 22.7561C53.9331 22.7978 55.4992 22.7525 57.0582 22.8423C58.3896 22.9187 58.8922 22.3669 58.8413 21.042C58.7868 19.6229 58.9898 18.187 58.858 16.7803C58.6725 14.8006 59.9327 14.8805 61.2316 14.7615C62.8047 14.6175 63.3065 15.3062 63.2423 16.8274C63.1457 19.1155 63.2098 21.4108 63.1712 23.7015C63.1536 24.7509 62.9137 25.7435 61.8723 26.7129L61.8714 26.7121Z" fill="white"/>
<path d="M43.1103 7.63889C43.3317 7.54381 43.8159 7.16883 44.316 7.14661C47.1255 7.02043 49.9395 6.95734 52.7526 6.91647C54.4284 6.89248 54.2237 8.1827 54.2852 9.27655C54.3511 10.4353 54.1446 11.3434 52.7104 11.3434C51.1479 11.3434 49.5836 11.4296 48.0228 11.3807C46.6896 11.3398 46.2019 11.9041 46.2863 13.2272C46.3768 14.6445 46.2107 16.0849 46.3794 17.488C46.6158 19.4615 45.3539 19.4162 44.0585 19.569C42.4898 19.7548 41.9704 19.0794 41.9959 17.5573C42.0337 15.2674 41.9107 12.9748 41.8896 10.6832C41.8799 9.63376 42.0944 8.63588 43.1103 7.638V7.63889Z" fill="white"/>
<path d="M85.9685 8.18976C86.0626 8.41368 86.4334 8.90329 86.4554 9.4089C86.5802 12.2497 86.6426 15.095 86.683 17.9393C86.7067 19.6339 85.4307 19.4259 84.3489 19.489C83.2029 19.5557 82.3048 19.3468 82.3048 17.8967C82.3048 16.3168 82.2195 14.7351 82.2679 13.157C82.3083 11.809 81.7502 11.3158 80.4417 11.4011C79.04 11.4926 77.6154 11.3247 76.2278 11.4953C74.276 11.7343 74.3208 10.4583 74.1696 9.14854C73.986 7.56242 74.6538 7.03726 76.1592 7.06303C78.4239 7.10124 80.6913 6.97684 82.9577 6.95551C83.9956 6.94574 84.9825 7.16255 85.9694 8.18976H85.9685Z" fill="white"/>
<path d="M43.2416 51.7366C43.4657 51.8246 43.9631 52.1818 44.4631 52.1881C47.2753 52.2183 50.0893 52.1854 52.9023 52.1303C54.5782 52.0974 54.3295 50.8143 54.355 49.7187C54.3823 48.5591 54.145 47.658 52.7125 47.7069C51.1509 47.7611 49.584 47.7274 48.0258 47.8295C46.6953 47.9166 46.1882 47.3684 46.2287 46.0435C46.2717 44.6244 46.0582 43.1902 46.1795 41.7818C46.3499 39.8012 45.0906 39.89 43.79 39.7816C42.216 39.6501 41.7195 40.3423 41.7951 41.8627C41.9093 44.1499 41.8627 46.4451 41.9181 48.7359C41.9436 49.7853 42.1914 50.7752 43.2398 51.7375L43.2416 51.7366Z" fill="white"/>
<path d="M85.9272 51.0982C86.0239 50.8761 86.4009 50.39 86.429 49.8853C86.5881 47.0463 86.6856 44.2019 86.7603 41.3584C86.8051 39.6648 85.5256 39.8558 84.4447 39.7794C83.3004 39.6986 82.3988 39.8967 82.3821 41.346C82.3636 42.9259 82.2582 44.5067 82.2872 46.0857C82.3118 47.4337 81.7467 47.9206 80.4399 47.8185C79.04 47.7092 77.6128 47.8593 76.2278 47.6718C74.2786 47.4079 74.3085 48.6848 74.1415 49.9928C73.9385 51.5772 74.6002 52.1103 76.1056 52.1032C78.3703 52.0934 80.6359 52.2463 82.9023 52.2952C83.9402 52.3174 84.9298 52.113 85.9281 51.0982H85.9272Z" fill="white"/>
<path d="M67.7129 26.0018C67.6233 25.7761 67.2621 25.2793 67.2489 24.7728C67.1777 21.9294 67.169 19.0841 67.1821 16.2397C67.19 14.5452 68.4626 14.7771 69.5453 14.7354C70.6921 14.6909 71.5867 14.9175 71.5586 16.3668C71.5287 17.9467 71.5841 19.5302 71.5068 21.1065C71.4409 22.4536 71.9901 22.9575 73.2995 22.897C74.7021 22.8322 76.124 23.0277 77.5143 22.8846C79.4705 22.6829 79.4011 23.958 79.5277 25.2705C79.6815 26.8601 79.0039 27.372 77.4994 27.3178C75.2356 27.236 72.9665 27.3169 70.7 27.2938C69.6621 27.2831 68.6788 27.0476 67.7121 26.0018H67.7129Z" fill="white"/>
<path d="M61.8714 32.4177C61.6482 32.3279 61.1534 31.9663 60.6534 31.9574C57.8412 31.905 55.0272 31.9165 52.2142 31.9494C50.5383 31.9689 50.7764 33.2538 50.743 34.3495C50.707 35.5091 50.9372 36.4119 52.3706 36.3737C53.9331 36.3319 55.4992 36.3772 57.0582 36.2875C58.3896 36.2111 58.8922 36.7629 58.8413 38.0877C58.7868 39.5068 58.9898 40.9428 58.858 42.3494C58.6725 44.3292 59.9327 44.2492 61.2316 44.3683C62.8047 44.5122 63.3065 43.8236 63.2423 42.3023C63.1457 40.0142 63.2098 37.719 63.1712 35.4282C63.1536 34.3788 62.9137 33.3862 61.8723 32.4168L61.8714 32.4177Z" fill="white"/>
<path d="M67.7129 33.2412C67.6233 33.4669 67.2621 33.9636 67.2489 34.4701C67.1777 37.3136 67.169 40.1589 67.1821 43.0032C67.19 44.6978 68.4626 44.4658 69.5453 44.5076C70.6921 44.552 71.5867 44.3254 71.5586 42.8762C71.5287 41.2963 71.5841 39.7128 71.5068 38.1364C71.4409 36.7893 71.9901 36.2855 73.2995 36.3459C74.7021 36.4108 76.124 36.2153 77.5143 36.3584C79.4705 36.5601 79.4011 35.285 79.5277 33.9725C79.6815 32.3828 79.0039 31.871 77.4994 31.9252C75.2356 32.007 72.9665 31.9261 70.7 31.9492C69.6621 31.9599 68.6788 32.1954 67.7121 33.2412H67.7129Z" fill="white"/>
<path d="M101.549 44.3422C102.075 43.2288 102.65 42.1642 103.176 41.0508L109.208 28.8532C112.272 22.8028 115.288 16.7036 118.304 10.6052C118.304 10.5572 118.304 10.4604 118.4 10.5084C118.447 10.5084 118.447 10.5563 118.496 10.6052L120.937 15.5422C123.187 20.0926 125.437 24.6422 127.735 29.2406L135.203 44.343H127.351C126.873 43.4234 126.394 42.4557 125.963 41.536C125.899 41.3749 125.819 41.2943 125.724 41.2943H111.122C110.995 41.2943 110.915 41.3426 110.883 41.4391C110.404 42.4077 109.926 43.3265 109.495 44.2462C109.447 44.2462 109.447 44.2942 109.447 44.343H101.548L101.549 44.3422ZM114.618 34.1776H122.229C122.229 34.0808 122.229 34.0328 122.181 33.9839C121.415 32.3383 120.6 30.7406 119.788 29.1438C119.357 28.273 118.925 27.4013 118.495 26.4816L118.399 26.3847C118.399 26.3367 118.351 26.3367 118.351 26.3847C118.351 26.4327 118.303 26.4327 118.303 26.4816C118.112 26.8201 117.968 27.1596 117.824 27.4501C116.915 29.2406 116.053 31.032 115.144 32.8234C114.952 33.2108 114.761 33.6462 114.522 34.0337C114.49 34.1302 114.521 34.1785 114.618 34.1785V34.1776Z" fill="white"/>
<path d="M158.947 26.4322C158.947 26.4322 146.165 26.4802 143.341 26.4802C143.245 26.4802 143.197 26.5287 143.197 26.6259V33.4511C143.197 33.5477 143.245 33.596 143.341 33.596H149.755C149.723 33.6279 149.691 33.6602 149.659 33.6928C147.744 36.0644 145.064 37.1778 142.095 37.1778C137.26 37.1778 133.287 33.4991 132.616 28.707C132.568 28.1258 132.521 27.5456 132.568 26.9165C132.664 24.4959 133.574 22.4629 135.154 20.6724C136.877 18.9298 139.271 17.6227 141.76 17.6227C141.951 17.5747 142.143 17.5747 142.334 17.5747C142.526 17.5747 142.718 17.5747 142.909 17.6227C146.068 17.8644 148.271 19.3173 150.186 21.7369H158.036C156.121 16.1219 150.999 11.7172 145.206 10.7495C144.68 10.6527 144.201 10.5558 143.675 10.5558C143.387 10.5078 143.1 10.5078 142.812 10.5078C142.765 10.4598 142.717 10.4598 142.621 10.4598H141.855C141.76 10.4598 141.664 10.4598 141.616 10.5078C134.355 10.6918 128.172 15.7922 126.162 22.6735C127.243 24.8549 128.331 27.0417 129.429 29.241L136.361 43.2584C136.964 43.4797 137.584 43.6654 138.217 43.8103C138.792 43.9551 139.366 44.1008 139.94 44.1488C140.658 44.2936 141.472 44.3425 142.191 44.3425C150.042 44.3425 157.366 38.5827 158.659 30.6441C158.899 29.7733 158.994 28.6599 158.994 27.7402V27.0622C158.946 26.8685 158.946 26.6748 158.946 26.4331L158.947 26.4322Z" fill="white"/>
<path d="M176.193 38.4849C174.47 36.8393 172.747 35.1936 171.023 33.4991C170.976 33.4991 170.927 33.4511 170.927 33.4022C170.927 33.3054 171.023 33.3054 171.119 33.3054C176.002 31.9014 179.209 27.2061 179.209 22.1723C179.209 16.3636 175.188 11.1849 169.396 10.6038C169.252 10.5558 169.061 10.5558 168.917 10.5558C168.868 10.5558 168.773 10.5558 168.725 10.5078H152.21L159.247 17.6236H168.343C170.545 17.6236 171.933 19.7047 172.173 21.6898C172.173 23.0449 171.981 24.0614 171.119 25.1748C170.354 26.0456 169.443 26.5788 168.247 26.5788H160.307C160.309 26.7529 160.315 26.9111 160.353 27.0631V27.7411C160.353 28.6607 160.257 29.7741 160.018 30.645C159.922 31.2323 159.79 31.8054 159.63 32.367C163.424 35.9756 167.178 39.6241 170.927 43.23C171.311 43.6174 171.694 43.956 172.077 44.3434H182.274C180.263 42.4072 178.205 40.423 176.194 38.4867L176.193 38.4849Z" fill="white"/>
</g>
<defs>
<clipPath id="clip0_532_1945">
<rect width="147.273" height="60" fill="white" transform="translate(35)"/>
</clipPath>
</defs>
</svg>
