<svg width="217" height="60" viewBox="0 0 217 60" fill="none" xmlns="http://www.w3.org/2000/svg">
<path d="M168.031 41.1467V18.7467H187.338V23.6267H174.058V27.84H186.858V32.0267H174.058V36.2667H187.338V41.1467H168.031Z" fill="white"/>
<path d="M143.125 41.1467V18.7467H150.085L159.498 32.8267H160.032V18.7467H165.898V41.1467H159.098L149.552 27.0667H148.992V41.1467H143.125Z" fill="white"/>
<path d="M134.969 41.1467V18.7467H140.995V41.1467H134.969Z" fill="white"/>
<path d="M107.25 41.1467V18.7467H114.903L119.81 33.4667H120.263L125.17 18.7467H132.823V41.1467H127.063V28.8534H126.557L122.343 41.1467H117.73L113.517 28.8534H113.01V41.1467H107.25Z" fill="white"/>
<path d="M93.0847 41.8933C85.618 41.8933 80.6313 37.0133 80.6313 29.9467C80.6313 22.8533 85.618 18 93.0847 18C100.525 18 105.511 22.8533 105.511 29.9467C105.511 37.0133 100.525 41.8933 93.0847 41.8933ZM93.0847 36.6933C96.7113 36.6933 99.5647 34.0533 99.5647 29.9467C99.5647 25.8133 96.7113 23.2 93.0847 23.2C89.4313 23.2 86.6047 25.8133 86.6047 29.9467C86.6047 34.0533 89.4313 36.6933 93.0847 36.6933Z" fill="white"/>
<path d="M66.6472 41.8933C59.1805 41.8933 54.1938 37.0133 54.1938 29.9467C54.1938 22.8533 59.1805 18 66.6472 18C74.0872 18 79.0739 22.8533 79.0739 29.9467C79.0739 37.0133 74.0872 41.8933 66.6472 41.8933ZM66.6472 36.6933C70.2738 36.6933 73.1272 34.0533 73.1272 29.9467C73.1272 25.8133 70.2738 23.2 66.6472 23.2C62.9938 23.2 60.1672 25.8133 60.1672 29.9467C60.1672 34.0533 62.9938 36.6933 66.6472 36.6933Z" fill="white"/>
<path d="M40.6133 18.7467C49.4667 18.7467 52.72 23.5467 52.72 29.9467C52.72 36.32 49.4667 41.1467 40.6133 41.1467H30V18.7467H40.6133ZM40.6133 36.08C44.48 36.08 46.6933 34 46.6933 29.9467C46.6933 25.8667 44.48 23.7867 40.6133 23.7867H36.0533L36.0267 36.08H40.6133Z" fill="white"/>
</svg>
