<svg width="217" height="60" viewBox="0 0 217 60" fill="none" xmlns="http://www.w3.org/2000/svg">
<path d="M77.3337 43.7945C77.7513 44.1587 77.9601 44.6734 77.9601 45.3386C77.9601 46.0378 77.7489 46.5817 77.3289 46.9677C76.9089 47.3537 76.3165 47.548 75.5541 47.548H74.3596V49.2669H73V43.2482H75.5541C76.3213 43.2482 76.9161 43.4303 77.3337 43.7945ZM76.365 46.1519C76.569 45.9771 76.6709 45.7198 76.6709 45.3823C76.6709 45.0448 76.569 44.7996 76.365 44.6297C76.1611 44.4597 75.8673 44.3772 75.4837 44.3772H74.3572V46.4142H75.4837C75.8673 46.4142 76.1611 46.3268 76.365 46.1519Z" fill="white"/>
<path d="M78.8284 43.2501H83.4097V44.3766H80.1855V45.6828H83.082V46.8093H80.1855V48.1422H83.5044V49.2687H78.8284V43.2501Z" fill="white"/>
<path d="M88.2692 49.2669L87.315 47.548H85.9311V49.2669H84.574V43.2482H87.1863C87.9705 43.2482 88.5799 43.4303 89.0097 43.7945C89.4394 44.1587 89.6555 44.6734 89.6555 45.3386C89.6555 45.8023 89.5584 46.2005 89.3666 46.5283C89.1748 46.8585 88.8956 47.1085 88.529 47.2809L89.8109 49.2669H88.2716H88.2692ZM85.9287 46.4142H87.1839C87.5627 46.4142 87.854 46.3268 88.0555 46.1519C88.2595 45.9771 88.3614 45.7198 88.3614 45.3823C88.3614 45.0448 88.2595 44.7996 88.0555 44.6297C87.8516 44.4597 87.5602 44.3772 87.1839 44.3772H85.9287V46.4142Z" fill="white"/>
<path d="M92.4149 47.7999C92.6577 48.0499 92.983 48.1738 93.3909 48.1738C93.7988 48.1738 94.1023 48.0499 94.3378 47.8047C94.5733 47.5595 94.6898 47.2172 94.6898 46.7826V43.2501H96.047V46.7826C96.047 47.3094 95.9402 47.7659 95.7241 48.1543C95.508 48.5404 95.2021 48.839 94.7991 49.0478C94.3985 49.2566 93.9251 49.361 93.3812 49.361C92.8374 49.361 92.3615 49.2566 91.9536 49.0478C91.5458 48.839 91.235 48.5404 91.0165 48.1543C90.798 47.7683 90.6887 47.3094 90.6887 46.7826V43.2501H92.0459V46.7826C92.0459 47.2123 92.1673 47.5522 92.4101 47.8023L92.4149 47.7999Z" fill="white"/>
<path d="M101.542 49.2669L101.068 48.0967H98.2834L97.8099 49.2669H96.4091L99.0214 43.2482H100.422L102.993 49.2669H101.542ZM98.7301 47.0066H100.631L99.6842 44.6685L98.7301 47.0066Z" fill="white"/>
<path d="M107.78 43.2501H109.069V49.2687H107.831L104.918 45.4011V49.2687H103.619V43.2501H104.857L107.78 47.1346V43.2501Z" fill="white"/>
<path d="M114.591 43.6312C115.072 43.8862 115.446 44.2406 115.713 44.6971C115.98 45.1535 116.113 45.6731 116.113 46.2582C116.113 46.8433 115.977 47.3629 115.705 47.8193C115.434 48.2757 115.052 48.6302 114.567 48.8851C114.079 49.14 113.523 49.2687 112.899 49.2687H110.398V43.2501H112.952C113.567 43.2501 114.113 43.3787 114.594 43.6337L114.591 43.6312ZM113.88 47.8873C114.147 47.7295 114.353 47.511 114.504 47.2293C114.652 46.9477 114.727 46.6272 114.727 46.2679C114.727 45.9086 114.647 45.5832 114.492 45.2967C114.334 45.0103 114.118 44.7893 113.846 44.6315C113.574 44.4737 113.265 44.396 112.921 44.396H111.751V48.1276H112.979C113.312 48.1276 113.61 48.0499 113.877 47.8921L113.88 47.8873Z" fill="white"/>
<path d="M117.008 43.2501H121.59V44.3766H118.365V45.6828H121.262V46.8093H118.365V48.1422H121.684V49.2687H117.008V43.2501Z" fill="white"/>
<path d="M125.728 44.4736C125.381 44.3619 125.084 44.306 124.837 44.306C124.589 44.306 124.417 44.3497 124.278 44.4347C124.14 44.5197 124.072 44.6459 124.072 44.8135C124.072 45.0247 124.171 45.1874 124.368 45.299C124.565 45.4107 124.871 45.5273 125.283 45.6462C125.696 45.7676 126.036 45.8866 126.303 46.008C126.57 46.1294 126.798 46.309 126.985 46.5494C127.172 46.7897 127.269 47.1078 127.269 47.5035C127.269 47.8993 127.167 48.2173 126.963 48.4965C126.76 48.7733 126.48 48.9845 126.126 49.1278C125.771 49.271 125.366 49.3414 124.914 49.3414C124.426 49.3414 123.948 49.2564 123.48 49.0841C123.009 48.9117 122.603 48.6762 122.258 48.38L122.8 47.2705C123.103 47.5448 123.453 47.7657 123.849 47.9333C124.244 48.1008 124.606 48.1833 124.931 48.1833C125.213 48.1833 125.432 48.1324 125.589 48.028C125.747 47.9236 125.825 47.7755 125.825 47.5812C125.825 47.4258 125.771 47.2996 125.665 47.1976C125.558 47.0957 125.424 47.0155 125.262 46.9524C125.099 46.8893 124.873 46.8189 124.587 46.7388C124.174 46.6246 123.836 46.5105 123.577 46.394C123.314 46.2799 123.091 46.1051 122.902 45.8696C122.712 45.6341 122.618 45.3233 122.618 44.9324C122.618 44.5707 122.715 44.2551 122.909 43.9831C123.103 43.7112 123.375 43.5024 123.725 43.3568C124.074 43.2111 124.482 43.1382 124.946 43.1382C125.359 43.1382 125.767 43.1989 126.167 43.3179C126.568 43.4393 126.925 43.5995 127.233 43.7986L126.709 44.9251C126.398 44.7358 126.07 44.5852 125.725 44.4736H125.728Z" fill="white"/>
<path d="M127.631 43.2501H132.659V44.4009H130.819V49.2663H129.462V44.4009H127.631V43.2501Z" fill="white"/>
<path d="M137.511 43.5588C138.004 43.8283 138.392 44.1998 138.677 44.6732C138.961 45.1466 139.101 45.671 139.101 46.2513C139.101 46.8316 138.961 47.3584 138.677 47.8343C138.392 48.3101 138.004 48.684 137.511 48.9559C137.018 49.2278 136.472 49.3638 135.87 49.3638C135.268 49.3638 134.722 49.2278 134.229 48.9559C133.736 48.684 133.347 48.3101 133.063 47.8391C132.779 47.3657 132.638 46.8388 132.638 46.2537C132.638 45.6686 132.779 45.149 133.063 44.6756C133.347 44.2022 133.733 43.8307 134.224 43.5612C134.714 43.2917 135.263 43.1582 135.87 43.1582C136.477 43.1582 137.018 43.2917 137.511 43.5612V43.5588ZM134.957 44.5955C134.671 44.7654 134.445 44.9961 134.277 45.2874C134.11 45.5788 134.027 45.9017 134.027 46.2513C134.027 46.6009 134.112 46.9311 134.28 47.2224C134.447 47.5138 134.675 47.7469 134.959 47.9192C135.244 48.0916 135.552 48.1766 135.884 48.1766C136.217 48.1766 136.523 48.0916 136.8 47.9241C137.077 47.7541 137.297 47.5235 137.463 47.2273C137.625 46.9335 137.708 46.6082 137.708 46.2513C137.708 45.8944 137.625 45.5812 137.463 45.2874C137.3 44.9937 137.079 44.7654 136.8 44.5955C136.521 44.4255 136.217 44.343 135.884 44.343C135.552 44.343 135.244 44.428 134.957 44.5955Z" fill="white"/>
<path d="M144.325 43.7945C144.743 44.1587 144.952 44.6734 144.952 45.3386C144.952 46.0378 144.741 46.5817 144.321 46.9677C143.901 47.3537 143.308 47.548 142.546 47.548H141.351V49.2669H139.994V43.2482H142.548C143.315 43.2482 143.91 43.4303 144.328 43.7945H144.325ZM143.359 46.1519C143.563 45.9771 143.665 45.7198 143.665 45.3823C143.665 45.0448 143.563 44.7996 143.359 44.6297C143.155 44.4597 142.861 44.3772 142.478 44.3772H141.351V46.4142H142.478C142.861 46.4142 143.155 46.3268 143.359 46.1519Z" fill="white"/>
<path d="M78.985 53.1545H83.5227V53.8853H81.6483V58.9619H80.852V53.8853H78.985V53.1545Z" fill="white"/>
<path d="M88.1838 58.9607L87.0306 57.1373C86.897 57.1495 86.7902 57.1543 86.7077 57.1543H85.2315V58.9631H84.4352V53.1581H86.7077C87.4433 53.1581 88.0114 53.328 88.412 53.6679C88.8126 54.0078 89.0141 54.491 89.0141 55.1149C89.0141 55.5859 88.9049 55.9793 88.6864 56.2997C88.4679 56.6202 88.1547 56.8533 87.7444 56.9965L89.0967 58.9631H88.1838V58.9607ZM86.7052 56.4308C87.2029 56.4308 87.5841 56.3216 87.8487 56.1031C88.1134 55.8846 88.2469 55.5617 88.2469 55.1368C88.2469 54.7119 88.1134 54.4084 87.8487 54.1948C87.5841 53.9811 87.2029 53.8743 86.7052 53.8743H85.2291V56.4284H86.7052V56.4308Z" fill="white"/>
<path d="M94.745 58.9595L94.1308 57.5489H91.0717L90.4671 58.9595H89.6295L92.2079 53.1545H93.0382L95.6093 58.9595H94.7474H94.745ZM91.3849 56.8278H93.8224L92.5939 54.0091L91.3824 56.8278H91.3849Z" fill="white"/>
<path d="M95.2725 53.1545H96.1271L98.0426 58.0733L99.9582 53.1545H100.796L98.4408 58.9595H97.6105L95.2725 53.1545Z" fill="white"/>
<path d="M101.668 53.1545H105.698V53.8756H102.465V55.6673H105.359V56.3884H102.465V58.2384H105.798V58.9595H101.668V53.1545Z" fill="white"/>
<path d="M107.082 53.1545H107.879V58.2384H110.416V58.9595H107.082V53.1545Z" fill="white"/>
<path d="M113.601 53.1545H114.545L116.667 57.2357L118.774 53.1545H119.728V58.9595H118.983L118.976 54.3247L116.91 58.3477H116.419L114.339 54.3247V58.9595H113.601V53.1545Z" fill="white"/>
<path d="M125.466 53.495C125.932 53.7547 126.302 54.1092 126.573 54.5608C126.845 55.0124 126.979 55.5076 126.979 56.0491C126.979 56.5905 126.843 57.0906 126.573 57.547C126.302 58.0035 125.932 58.3628 125.466 58.625C125 58.8872 124.485 59.0183 123.927 59.0183C123.369 59.0183 122.856 58.8872 122.388 58.625C121.922 58.3628 121.553 58.0035 121.281 57.547C121.009 57.0906 120.875 56.5929 120.875 56.0491C120.875 55.5052 121.011 55.0099 121.281 54.5608C121.553 54.1092 121.919 53.7547 122.383 53.495C122.847 53.2352 123.361 53.1041 123.925 53.1041C124.488 53.1041 124.995 53.2352 125.464 53.495H125.466ZM122.813 54.1165C122.468 54.3156 122.191 54.5851 121.987 54.925C121.783 55.2649 121.681 55.6387 121.681 56.0491C121.681 56.4594 121.783 56.8333 121.987 57.178C122.191 57.5203 122.465 57.7923 122.813 57.9938C123.157 58.1953 123.534 58.2973 123.937 58.2973C124.34 58.2973 124.711 58.1953 125.051 57.9938C125.391 57.7923 125.663 57.5203 125.864 57.178C126.066 56.8357 126.168 56.4594 126.168 56.0491C126.168 55.6387 126.066 55.2649 125.864 54.925C125.663 54.5851 125.391 54.3156 125.051 54.1165C124.711 53.9174 124.34 53.8179 123.937 53.8179C123.534 53.8179 123.157 53.9174 122.813 54.1165Z" fill="white"/>
<path d="M131.873 58.9607L130.72 57.1373C130.586 57.1495 130.48 57.1543 130.397 57.1543H128.921V58.9631H128.125V53.1581H130.397C131.133 53.1581 131.701 53.328 132.101 53.6679C132.502 54.0078 132.704 54.491 132.704 55.1149C132.704 55.5859 132.594 55.9793 132.376 56.2997C132.157 56.6202 131.844 56.8533 131.434 56.9965L132.786 58.9631H131.873V58.9607ZM130.395 56.4308C130.892 56.4308 131.274 56.3216 131.538 56.1031C131.803 55.8846 131.936 55.5617 131.936 55.1368C131.936 54.7119 131.803 54.4084 131.538 54.1948C131.274 53.9811 130.89 53.8743 130.395 53.8743H128.919V56.4284H130.395V56.4308Z" fill="white"/>
<path d="M134.119 53.1545H138.149V53.8756H134.915V55.6673H137.809V56.3884H134.915V58.2384H138.249V58.9595H134.119V53.1545Z" fill="white"/>
<path d="M123.606 32.6687L123.602 32.6638L121.567 30.6293L121.543 30.605L108.794 17.8563L96.0503 30.6001L96.0211 30.6293L93.9866 32.6638L94.0327 32.7148L94.1371 32.8362L94.1711 32.8726L94.3313 33.0474C94.5158 33.2465 94.7028 33.4432 94.8946 33.635C98.733 37.471 103.764 39.3938 108.797 39.3938C112.628 39.3938 116.461 38.2819 119.768 36.0531L119.906 35.9609L120.018 35.8856L120.035 35.8734C121.356 34.9557 122.555 33.8802 123.614 32.6735H123.611L123.606 32.6687ZM108.801 36.4707C104.732 36.4707 100.998 35.0213 98.0969 32.6104L108.797 21.9108L119.503 32.6177C116.6 35.0237 112.87 36.4707 108.804 36.4707H108.801Z" fill="white"/>
<path d="M108.802 0.00189259H108.794C97.9175 -0.000535266 89.1019 8.81744 89.1019 19.6918C89.1019 21.4277 89.3253 23.1102 89.7477 24.7126L89.7623 24.6981V24.7029L92.1926 22.2751V22.2702L97.7694 16.6934L99.8015 18.7255L91.0272 27.4998H91.0296L90.816 27.7159C91.2166 28.619 91.69 29.5028 92.2363 30.3501L94.3218 28.2646L108.789 13.797L123.257 28.2646L125.343 30.3501C125.889 29.5028 126.362 28.619 126.763 27.7159L126.399 27.3517H126.401L117.777 18.7255L119.809 16.6934L125.377 22.2605L125.389 22.2726V22.2775L127.814 24.7053V24.6981L127.838 24.7199C128.261 23.1175 128.487 21.4326 128.487 19.6942C128.494 8.81744 119.676 0.00189259 108.802 0.00189259ZM125.527 18.4148L121.587 14.4743L121.621 14.4428L119.814 12.6365L115.753 16.6983L108.794 9.74003L101.836 16.6983L97.7742 12.6365L92.0761 18.3346C92.7704 9.70604 99.9933 2.92018 108.799 2.92018C117.605 2.92018 124.874 9.74974 125.529 18.4172H125.527V18.4148Z" fill="white"/>
</svg>
