<svg width="294" height="159" viewBox="0 0 294 159" fill="none" xmlns="http://www.w3.org/2000/svg">
<g filter="url(#filter0_d_474_1086)">
<rect x="39" y="59.2979" width="211.086" height="52.086" rx="12" transform="rotate(-6.60991 39 59.2979)" fill="url(#paint0_linear_474_1086)" shape-rendering="crispEdges"/>
<rect x="40.1085" y="60.1761" width="209.086" height="50.086" rx="11" transform="rotate(-6.60991 40.1085 60.1761)" stroke="#569E71" stroke-width="2" shape-rendering="crispEdges"/>
<path d="M67.9285 114.1C66.8697 115.218 64.998 114.77 64.5595 113.294L61.1834 101.932C60.7449 100.456 62.0685 99.0589 63.5658 99.4171L75.0942 102.175C76.5916 102.533 77.1397 104.378 76.0808 105.495L67.9285 114.1Z" fill="#1B9F4C"/>
<circle cx="19.6558" cy="19.6558" r="19.6558" transform="matrix(0.993353 -0.115109 -0.115109 -0.993353 58.5518 103.037)" fill="#DBDBDB" fill-opacity="0.24"/>
<path d="M90.4754 79.6106C89.5338 71.4848 82.1833 65.6609 74.0575 66.6025C65.9318 67.5441 60.1079 74.8947 61.0495 83.0204C61.9911 91.1462 69.3416 96.9701 77.4674 96.0285C85.5931 95.0869 91.417 87.7363 90.4754 79.6106Z" fill="#25D366"/>
<path fill-rule="evenodd" clip-rule="evenodd" d="M80.2442 75.6951C78.8471 74.5882 77.1004 74.114 75.3476 74.3171C71.6752 74.7426 69.0186 78.0956 69.4442 81.768C69.5796 82.9366 70.0488 84.0664 70.7492 85.0003L70.2179 88.4453L73.6171 87.1209C74.6767 87.5057 75.8004 87.7138 76.8855 87.5881C80.5579 87.1625 83.2145 83.8096 82.7889 80.1371C82.5858 78.3843 81.6412 76.802 80.2442 75.6951ZM76.7597 86.503C75.7582 86.6191 74.7276 86.4847 73.8349 86.0807L73.6583 86.0165L71.6393 86.8426L71.9915 84.7717L71.7955 84.5407C71.1049 83.6903 70.7384 82.7177 70.6223 81.7161C70.2742 78.7114 72.488 75.9172 75.4927 75.569C76.9951 75.395 78.3983 75.8245 79.5994 76.7003C80.8101 77.6596 81.4657 78.937 81.6398 80.4394C81.9783 83.3607 79.848 86.1451 76.7597 86.503ZM79.2809 81.9816C79.1043 81.9174 78.2213 81.5968 78.0544 81.6162C77.8778 81.552 77.7943 81.5617 77.7301 81.7383C77.666 81.9149 77.3709 82.2875 77.3068 82.4641C77.233 82.5572 77.1495 82.5669 76.9825 82.5862C76.8059 82.5221 76.2858 82.4132 75.5504 81.9063C75.0012 81.547 74.5997 81.0015 74.4969 80.8442C74.3941 80.6869 74.4679 80.5938 74.5416 80.5007C74.6154 80.4075 74.6892 80.3144 74.763 80.2213C74.8368 80.1281 74.8272 80.0447 74.9009 79.9515C74.9747 79.8584 74.8816 79.7846 74.8719 79.7011C74.8623 79.6177 74.4317 78.8217 74.2261 78.5072C74.1136 78.2664 73.9466 78.2858 73.8632 78.2955C73.7797 78.3051 73.6962 78.3148 73.5293 78.3342C73.4458 78.3438 73.2789 78.3632 73.1313 78.5494C72.9837 78.7357 72.6148 79.2014 72.7115 80.0361C72.8082 80.8707 73.4795 81.5542 73.5823 81.7115C73.6755 81.7852 74.9636 83.4123 76.7103 83.8866C78.1969 84.3064 78.428 84.1105 78.7618 84.0718C79.0957 84.0331 79.7151 83.5384 79.7598 83.1948C79.8784 82.7582 79.8397 82.4243 79.7563 82.434C79.6244 82.0263 79.4575 82.0457 79.2809 81.9816Z" fill="white"/>
<path d="M106.168 74.4817L108.962 74.158L109.245 76.6025L106.451 76.9263L106.168 74.4817ZM106.973 77.9187L108.964 77.688L110.265 86.394L107.698 86.6915L106.973 77.9187ZM117.54 82.6754C113.629 83.1286 111.354 81.2069 110.872 77.0511L110.868 77.0161C110.387 72.8691 112.162 70.4692 116.056 70.018C119.548 69.6133 121.657 71.0146 122.237 74.1062L119.711 74.8324C119.37 72.5803 118.251 71.6305 116.269 71.8601C114.069 72.1151 113.162 73.6005 113.495 76.4729L113.555 76.988C113.885 79.8429 115.117 81.0804 117.335 80.8235C119.299 80.5958 120.197 79.4123 120.067 77.1446L122.725 77.3321C122.794 80.4474 121.024 82.2717 117.54 82.6754ZM127.311 81.322L124.77 81.6164L123.354 69.3935L125.894 69.0991L126.222 71.9278C126.322 72.7921 126.275 73.532 126.048 74.5492L126.24 74.5978C126.798 72.7724 127.993 71.7846 129.914 71.562C132 71.3202 133.253 72.2014 133.475 74.1222L134.217 80.5217L131.676 80.8161L131.005 75.0277C130.868 73.8403 130.203 73.298 129.007 73.4366C127.392 73.6238 126.578 75.001 126.817 77.0614L127.311 81.322ZM138.443 80.2621C136.6 80.4756 135.47 79.7306 135.295 78.2202L135.291 78.1853C135.068 76.2645 136.619 75.2886 139.045 74.5385L141.471 73.7972L141.412 73.2821C141.289 72.2257 140.642 71.8318 139.385 71.9775C137.979 72.1403 137.337 72.8606 137.605 74.2541L135.075 74.335C134.697 72.2199 136.135 70.8057 139.26 70.4435C142.202 70.1026 143.697 70.938 143.938 73.0159L144.425 77.2154C144.499 77.8614 144.632 77.9346 145.568 77.8438L145.446 79.3886C145.241 79.4478 144.982 79.5043 144.729 79.5337C142.729 79.7653 142.295 79.0724 142.431 77.3402L142.251 77.3168C141.872 78.9356 140.485 80.0254 138.443 80.2621ZM139.26 78.4597C140.709 78.2918 141.858 77.1323 141.694 75.718L141.644 75.2902L140.066 75.7916C138.496 76.2921 137.724 76.7354 137.829 77.6434L137.833 77.6783C137.906 78.3069 138.404 78.5589 139.26 78.4597ZM150.2 78.8731C148.235 79.1008 147.164 78.3313 146.95 76.4804L146.373 71.5039L144.862 71.6789L144.67 70.0201L146.181 69.8451L145.945 67.8109L148.41 66.8616L148.721 69.5507L151.759 69.1986L151.952 70.8574L148.913 71.2095L149.442 75.7669C149.553 76.7273 150.034 77.0608 150.959 76.9536C151.474 76.8939 152.047 76.7214 152.587 76.4199L152.641 78.1036C152.038 78.4743 151.169 78.7608 150.2 78.8731ZM160.705 74.2405L163.258 74.21C163.097 76.3257 161.524 77.5697 158.669 77.9005C155.422 78.2769 153.416 76.9255 153.071 73.9484L153.012 73.442C152.675 70.5347 154.311 68.6906 157.593 68.3102C160.719 67.948 162.655 69.3075 162.975 72.0664C163.018 72.4418 163.031 72.7853 163.037 73.2182L155.695 74.069C155.956 75.7906 156.993 76.4933 158.539 76.3142C159.857 76.1614 160.617 75.5425 160.705 74.2405ZM157.785 69.8895C156.284 70.0635 155.494 70.9601 155.53 72.4955L160.358 71.936L160.342 71.7963C160.179 70.3907 159.278 69.7165 157.785 69.8895ZM167.55 76.8891C165.708 77.1025 164.578 76.3576 164.403 74.8472L164.399 74.8123C164.176 72.8915 165.727 71.9156 168.152 71.1655L170.579 70.4242L170.52 69.9091C170.397 68.8527 169.75 68.4588 168.493 68.6045C167.087 68.7673 166.445 69.4876 166.713 70.8811L164.183 70.9619C163.805 68.8468 165.243 67.4327 168.368 67.0705C171.31 66.7296 172.805 67.565 173.046 69.6429L173.533 73.8424C173.607 74.4884 173.74 74.5616 174.676 74.4708L174.554 76.0156C174.349 76.0748 174.09 76.1313 173.837 76.1607C171.837 76.3923 171.403 75.6994 171.539 73.9672L171.359 73.9438C170.98 75.5626 169.593 76.6523 167.55 76.8891ZM168.368 75.0867C169.817 74.9188 170.966 73.7593 170.802 72.345L170.752 71.9172L169.174 72.4186C167.604 72.9191 166.832 73.3624 166.937 74.2704L166.941 74.3053C167.014 74.9339 167.512 75.1859 168.368 75.0867ZM181.083 75.0909L178.542 75.3853L181.386 62.6687L184.503 62.3075L190.198 74.0347L187.491 74.3483L186.415 72.0841L181.613 72.6406L181.083 75.0909ZM182.528 67.6328L181.867 70.9389L185.787 70.4846L184.395 67.4076C183.967 66.4574 183.624 65.6389 183.197 64.547L183.022 64.5673C182.873 65.7259 182.736 66.6001 182.528 67.6328ZM193.734 73.625L191.193 73.9194L189.777 61.6965L192.317 61.4021L192.645 64.2308C192.745 65.0951 192.698 65.8349 192.471 66.8522L192.662 66.9008C193.221 65.0754 194.416 64.0875 196.336 63.865C198.423 63.6232 199.675 64.5044 199.898 66.4251L200.639 72.8247L198.099 73.1191L197.428 67.3307C197.291 66.1433 196.626 65.601 195.43 65.7396C193.815 65.9267 193.001 67.304 193.24 69.3644L193.734 73.625ZM207.16 72.2903C203.974 72.6595 201.919 71.2696 201.563 68.1964L201.535 67.952C201.179 64.8788 202.861 63.0558 206.048 62.6866C209.217 62.3193 211.28 63.7082 211.636 66.7814L211.664 67.0259C212.021 70.0991 210.33 71.923 207.16 72.2903ZM206.974 70.6838C208.511 70.5058 209.312 69.4751 209.078 67.4583L209.019 66.9519C208.785 64.9352 207.77 64.1149 206.234 64.293C204.688 64.4721 203.888 65.5027 204.121 67.5195L204.18 68.0259C204.414 70.0427 205.429 70.8629 206.974 70.6838ZM216.206 71.0208L213.666 71.3152L212.603 62.1481L215.153 61.8527C215.243 62.4792 215.204 62.9793 214.935 64.2491L215.11 64.3085C215.832 62.2959 216.709 61.5396 218.743 61.1447L219.284 63.2231C216.078 63.7274 215.446 64.4641 215.764 67.2056L216.206 71.0208ZM223.549 70.4C221.707 70.6135 220.576 69.8685 220.401 68.3581L220.397 68.3232C220.175 66.4025 221.725 65.4265 224.151 64.6765L226.578 63.9352L226.518 63.4201C226.396 62.3636 225.748 61.9697 224.491 62.1154C223.085 62.2783 222.443 62.9986 222.711 64.3921L220.181 64.4729C219.803 62.3578 221.241 60.9437 224.366 60.5815C227.309 60.2405 228.803 61.076 229.044 63.1539L229.531 67.3533C229.606 67.9994 229.738 68.0725 230.674 67.9817L230.552 69.5265C230.347 69.5857 230.088 69.6423 229.835 69.6716C227.836 69.9033 227.401 69.2104 227.537 67.4782L227.357 67.4548C226.978 69.0736 225.592 70.1633 223.549 70.4ZM224.366 68.5977C225.816 68.4297 226.964 67.2703 226.8 65.8559L226.751 65.4281L225.172 65.9296C223.602 66.43 222.83 66.8733 222.936 67.7813L222.94 67.8163C223.013 68.4449 223.511 68.6968 224.366 68.5977ZM233.901 65.4401L231.902 65.6717L230.601 56.9658L233.177 56.6673L233.901 65.4401ZM234.698 68.8781L231.904 69.2018L231.621 66.7572L234.414 66.4335L234.698 68.8781Z" fill="white"/>
<g clip-path="url(#clip0_474_1086)">
<g filter="url(#filter1_d_474_1086)">
<path d="M229.623 94.7397C229.159 94.2907 228.523 93.3371 227.488 92.1828C226.898 91.5515 225.504 90.3907 225.042 89.7556C224.721 89.3755 224.572 88.8781 224.634 88.3838C224.725 87.4476 225.499 86.7256 226.439 86.6985C227.176 86.7409 227.883 86.9986 228.474 87.4396C228.884 87.7292 229.27 88.0524 229.626 88.4059C229.89 88.6545 229.962 88.7586 230.26 89.0453C230.558 89.3319 230.772 89.6304 230.578 89.1718C230.381 88.4849 230.046 87.3314 229.659 86.314C229.363 85.541 229.304 85.4208 229.05 84.842C228.796 84.2631 228.627 83.7725 228.347 83.1115C228.085 82.4604 227.858 81.7959 227.665 81.1209C227.364 80.2653 227.363 79.3327 227.662 78.4765C228.087 77.9466 228.788 77.7233 229.441 77.9101C230.123 78.2786 230.673 78.8502 231.016 79.5455C231.511 80.391 231.889 81.2991 232.142 82.2453C232.565 83.6151 233.289 85.5998 233.362 86.0183C233.289 85.4997 233.036 84.4204 233.065 83.916C233.09 83.3908 233.385 82.9161 233.845 82.6618C234.244 82.4746 234.682 82.3833 235.122 82.3951C235.57 82.4244 235.99 82.6198 236.301 82.943C236.741 83.7147 237.044 84.557 237.197 85.4324C237.125 84.657 237.149 83.8759 237.268 83.1063C237.455 82.7432 237.763 82.4568 238.139 82.2967C238.591 82.1463 239.066 82.0791 239.541 82.0982C239.939 82.1714 240.305 82.3638 240.591 82.6499C240.993 83.3512 241.284 84.1106 241.453 84.901C241.481 85.0973 241.474 84.3406 241.713 83.8064C241.806 83.308 242.157 82.897 242.635 82.7283C243.113 82.5595 243.645 82.6586 244.03 82.9882C244.415 83.3178 244.596 83.8278 244.503 84.3262C244.632 85.2372 244.626 85.1952 244.713 85.8118C244.8 86.4285 244.878 86.9751 244.951 87.4936C245.016 88.321 245.019 89.1521 244.96 89.9799C244.817 90.7252 244.573 91.4475 244.235 92.127C243.662 92.9801 243.22 93.915 242.926 94.8999C242.886 95.3743 242.906 95.8518 242.985 96.3213C243.045 96.7569 243.163 97.1825 243.336 97.5869C242.771 97.7286 242.193 97.8104 241.612 97.831C241.053 97.8243 240.226 96.8264 239.996 96.5159C239.88 96.348 239.679 96.26 239.478 96.2886C239.276 96.3172 239.107 96.4574 239.043 96.6508C238.81 97.2271 238.26 98.2914 237.792 98.4149C236.868 98.66 234.918 98.8218 233.391 99.0382C233.391 99.0382 233.445 97.6009 232.798 97.1777C232.152 96.7546 231.48 96.2493 230.99 95.9184L229.623 94.7397Z" fill="white"/>
<path fill-rule="evenodd" clip-rule="evenodd" d="M229.623 94.7397C229.159 94.2907 228.523 93.3371 227.488 92.1828C226.898 91.5515 225.504 90.3907 225.042 89.7556C224.721 89.3755 224.572 88.8781 224.634 88.3838C224.725 87.4476 225.499 86.7256 226.439 86.6985C227.176 86.7409 227.883 86.9986 228.474 87.4396C228.884 87.7292 229.27 88.0524 229.626 88.4059C229.89 88.6545 229.962 88.7586 230.26 89.0453C230.558 89.3319 230.772 89.6304 230.578 89.1718C230.381 88.4849 230.046 87.3314 229.659 86.314C229.363 85.541 229.304 85.4208 229.05 84.842C228.796 84.2631 228.627 83.7725 228.347 83.1115C228.085 82.4604 227.858 81.7959 227.665 81.1209C227.364 80.2653 227.363 79.3327 227.662 78.4765C228.087 77.9466 228.788 77.7233 229.441 77.9101C230.123 78.2786 230.673 78.8502 231.016 79.5455C231.511 80.391 231.889 81.2991 232.142 82.2453C232.565 83.6151 233.289 85.5998 233.362 86.0183C233.289 85.4997 233.036 84.4204 233.065 83.916C233.09 83.3908 233.385 82.9161 233.845 82.6618C234.244 82.4746 234.682 82.3833 235.122 82.3951C235.57 82.4244 235.99 82.6198 236.301 82.943C236.741 83.7147 237.044 84.557 237.197 85.4324C237.125 84.657 237.149 83.8759 237.268 83.1063C237.455 82.7432 237.763 82.4568 238.139 82.2967C238.591 82.1463 239.066 82.0791 239.541 82.0982C239.939 82.1714 240.305 82.3638 240.591 82.6499C240.993 83.3512 241.284 84.1106 241.453 84.901C241.481 85.0973 241.474 84.3406 241.713 83.8064C241.806 83.308 242.157 82.897 242.635 82.7283C243.113 82.5595 243.645 82.6586 244.03 82.9882C244.415 83.3178 244.596 83.8278 244.503 84.3262C244.632 85.2372 244.626 85.1952 244.713 85.8118C244.8 86.4285 244.878 86.9751 244.951 87.4936C245.016 88.321 245.019 89.1521 244.96 89.9799C244.817 90.7252 244.573 91.4475 244.235 92.127C243.662 92.9801 243.22 93.915 242.926 94.8999C242.886 95.3743 242.906 95.8518 242.985 96.3213C243.045 96.7569 243.163 97.1825 243.336 97.5869C242.771 97.7286 242.193 97.8104 241.612 97.831C241.053 97.8243 240.226 96.8264 239.996 96.5159C239.88 96.348 239.679 96.26 239.478 96.2886C239.276 96.3172 239.107 96.4574 239.043 96.6508C238.81 97.2271 238.26 98.2914 237.792 98.4149C236.868 98.66 234.918 98.8218 233.391 99.0382C233.391 99.0382 233.445 97.6009 232.798 97.1777C232.152 96.7546 231.48 96.2493 230.99 95.9184L229.623 94.7397Z" stroke="#0A090B" stroke-width="1.06163" stroke-linecap="round" stroke-linejoin="round"/>
<path d="M241.616 93.8216L240.931 88.9839C240.89 88.6943 240.621 88.4929 240.331 88.534C240.04 88.5751 239.838 88.8431 239.879 89.1327L240.565 93.9704C240.606 94.26 240.874 94.4614 241.164 94.4203C241.455 94.3792 241.657 94.1112 241.616 93.8216Z" fill="#0A090B"/>
<path d="M238.841 94.2123L238.127 89.3761C238.085 89.0874 237.815 88.8881 237.525 88.9309C237.235 88.9737 237.034 89.2423 237.077 89.531L237.79 94.3672C237.833 94.6559 238.103 94.8552 238.393 94.8124C238.683 94.7696 238.883 94.501 238.841 94.2123Z" fill="#0A090B"/>
<path d="M234.274 89.9335L234.987 94.7597C235.03 95.0511 235.299 95.2527 235.59 95.2099C235.88 95.1671 236.08 94.8961 236.037 94.6047L235.325 89.7785C235.282 89.4871 235.012 89.2855 234.722 89.3284C234.432 89.3712 234.231 89.6421 234.274 89.9335Z" fill="#0A090B"/>
</g>
</g>
</g>
<defs>
<filter id="filter0_d_474_1086" x="-1" y="-1" width="295.679" height="159.726" filterUnits="userSpaceOnUse" color-interpolation-filters="sRGB">
<feFlood flood-opacity="0" result="BackgroundImageFix"/>
<feColorMatrix in="SourceAlpha" type="matrix" values="0 0 0 0 0 0 0 0 0 0 0 0 0 0 0 0 0 0 127 0" result="hardAlpha"/>
<feOffset dy="4"/>
<feGaussianBlur stdDeviation="20"/>
<feComposite in2="hardAlpha" operator="out"/>
<feColorMatrix type="matrix" values="0 0 0 0 0 0 0 0 0 0 0 0 0 0 0 0 0 0 0.12 0"/>
<feBlend mode="normal" in2="BackgroundImageFix" result="effect1_dropShadow_474_1086"/>
<feBlend mode="normal" in="SourceGraphic" in2="effect1_dropShadow_474_1086" result="shape"/>
</filter>
<filter id="filter1_d_474_1086" x="222.06" y="75.79" width="25.4796" height="26.8604" filterUnits="userSpaceOnUse" color-interpolation-filters="sRGB">
<feFlood flood-opacity="0" result="BackgroundImageFix"/>
<feColorMatrix in="SourceAlpha" type="matrix" values="0 0 0 0 0 0 0 0 0 0 0 0 0 0 0 0 0 0 127 0" result="hardAlpha"/>
<feOffset dy="1.4155"/>
<feGaussianBlur stdDeviation="0.566201"/>
<feColorMatrix type="matrix" values="0 0 0 0 0 0 0 0 0 0 0 0 0 0 0 0 0 0 0.5 0"/>
<feBlend mode="normal" in2="BackgroundImageFix" result="effect1_dropShadow_474_1086"/>
<feBlend mode="normal" in="SourceGraphic" in2="effect1_dropShadow_474_1086" result="shape"/>
</filter>
<linearGradient id="paint0_linear_474_1086" x1="41.7074" y1="101.089" x2="245.773" y2="68.8651" gradientUnits="userSpaceOnUse">
<stop stop-color="#1B9F4C"/>
<stop offset="1" stop-color="#309355"/>
</linearGradient>
<clipPath id="clip0_474_1086">
<rect width="28.31" height="28.31" fill="white" transform="translate(218 75.9697) rotate(-8.06063)"/>
</clipPath>
</defs>
</svg>
