<svg width="58" height="53" viewBox="0 0 58 53" fill="none" xmlns="http://www.w3.org/2000/svg">
<g clip-path="url(#clip0_595_94)">
<path d="M18.48 3.32373C18.48 3.9385 18.5302 4.5577 18.4557 5.1636C18.4268 5.403 18.1196 5.6099 17.9401 5.83009C17.7637 5.60546 17.4443 5.38527 17.4352 5.15473C17.3834 3.95328 17.3834 2.74739 17.4352 1.54593C17.4458 1.31539 17.7713 1.09815 17.9508 0.875C18.1272 1.10111 18.4253 1.31391 18.4572 1.55775C18.5317 2.13853 18.48 2.73408 18.48 3.32373Z" fill="white" stroke="white" stroke-width="0.5"/>
<path d="M24.4047 7.48287C24.2932 7.39981 24.1174 7.3394 24.0649 7.21103C24.002 7.05548 23.9705 6.76553 24.0505 6.67038C24.8952 5.65251 25.7557 4.65126 26.6424 3.68171C26.7368 3.57902 27.0713 3.63792 27.2038 3.75722C27.3035 3.84633 27.3441 4.24502 27.2628 4.34469C26.4207 5.36558 25.5497 6.35475 24.6827 7.34695C24.6276 7.41189 24.528 7.42548 24.4047 7.48287Z" fill="white" stroke="white" stroke-width="0.5"/>
<path d="M21.2505 47.7729C21.1894 47.8916 21.1401 48.1196 21.0348 48.1642C20.875 48.2305 20.6034 48.2597 20.506 48.1488C19.6498 47.1767 18.8104 46.18 17.997 45.1556C17.9061 45.04 17.949 44.6487 18.049 44.49C18.1231 44.373 18.4726 44.3237 18.557 44.4207C19.4445 45.4282 20.3033 46.4696 21.166 47.5064C21.2076 47.5542 21.2128 47.6466 21.2505 47.7729Z" fill="white" stroke="white" stroke-width="0.5"/>
<path d="M4.56658 48.2231C4.45686 48.1257 4.26913 48.0375 4.21625 47.8854C4.16072 47.7302 4.17262 47.4443 4.26384 47.3347C5.08349 46.3506 5.91636 45.3786 6.77963 44.4461C6.89333 44.3229 7.24498 44.3594 7.40494 44.472C7.49881 44.5389 7.51996 45.0029 7.42213 45.1215C6.59323 46.13 5.72995 47.1005 4.87065 48.077C4.81248 48.1425 4.712 48.1546 4.56658 48.2231Z" fill="white" stroke="white" stroke-width="0.5"/>
<path d="M12.9897 49.0668C12.9897 49.6098 12.9858 50.1544 12.9913 50.6975C12.9952 51.0907 12.9843 51.5106 12.7253 51.527C12.4656 51.5433 12.4398 51.1367 12.4414 50.7346C12.4461 49.6232 12.4453 48.5118 12.4414 47.4004C12.4398 47.0072 12.4484 46.5784 12.7066 46.5724C12.9944 46.565 12.9928 47.0265 12.9905 47.439C12.9866 47.9806 12.9897 48.5237 12.9897 49.0668Z" fill="white" stroke="white" stroke-width="0.5"/>
<path d="M13.5422 11.3517C12.9343 11.6715 12.3823 12.0324 11.8905 12.437C11.9421 12.3753 12.411 11.8507 13.5236 11.3359C13.5293 11.3408 13.5365 11.3468 13.5422 11.3517Z" fill="white" stroke="white" stroke-width="0.5"/>
<path d="M15.7447 10.2354C15.642 10.2354 15.5419 10.2354 15.4392 10.2354C15.3549 10.2354 15.2732 10.2354 15.1942 10.2354C15.3733 10.2354 15.5551 10.2354 15.7447 10.2354Z" fill="white" stroke="white" stroke-width="0.5"/>
<path d="M57.5509 31.0462C57.3151 29.5946 56.3218 28.4991 54.8957 28.3714C54.1743 28.3061 53.4252 28.5701 52.6427 28.6921C50.7505 26.7537 48.7445 24.7005 46.7399 22.6472C46.873 22.1009 47.1422 21.4722 47.1491 20.8408C47.1574 20.2306 46.8952 19.6162 46.7163 18.857C47.6943 17.8581 48.7764 16.7314 49.8945 15.643C50.0027 15.538 50.3537 15.6104 50.5507 15.6969C51.7188 16.2092 52.8245 16.1155 53.8122 15.3053C54.7736 14.5177 55.1648 13.4521 54.9012 12.209C54.6265 10.9149 53.8247 10.0791 52.5595 9.77831C51.347 9.49025 50.3024 9.87196 49.5158 10.8425C48.7084 11.8401 48.549 12.998 49.1121 14.1573C49.3563 14.6582 49.2328 14.898 48.8998 15.2258C47.9066 16.212 46.9368 17.2252 45.9241 18.2625C44.7755 17.5516 43.6212 17.4465 42.4407 18.1404C42.3491 18.1944 42.098 18.0794 41.9898 17.9716C41.0132 16.9967 40.0684 15.9892 39.0793 15.0272C38.7339 14.6923 38.9447 14.4553 39.0765 14.163C39.8021 12.534 39.0959 10.6566 37.4978 9.95285C35.9038 9.25044 34.0684 10.0224 33.4164 11.6684C32.9406 12.8703 33.2236 14.2283 34.1378 15.1265C35.0465 16.019 36.406 16.2915 37.5394 15.7012C38.0166 15.4529 38.2608 15.555 38.591 15.9069C39.5524 16.9272 40.5456 17.9162 41.5597 18.9507C40.8772 20.1256 40.7635 21.3076 41.4557 22.5109C41.507 22.6003 41.4349 22.8331 41.3475 22.9253C40.1974 24.1201 39.0349 25.3007 37.8696 26.4927C34.8856 24.3642 31.8113 24.1428 28.554 25.8626C28.4264 23.7483 27.2888 22.6514 25.409 22.4698C25.7031 21.3389 26.1263 20.2476 26.2567 19.1195C26.9004 13.5713 22.3251 9.15395 17.1811 9.75135C17.1769 9.75135 17.1742 9.75277 17.17 9.75277C16.6567 9.82798 16.192 9.92731 15.7702 10.0422C15.7564 10.0465 15.7411 10.0508 15.7272 10.055C15.6731 10.0706 15.6204 10.0876 15.5663 10.1047C15.5219 10.1189 15.4789 10.1316 15.4373 10.1416C14.7922 10.3431 14.2623 10.5814 13.8308 10.8227C13.8364 10.8283 13.8433 10.8354 13.8488 10.8411C13.2606 11.2157 12.7265 11.6386 12.2507 12.1125C12.2465 12.1168 12.2452 12.1196 12.2452 12.1196C11.0327 13.33 10.2114 14.8668 9.90486 16.7427C9.47619 19.365 10.1684 21.7007 11.7624 23.6759C10.0991 25.3745 8.45654 27.0532 6.75851 28.7872C4.64569 28.0947 3.40685 28.3544 2.49956 29.7606C1.72407 30.9611 1.82534 32.5021 2.74927 33.572C3.77309 34.7583 5.19366 34.947 6.78348 34.1496C7.93631 35.3316 9.07249 36.4966 10.2336 37.6857C9.32359 39.4325 9.72174 41.114 11.2338 42.1314C12.4852 42.9743 14.1305 42.7146 15.146 41.5766C16.1379 40.4627 16.2225 38.8167 15.3499 37.5935C14.3746 36.227 12.8722 35.9616 10.9966 36.8755C9.93122 35.7772 8.88382 34.7101 7.85862 33.6217C7.75042 33.5082 7.68244 33.2187 7.74625 33.0924C8.35527 31.9132 8.24568 30.7738 7.64498 29.7138C9.32082 27.9968 10.9661 26.311 12.6253 24.6096C15.6246 27.0007 18.8708 27.3001 22.3029 25.5008C22.5554 27.6718 23.4571 28.6169 25.5603 28.8893C23.7679 32.6327 24.0107 36.1887 26.9267 39.1686C29.8594 42.1683 33.3471 42.3698 37.0067 40.5422C37.2203 42.4706 38.0694 43.5745 39.6439 43.803C40.0976 43.8683 40.5789 43.725 41.0562 43.6498L41.0617 43.6483C41.7484 43.4937 42.2118 43.1361 42.5239 42.7487L42.5211 42.7459C42.8111 42.3258 43.0261 41.8803 43.1371 41.412C43.1371 41.4077 43.1385 41.4035 43.1385 41.4035C43.1399 41.3992 43.1399 41.3978 43.1399 41.3978C43.2897 40.755 43.2411 40.0739 42.911 39.3644C42.3366 38.1299 41.3031 37.5991 39.9505 37.5027C41.7789 33.7409 41.3419 30.3098 38.6076 27.134C39.7521 25.969 40.8925 24.7984 42.0508 23.6476C42.1466 23.5511 42.4018 23.5014 42.5128 23.5624C43.6601 24.2038 44.7727 24.1102 45.938 23.3865C46.5859 24.0647 47.224 24.7444 47.8733 25.4128C49.1135 26.6871 50.3509 27.9642 51.6064 29.2214C51.8769 29.491 51.938 29.6868 51.7535 30.06C51.1126 31.3655 51.3692 32.7987 52.3611 33.7636C53.3169 34.6945 54.7209 34.9002 55.8945 34.2815C57.0695 33.6614 57.7576 32.3162 57.5509 31.0462ZM51.8742 10.6893C53.0299 10.6822 53.9925 11.6542 54.0009 12.8348C54.0092 14.0225 53.0686 14.9931 51.9019 15.0002C50.7297 15.0087 49.7877 14.058 49.7808 12.8618C49.7752 11.6684 50.713 10.6964 51.8742 10.6893ZM36.2492 15.0002C35.0798 14.9846 34.1503 14.0112 34.1656 12.8206C34.1794 11.6386 35.1477 10.6751 36.3047 10.6893C37.4674 10.7035 38.3981 11.684 38.3843 12.876C38.369 14.0722 37.4201 15.0158 36.2492 15.0002ZM12.8888 37.3054C14.0514 37.321 15.0017 38.3101 14.9823 39.4864C14.9628 40.6628 13.9834 41.6348 12.8334 41.6206C11.6833 41.605 10.7206 40.5961 10.74 39.4297C10.7594 38.2448 11.7263 37.2898 12.8888 37.3054ZM5.07158 33.6628C3.92153 33.66 2.95182 32.6667 2.95459 31.4946C2.95875 30.314 3.92291 29.3306 5.07574 29.3321C6.22996 29.3335 7.19134 30.3183 7.18996 31.5003C7.18857 32.6823 6.22441 33.6657 5.07158 33.6628ZM18.0953 25.6384C14.0361 25.654 10.7539 22.3251 10.7442 18.183C10.7358 14.0608 14.0278 10.6921 18.0676 10.6893C22.0782 10.6879 25.3425 14.0026 25.3827 18.1191C25.4243 22.2428 22.1489 25.6214 18.0953 25.6384ZM25.459 27.845C24.3075 27.8662 23.3406 26.8985 23.3281 25.7122C23.3156 24.5231 24.2437 23.534 25.3966 23.5113C26.548 23.4886 27.5135 24.4536 27.5274 25.6427C27.5427 26.8261 26.6049 27.8237 25.459 27.845ZM40.1267 38.5399C41.2795 38.5414 42.2256 39.5205 42.2256 40.7096C42.227 41.9016 41.2809 42.8778 40.1253 42.8778C38.9683 42.8778 38.0264 41.9044 38.0264 40.7082C38.0277 39.5162 38.9739 38.5371 40.1267 38.5399ZM40.0837 33.2059C40.0892 37.3253 36.7764 40.6897 32.7353 40.6699C28.6789 40.6486 25.4201 37.2955 25.434 33.1591C25.4479 29.0511 28.7774 25.698 32.8157 25.7236C36.8208 25.7491 40.0781 29.1022 40.0837 33.2059ZM44.0652 23.0033C42.9221 22.9906 41.9468 21.9788 41.9593 20.8152C41.9718 19.646 42.9595 18.6527 44.0985 18.6626C45.2388 18.674 46.2168 19.6886 46.2044 20.8493C46.1933 22.0157 45.2 23.0147 44.0652 23.0033ZM54.4906 33.6472C53.3502 33.6487 52.3667 32.6426 52.3667 31.4762C52.3653 30.3098 53.3461 29.3051 54.4878 29.3051C55.6282 29.3037 56.6131 30.3098 56.6131 31.4748C56.6131 32.6398 55.6295 33.6458 54.4906 33.6472Z" fill="white" stroke="white" stroke-width="0.5"/>
<path d="M43.2731 41.6162C43.2582 41.698 43.1479 42.2334 42.725 42.7173L42.7225 42.715C42.9817 42.369 43.1739 42.0019 43.2731 41.6162Z" fill="white" stroke="white" stroke-width="0.5"/>
</g>
<defs>
<clipPath id="clip0_595_94">
<rect width="57" height="52" fill="white" transform="translate(0.980347 0.469727)"/>
</clipPath>
</defs>
</svg>
