<svg width="39" height="54" viewBox="0 0 39 54" fill="none" xmlns="http://www.w3.org/2000/svg">
<g clip-path="url(#clip0_595_106)">
<mask id="mask0_595_106" style="mask-type:luminance" maskUnits="userSpaceOnUse" x="0" y="1" width="38" height="53">
<path d="M37.206 1.72754H0.159912V53.592H37.206V1.72754Z" fill="white"/>
</mask>
<g mask="url(#mask0_595_106)">
<path d="M35.3857 41.0616L24.75 28.5788V21.1763C24.75 20.2038 23.937 19.4082 22.9298 19.4082H14.4358C13.4347 19.4082 12.6156 20.2038 12.6156 21.1763V28.5788L7.98637 33.9892L1.97988 41.0616C0.0201846 43.3484 -0.386315 46.472 0.912057 49.2185C2.18616 51.9178 4.92852 53.5916 8.06524 53.5916H29.3003C32.3521 53.5916 35.1005 51.9119 36.4596 49.2067C37.7579 46.472 37.3454 43.3484 35.3857 41.0616ZM9.72157 33.8241L13.4286 29.4569C13.6895 29.1622 13.8291 28.7791 13.8291 28.3666V20.5869H23.5365V28.3666C23.5365 28.7791 23.6821 29.1622 23.937 29.4569L26.8856 32.9283L25.4173 32.781C23.1118 32.557 20.8609 33.3291 19.2349 34.9145C17.9972 36.1168 16.353 36.718 14.7027 36.718C13.0525 36.718 11.4022 36.1168 10.1281 34.9204C10.0613 34.8497 9.95819 34.7495 9.91572 34.7259L9.2908 34.3782L9.72157 33.8241ZM35.3796 48.7057L35.3735 48.7175C34.2451 51.0337 32.0002 52.4129 29.361 52.4129H8.12591C5.41996 52.4129 3.17511 51.0278 2.11336 48.7057C1.02127 46.3188 1.34889 43.7491 2.98703 41.8396L8.69016 35.1561L9.34541 35.7867C10.8137 37.2189 12.6824 37.9733 14.7391 37.9733C16.8202 37.9733 18.7374 37.2012 20.1268 35.7985C22.6143 33.3821 26.6975 33.3821 29.2397 35.7809C29.2639 35.7985 29.3246 35.8221 29.3913 35.8575L29.5066 35.9105L34.5606 41.8396C36.1319 43.8316 36.4353 46.3954 35.3796 48.7057Z" fill="white" stroke="white" stroke-width="0.5"/>
<path d="M30.8165 1.72754C25.8718 1.72754 21.3275 4.5742 19.2343 8.98857L18.6822 10.1496L18.1301 8.98857C16.043 4.5742 11.4926 1.72754 6.54788 1.72754C6.21418 1.72754 5.94116 1.99276 5.94116 2.31691C5.94116 9.14181 11.6564 14.6936 18.6822 14.6936C25.708 14.6936 31.4232 9.14181 31.4232 2.31691C31.4232 1.99276 31.1502 1.72754 30.8165 1.72754ZM17.3353 13.4501C12.0205 12.8194 7.85838 8.78229 7.22133 3.62531L7.13032 2.88271L7.89479 2.97111C13.2096 3.58995 17.3717 7.63302 18.0088 12.7959L18.1058 13.5444L17.3353 13.4501ZM30.1431 3.62531C29.4999 8.78819 25.3379 12.8312 20.0291 13.4501L19.2647 13.5385L19.3557 12.7959C19.9927 7.63302 24.1548 3.58995 29.4696 2.97111L30.2401 2.87681L30.1431 3.62531Z" fill="white" stroke="white" stroke-width="0.5"/>
</g>
</g>
<defs>
<clipPath id="clip0_595_106">
<rect width="38" height="53" fill="white" transform="translate(0.159912 0.969727)"/>
</clipPath>
</defs>
</svg>
