<svg width="1212" height="1024" viewBox="0 0 1212 1024" fill="none" xmlns="http://www.w3.org/2000/svg">
<g style="mix-blend-mode:saturation" opacity="0.16">
<path d="M893.25 814.25V176.75C893.25 0.701721 750.548 -142 574.5 -142V176.75C574.5 0.701721 431.798 -142 255.75 -142H-63V495.5H255.75V176.75C255.75 352.798 398.452 495.5 574.5 495.5H255.75V1133H574.5C750.548 1133 893.25 990.298 893.25 814.25V1133C1069.3 1133 1212 990.298 1212 814.25V495.5C1035.95 495.5 893.25 638.202 893.25 814.25ZM574.5 814.25V176.75C574.5 352.798 717.202 495.5 893.25 495.5C717.202 495.5 574.5 638.202 574.5 814.25Z" fill="white"/>
</g>
</svg>
