<svg width="127" height="51" viewBox="0 0 127 51" fill="none" xmlns="http://www.w3.org/2000/svg">
<g clip-path="url(#clip0_334_387)">
<path d="M89.8887 19.5609C89.9406 20.6383 89.2851 21.4495 88.4868 22.0337C87.1563 23.0007 85.8778 23.1565 85.8778 23.1565C86.2996 22.9228 86.358 22.475 86.358 22.2868C86.358 22.2349 86.3256 22.1894 86.2802 22.17C85.2807 21.787 84.5732 20.82 84.5732 19.6842C84.5732 18.185 85.8193 16.9714 87.3315 17.0298C88.6945 17.0817 89.8173 18.2045 89.8887 19.5609Z" fill="#EF4752"/>
<path d="M14.129 5.34104C15.135 6.39893 15.6412 7.82027 15.6412 9.61155V19.2559H10.6373V11.0524C10.6373 10.1827 10.4037 9.50122 9.92991 9.00148C9.45613 8.50174 8.82658 8.25511 8.03479 8.25511C7.20405 8.27458 6.52259 8.54717 5.9839 9.07287C5.44522 9.59857 5.1337 10.2995 5.03634 11.1627V19.2494H0V3.95215H5.03634V6.43787C5.58152 5.54873 6.28245 4.88024 7.14564 4.43242C8.00234 3.97811 8.98884 3.75096 10.0986 3.75096C11.7796 3.75096 13.1231 4.27666 14.129 5.33455V5.34104ZM34.1316 12.0454C34.1316 9.48175 33.4631 7.46332 32.1262 5.99654C30.7892 4.52328 28.8746 3.7899 26.3824 3.7899C24.7988 3.7899 23.4034 4.11441 22.1963 4.76342C20.9891 5.41243 20.0545 6.34052 19.399 7.53471C18.737 8.73538 18.406 10.1113 18.406 11.6754C18.406 13.2395 18.7305 14.5765 19.3795 15.7512C20.0286 16.9194 20.9696 17.8281 22.1963 18.4641C23.4229 19.1066 24.8572 19.4246 26.4927 19.4246C27.9076 19.4246 29.1732 19.191 30.2959 18.7302C31.4187 18.2694 32.3728 17.5944 33.1646 16.7053L30.5361 14.0768C30.0299 14.583 29.4652 14.9724 28.8551 15.2385C28.2451 15.5046 27.609 15.6344 26.947 15.6344C26.0774 15.6344 25.344 15.4008 24.7404 14.94C24.1368 14.4792 23.715 13.8107 23.4683 12.9475H34.0992C34.1186 12.7398 34.1251 12.4412 34.1251 12.0389L34.1316 12.0454ZM23.358 10.2606C23.5267 9.35843 23.8837 8.63803 24.4159 8.11233C24.9546 7.58663 25.6166 7.32053 26.4084 7.32053C27.2586 7.32053 27.94 7.58663 28.4592 8.12531C28.9785 8.66399 29.2381 9.37142 29.2381 10.2606H23.358ZM47.5208 18.4641C46.9561 18.7821 46.3071 19.0352 45.5672 19.2169C44.8339 19.3987 44.0875 19.483 43.3346 19.483C41.8289 19.483 40.6088 19.0482 39.6742 18.185C38.7396 17.3153 38.2723 16.1212 38.2723 14.596V8.03445H36.1501V4.69852H38.2723V0.447479H43.2762V4.69203H47.2352V8.02796H43.2762V13.7977C43.2762 14.875 43.7175 15.4072 44.6067 15.4072C45.1519 15.4072 45.8009 15.2385 46.5602 14.901L47.5208 18.4641Z" fill="white"/>
<path d="M8.11887 27.8099C7.21026 27.8099 6.47687 28.1539 5.91223 28.8418C5.34759 29.5298 5.06202 30.4189 5.06202 31.5157C5.06202 32.6126 5.34759 33.5212 5.91223 34.2027C6.47687 34.8841 7.21026 35.2216 8.11887 35.2216C9.51425 35.2216 10.5137 34.644 11.1173 33.4952L14.8232 35.6175C14.2196 36.7857 13.3175 37.6944 12.1103 38.3304C10.9031 38.9729 9.48829 39.2909 7.87225 39.2909C6.25621 39.2909 4.93222 38.9729 3.74452 38.3304C2.55683 37.6879 1.63523 36.7857 0.986216 35.6175C0.337202 34.4493 0.0126953 33.0928 0.0126953 31.5417C0.0126953 29.9906 0.343692 28.5952 1.00569 27.401C1.66768 26.2068 2.59577 25.2787 3.78995 24.6297C4.98414 23.9807 6.36654 23.6562 7.93715 23.6562C9.50776 23.6562 10.8188 23.9742 12.0065 24.6038C13.1942 25.2333 14.1158 26.1289 14.7778 27.2777L11.1303 29.4C10.4164 28.3421 9.4169 27.8164 8.13185 27.8164L8.11887 27.8099Z" fill="white"/>
<path d="M45.7295 25.0775C44.5613 24.104 42.9193 23.6237 40.81 23.6237C39.5834 23.6237 38.4022 23.76 37.2599 24.0326C36.1176 24.3052 34.9234 24.7271 33.6838 25.2917L35.0662 28.6861C35.8775 28.2902 36.6823 27.9916 37.487 27.7839C38.2853 27.5762 39.0122 27.4724 39.6483 27.4724C40.5893 27.4724 41.3097 27.6736 41.8095 28.0695C42.3092 28.4654 42.5558 29.03 42.5558 29.7634V29.9322H38.5709C36.6888 29.9516 35.2415 30.367 34.229 31.1783C33.223 31.9895 32.7168 33.1188 32.7168 34.5726C32.7168 36.0264 33.1841 37.1622 34.1187 38.0383C35.0532 38.9145 36.3253 39.3558 37.9478 39.3558C40.0052 39.3558 41.5369 38.7068 42.5558 37.4023V39.1287H47.5078V29.1728C47.4883 27.4205 46.8977 26.0575 45.723 25.084L45.7295 25.0775ZM42.5623 33.9431C42.4131 34.5272 42.0561 35.001 41.485 35.3709C40.9138 35.7408 40.2583 35.9226 39.5055 35.9226C38.863 35.9226 38.3632 35.7668 37.9933 35.4553C37.6233 35.1437 37.4416 34.7219 37.4416 34.1962C37.4416 33.1383 38.149 32.6126 39.5639 32.6126H42.5623V33.9431Z" fill="white"/>
<path d="M57.3529 27.8099C56.4443 27.8099 55.7109 28.1539 55.1463 28.8418C54.5816 29.5298 54.2961 30.4189 54.2961 31.5157C54.2961 32.6126 54.5816 33.5212 55.1463 34.2027C55.7109 34.8841 56.4443 35.2216 57.3529 35.2216C58.7483 35.2216 59.7478 34.644 60.3513 33.4952L64.0572 35.6175C63.4536 36.7857 62.5515 37.6944 61.3443 38.3304C60.1372 38.9729 58.7223 39.2909 57.0998 39.2909C55.4773 39.2909 54.1598 38.9729 52.9721 38.3304C51.7844 37.6879 50.8628 36.7857 50.2138 35.6175C49.5647 34.4493 49.2402 33.0928 49.2402 31.5417C49.2402 29.9906 49.5712 28.5952 50.2332 27.401C50.8952 26.2068 51.8233 25.2787 53.0175 24.6297C54.2117 23.9807 55.5941 23.6562 57.1582 23.6562C58.7223 23.6562 60.0398 23.9742 61.234 24.6038C62.4282 25.2333 63.3433 26.1289 64.0053 27.2777L60.3578 29.4C59.6439 28.3421 58.6444 27.8164 57.3594 27.8164L57.3529 27.8099Z" fill="white"/>
<path d="M80.2503 25.2073C81.2563 26.2652 81.7625 27.6866 81.7625 29.4779V39.1222H76.7262V30.9187C76.7262 30.049 76.4926 29.3675 76.0318 28.8678C75.571 28.368 74.9349 28.1214 74.1237 28.1214C73.2021 28.1409 72.4687 28.4654 71.93 29.0949C71.3913 29.7245 71.1252 30.5487 71.1252 31.5677V39.1222H66.0889V18.1396H71.1252V26.3107C71.6704 25.4215 72.3713 24.753 73.2345 24.3052C74.0912 23.8509 75.0777 23.6238 76.1875 23.6238C77.8814 23.6238 79.2379 24.1495 80.2439 25.2073H80.2503Z" fill="white"/>
<path d="M89.7324 23.825H84.7285V39.1222H89.7324V23.825Z" fill="white"/>
<path d="M107.281 25.2073C108.287 26.2652 108.794 27.6866 108.794 29.4778V39.1222H103.79V30.9187C103.79 30.049 103.556 29.3675 103.082 28.8678C102.608 28.368 101.979 28.1214 101.187 28.1214C100.356 28.1409 99.6749 28.4135 99.1362 28.9392C98.5976 29.4649 98.286 30.1658 98.1887 31.029V39.1157H93.1523V23.8184H98.1887V26.3042C98.7339 25.415 99.4348 24.7465 100.298 24.2987C101.155 23.8444 102.141 23.6172 103.251 23.6172C104.932 23.6172 106.275 24.1429 107.281 25.2008V25.2073Z" fill="white"/>
<path d="M121.444 23.8249V25.6941C120.937 25.0321 120.301 24.5324 119.535 24.1819C118.77 23.8314 117.919 23.6562 116.978 23.6562C115.732 23.6562 114.622 23.9612 113.642 24.5583C112.662 25.1619 111.903 26.0121 111.364 27.1025C110.826 28.1993 110.56 29.4584 110.56 30.8927C110.56 32.327 110.839 33.6315 111.397 34.7543C111.955 35.8771 112.727 36.7468 113.714 37.3569C114.7 37.9669 115.83 38.2785 117.095 38.2785C118.977 38.2785 120.431 37.61 121.45 36.273V37.915C121.45 38.8171 121.119 39.5376 120.457 40.0633C119.795 40.589 118.899 40.855 117.77 40.855C116.939 40.855 116.122 40.7252 115.31 40.4592C114.499 40.1931 113.746 39.8296 113.045 39.3558L111.293 42.8345C112.202 43.4381 113.246 43.9184 114.434 44.2753C115.622 44.6323 116.855 44.814 118.14 44.814C119.782 44.814 121.229 44.5285 122.482 43.9508C123.735 43.3732 124.715 42.5555 125.409 41.4911C126.11 40.4267 126.454 39.1871 126.454 37.7722V23.8314H121.45L121.444 23.8249ZM120.593 33.6121C120.029 34.274 119.282 34.605 118.361 34.605C117.439 34.605 116.686 34.274 116.115 33.6121C115.538 32.9501 115.252 32.0934 115.252 31.0355C115.252 29.9776 115.538 29.1144 116.115 28.4459C116.693 27.7774 117.439 27.4399 118.361 27.4399C119.282 27.4399 120.029 27.7709 120.593 28.4329C121.158 29.0949 121.444 29.9581 121.444 31.0355C121.444 32.1128 121.158 32.9501 120.593 33.6121Z" fill="white"/>
<path d="M30.7111 27.3686C30.0102 26.1874 29.0302 25.2787 27.7711 24.6232C26.5055 23.9742 25.0452 23.6497 23.3838 23.6497C21.7223 23.6497 20.262 23.9742 19.0029 24.6232C17.7374 25.2723 16.7638 26.1874 16.0759 27.3686C15.3879 28.5498 15.0439 29.9127 15.0439 31.4574C15.0439 33.002 15.3879 34.3974 16.0759 35.5721C16.7638 36.7533 17.7374 37.6619 19.0029 38.3174C20.2685 38.9664 21.7288 39.2909 23.3838 39.2909C25.0388 39.2909 26.5055 38.9664 27.7711 38.3174C29.0367 37.6684 30.0167 36.7533 30.7111 35.5721C31.4056 34.3909 31.756 33.0215 31.756 31.4574C31.756 29.8932 31.4056 28.5498 30.7111 27.3686ZM25.2594 34.9815C23.2994 36.3963 21.4302 36.63 21.4302 36.63C22.0468 36.286 22.1312 35.6305 22.1377 35.3514C22.1377 35.2735 22.0922 35.2086 22.0208 35.1827C20.5541 34.618 19.5156 33.2032 19.5156 31.5352C19.5156 29.3286 21.3394 27.5568 23.5655 27.6347C25.5645 27.7061 27.2194 29.3545 27.3233 31.3535C27.4012 32.9371 26.4406 34.1313 25.2659 34.9815H25.2594Z" fill="white"/>
<path d="M3.10212 50.3372V49.8244C2.77761 50.1879 2.32331 50.4215 1.67429 50.4215C0.785143 50.4215 0.0517578 49.9088 0.0517578 48.9742V48.9548C0.0517578 47.9228 0.837064 47.449 1.95337 47.449C2.42715 47.449 2.77112 47.5269 3.10861 47.6437V47.5659C3.10861 47.0077 2.76463 46.7027 2.09615 46.7027C1.58343 46.7027 1.22647 46.8 0.791633 46.9558L0.454146 45.9304C0.973357 45.7032 1.48608 45.5539 2.29085 45.5539C3.75113 45.5539 4.40015 46.3133 4.40015 47.5918V50.3307H3.10212V50.3372ZM3.12808 48.4355C2.90093 48.3317 2.60238 48.2603 2.27138 48.2603C1.70025 48.2603 1.34329 48.4875 1.34329 48.9093V48.9288C1.34329 49.2922 1.64184 49.4999 2.07668 49.4999C2.69973 49.4999 3.12808 49.156 3.12808 48.6692V48.4291V48.4355Z" fill="white"/>
<path d="M10.1759 50.3372V49.6687C9.87086 50.0646 9.46847 50.428 8.79349 50.428C7.78103 50.428 7.19043 49.7595 7.19043 48.6757V45.6188H8.5274V48.2538C8.5274 48.8899 8.82594 49.2144 9.33866 49.2144C9.85139 49.2144 10.1759 48.8899 10.1759 48.2538V45.6188H11.5129V50.3437H10.1759V50.3372Z" fill="white"/>
<path d="M15.4396 50.3371V47.7021C15.4396 47.0661 15.141 46.7416 14.6283 46.7416C14.1156 46.7416 13.7911 47.0661 13.7911 47.7021V50.3371H12.4541V45.6123H13.7911V46.2808C14.1026 45.8849 14.4985 45.5215 15.1735 45.5215C16.1859 45.5215 16.7765 46.1899 16.7765 47.2738V50.3306H15.4396V50.3371Z" fill="white"/>
<path d="M21.8455 50.4475C20.4242 50.4475 19.3857 49.3571 19.3857 48.0072V47.9877C19.3857 46.6378 20.4177 45.528 21.865 45.528C22.7541 45.528 23.3123 45.8265 23.7536 46.3198L22.9358 47.2024C22.6373 46.8844 22.3388 46.6832 21.8585 46.6832C21.19 46.6832 20.7097 47.2738 20.7097 47.9682V47.9877C20.7097 48.7081 21.177 49.2922 21.9104 49.2922C22.3582 49.2922 22.6697 49.0975 22.9943 48.7925L23.7796 49.5843C23.3188 50.084 22.7931 50.4475 21.852 50.4475H21.8455Z" fill="white"/>
<path d="M24.4414 50.3372V43.9054H25.7784V50.3372H24.4414Z" fill="white"/>
<path d="M26.8037 45.0931V43.9054H28.2121V45.0931H26.8037ZM26.8362 50.3372V45.6123H28.1731V50.3372H26.8362Z" fill="white"/>
<path d="M31.4061 50.4475C29.9847 50.4475 28.9463 49.3571 28.9463 48.0072V47.9877C28.9463 46.6378 29.9782 45.528 31.4255 45.528C32.3147 45.528 32.8728 45.8265 33.3142 46.3198L32.4964 47.2024C32.1978 46.8844 31.8993 46.6832 31.419 46.6832C30.7505 46.6832 30.2703 47.2738 30.2703 47.9682V47.9877C30.2703 48.7081 30.7376 49.2922 31.471 49.2922C31.9188 49.2922 32.2303 49.0975 32.5548 48.7925L33.3401 49.5843C32.8793 50.084 32.3536 50.4475 31.4125 50.4475H31.4061Z" fill="white"/>
<path d="M39.2973 50.3372V49.6557C38.9728 50.097 38.5249 50.4215 37.824 50.4215C36.7207 50.4215 35.6758 49.5583 35.6758 47.9812V47.9618C35.6758 46.3847 36.7077 45.5215 37.824 45.5215C38.5379 45.5215 38.9793 45.846 39.2973 46.2289V43.9054H40.6342V50.3372H39.2973ZM39.3167 47.9683C39.3167 47.1829 38.7975 46.6637 38.168 46.6637C37.5385 46.6637 37.0127 47.1765 37.0127 47.9683V47.9877C37.0127 48.773 37.5385 49.2922 38.168 49.2922C38.7975 49.2922 39.3167 48.773 39.3167 47.9877V47.9683Z" fill="white"/>
<path d="M45.9569 48.442H42.6664C42.7962 49.0521 43.2246 49.3701 43.8217 49.3701C44.2695 49.3701 44.594 49.2273 44.9639 48.8834L45.7298 49.5648C45.2884 50.11 44.6524 50.4475 43.8022 50.4475C42.3808 50.4475 41.3359 49.4545 41.3359 48.0072V47.9877C41.3359 46.6378 42.2965 45.528 43.6724 45.528C45.2495 45.528 45.9699 46.7546 45.9699 48.0916V48.111C45.9699 48.2408 45.9634 48.3252 45.9504 48.4485L45.9569 48.442ZM43.6724 46.5988C43.1142 46.5988 42.7573 46.9947 42.6469 47.6048H44.6654C44.5875 47.0077 44.2305 46.5988 43.6659 46.5988H43.6724Z" fill="white"/>
<path d="M50.2404 50.4215C49.4226 50.4215 48.8644 50.097 48.8644 49.0002V46.7611H48.2998V45.6123H48.8644V44.4052H50.2014V45.6123H51.3112V46.7611H50.2014V48.7795C50.2014 49.0911 50.3312 49.2403 50.6363 49.2403C50.8829 49.2403 51.1035 49.1819 51.2982 49.0716V50.149C51.0192 50.3177 50.6882 50.4215 50.2404 50.4215Z" fill="white"/>
<path d="M54.9903 50.3372V49.6687C54.6788 50.0646 54.2829 50.428 53.6079 50.428C52.5955 50.428 52.0049 49.7595 52.0049 48.6757V45.6188H53.3419V48.2538C53.3419 48.8899 53.6404 49.2144 54.1531 49.2144C54.6658 49.2144 54.9903 48.8899 54.9903 48.2538V45.6188H56.3273V50.3437H54.9903V50.3372Z" fill="white"/>
<path d="M58.9234 50.428C58.2614 50.428 57.5215 50.2074 56.8984 49.7141L57.4696 48.8315C57.9823 49.2014 58.521 49.3961 58.9623 49.3961C59.3517 49.3961 59.5269 49.2533 59.5269 49.0456V49.0262C59.5269 48.7341 59.0661 48.6367 58.5469 48.481C57.8849 48.2863 57.1386 47.9812 57.1386 47.0596V47.0402C57.1386 46.0796 57.9174 45.541 58.8649 45.541C59.462 45.541 60.1175 45.7421 60.6303 46.0861L60.1175 47.0142C59.6503 46.7416 59.183 46.5729 58.839 46.5729C58.495 46.5729 58.3457 46.7157 58.3457 46.8974V46.9169C58.3457 47.183 58.7936 47.3063 59.3063 47.4815C59.9683 47.7022 60.7341 48.0202 60.7341 48.8834V48.9028C60.7341 49.9542 59.9488 50.428 58.9299 50.428H58.9234Z" fill="white"/>
<path d="M67.7499 48.442H64.4594C64.5892 49.0521 65.0175 49.3701 65.6146 49.3701C66.0624 49.3701 66.387 49.2273 66.7569 48.8834L67.5227 49.5648C67.0814 50.11 66.4454 50.4475 65.5952 50.4475C64.1738 50.4475 63.1289 49.4545 63.1289 48.0072V47.9877C63.1289 46.6378 64.0895 45.528 65.4654 45.528C67.0425 45.528 67.7629 46.7546 67.7629 48.0916V48.111C67.7629 48.2408 67.7564 48.3252 67.7434 48.4485L67.7499 48.442ZM65.4654 46.5988C64.9072 46.5988 64.5502 46.9947 64.4399 47.6048H66.4583C66.3805 47.0077 66.0235 46.5988 65.4589 46.5988H65.4654Z" fill="white"/>
<path d="M74.37 50.3371V47.7021C74.37 47.0661 74.0909 46.7416 73.5847 46.7416C73.0785 46.7416 72.7734 47.0661 72.7734 47.7021V50.3371H71.4365V47.7021C71.4365 47.0661 71.1574 46.7416 70.6512 46.7416C70.1449 46.7416 69.8399 47.0661 69.8399 47.7021V50.3371H68.5029V45.6123H69.8399V46.2808C70.1514 45.8849 70.5538 45.5215 71.2353 45.5215C71.8518 45.5215 72.3191 45.794 72.5658 46.2678C72.9811 45.7811 73.4744 45.5215 74.1169 45.5215C75.1099 45.5215 75.7135 46.1185 75.7135 47.2608V50.3371H74.3765H74.37Z" fill="white"/>
<path d="M78.926 50.4475C77.4657 50.4475 76.3818 49.3636 76.3818 48.0072V47.9877C76.3818 46.6313 77.4722 45.528 78.9454 45.528C80.4187 45.528 81.4896 46.6118 81.4896 47.9682V47.9877C81.4896 49.3442 80.3992 50.4475 78.926 50.4475ZM80.1721 47.9877C80.1721 47.2933 79.6723 46.6832 78.926 46.6832C78.1796 46.6832 77.6993 47.2738 77.6993 47.9682V47.9877C77.6993 48.6822 78.1991 49.2922 78.9454 49.2922C79.6918 49.2922 80.1721 48.7016 80.1721 48.0072V47.9877Z" fill="white"/>
<path d="M84.4305 50.4475C83.0091 50.4475 81.9707 49.3571 81.9707 48.0072V47.9877C81.9707 46.6378 83.0026 45.528 84.4499 45.528C85.3391 45.528 85.8972 45.8265 86.3386 46.3198L85.5208 47.2024C85.2223 46.8844 84.9237 46.6832 84.4434 46.6832C83.775 46.6832 83.2947 47.2738 83.2947 47.9682V47.9877C83.2947 48.7081 83.762 49.2922 84.4954 49.2922C84.9432 49.2922 85.2547 49.0975 85.5792 48.7925L86.3645 49.5843C85.9037 50.084 85.378 50.4475 84.437 50.4475H84.4305Z" fill="white"/>
<path d="M86.9932 45.0931V43.9054H88.4015V45.0931H86.9932ZM87.0256 50.3372V45.6123H88.3626V50.3372H87.0256Z" fill="white"/>
<path d="M91.6799 50.4475C90.2196 50.4475 89.1357 49.3636 89.1357 48.0072V47.9877C89.1357 46.6313 90.2261 45.528 91.6993 45.528C93.1726 45.528 94.2435 46.6118 94.2435 47.9682V47.9877C94.2435 49.3442 93.1531 50.4475 91.6799 50.4475ZM92.926 47.9877C92.926 47.2933 92.4262 46.6832 91.6799 46.6832C90.9335 46.6832 90.4532 47.2738 90.4532 47.9682V47.9877C90.4532 48.6822 90.953 49.2922 91.6993 49.2922C92.4457 49.2922 92.926 48.7016 92.926 48.0072V47.9877Z" fill="white"/>
<path d="M97.9357 50.3371V47.7021C97.9357 47.0661 97.6371 46.7416 97.1244 46.7416C96.6117 46.7416 96.2872 47.0661 96.2872 47.7021V50.3371H94.9502V45.6123H96.2872V46.2808C96.5987 45.8849 96.9946 45.5215 97.6696 45.5215C98.682 45.5215 99.2726 46.1899 99.2726 47.2738V50.3306H97.9357V50.3371Z" fill="white"/>
<path d="M104.569 48.442H101.279C101.409 49.0521 101.837 49.3701 102.434 49.3701C102.882 49.3701 103.206 49.2273 103.576 48.8834L104.342 49.5648C103.901 50.11 103.265 50.4475 102.414 50.4475C100.993 50.4475 99.9482 49.4545 99.9482 48.0072V47.9877C99.9482 46.6378 100.909 45.528 102.285 45.528C103.862 45.528 104.582 46.7546 104.582 48.0916V48.111C104.582 48.2408 104.576 48.3252 104.563 48.4485L104.569 48.442ZM102.285 46.5988C101.727 46.5988 101.37 46.9947 101.259 47.6048H103.278C103.2 47.0077 102.843 46.5988 102.278 46.5988H102.285Z" fill="white"/>
<path d="M106.97 50.428C106.308 50.428 105.568 50.2074 104.945 49.7141L105.516 48.8315C106.029 49.2014 106.568 49.3961 107.009 49.3961C107.399 49.3961 107.574 49.2533 107.574 49.0456V49.0262C107.574 48.7341 107.113 48.6367 106.594 48.481C105.932 48.2863 105.185 47.9812 105.185 47.0596V47.0402C105.185 46.0796 105.964 45.541 106.912 45.541C107.509 45.541 108.164 45.7421 108.677 46.0861L108.164 47.0142C107.697 46.7416 107.23 46.5729 106.886 46.5729C106.542 46.5729 106.393 46.7157 106.393 46.8974V46.9169C106.393 47.183 106.84 47.3063 107.353 47.4815C108.015 47.7022 108.781 48.0202 108.781 48.8834V48.9028C108.781 49.9542 107.996 50.428 106.977 50.428H106.97Z" fill="white"/>
</g>
<defs>
<clipPath id="clip0_334_387">
<rect width="126.447" height="50" fill="white" transform="translate(0 0.447479)"/>
</clipPath>
</defs>
</svg>
